<?xml version="1.0" standalone="no"?>
<!DOCTYPE svg PUBLIC "-//W3C//DTD SVG 1.1//EN" "http://www.w3.org/Graphics/SVG/1.1/DTD/svg11.dtd" >
<svg>
<metadata>
Created by FontForge 20090914 at Sat Sep 11 19:52:28 2021
 By www-data
Copyright (c) 2016 by Typetype. Designer Ivan Gladkikh, technical designer Olexa Volochay. All rights reserved.
</metadata>
<defs>
<font id="TTSquaresCondensed-Bold" horiz-adv-x="585" >
  <font-face 
    font-family="TT Squares Condensed"
    font-weight="700"
    font-stretch="normal"
    units-per-em="1000"
    panose-1="2 0 8 3 4 0 0 2 0 3"
    ascent="800"
    descent="-200"
    x-height="500"
    cap-height="700"
    bbox="-75 -350 1130 955"
    underline-thickness="50"
    underline-position="-150"
    unicode-range="U+000D-U+F6D4"
  />
<missing-glyph horiz-adv-x="0" 
 />
    <glyph glyph-name=".notdef" horiz-adv-x="0" 
 />
    <glyph glyph-name=".null" horiz-adv-x="0" 
 />
    <glyph glyph-name=".null" horiz-adv-x="0" 
 />
    <glyph glyph-name="CR" unicode="&#xd;" horiz-adv-x="0" 
 />
    <glyph glyph-name="space" unicode=" " horiz-adv-x="210" 
 />
    <glyph glyph-name="exclam" unicode="!" horiz-adv-x="300" 
d="M220 700v-310l-25 -170h-90l-25 170v310h140zM215 0h-130v135h130v-135z" />
    <glyph glyph-name="quotedbl" unicode="&#x22;" horiz-adv-x="395" 
d="M170 590l-25 -130h-70l-25 130v110h120v-110zM345 590l-25 -130h-70l-25 130v110h120v-110z" />
    <glyph glyph-name="numbersign" unicode="#" horiz-adv-x="750" 
d="M85 530h125l35 170h140l-35 -170h125l35 170h140l-35 -170h95v-120h-120l-25 -120h100v-120h-125l-35 -170h-140l35 170h-125l-35 -170h-140l35 170h-95v120h120l25 120h-100v120zM325 410l-25 -120h125l25 120h-125z" />
    <glyph glyph-name="dollar" unicode="$" horiz-adv-x="645" 
d="M265 -90v90h-207v120h357l45 40v95l-44 40h-246l-120 110v185l120 110h95v90h120v-90h181v-120h-331l-45 -40v-85l45 -40h245l120 -110v-195l-120 -110h-95v-90h-120z" />
    <glyph glyph-name="percent" unicode="%" horiz-adv-x="815" 
d="M140 470l30 -25h30l30 25v130l-30 25h-30l-30 -25v-130zM35 435v200l85 75h130l85 -75v-200l-85 -75h-130zM655 700l-390 -700h-105l390 700h105zM675 230l-30 25h-30l-30 -25v-130l30 -25h30l30 25v130zM780 265v-200l-85 -75h-130l-85 75v200l85 75h130z" />
    <glyph glyph-name="ampersand" unicode="&#x26;" horiz-adv-x="645" 
d="M410 290h-175l-45 -40v-105l30 -25h190v170zM620 410v-120h-70v-290h-395l-105 95v195l70 65v10l-50 45v195l105 95h315v-120h-250l-30 -25v-105l45 -40h155v70h140v-70h70z" />
    <glyph glyph-name="quotesingle" unicode="'" horiz-adv-x="220" 
d="M170 590l-25 -130h-70l-25 130v110h120v-110z" />
    <glyph glyph-name="parenleft" unicode="(" horiz-adv-x="355" 
d="M255 640l-30 -25v-670l30 -25h70v-120h-135l-105 95v770l105 95h135v-120h-70z" />
    <glyph glyph-name="parenright" unicode=")" horiz-adv-x="355" 
d="M100 -80l30 25v670l-30 25h-70v120h135l105 -95v-770l-105 -95h-135v120h70z" />
    <glyph glyph-name="asterisk" unicode="*" horiz-adv-x="430" 
d="M265 440v-100h-100v100l-75 -50l-50 85l75 50l-75 50l50 85l75 -50v100h100v-100l75 50l50 -85l-75 -50l75 -50l-50 -85z" />
    <glyph glyph-name="plus" unicode="+" horiz-adv-x="570" 
d="M50 290v120h175v190h120v-190h175v-120h-175v-190h-120v190h-175z" />
    <glyph glyph-name="comma" unicode="," horiz-adv-x="240" 
d="M60 -80l45 80h-50v135h130v-135l-75 -115z" />
    <glyph glyph-name="hyphen" unicode="-" horiz-adv-x="480" 
d="M50 290v120h380v-120h-380z" />
    <glyph glyph-name="period" unicode="." horiz-adv-x="240" 
d="M185 0h-130v135h130v-135z" />
    <glyph glyph-name="slash" unicode="/" horiz-adv-x="515" 
d="M515 700l-375 -700h-140l375 700h140z" />
    <glyph glyph-name="zero" unicode="0" horiz-adv-x="710" 
d="M265 590l-55 -50v-380l55 -50h180l55 50v380l-55 50h-180zM200 710h310l130 -120v-480l-130 -120h-310l-130 120v480z" />
    <glyph glyph-name="one" unicode="1" horiz-adv-x="500" 
d="M460 0h-400v120h130v460h-130v120h270v-580h130v-120z" />
    <glyph glyph-name="two" unicode="2" horiz-adv-x="640" 
d="M50 280l130 120h215l55 50v105l-30 25h-350v120h415l105 -95v-205l-130 -120h-215l-55 -50v-110h385v-120h-525v280z" />
    <glyph glyph-name="three" unicode="3" horiz-adv-x="630" 
d="M50 580v120h405l105 -95v-185l-55 -50v-5l70 -65v-205l-105 -95h-430v120h365l30 25v115l-45 40h-220v120h205l45 40v95l-30 25h-340z" />
    <glyph glyph-name="four" unicode="4" horiz-adv-x="645" 
d="M400 0v150h-380v100l365 450h155v-430h80v-120h-80v-150h-140zM400 270v245h-5l-195 -240v-5h200z" />
    <glyph glyph-name="five" unicode="5" horiz-adv-x="645" 
d="M480 0h-405v120h340l45 40v120l-45 40h-330v380h475v-120h-335v-140h255l120 -110v-220z" />
    <glyph glyph-name="six" unicode="6" horiz-adv-x="665" 
d="M190 -10l-120 110v480l130 120h375v-120h-310l-55 -50v-90h290l120 -110v-230l-120 -110h-310zM480 280l-45 40h-225v-170l45 -40h180l45 40v130z" />
    <glyph glyph-name="seven" unicode="7" horiz-adv-x="570" 
d="M25 580v120h520v-100l-270 -600h-145l265 575v5h-370z" />
    <glyph glyph-name="eight" unicode="8" horiz-adv-x="665" 
d="M510 -10h-355l-105 95v210l75 70v5l-60 55v190l105 95h325l105 -95v-190l-60 -55v-5l75 -70v-210zM220 110h225l30 25v125l-45 40h-195l-45 -40v-125zM235 590l-30 -25v-105l45 -40h165l45 40v105l-30 25h-195z" />
    <glyph glyph-name="nine" unicode="9" horiz-adv-x="665" 
d="M475 710l120 -110v-480l-130 -120h-375v120h310l55 50v90h-290l-120 110v230l120 110h310zM185 420l45 -40h225v170l-45 40h-180l-45 -40v-130z" />
    <glyph glyph-name="colon" unicode=":" horiz-adv-x="260" 
d="M195 0h-130v135h130v-135zM195 365h-130v135h130v-135z" />
    <glyph glyph-name="semicolon" unicode=";" horiz-adv-x="260" 
d="M70 -80l45 80h-50v135h130v-135l-75 -115zM195 365h-130v135h130v-135z" />
    <glyph glyph-name="less" unicode="&#x3c;" horiz-adv-x="390" 
d="M265 -10l-235 265l235 265l85 -85l-160 -180l160 -180z" />
    <glyph glyph-name="equal" unicode="=" horiz-adv-x="540" 
d="M65 385v120h410v-120h-410zM65 155v120h410v-120h-410z" />
    <glyph glyph-name="greater" unicode="&#x3e;" horiz-adv-x="390" 
d="M360 255l-235 -265l-85 85l160 180l-160 180l85 85z" />
    <glyph glyph-name="question" unicode="?" horiz-adv-x="565" 
d="M335 395l50 45v95l-50 45h-315v120h380l125 -115v-195l-125 -115h-105v-55h-140v120l60 55h120zM291 0h-135v135h135v-135z" />
    <glyph glyph-name="at" unicode="@" horiz-adv-x="895" 
d="M235 730h445l160 -150v-335l-100 -95h-135l-40 35l-40 -35h-150l-80 70v250l80 70h245v-280l25 -20h50l40 35v255l-100 95h-355l-100 -95v-370l100 -95h440v-105h-500l-145 150v470zM405 260l25 -20h56l24 20v190h-80l-25 -20v-170z" />
    <glyph glyph-name="A" unicode="A" horiz-adv-x="700" 
d="M550 0l-70 185h-260l-70 -185h-150l260 700h180l260 -700h-150zM350 535l-85 -230h170z" />
    <glyph glyph-name="B" unicode="B" horiz-adv-x="725" 
d="M580 370l85 -80v-195l-105 -95h-475v700h445l105 -95v-185zM495 120l30 25v110l-45 40h-255v-175h270zM495 555l-30 25h-240v-165h225l45 40v100z" />
    <glyph glyph-name="C" unicode="C" horiz-adv-x="645" 
d="M600 120v-120h-400l-130 120v460l130 120h400v-120h-335l-55 -50v-360l55 -50h335z" />
    <glyph glyph-name="D" unicode="D" horiz-adv-x="735" 
d="M85 0v700h450l130 -120v-460l-130 -120h-450zM225 120h245l55 50v360l-55 50h-245v-460z" />
    <glyph glyph-name="E" unicode="E" horiz-adv-x="650" 
d="M85 700h520v-120h-380v-170h290v-120h-290v-170h390v-120h-530v700z" />
    <glyph glyph-name="F" unicode="F" horiz-adv-x="630" 
d="M85 700h520v-120h-380v-190h285v-120h-285v-270h-140v700z" />
    <glyph glyph-name="G" unicode="G" horiz-adv-x="730" 
d="M530 170v120h-145v120h285v-290l-130 -120h-340l-130 120v460l130 120h405v-120h-340l-55 -50v-360l55 -50h210z" />
    <glyph glyph-name="H" unicode="H" horiz-adv-x="740" 
d="M225 290v-290h-140v700h140v-290h290v290h140v-700h-140v290h-290z" />
    <glyph glyph-name="I" unicode="I" horiz-adv-x="470" 
d="M425 0h-380v120h120v460h-120v120h380v-120h-120v-460h120v-120z" />
    <glyph glyph-name="J" unicode="J" horiz-adv-x="545" 
d="M320 170v530h140v-580l-130 -120h-310v120h245z" />
    <glyph glyph-name="K" unicode="K" horiz-adv-x="670" 
d="M225 290v-290h-140v700h140v-290h90l180 290h160l-215 -340l230 -360h-160l-185 290h-100z" />
    <glyph glyph-name="L" unicode="L" horiz-adv-x="600" 
d="M85 700h140v-580h355v-120h-495v700z" />
    <glyph glyph-name="M" unicode="M" horiz-adv-x="875" 
d="M485 160h-95l-160 270h-5v-430h-140v700h140l210 -355h5l210 355h140v-700h-140v430h-5z" />
    <glyph glyph-name="N" unicode="N" horiz-adv-x="750" 
d="M525 255v445h140v-700h-135l-300 445h-5v-445h-140v700h135l300 -445h5z" />
    <glyph glyph-name="O" unicode="O" horiz-adv-x="740" 
d="M265 590l-55 -50v-380l55 -50h210l55 50v380l-55 50h-210zM200 710h340l130 -120v-480l-130 -120h-340l-130 120v480z" />
    <glyph glyph-name="P" unicode="P" horiz-adv-x="695" 
d="M530 210h-305v-210h-140v700h445l120 -110v-270zM510 540l-45 40h-240v-250h240l45 40v170z" />
    <glyph glyph-name="Q" unicode="Q" horiz-adv-x="740" 
d="M200 710h340l130 -120v-480l-75 -66l95 -134h-150l-55 80h-285l-130 120v480zM335 200h150l35 -50l10 10v380l-55 50h-210l-55 -50v-380l55 -50h135z" />
    <glyph glyph-name="R" unicode="R" horiz-adv-x="710" 
d="M525 0l-145 230h-155v-230h-140v700h435l120 -110v-250l-115 -105l160 -235h-160zM500 540l-45 40h-230v-230h230l45 40v150z" />
    <glyph glyph-name="S" unicode="S" horiz-adv-x="665" 
d="M170 295l-120 110v185l120 110h410v-120h-345l-45 -40v-85l45 -40h260l120 -110v-195l-120 -110h-435v120h370l45 40v95l-45 40h-260z" />
    <glyph glyph-name="T" unicode="T" horiz-adv-x="600" 
d="M370 0h-140v580h-210v120h560v-120h-210v-580z" />
    <glyph glyph-name="U" unicode="U" horiz-adv-x="745" 
d="M520 160v540h140v-590l-130 -120h-315l-130 120v590h140v-540l55 -50h185z" />
    <glyph glyph-name="V" unicode="V" horiz-adv-x="675" 
d="M425 0h-175l-250 700h150l185 -535h5l185 535h150z" />
    <glyph glyph-name="W" unicode="W" horiz-adv-x="975" 
d="M575 700l120 -510h5l120 510h145l-175 -700h-190l-110 490h-5l-110 -490h-190l-175 700h145l120 -510h5l120 510h175z" />
    <glyph glyph-name="X" unicode="X" horiz-adv-x="655" 
d="M330 460l155 240h155l-220 -340l235 -360h-155l-170 260h-5l-170 -260h-155l235 360l-220 340h155l155 -240h5z" />
    <glyph glyph-name="Y" unicode="Y" horiz-adv-x="630" 
d="M385 0h-140v230l-255 470h150l170 -320h10l170 320h150l-255 -470v-230z" />
    <glyph glyph-name="Z" unicode="Z" horiz-adv-x="615" 
d="M580 0h-545v110l360 465v5h-345v120h520v-110l-360 -465v-5h370v-120z" />
    <glyph glyph-name="bracketleft" unicode="[" horiz-adv-x="375" 
d="M345 -200h-260v960h260v-120h-120v-720h120v-120z" />
    <glyph glyph-name="backslash" unicode="\" horiz-adv-x="515" 
d="M140 700l375 -700h-140l-375 700h140z" />
    <glyph glyph-name="bracketright" unicode="]" horiz-adv-x="375" 
d="M30 760h260v-960h-260v120h120v720h-120v120z" />
    <glyph glyph-name="asciicircum" unicode="^" horiz-adv-x="410" 
d="M255 700l140 -220h-130l-55 95h-10l-55 -95h-130l140 220h100z" />
    <glyph glyph-name="underscore" unicode="_" horiz-adv-x="375" 
d="M0 -170v120h375v-120h-375z" />
    <glyph glyph-name="grave" unicode="`" horiz-adv-x="270" 
d="M30 700h140l70 -160h-100z" />
    <glyph glyph-name="a" unicode="a" horiz-adv-x="545" 
d="M355 45l-50 -45h-175l-95 85v140l95 85h215v50l-30 25h-220v115h285l100 -90v-410h-115zM345 145v50h-150l-25 -20v-40l25 -20h115z" />
    <glyph glyph-name="b" unicode="b" horiz-adv-x="580" 
d="M75 700h135v-200h200l115 -105v-290l-115 -105h-335v700zM390 345l-45 40h-135v-270h135l45 40v190z" />
    <glyph glyph-name="c" unicode="c" horiz-adv-x="485" 
d="M190 155l45 -40h215v-115h-280l-115 105v290l115 105h280v-115h-215l-45 -40v-190z" />
    <glyph glyph-name="d" unicode="d" horiz-adv-x="580" 
d="M390 0l-10 45l-50 -45h-160l-115 105v290l115 105h200v200h135v-700h-115zM190 155l45 -40h100l35 30v240h-135l-45 -40v-190z" />
    <glyph glyph-name="e" unicode="e" horiz-adv-x="540" 
d="M170 510h205l115 -105v-210h-300v-40l45 -40h215v-115h-280l-115 105v300zM190 355v-60h165v60l-45 40h-75z" />
    <glyph glyph-name="f" unicode="f" horiz-adv-x="375" 
d="M20 360v115h70v120l115 105h200v-115h-135l-45 -40v-70h125v-115h-125v-360h-135v360h-70z" />
    <glyph glyph-name="g" unicode="g" horiz-adv-x="575" 
d="M235 385l-45 -40v-190l45 -40h135v270h-135zM370 -45v45h-200l-115 105v290l115 105h335v-595l-115 -105h-290v115h225z" />
    <glyph glyph-name="h" unicode="h" 
d="M75 700h135v-200h205l105 -95v-405h-135v355l-35 30h-140v-385h-135v700z" />
    <glyph glyph-name="i" unicode="i" horiz-adv-x="275" 
d="M70 500h135v-500h-135v500zM205 595h-135v130h135v-130z" />
    <glyph glyph-name="j" unicode="j" horiz-adv-x="275" 
d="M25 -85l45 40v545h135v-595l-115 -105h-165v115h100zM205 595h-135v130h135v-130z" />
    <glyph glyph-name="k" unicode="k" horiz-adv-x="550" 
d="M550 0h-150l-125 200h-65v-200h-135v700h135v-385h60l115 185h150l-150 -240z" />
    <glyph glyph-name="l" unicode="l" horiz-adv-x="305" 
d="M230 0h-135v585h-70v115h205v-700z" />
    <glyph glyph-name="m" unicode="m" horiz-adv-x="840" 
d="M605 385h-80l-35 -30v-355h-135v355l-35 30h-80l-35 -30v-355h-135v500h115l10 -45l50 45h120l55 -50h5l55 50h190l105 -95v-405h-135v355z" />
    <glyph glyph-name="n" unicode="n" horiz-adv-x="580" 
d="M185 500l10 -45l50 45h165l105 -95v-405h-135v355l-35 30h-105l-35 -30v-355h-135v500h115z" />
    <glyph glyph-name="o" unicode="o" horiz-adv-x="570" 
d="M55 405l115 105h230l115 -105v-310l-115 -105h-230l-115 105v310zM380 355l-45 40h-100l-45 -40v-210l45 -40h100l45 40v210z" />
    <glyph glyph-name="p" unicode="p" horiz-adv-x="575" 
d="M245 500h160l115 -105v-290l-115 -105h-200v-200h-135v700h115l10 -45zM385 345l-45 40h-100l-35 -30v-240h135l45 40v190z" />
    <glyph glyph-name="q" unicode="q" horiz-adv-x="575" 
d="M505 -200h-135v200h-200l-115 105v290l115 105h335v-700zM190 155l45 -40h135v270h-135l-45 -40v-190z" />
    <glyph glyph-name="r" unicode="r" horiz-adv-x="430" 
d="M185 500l10 -45l50 45h165v-115h-170l-35 -30v-355h-135v500h115z" />
    <glyph glyph-name="s" unicode="s" horiz-adv-x="505" 
d="M200 310h175l95 -85v-140l-95 -85h-330v115h265l25 20v40l-25 20h-175l-95 85v135l95 85h305v-115h-240l-25 -20v-35z" />
    <glyph glyph-name="t" unicode="t" horiz-adv-x="395" 
d="M20 385v115h70v130h135v-130h125v-115h-125v-230l45 -40h100v-115h-165l-115 105v280h-70z" />
    <glyph glyph-name="u" unicode="u" 
d="M400 0l-10 45l-50 -45h-165l-105 95v405h135v-355l35 -30h105l35 30v355h135v-500h-115z" />
    <glyph glyph-name="v" unicode="v" horiz-adv-x="510" 
d="M330 0h-150l-180 500h140l115 -335l115 335h140z" />
    <glyph glyph-name="w" unicode="w" horiz-adv-x="735" 
d="M435 500l75 -305h5l65 305h145l-125 -500h-150l-80 305h-5l-80 -305h-150l-125 500h145l65 -305h5l75 305h135z" />
    <glyph glyph-name="x" unicode="x" horiz-adv-x="495" 
d="M250 160h-5l-100 -160h-145l165 260l-150 240h145l85 -140h5l85 140h145l-150 -240l165 -260h-145z" />
    <glyph glyph-name="y" unicode="y" 
d="M380 0h-205l-105 95v405h135v-355l35 -30h140v385h135v-595l-115 -105h-285v115h220l45 40v45z" />
    <glyph glyph-name="z" unicode="z" horiz-adv-x="475" 
d="M435 395l-230 -275v-5h240v-115h-415v105l230 275v5h-220v115h395v-105z" />
    <glyph glyph-name="braceleft" unicode="{" horiz-adv-x="390" 
d="M285 640l-25 -20v-265l-75 -75l75 -75v-265l25 -20h75v-120h-140l-100 90v300l-65 60v60l65 60v300l100 90h140v-120h-75z" />
    <glyph glyph-name="bar" unicode="|" horiz-adv-x="340" 
d="M100 -200v960h140v-960h-140z" />
    <glyph glyph-name="braceright" unicode="}" horiz-adv-x="390" 
d="M130 620l-25 20h-75v120h140l100 -90v-300l65 -60v-60l-65 -60v-300l-100 -90h-140v120h75l25 20v265l75 75l-75 75v265z" />
    <glyph glyph-name="asciitilde" unicode="~" horiz-adv-x="555" 
d="M210 455l130 -100l95 85l80 -95l-170 -150l-130 100l-95 -85l-80 95z" />
    <glyph glyph-name="nbspace" unicode="&#xa0;" horiz-adv-x="230" 
 />
    <glyph glyph-name="exclamdown" unicode="&#xa1;" horiz-adv-x="300" 
d="M80 -200v310l25 170h90l25 -170v-310h-140zM85 500h130v-135h-130v135z" />
    <glyph glyph-name="cent" unicode="&#xa2;" horiz-adv-x="495" 
d="M250 -90v90h-80l-115 105v290l115 105h80v90h120v-90h90v-115h-90v-270h90v-115h-90v-90h-120zM190 155l45 -40h15v270h-15l-45 -40v-190z" />
    <glyph glyph-name="sterling" unicode="&#xa3;" horiz-adv-x="590" 
d="M230 120h340v-120h-540v120h30l85 80v100h-80v105h80v175l130 120h229v-120h-164l-55 -50v-125h215v-105h-215v-130z" />
    <glyph glyph-name="currency" unicode="&#xa4;" horiz-adv-x="720" 
d="M255 110v-110h-140v110h-75v100h75v70h-75v110h75v310h430l120 -110v-200l-120 -110h-290v-70h300v-100h-300zM525 540l-45 40h-225v-190h225l45 40v110z" />
    <glyph glyph-name="yen" unicode="&#xa5;" horiz-adv-x="630" 
d="M570 280h-160l-25 -50v-20h185v-100h-185v-110h-140v110h-185v100h185v20l-25 50h-160v100h105l-175 320h150l170 -320h10l170 320h150l-175 -320h105v-100z" />
    <glyph glyph-name="brokenbar" unicode="&#xa6;" horiz-adv-x="330" 
d="M95 -200v400h140v-400h-140zM235 760v-400h-140v400h140z" />
    <glyph glyph-name="section" unicode="&#xa7;" horiz-adv-x="610" 
d="M420 455l120 -110v-190l-50 -50v-5l50 -45v-145l-120 -110h-340v120h275l45 40v45l-45 40h-165l-120 110v190l50 50v5l-50 45v145l120 110h316v-120h-251l-45 -40v-45l45 -40h165zM210 205l45 -40h100l45 40v90l-45 40h-100l-45 -40v-90z" />
    <glyph glyph-name="dieresis" unicode="&#xa8;" horiz-adv-x="375" 
d="M150 595h-120v125h120v-125zM345 595h-120v125h120v-125z" />
    <glyph glyph-name="copyright" unicode="&#xa9;" horiz-adv-x="905" 
d="M175 160l100 -95h355l100 95v370l-100 95h-355l-100 -95v-370zM675 -40h-445l-160 150v470l160 150h445l160 -150v-470zM600 240v-90h-225l-80 70v250l80 70h225v-90h-170l-25 -20v-170l25 -20h170z" />
    <glyph glyph-name="ordfeminine" unicode="&#xaa;" horiz-adv-x="420" 
d="M270 440v35h-100l-20 -20v-25l20 -15h70zM275 360l-35 -30h-125l-70 60v110l70 60h155v30l-20 20h-170v90h215l80 -70v-300h-93z" />
    <glyph glyph-name="guillemotleft" unicode="&#xab;" horiz-adv-x="580" 
d="M220 5l-185 245l185 245l85 -70l-130 -175l130 -175zM450 5l-185 245l185 245l85 -70l-130 -175l130 -175z" />
    <glyph glyph-name="logicalnot" unicode="&#xac;" horiz-adv-x="520" 
d="M50 290v120h420v-210h-120v90h-300z" />
    <glyph glyph-name="uni00AD" unicode="&#xad;" horiz-adv-x="480" 
d="M50 290v120h380v-120h-380z" />
    <glyph glyph-name="registered" unicode="&#xae;" horiz-adv-x="905" 
d="M520 150l-55 120h-70v-120h-110v390h255l80 -70v-130l-55 -50l70 -140h-115zM485 450h-90v-90h90l25 20v50zM175 160l100 -95h355l100 95v370l-100 95h-355l-100 -95v-370zM675 -40h-445l-160 150v470l160 150h445l160 -150v-470z" />
    <glyph glyph-name="macron" unicode="&#xaf;" horiz-adv-x="325" 
d="M30 605v110h265v-110h-265z" />
    <glyph glyph-name="degree" unicode="&#xb0;" horiz-adv-x="410" 
d="M160 465l30 -25h30l30 25v135l-30 25h-30l-30 -25v-135zM55 430v205l85 75h130l85 -75v-205l-85 -75h-130z" />
    <glyph glyph-name="plusminus" unicode="&#xb1;" horiz-adv-x="570" 
d="M60 20v120h450v-120h-450zM50 340v120h175v190h120v-190h175v-120h-175v-170h-120v170h-175z" />
    <glyph glyph-name="twosuperior" unicode="&#xb2;" horiz-adv-x="355" 
d="M140 445h170v-75h-275v140l65 60h100l15 15v25l-15 15h-155v75h230l45 -40v-120l-50 -45h-110l-20 -20v-30z" />
    <glyph glyph-name="threesuperior" unicode="&#xb3;" horiz-adv-x="360" 
d="M185 575l15 15v25l-10 10h-150v75h215l50 -45v-90l-30 -25l40 -35v-90l-50 -45h-230v75h165l10 10v30l-15 15h-95v75h85z" />
    <glyph glyph-name="acute" unicode="&#xb4;" horiz-adv-x="270" 
d="M100 740h140l-110 -160h-100z" />
    <glyph glyph-name="mu" unicode="&#xb5;" 
d="M205 40v-240h-135v700h135v-355l35 -30h105l35 30v355h135v-500h-115l-10 45l-50 -45h-90z" />
    <glyph glyph-name="paragraph" unicode="&#xb6;" horiz-adv-x="675" 
d="M240 270h-60l-120 110v210l120 110h190v-900h-130v470zM445 700h130v-900h-130v900z" />
    <glyph glyph-name="periodcentered" unicode="&#xb7;" horiz-adv-x="210" 
d="M170 280h-130v135h130v-135z" />
    <glyph glyph-name="cedilla" unicode="&#xb8;" horiz-adv-x="250" 
d="M40 0h80v-30h30l70 -60v-90l-70 -60h-120v70h80l25 20v30l-25 20h-70v100z" />
    <glyph glyph-name="onesuperior" unicode="&#xb9;" horiz-adv-x="295" 
d="M260 370h-215v75h55v180h-55v75h160v-255h55v-75z" />
    <glyph glyph-name="ordmasculine" unicode="&#xba;" horiz-adv-x="415" 
d="M45 630l80 70h165l80 -70v-230l-80 -70h-165l-80 70v230zM265 580l-30 30h-55l-30 -30v-135l30 -25h55l30 25v135z" />
    <glyph glyph-name="guillemotright" unicode="&#xbb;" horiz-adv-x="580" 
d="M545 250l-185 -245l-85 70l130 175l-130 175l85 70zM315 250l-185 -245l-85 70l130 175l-130 175l85 70z" />
    <glyph glyph-name="onequarter" unicode="&#xbc;" horiz-adv-x="785" 
d="M635 700l-390 -700h-105l390 700h105zM250 370h-215v75h55v180h-55v75h160v-255h55v-75zM605 0v70h-175v65l155 195h125v-185h40v-75h-40v-70h-105zM605 145v95h-5l-70 -90v-5h75z" />
    <glyph glyph-name="onehalf" unicode="&#xbd;" horiz-adv-x="815" 
d="M635 700l-390 -700h-105l390 700h105zM250 370h-215v75h55v180h-55v75h160v-255h55v-75zM590 75h170v-75h-275v140l65 60h100l15 15v25l-15 15h-155v75h230l45 -40v-120l-50 -45h-110l-20 -20v-30z" />
    <glyph glyph-name="threequarters" unicode="&#xbe;" horiz-adv-x="810" 
d="M660 700l-390 -700h-105l390 700h105zM185 575l15 15v25l-10 10h-150v75h215l50 -45v-90l-30 -25l40 -35v-90l-50 -45h-230v75h165l10 10v30l-15 15h-95v75h85zM630 0v70h-175v65l155 195h125v-185h40v-75h-40v-70h-105zM630 145v95h-5l-70 -90v-5h75z" />
    <glyph glyph-name="questiondown" unicode="&#xbf;" horiz-adv-x="570" 
d="M240 105l-50 -45v-95l50 -45h315v-120h-380l-125 115v195l125 115h105v55h140v-120l-60 -55h-120zM284 500h135v-135h-135v135z" />
    <glyph glyph-name="Agrave" unicode="&#xc0;" horiz-adv-x="700" 
d="M550 0l-70 185h-260l-70 -185h-150l260 700h180l260 -700h-150zM350 535l-85 -230h170zM190 920h140l70 -140h-100z" />
    <glyph glyph-name="Aacute" unicode="&#xc1;" horiz-adv-x="700" 
d="M550 0l-70 185h-260l-70 -185h-150l260 700h180l260 -700h-150zM350 535l-85 -230h170zM370 920h140l-110 -140h-100z" />
    <glyph glyph-name="Acircumflex" unicode="&#xc2;" horiz-adv-x="700" 
d="M550 0l-70 185h-260l-70 -185h-150l260 700h180l260 -700h-150zM350 535l-85 -230h170zM295 920h110l105 -140h-115l-45 60l-45 -60h-115z" />
    <glyph glyph-name="Atilde" unicode="&#xc3;" horiz-adv-x="700" 
d="M550 0l-70 185h-260l-70 -185h-150l260 700h180l260 -700h-150zM350 535l-85 -230h170zM305 820l-75 -35l-40 85l115 50l90 -40l75 35l40 -85l-115 -50z" />
    <glyph glyph-name="Adieresis" unicode="&#xc4;" horiz-adv-x="700" 
d="M550 0l-70 185h-260l-70 -185h-150l260 700h180l260 -700h-150zM350 535l-85 -230h170zM313 795h-120v110h120v-110zM508 795h-120v110h120v-110z" />
    <glyph glyph-name="Aring" unicode="&#xc5;" horiz-adv-x="700" 
d="M550 0l-70 185h-260l-70 -185h-150l260 700h180l260 -700h-150zM350 535l-85 -230h170zM310 825l15 -10h50l15 10v50l-15 10h-50l-15 -10v-50zM225 800v100l60 50h130l60 -50v-100l-60 -50h-130z" />
    <glyph glyph-name="AE" unicode="&#xc6;" horiz-adv-x="1005" 
d="M970 0h-515v186h-255l-55 -186h-145l210 700h750v-120h-365v-170h275v-120h-275v-170h375v-120zM455 580h-135l-85 -274h220v274z" />
    <glyph glyph-name="Ccedilla" unicode="&#xc7;" horiz-adv-x="645" 
d="M300 0h-100l-130 120v460l130 120h400v-120h-335l-55 -50v-360l55 -50h335v-120h-220v-30h30l70 -60v-90l-70 -60h-120v70h80l25 20v30l-25 20h-70v100z" />
    <glyph glyph-name="Egrave" unicode="&#xc8;" horiz-adv-x="650" 
d="M85 700h520v-120h-380v-170h290v-120h-290v-170h390v-120h-530v700zM185 920h140l70 -140h-100z" />
    <glyph glyph-name="Eacute" unicode="&#xc9;" horiz-adv-x="650" 
d="M85 700h520v-120h-380v-170h290v-120h-290v-170h390v-120h-530v700zM365 920h140l-110 -140h-100z" />
    <glyph glyph-name="Ecircumflex" unicode="&#xca;" horiz-adv-x="650" 
d="M85 700h520v-120h-380v-170h290v-120h-290v-170h390v-120h-530v700zM290 920h110l105 -140h-115l-45 60l-45 -60h-115z" />
    <glyph glyph-name="Edieresis" unicode="&#xcb;" horiz-adv-x="650" 
d="M85 700h520v-120h-380v-170h290v-120h-290v-170h390v-120h-530v700zM308 795h-120v110h120v-110zM503 795h-120v110h120v-110z" />
    <glyph glyph-name="Igrave" unicode="&#xcc;" horiz-adv-x="470" 
d="M425 0h-380v120h120v460h-120v120h380v-120h-120v-460h120v-120zM80 920h140l70 -140h-100z" />
    <glyph glyph-name="Iacute" unicode="&#xcd;" horiz-adv-x="470" 
d="M425 0h-380v120h120v460h-120v120h380v-120h-120v-460h120v-120zM260 920h140l-110 -140h-100z" />
    <glyph glyph-name="Icircumflex" unicode="&#xce;" horiz-adv-x="470" 
d="M425 0h-380v120h120v460h-120v120h380v-120h-120v-460h120v-120zM180 920h110l105 -140h-115l-45 60l-45 -60h-115z" />
    <glyph glyph-name="Idieresis" unicode="&#xcf;" horiz-adv-x="470" 
d="M425 0h-380v120h120v460h-120v120h380v-120h-120v-460h120v-120zM198 795h-120v110h120v-110zM393 795h-120v110h120v-110z" />
    <glyph glyph-name="Eth" unicode="&#xd0;" horiz-adv-x="745" 
d="M95 0v290h-75v120h75v290h450l130 -120v-460l-130 -120h-450zM235 120h245l55 50v360l-55 50h-245v-170h115v-120h-115v-170z" />
    <glyph glyph-name="Ntilde" unicode="&#xd1;" horiz-adv-x="750" 
d="M525 255v445h140v-700h-135l-300 445h-5v-445h-140v700h135l300 -445h5zM330 820l-75 -35l-40 85l115 50l90 -40l75 35l40 -85l-115 -50z" />
    <glyph glyph-name="Ograve" unicode="&#xd2;" horiz-adv-x="740" 
d="M265 590l-55 -50v-380l55 -50h210l55 50v380l-55 50h-210zM200 710h340l130 -120v-480l-130 -120h-340l-130 120v480zM210 920h140l70 -140h-100z" />
    <glyph glyph-name="Oacute" unicode="&#xd3;" horiz-adv-x="740" 
d="M265 590l-55 -50v-380l55 -50h210l55 50v380l-55 50h-210zM200 710h340l130 -120v-480l-130 -120h-340l-130 120v480zM390 920h140l-110 -140h-100z" />
    <glyph glyph-name="Ocircumflex" unicode="&#xd4;" horiz-adv-x="740" 
d="M265 590l-55 -50v-380l55 -50h210l55 50v380l-55 50h-210zM200 710h340l130 -120v-480l-130 -120h-340l-130 120v480zM315 920h110l105 -140h-115l-45 60l-45 -60h-115z" />
    <glyph glyph-name="Otilde" unicode="&#xd5;" horiz-adv-x="740" 
d="M265 590l-55 -50v-380l55 -50h210l55 50v380l-55 50h-210zM200 710h340l130 -120v-480l-130 -120h-340l-130 120v480zM325 820l-75 -35l-40 85l115 50l90 -40l75 35l40 -85l-115 -50z" />
    <glyph glyph-name="Odieresis" unicode="&#xd6;" horiz-adv-x="740" 
d="M265 590l-55 -50v-380l55 -50h210l55 50v380l-55 50h-210zM200 710h340l130 -120v-480l-130 -120h-340l-130 120v480zM333 795h-120v110h120v-110zM528 795h-120v110h120v-110z" />
    <glyph glyph-name="multiply" unicode="&#xd7;" horiz-adv-x="530" 
d="M180 350l-120 140l85 85l120 -140l120 140l85 -85l-120 -140l120 -140l-85 -85l-120 140l-120 -140l-85 85z" />
    <glyph glyph-name="Oslash" unicode="&#xd8;" horiz-adv-x="740" 
d="M200 710h340l30 -30l25 30h110l-70 -90l35 -30v-480l-130 -120h-340l-30 30l-25 -30h-110l70 90l-35 30v480zM265 590l-55 -50v-320h5l275 355l-15 15h-210zM475 110l55 50v320h-5l-275 -355l15 -15h210z" />
    <glyph glyph-name="Ugrave" unicode="&#xd9;" horiz-adv-x="745" 
d="M520 160v540h140v-590l-130 -120h-315l-130 120v590h140v-540l55 -50h185zM210 920h140l70 -140h-100z" />
    <glyph glyph-name="Uacute" unicode="&#xda;" horiz-adv-x="745" 
d="M520 160v540h140v-590l-130 -120h-315l-130 120v590h140v-540l55 -50h185zM390 920h140l-110 -140h-100z" />
    <glyph glyph-name="Ucircumflex" unicode="&#xdb;" horiz-adv-x="745" 
d="M520 160v540h140v-590l-130 -120h-315l-130 120v590h140v-540l55 -50h185zM317 920h110l105 -140h-115l-45 60l-45 -60h-115z" />
    <glyph glyph-name="Udieresis" unicode="&#xdc;" horiz-adv-x="745" 
d="M520 160v540h140v-590l-130 -120h-315l-130 120v590h140v-540l55 -50h185zM335 795h-120v110h120v-110zM530 795h-120v110h120v-110z" />
    <glyph glyph-name="Yacute" unicode="&#xdd;" horiz-adv-x="630" 
d="M385 0h-140v230l-255 470h150l170 -320h10l170 320h150l-255 -470v-230zM336 920h140l-110 -140h-100z" />
    <glyph glyph-name="Thorn" unicode="&#xde;" horiz-adv-x="700" 
d="M530 110h-305v-110h-140v700h140v-100h305l120 -110v-270zM510 440l-45 40h-240v-250h240l45 40v170z" />
    <glyph glyph-name="germandbls" unicode="&#xdf;" horiz-adv-x="580" 
d="M70 0v605l115 105h200l115 -105v-155l-50 -46v-4l75 -70v-225l-115 -105h-150v115h85l45 40v135l-45 40h-85v115h60l45 40v70l-45 40h-70l-45 -40v-555h-135z" />
    <glyph glyph-name="agrave" unicode="&#xe0;" horiz-adv-x="545" 
d="M355 45l-50 -45h-175l-95 85v140l95 85h215v50l-30 25h-220v115h285l100 -90v-410h-115zM345 145v50h-150l-25 -20v-40l25 -20h115zM110 740h140l70 -160h-100z" />
    <glyph glyph-name="aacute" unicode="&#xe1;" horiz-adv-x="545" 
d="M355 45l-50 -45h-175l-95 85v140l95 85h215v50l-30 25h-220v115h285l100 -90v-410h-115zM345 145v50h-150l-25 -20v-40l25 -20h115zM280 740h140l-110 -160h-100z" />
    <glyph glyph-name="acircumflex" unicode="&#xe2;" horiz-adv-x="545" 
d="M355 45l-50 -45h-175l-95 85v140l95 85h215v50l-30 25h-220v115h285l100 -90v-410h-115zM345 145v50h-150l-25 -20v-40l25 -20h115zM225 740h110l105 -160h-115l-45 75l-45 -75h-115z" />
    <glyph glyph-name="atilde" unicode="&#xe3;" horiz-adv-x="545" 
d="M355 45l-50 -45h-175l-95 85v140l95 85h215v50l-30 25h-220v115h285l100 -90v-410h-115zM345 145v50h-150l-25 -20v-40l25 -20h115zM235 620l-65 -35l-50 85l115 70l90 -40l65 35l50 -85l-115 -70z" />
    <glyph glyph-name="adieresis" unicode="&#xe4;" horiz-adv-x="545" 
d="M355 45l-50 -45h-175l-95 85v140l95 85h215v50l-30 25h-220v115h285l100 -90v-410h-115zM345 145v50h-150l-25 -20v-40l25 -20h115zM240 595h-120v125h120v-125zM435 595h-120v125h120v-125z" />
    <glyph glyph-name="aring" unicode="&#xe5;" horiz-adv-x="545" 
d="M355 45l-50 -45h-175l-95 85v140l95 85h215v50l-30 25h-220v115h285l100 -90v-410h-115zM345 145v50h-150l-25 -20v-40l25 -20h115zM240 655l25 -20h30l25 20v55l-25 20h-30l-25 -20v-55zM155 630v105l70 60h110l70 -60v-105l-70 -60h-110z" />
    <glyph glyph-name="ae" unicode="&#xe6;" horiz-adv-x="810" 
d="M450 0l-45 45h-10l-45 -45h-220l-95 85v140l95 85h205v50l-30 25h-210v115h275l30 -30h10l40 40h195l115 -105v-210h-290v-40l45 -40h205v-115h-270zM300 115l35 30v50h-140l-25 -20v-40l25 -20h105zM470 355v-60h155v60l-45 40h-65z" />
    <glyph glyph-name="ccedilla" unicode="&#xe7;" horiz-adv-x="485" 
d="M235 0h-65l-115 105v290l115 105h280v-115h-215l-45 -40v-190l45 -40h215v-115h-135v-30h30l70 -60v-90l-70 -60h-120v70h80l25 20v30l-25 20h-70v100z" />
    <glyph glyph-name="egrave" unicode="&#xe8;" horiz-adv-x="540" 
d="M170 510h205l115 -105v-210h-300v-40l45 -40h215v-115h-280l-115 105v300zM190 355v-60h165v60l-45 40h-75zM110 740h140l70 -160h-100z" />
    <glyph glyph-name="eacute" unicode="&#xe9;" horiz-adv-x="540" 
d="M170 510h205l115 -105v-210h-300v-40l45 -40h215v-115h-280l-115 105v300zM190 355v-60h165v60l-45 40h-75zM290 740h140l-110 -160h-100z" />
    <glyph glyph-name="ecircumflex" unicode="&#xea;" horiz-adv-x="540" 
d="M170 510h205l115 -105v-210h-300v-40l45 -40h215v-115h-280l-115 105v300zM190 355v-60h165v60l-45 40h-75zM215 740h110l105 -160h-115l-45 75l-45 -75h-115z" />
    <glyph glyph-name="edieresis" unicode="&#xeb;" horiz-adv-x="540" 
d="M170 510h205l115 -105v-210h-300v-40l45 -40h215v-115h-280l-115 105v300zM190 355v-60h165v60l-45 40h-75zM235 595h-120v125h120v-125zM430 595h-120v125h120v-125z" />
    <glyph glyph-name="igrave" unicode="&#xec;" horiz-adv-x="275" 
d="M70 500h135v-500h-135v500zM-25 740h140l70 -160h-100z" />
    <glyph glyph-name="iacute" unicode="&#xed;" horiz-adv-x="275" 
d="M70 500h135v-500h-135v500zM155 740h140l-110 -160h-100z" />
    <glyph glyph-name="icircumflex" unicode="&#xee;" horiz-adv-x="280" 
d="M73 500h135v-500h-135v500zM85 740h110l105 -160h-115l-45 75l-45 -75h-115z" />
    <glyph glyph-name="idieresis" unicode="&#xef;" horiz-adv-x="275" 
d="M70 500h135v-500h-135v500zM100 595h-120v125h120v-125zM295 595h-120v125h120v-125z" />
    <glyph glyph-name="eth" unicode="&#xf0;" horiz-adv-x="545" 
d="M190 630l-40 70h140l40 -70h130v-115h-60l100 -170v-250l-115 -105h-230l-115 105v230l115 105h155l-50 85h-135v115h65zM220 315l-45 -40v-130l45 -40h100l45 40v170h-145z" />
    <glyph glyph-name="ntilde" unicode="&#xf1;" horiz-adv-x="580" 
d="M185 500l10 -45l50 45h165l105 -95v-405h-135v355l-35 30h-105l-35 -30v-355h-135v500h115zM247 620l-65 -35l-50 85l115 70l90 -40l65 35l50 -85l-115 -70z" />
    <glyph glyph-name="ograve" unicode="&#xf2;" horiz-adv-x="570" 
d="M55 405l115 105h230l115 -105v-310l-115 -105h-230l-115 105v310zM380 355l-45 40h-100l-45 -40v-210l45 -40h100l45 40v210zM125 740h140l70 -160h-100z" />
    <glyph glyph-name="oacute" unicode="&#xf3;" horiz-adv-x="570" 
d="M55 405l115 105h230l115 -105v-310l-115 -105h-230l-115 105v310zM380 355l-45 40h-100l-45 -40v-210l45 -40h100l45 40v210zM305 740h140l-110 -160h-100z" />
    <glyph glyph-name="ocircumflex" unicode="&#xf4;" horiz-adv-x="570" 
d="M55 405l115 105h230l115 -105v-310l-115 -105h-230l-115 105v310zM380 355l-45 40h-100l-45 -40v-210l45 -40h100l45 40v210zM230 740h110l105 -160h-115l-45 75l-45 -75h-115z" />
    <glyph glyph-name="otilde" unicode="&#xf5;" horiz-adv-x="570" 
d="M55 405l115 105h230l115 -105v-310l-115 -105h-230l-115 105v310zM380 355l-45 40h-100l-45 -40v-210l45 -40h100l45 40v210zM240 620l-65 -35l-50 85l115 70l90 -40l65 35l50 -85l-115 -70z" />
    <glyph glyph-name="odieresis" unicode="&#xf6;" horiz-adv-x="570" 
d="M55 405l115 105h230l115 -105v-310l-115 -105h-230l-115 105v310zM380 355l-45 40h-100l-45 -40v-210l45 -40h100l45 40v210zM248 595h-120v125h120v-125zM443 595h-120v125h120v-125z" />
    <glyph glyph-name="divide" unicode="&#xf7;" horiz-adv-x="545" 
d="M50 290v120h445v-120h-445zM335 75h-125v125h125v-125zM335 500h-125v125h125v-125z" />
    <glyph glyph-name="oslash" unicode="&#xf8;" horiz-adv-x="570" 
d="M55 405l115 105h230l25 -25l20 25h105l-65 -80l30 -25v-310l-115 -105h-230l-25 25l-20 -25h-105l65 80l-30 25v310zM335 105l45 40v155h-5l-150 -185l10 -10h100zM190 355v-155h5l150 185l-10 10h-100z" />
    <glyph glyph-name="ugrave" unicode="&#xf9;" 
d="M400 0l-10 45l-50 -45h-165l-105 95v405h135v-355l35 -30h105l35 30v355h135v-500h-115zM130 740h140l70 -160h-100z" />
    <glyph glyph-name="uacute" unicode="&#xfa;" 
d="M400 0l-10 45l-50 -45h-165l-105 95v405h135v-355l35 -30h105l35 30v355h135v-500h-115zM315 740h140l-110 -160h-100z" />
    <glyph glyph-name="ucircumflex" unicode="&#xfb;" 
d="M400 0l-10 45l-50 -45h-165l-105 95v405h135v-355l35 -30h105l35 30v355h135v-500h-115zM237 740h110l105 -160h-115l-45 75l-45 -75h-115z" />
    <glyph glyph-name="udieresis" unicode="&#xfc;" 
d="M400 0l-10 45l-50 -45h-165l-105 95v405h135v-355l35 -30h105l35 30v355h135v-500h-115zM255 595h-120v125h120v-125zM450 595h-120v125h120v-125z" />
    <glyph glyph-name="yacute" unicode="&#xfd;" 
d="M380 0h-205l-105 95v405h135v-355l35 -30h140v385h135v-595l-115 -105h-285v115h220l45 40v45zM315 740h140l-110 -160h-100z" />
    <glyph glyph-name="thorn" unicode="&#xfe;" horiz-adv-x="580" 
d="M210 500h200l115 -105v-290l-115 -105h-200v-200h-135v900h135v-200zM390 345l-45 40h-135v-270h135l45 40v190z" />
    <glyph glyph-name="ydieresis" unicode="&#xff;" 
d="M380 0h-205l-105 95v405h135v-355l35 -30h140v385h135v-595l-115 -105h-285v115h220l45 40v45zM255 595h-120v125h120v-125zM450 595h-120v125h120v-125z" />
    <glyph glyph-name="Amacron" unicode="&#x100;" horiz-adv-x="700" 
d="M550 0l-70 185h-260l-70 -185h-150l260 700h180l260 -700h-150zM350 535l-85 -230h170zM218 795v110h265v-110h-265z" />
    <glyph glyph-name="amacron" unicode="&#x101;" horiz-adv-x="545" 
d="M355 45l-50 -45h-175l-95 85v140l95 85h215v50l-30 25h-220v115h285l100 -90v-410h-115zM345 145v50h-150l-25 -20v-40l25 -20h115zM145 605v110h265v-110h-265z" />
    <glyph glyph-name="Abreve" unicode="&#x102;" horiz-adv-x="700" 
d="M550 0l-70 185h-260l-70 -185h-150l260 700h180l260 -700h-150zM350 535l-85 -230h170zM428 780h-155l-75 65v75h105v-35l20 -15h55l20 15v35h105v-75z" />
    <glyph glyph-name="abreve" unicode="&#x103;" horiz-adv-x="545" 
d="M355 45l-50 -45h-175l-95 85v140l95 85h215v50l-30 25h-220v115h285l100 -90v-410h-115zM345 145v50h-150l-25 -20v-40l25 -20h115zM355 580h-155l-75 65v95h105v-55l20 -15h55l20 15v55h105v-95z" />
    <glyph glyph-name="Aogonek" unicode="&#x104;" horiz-adv-x="700" 
d="M550 0l-70 185h-260l-70 -185h-150l260 700h180l260 -700l-100 -95v-40l20 -15h70v-75h-105l-70 60v95l80 70h-45zM350 535l-85 -230h170z" />
    <glyph glyph-name="aogonek" unicode="&#x105;" horiz-adv-x="545" 
d="M380 -95v-40l20 -15h70v-75h-105l-70 60v95l75 70l-15 45l-50 -45h-175l-95 85v140l95 85h215v50l-30 25h-220v115h285l100 -90v-410zM345 145v50h-150l-25 -20v-40l25 -20h115z" />
    <glyph glyph-name="Cacute" unicode="&#x106;" horiz-adv-x="645" 
d="M600 120v-120h-400l-130 120v460l130 120h400v-120h-335l-55 -50v-360l55 -50h335zM385 920h140l-110 -140h-100z" />
    <glyph glyph-name="cacute" unicode="&#x107;" horiz-adv-x="485" 
d="M190 155l45 -40h215v-115h-280l-115 105v290l115 105h280v-115h-215l-45 -40v-190zM300 740h140l-110 -160h-100z" />
    <glyph glyph-name="Ccircumflex" unicode="&#x108;" horiz-adv-x="645" 
d="M600 120v-120h-400l-130 120v460l130 120h400v-120h-335l-55 -50v-360l55 -50h335zM305 920h110l105 -140h-115l-45 60l-45 -60h-115z" />
    <glyph glyph-name="ccircumflex" unicode="&#x109;" horiz-adv-x="485" 
d="M190 155l45 -40h215v-115h-280l-115 105v290l115 105h280v-115h-215l-45 -40v-190zM230 740h110l105 -160h-115l-45 75l-45 -75h-115z" />
    <glyph glyph-name="Ccaron" unicode="&#x10c;" horiz-adv-x="645" 
d="M600 120v-120h-400l-130 120v460l130 120h400v-120h-335l-55 -50v-360l55 -50h335zM415 780h-110l-105 140h115l45 -60l45 60h115z" />
    <glyph glyph-name="ccaron" unicode="&#x10d;" horiz-adv-x="485" 
d="M190 155l45 -40h215v-115h-280l-115 105v290l115 105h280v-115h-215l-45 -40v-190zM340 570h-110l-105 160h115l45 -75l45 75h115z" />
    <glyph glyph-name="Dcaron" unicode="&#x10e;" horiz-adv-x="735" 
d="M85 0v700h450l130 -120v-460l-130 -120h-450zM225 120h245l55 50v360l-55 50h-245v-460zM400 780h-110l-105 140h115l45 -60l45 60h115z" />
    <glyph glyph-name="dcaron" unicode="&#x10f;" horiz-adv-x="670" 
d="M390 0l-10 45l-50 -45h-160l-115 105v290l115 105h200v200h135v-700h-115zM190 155l45 -40h100l35 30v240h-135l-45 -40v-190zM565 490l45 80h-50v135h130v-135l-75 -115z" />
    <glyph glyph-name="Dcroat" unicode="&#x110;" horiz-adv-x="745" 
d="M95 0v290h-75v120h75v290h450l130 -120v-460l-130 -120h-450zM235 120h245l55 50v360l-55 50h-245v-170h115v-120h-115v-170z" />
    <glyph glyph-name="dcroat" unicode="&#x111;" horiz-adv-x="580" 
d="M390 0l-10 45l-50 -45h-160l-115 105v240l115 105h200v75h-100v105h100v70h135v-70h65v-105h-65v-525h-115zM190 155l45 -40h100l35 30v190h-135l-45 -40v-140z" />
    <glyph glyph-name="Emacron" unicode="&#x112;" horiz-adv-x="650" 
d="M85 700h520v-120h-380v-170h290v-120h-290v-170h390v-120h-530v700zM213 795v110h265v-110h-265z" />
    <glyph glyph-name="emacron" unicode="&#x113;" horiz-adv-x="540" 
d="M170 510h205l115 -105v-210h-300v-40l45 -40h215v-115h-280l-115 105v300zM190 355v-60h165v60l-45 40h-75zM140 605v110h265v-110h-265z" />
    <glyph glyph-name="Edotaccent" unicode="&#x116;" horiz-adv-x="650" 
d="M85 700h520v-120h-380v-170h290v-120h-290v-170h390v-120h-530v700zM413 795h-135v110h135v-110z" />
    <glyph glyph-name="edotaccent" unicode="&#x117;" horiz-adv-x="540" 
d="M170 510h205l115 -105v-210h-300v-40l45 -40h215v-115h-280l-115 105v300zM190 355v-60h165v60l-45 40h-75zM340 595h-135v130h135v-130z" />
    <glyph glyph-name="Eogonek" unicode="&#x118;" horiz-adv-x="650" 
d="M515 -95v-40l20 -15h70v-75h-105l-70 60v95l80 70h-425v700h520v-120h-380v-170h290v-120h-290v-170h390v-120z" />
    <glyph glyph-name="eogonek" unicode="&#x119;" horiz-adv-x="540" 
d="M350 -95v-40l20 -15h70v-75h-105l-70 60v95l80 70h-175l-115 105v300l115 105h205l115 -105v-210h-300v-40l45 -40h215v-115zM190 355v-60h165v60l-45 40h-75z" />
    <glyph glyph-name="Ecaron" unicode="&#x11a;" horiz-adv-x="650" 
d="M85 700h520v-120h-380v-170h290v-120h-290v-170h390v-120h-530v700zM400 780h-110l-105 140h115l45 -60l45 60h115z" />
    <glyph glyph-name="ecaron" unicode="&#x11b;" horiz-adv-x="540" 
d="M170 510h205l115 -105v-210h-300v-40l45 -40h215v-115h-280l-115 105v300zM190 355v-60h165v60l-45 40h-75zM325 580h-110l-105 160h115l45 -75l45 75h115z" />
    <glyph glyph-name="Gbreve" unicode="&#x11e;" horiz-adv-x="730" 
d="M530 170v120h-145v120h285v-290l-130 -120h-340l-130 120v460l130 120h405v-120h-340l-55 -50v-360l55 -50h210zM443 780h-155l-75 65v75h105v-35l20 -15h55l20 15v35h105v-75z" />
    <glyph glyph-name="gbreve" unicode="&#x11f;" horiz-adv-x="575" 
d="M235 385l-45 -40v-190l45 -40h135v270h-135zM370 -45v45h-200l-115 105v290l115 105h335v-595l-115 -105h-290v115h225zM378 580h-155l-75 65v95h105v-55l20 -15h55l20 15v55h105v-95z" />
    <glyph glyph-name="Gcommaaccent" unicode="&#x122;" horiz-adv-x="730" 
d="M530 170v120h-145v120h285v-290l-130 -120h-340l-130 120v460l130 120h405v-120h-340l-55 -50v-360l55 -50h210zM310 -295l45 80h-50v135h130v-135l-75 -115z" />
    <glyph glyph-name="gcommaaccent" unicode="&#x123;" horiz-adv-x="575" 
d="M235 385l-45 -40v-190l45 -40h135v270h-135zM370 -45v45h-200l-115 105v290l115 105h335v-595l-115 -105h-290v115h225zM355 805l-45 -80h50v-135h-130v135l75 115z" />
    <glyph glyph-name="Imacron" unicode="&#x12a;" horiz-adv-x="470" 
d="M425 0h-380v120h120v460h-120v120h380v-120h-120v-460h120v-120zM103 795v110h265v-110h-265z" />
    <glyph glyph-name="imacron" unicode="&#x12b;" horiz-adv-x="275" 
d="M70 500h135v-500h-135v500zM5 605v110h265v-110h-265z" />
    <glyph glyph-name="Iogonek" unicode="&#x12e;" horiz-adv-x="470" 
d="M325 -95v-40l20 -15h70v-75h-105l-70 60v95l80 70h-275v120h120v460h-120v120h380v-120h-120v-460h120v-120z" />
    <glyph glyph-name="iogonek" unicode="&#x12f;" horiz-adv-x="275" 
d="M105 -95v-40l20 -15h70v-75h-105l-70 60v95l80 70h-30v500h135v-500zM205 595h-135v130h135v-130z" />
    <glyph glyph-name="Idotaccent" unicode="&#x130;" horiz-adv-x="470" 
d="M425 0h-380v120h120v460h-120v120h380v-120h-120v-460h120v-120zM303 795h-135v110h135v-110z" />
    <glyph glyph-name="dotlessi" unicode="&#x131;" horiz-adv-x="275" 
d="M70 500h135v-500h-135v500z" />
    <glyph glyph-name="Kcommaaccent" unicode="&#x136;" horiz-adv-x="670" 
d="M225 290v-290h-140v700h140v-290h90l180 290h160l-215 -340l230 -360h-160l-185 290h-100zM305 -295l45 80h-50v135h130v-135l-75 -115z" />
    <glyph glyph-name="kcommaaccent" unicode="&#x137;" horiz-adv-x="550" 
d="M550 0h-150l-125 200h-65v-200h-135v700h135v-385h60l115 185h150l-150 -240zM245 -295l45 80h-50v135h130v-135l-75 -115z" />
    <glyph glyph-name="Lacute" unicode="&#x139;" horiz-adv-x="600" 
d="M85 700h140v-580h355v-120h-495v700zM175 920h140l-110 -140h-100z" />
    <glyph glyph-name="lacute" unicode="&#x13a;" horiz-adv-x="305" 
d="M230 0h-135v585h-70v115h205v-700zM180 920h140l-110 -140h-100z" />
    <glyph glyph-name="Lcommaaccent" unicode="&#x13b;" horiz-adv-x="600" 
d="M85 700h140v-580h355v-120h-495v700zM272 -295l45 80h-50v135h130v-135l-75 -115z" />
    <glyph glyph-name="lcommaaccent" unicode="&#x13c;" horiz-adv-x="305" 
d="M230 0h-135v585h-70v115h205v-700zM102 -295l45 80h-50v135h130v-135l-75 -115z" />
    <glyph glyph-name="Lcaron" unicode="&#x13d;" horiz-adv-x="600" 
d="M85 700h140v-580h355v-120h-495v700zM345 490l45 80h-50v135h130v-135l-75 -115z" />
    <glyph glyph-name="lcaron" unicode="&#x13e;" horiz-adv-x="395" 
d="M230 0h-135v585h-70v115h205v-700zM290 490l45 80h-50v135h130v-135l-75 -115z" />
    <glyph glyph-name="Lslash" unicode="&#x141;" horiz-adv-x="610" 
d="M95 702h140v-242l100 63v-135l-100 -63v-203h355v-120h-495v238l-70 -45v135l70 45v327z" />
    <glyph glyph-name="lslash" unicode="&#x142;" horiz-adv-x="330" 
d="M230 0h-135v235l-70 -40v130l70 40v220h-70v115h205v-250l70 40v-130l-70 -40v-320z" />
    <glyph glyph-name="Nacute" unicode="&#x143;" horiz-adv-x="750" 
d="M525 255v445h140v-700h-135l-300 445h-5v-445h-140v700h135l300 -445h5zM395 920h140l-110 -140h-100z" />
    <glyph glyph-name="nacute" unicode="&#x144;" horiz-adv-x="580" 
d="M185 500l10 -45l50 45h165l105 -95v-405h-135v355l-35 30h-105l-35 -30v-355h-135v500h115zM310 740h140l-110 -160h-100z" />
    <glyph glyph-name="Ncommaaccent" unicode="&#x145;" horiz-adv-x="750" 
d="M525 255v445h140v-700h-135l-300 445h-5v-445h-140v700h135l300 -445h5zM315 -295l45 80h-50v135h130v-135l-75 -115z" />
    <glyph glyph-name="ncommaaccent" unicode="&#x146;" horiz-adv-x="580" 
d="M185 500l10 -45l50 45h165l105 -95v-405h-135v355l-35 30h-105l-35 -30v-355h-135v500h115zM232 -295l45 80h-50v135h130v-135l-75 -115z" />
    <glyph glyph-name="Ncaron" unicode="&#x147;" horiz-adv-x="750" 
d="M525 255v445h140v-700h-135l-300 445h-5v-445h-140v700h135l300 -445h5zM430 780h-110l-105 140h115l45 -60l45 60h115z" />
    <glyph glyph-name="ncaron" unicode="&#x148;" horiz-adv-x="580" 
d="M185 500l10 -45l50 45h165l105 -95v-405h-135v355l-35 30h-105l-35 -30v-355h-135v500h115zM347 580h-110l-105 160h115l45 -75l45 75h115z" />
    <glyph glyph-name="Omacron" unicode="&#x14c;" horiz-adv-x="740" 
d="M265 590l-55 -50v-380l55 -50h210l55 50v380l-55 50h-210zM200 710h340l130 -120v-480l-130 -120h-340l-130 120v480zM238 795v110h265v-110h-265z" />
    <glyph glyph-name="omacron" unicode="&#x14d;" horiz-adv-x="570" 
d="M55 405l115 105h230l115 -105v-310l-115 -105h-230l-115 105v310zM380 355l-45 40h-100l-45 -40v-210l45 -40h100l45 40v210zM153 605v110h265v-110h-265z" />
    <glyph glyph-name="Ohungarumlaut" unicode="&#x150;" horiz-adv-x="740" 
d="M265 590l-55 -50v-380l55 -50h210l55 50v380l-55 50h-210zM200 710h340l130 -120v-480l-130 -120h-340l-130 120v480zM294 920h135l-100 -140h-100zM474 920h135l-100 -140h-100z" />
    <glyph glyph-name="ohungarumlaut" unicode="&#x151;" horiz-adv-x="570" 
d="M55 405l115 105h230l115 -105v-310l-115 -105h-230l-115 105v310zM380 355l-45 40h-100l-45 -40v-210l45 -40h100l45 40v210zM210 740h135l-100 -160h-100zM390 740h135l-100 -160h-100z" />
    <glyph glyph-name="OE" unicode="&#x152;" horiz-adv-x="995" 
d="M200 700h750v-120h-340v-170h250v-120h-250v-170h350v-120h-760l-130 120v460zM265 580l-55 -50v-360l55 -50h205v460h-205z" />
    <glyph glyph-name="oe" unicode="&#x153;" horiz-adv-x="845" 
d="M485 510h195l115 -105v-210h-290v-40l45 -40h205v-115h-270l-40 40h-5l-50 -50h-220l-115 105v310l115 105h220l45 -45h5zM370 355l-45 40h-90l-45 -40v-210l45 -40h90l45 40v210zM505 355v-60h155v60l-45 40h-65z" />
    <glyph glyph-name="Racute" unicode="&#x154;" horiz-adv-x="710" 
d="M525 0l-145 230h-155v-230h-140v700h435l120 -110v-250l-115 -105l160 -235h-160zM500 540l-45 40h-230v-230h230l45 40v150zM360 920h140l-110 -140h-100z" />
    <glyph glyph-name="racute" unicode="&#x155;" horiz-adv-x="430" 
d="M185 500l10 -45l50 45h165v-115h-170l-35 -30v-355h-135v500h115zM270 740h140l-110 -160h-100z" />
    <glyph glyph-name="Rcommaaccent" unicode="&#x156;" horiz-adv-x="710" 
d="M525 0l-145 230h-155v-230h-140v700h435l120 -110v-250l-115 -105l160 -235h-160zM500 540l-45 40h-230v-230h230l45 40v150zM315 -295l45 80h-50v135h130v-135l-75 -115z" />
    <glyph glyph-name="rcommaaccent" unicode="&#x157;" horiz-adv-x="430" 
d="M185 500l10 -45l50 45h165v-115h-170l-35 -30v-355h-135v500h115zM78 -315l45 80h-50v135h130v-135l-75 -115z" />
    <glyph glyph-name="Rcaron" unicode="&#x158;" horiz-adv-x="710" 
d="M525 0l-145 230h-155v-230h-140v700h435l120 -110v-250l-115 -105l160 -235h-160zM500 540l-45 40h-230v-230h230l45 40v150zM396 780h-110l-105 140h115l45 -60l45 60h115z" />
    <glyph glyph-name="rcaron" unicode="&#x159;" horiz-adv-x="430" 
d="M185 500l10 -45l50 45h165v-115h-170l-35 -30v-355h-135v500h115zM295 580h-110l-105 160h115l45 -75l45 75h115z" />
    <glyph glyph-name="Sacute" unicode="&#x15a;" horiz-adv-x="665" 
d="M170 295l-120 110v185l120 110h410v-120h-345l-45 -40v-85l45 -40h260l120 -110v-195l-120 -110h-435v120h370l45 40v95l-45 40h-260zM350 920h140l-110 -140h-100z" />
    <glyph glyph-name="sacute" unicode="&#x15b;" horiz-adv-x="505" 
d="M200 310h175l95 -85v-140l-95 -85h-330v115h265l25 20v40l-25 20h-175l-95 85v135l95 85h305v-115h-240l-25 -20v-35zM275 740h140l-110 -160h-100z" />
    <glyph glyph-name="Scedilla" unicode="&#x15e;" horiz-adv-x="665" 
d="M265 0h-205v120h370l45 40v95l-45 40h-260l-120 110v185l120 110h410v-120h-345l-45 -40v-85l45 -40h260l120 -110v-195l-120 -110h-150v-30h30l70 -60v-90l-70 -60h-120v70h80l25 20v30l-25 20h-70v100z" />
    <glyph glyph-name="scedilla" unicode="&#x15f;" horiz-adv-x="505" 
d="M185 0h-140v115h265l25 20v40l-25 20h-175l-95 85v135l95 85h305v-115h-240l-25 -20v-35l25 -20h175l95 -85v-140l-95 -85h-110v-30h30l70 -60v-90l-70 -60h-120v70h80l25 20v30l-25 20h-70v100z" />
    <glyph glyph-name="Scaron" unicode="&#x160;" horiz-adv-x="665" 
d="M170 295l-120 110v185l120 110h410v-120h-345l-45 -40v-85l45 -40h260l120 -110v-195l-120 -110h-435v120h370l45 40v95l-45 40h-260zM385 780h-110l-105 140h115l45 -60l45 60h115z" />
    <glyph glyph-name="scaron" unicode="&#x161;" horiz-adv-x="505" 
d="M200 310h175l95 -85v-140l-95 -85h-330v115h265l25 20v40l-25 20h-175l-95 85v135l95 85h305v-115h-240l-25 -20v-35zM310 580h-110l-105 160h115l45 -75l45 75h115z" />
    <glyph glyph-name="Tcommaaccent" unicode="&#x162;" horiz-adv-x="600" 
d="M370 0h-140v580h-210v120h560v-120h-210v-580zM240 -295l45 80h-50v135h130v-135l-75 -115z" />
    <glyph glyph-name="tcommaaccent" unicode="&#x163;" horiz-adv-x="395" 
d="M20 385v115h70v130h135v-130h125v-115h-125v-230l45 -40h100v-115h-165l-115 105v280h-70zM165 -295l45 80h-50v135h130v-135l-75 -115z" />
    <glyph glyph-name="Tcaron" unicode="&#x164;" horiz-adv-x="600" 
d="M370 0h-140v580h-210v120h560v-120h-210v-580zM355 780h-110l-105 140h115l45 -60l45 60h115z" />
    <glyph glyph-name="tcaron" unicode="&#x165;" horiz-adv-x="490" 
d="M20 385v115h70v130h135v-130h125v-115h-125v-230l45 -40h100v-115h-165l-115 105v280h-70zM385 490l45 80h-50v135h130v-135l-75 -115z" />
    <glyph glyph-name="Umacron" unicode="&#x16a;" horiz-adv-x="745" 
d="M520 160v540h140v-590l-130 -120h-315l-130 120v590h140v-540l55 -50h185zM240 795v110h265v-110h-265z" />
    <glyph glyph-name="umacron" unicode="&#x16b;" 
d="M400 0l-10 45l-50 -45h-165l-105 95v405h135v-355l35 -30h105l35 30v355h135v-500h-115zM160 605v110h265v-110h-265z" />
    <glyph glyph-name="Uring" unicode="&#x16e;" horiz-adv-x="745" 
d="M520 160v540h140v-590l-130 -120h-315l-130 120v590h140v-540l55 -50h185zM332 825l15 -10h50l15 10v50l-15 10h-50l-15 -10v-50zM247 800v100l60 50h130l60 -50v-100l-60 -50h-130z" />
    <glyph glyph-name="uring" unicode="&#x16f;" 
d="M400 0l-10 45l-50 -45h-165l-105 95v405h135v-355l35 -30h105l35 30v355h135v-500h-115zM252 655l25 -20h30l25 20v55l-25 20h-30l-25 -20v-55zM167 630v105l70 60h110l70 -60v-105l-70 -60h-110z" />
    <glyph glyph-name="Uhungarumlaut" unicode="&#x170;" horiz-adv-x="745" 
d="M520 160v540h140v-590l-130 -120h-315l-130 120v590h140v-540l55 -50h185zM297 920h135l-100 -140h-100zM477 920h135l-100 -140h-100z" />
    <glyph glyph-name="uhungarumlaut" unicode="&#x171;" 
d="M400 0l-10 45l-50 -45h-165l-105 95v405h135v-355l35 -30h105l35 30v355h135v-500h-115zM217 740h135l-100 -160h-100zM397 740h135l-100 -160h-100z" />
    <glyph glyph-name="Uogonek" unicode="&#x172;" horiz-adv-x="745" 
d="M380 -95v-40l20 -15h70v-75h-105l-70 60v95l70 60h-150l-130 120v590h140v-540l55 -50h185l55 50v540h140v-590l-130 -120h-60z" />
    <glyph glyph-name="uogonek" unicode="&#x173;" 
d="M405 0l-15 45l-50 -45h-165l-105 95v405h135v-355l35 -30h105l35 30v355h135v-500l-100 -95v-40l20 -15h70v-75h-105l-70 60v95z" />
    <glyph glyph-name="Ydieresis" unicode="&#x178;" horiz-adv-x="630" 
d="M385 0h-140v230l-255 470h150l170 -320h10l170 320h150l-255 -470v-230zM278 795h-120v110h120v-110zM473 795h-120v110h120v-110z" />
    <glyph glyph-name="Zacute" unicode="&#x179;" horiz-adv-x="615" 
d="M580 0h-545v110l360 465v5h-345v120h520v-110l-360 -465v-5h370v-120zM332 920h140l-110 -140h-100z" />
    <glyph glyph-name="zacute" unicode="&#x17a;" horiz-adv-x="475" 
d="M435 395l-230 -275v-5h240v-115h-415v105l230 275v5h-220v115h395v-105zM255 740h140l-110 -160h-100z" />
    <glyph glyph-name="Zdotaccent" unicode="&#x17b;" horiz-adv-x="615" 
d="M580 0h-545v110l360 465v5h-345v120h520v-110l-360 -465v-5h370v-120zM376 795h-135v110h135v-110z" />
    <glyph glyph-name="zdotaccent" unicode="&#x17c;" horiz-adv-x="475" 
d="M435 395l-230 -275v-5h240v-115h-415v105l230 275v5h-220v115h395v-105zM305 595h-135v130h135v-130z" />
    <glyph glyph-name="Zcaron" unicode="&#x17d;" horiz-adv-x="615" 
d="M580 0h-545v110l360 465v5h-345v120h520v-110l-360 -465v-5h370v-120zM363 780h-110l-105 140h115l45 -60l45 60h115z" />
    <glyph glyph-name="zcaron" unicode="&#x17e;" horiz-adv-x="475" 
d="M435 395l-230 -275v-5h240v-115h-415v105l230 275v5h-220v115h395v-105zM292 580h-110l-105 160h115l45 -75l45 75h115z" />
    <glyph glyph-name="florin" unicode="&#x192;" horiz-adv-x="395" 
d="M40 360v115h70v120l115 105h200v-115h-135l-45 -40v-70h125v-115h-125v-455l-115 -105h-165v115h100l45 40v405h-70z" />
    <glyph glyph-name="Scommaaccent" unicode="&#x218;" horiz-adv-x="665" 
d="M170 295l-120 110v185l120 110h410v-120h-345l-45 -40v-85l45 -40h260l120 -110v-195l-120 -110h-435v120h370l45 40v95l-45 40h-260zM270 -295l45 80h-50v135h130v-135l-75 -115z" />
    <glyph glyph-name="scommaaccent" unicode="&#x219;" horiz-adv-x="505" 
d="M200 310h175l95 -85v-140l-95 -85h-330v115h265l25 20v40l-25 20h-175l-95 85v135l95 85h305v-115h-240l-25 -20v-35zM195 -295l45 80h-50v135h130v-135l-75 -115z" />
    <glyph glyph-name="afii57929" unicode="&#x2bc;" horiz-adv-x="190" 
d="M35 600l45 80h-50v135h130v-135l-75 -115z" />
    <glyph glyph-name="circumflex" unicode="&#x2c6;" horiz-adv-x="380" 
d="M135 740h110l105 -160h-115l-45 75l-45 -75h-115z" />
    <glyph glyph-name="caron" unicode="&#x2c7;" horiz-adv-x="380" 
d="M245 580h-110l-105 160h115l45 -75l45 75h115z" />
    <glyph glyph-name="breve" unicode="&#x2d8;" horiz-adv-x="365" 
d="M260 580h-155l-75 65v95h105v-55l20 -15h55l20 15v55h105v-95z" />
    <glyph glyph-name="dotaccent" unicode="&#x2d9;" horiz-adv-x="195" 
d="M165 595h-135v130h135v-130z" />
    <glyph glyph-name="ring" unicode="&#x2da;" horiz-adv-x="310" 
d="M115 655l25 -20h30l25 20v55l-25 20h-30l-25 -20v-55zM30 630v105l70 60h110l70 -60v-105l-70 -60h-110z" />
    <glyph glyph-name="ogonek" unicode="&#x2db;" horiz-adv-x="255" 
d="M115 -95v-40l20 -15h70v-75h-105l-70 60v95l80 70h105z" />
    <glyph glyph-name="tilde" unicode="&#x2dc;" horiz-adv-x="380" 
d="M145 620l-65 -35l-50 85l115 70l90 -40l65 35l50 -85l-115 -70z" />
    <glyph glyph-name="hungarumlaut" unicode="&#x2dd;" horiz-adv-x="440" 
d="M95 740h135l-100 -160h-100zM275 740h135l-100 -160h-100z" />
    <glyph glyph-name="afii10023" unicode="&#x401;" horiz-adv-x="650" 
d="M85 700h520v-120h-380v-170h290v-120h-290v-170h390v-120h-530v700zM305 795h-120v110h120v-110zM500 795h-120v110h120v-110z" />
    <glyph glyph-name="afii10051" unicode="&#x402;" horiz-adv-x="700" 
d="M295 0h-140v580h-145v120h445v-120h-160v-130h250l105 -95v-290l-95 -85h-145v120h80l20 15v190l-30 25h-185v-330z" />
    <glyph glyph-name="afii10052" unicode="&#x403;" 
d="M85 700h490v-120h-350v-580h-140v700zM350 920h140l-110 -140h-100z" />
    <glyph glyph-name="afii10053" unicode="&#x404;" horiz-adv-x="645" 
d="M490 410v-120h-280v-120l55 -50h335v-120h-400l-130 120v460l130 120h400v-120h-335l-55 -50v-120h280z" />
    <glyph glyph-name="afii10054" unicode="&#x405;" horiz-adv-x="665" 
d="M170 295l-120 110v185l120 110h410v-120h-345l-45 -40v-85l45 -40h260l120 -110v-195l-120 -110h-435v120h370l45 40v95l-45 40h-260z" />
    <glyph glyph-name="afii10055" unicode="&#x406;" horiz-adv-x="470" 
d="M425 0h-380v120h120v460h-120v120h380v-120h-120v-460h120v-120z" />
    <glyph glyph-name="afii10056" unicode="&#x407;" horiz-adv-x="470" 
d="M425 0h-380v120h120v460h-120v120h380v-120h-120v-460h120v-120zM195 795h-120v110h120v-110zM390 795h-120v110h120v-110z" />
    <glyph glyph-name="afii10057" unicode="&#x408;" horiz-adv-x="545" 
d="M320 170v530h140v-580l-130 -120h-310v120h245z" />
    <glyph glyph-name="afii10058" unicode="&#x409;" horiz-adv-x="1040" 
d="M125 160l40 540h445v-240h265l120 -110v-240l-120 -110h-405v580h-170l-35 -470l-130 -120h-125v120h60zM810 120l45 40v140l-45 40h-200v-220h200z" />
    <glyph glyph-name="afii10059" unicode="&#x40a;" horiz-adv-x="1035" 
d="M225 310v-310h-140v700h140v-270h240v270h140v-270h265l120 -110v-210l-120 -110h-405v310h-240zM805 120l45 40v110l-45 40h-200v-190h200z" />
    <glyph glyph-name="afii10060" unicode="&#x40b;" horiz-adv-x="720" 
d="M295 0h-140v580h-145v120h445v-120h-160v-130h250l105 -95v-355h-140v305l-30 25h-185v-330z" />
    <glyph glyph-name="afii10061" unicode="&#x40c;" horiz-adv-x="670" 
d="M225 290v-290h-140v700h140v-290h90l180 290h160l-215 -340l230 -360h-160l-185 290h-100zM380 920h140l-110 -140h-100z" />
    <glyph glyph-name="afii10062" unicode="&#x40e;" horiz-adv-x="660" 
d="M515 700h145l-300 -700h-145l75 170h-55l-235 530h150l180 -420h5zM390 955h110v-90l-85 -75h-170l-85 75v90h110v-45l30 -25h60l30 25v45z" />
    <glyph glyph-name="afii10145" unicode="&#x40f;" horiz-adv-x="735" 
d="M650 0h-215v-140h-135v140h-215v700h140v-580h285v580h140v-700z" />
    <glyph glyph-name="afii10017" unicode="&#x410;" horiz-adv-x="700" 
d="M550 0l-70 185h-260l-70 -185h-150l260 700h180l260 -700h-150zM350 535l-85 -230h170z" />
    <glyph glyph-name="afii10018" unicode="&#x411;" horiz-adv-x="715" 
d="M540 0h-455v700h525v-120h-385v-140h315l120 -110v-220zM476 120l44 40v120l-44 40h-251v-200h251z" />
    <glyph glyph-name="afii10019" unicode="&#x412;" horiz-adv-x="725" 
d="M580 370l85 -80v-195l-105 -95h-475v700h445l105 -95v-185zM495 120l30 25v110l-45 40h-255v-175h270zM495 555l-30 25h-240v-165h225l45 40v100z" />
    <glyph glyph-name="afii10020" unicode="&#x413;" 
d="M85 700h490v-120h-350v-580h-140v700z" />
    <glyph glyph-name="afii10021" unicode="&#x414;" horiz-adv-x="735" 
d="M10 120h30l85 80l35 500h465v-580h80v-270h-140v150h-415v-150h-140v270zM265 170l-54 -50h274v460h-190z" />
    <glyph glyph-name="afii10022" unicode="&#x415;" horiz-adv-x="650" 
d="M85 700h520v-120h-380v-170h290v-120h-290v-170h390v-120h-530v700z" />
    <glyph glyph-name="afii10024" unicode="&#x416;" horiz-adv-x="1000" 
d="M570 290v-290h-140v290h-85l-185 -290h-160l230 360l-215 340h160l180 -290h75v290h140v-290h75l180 290h160l-215 -340l230 -360h-160l-185 290h-85z" />
    <glyph glyph-name="afii10025" unicode="&#x417;" horiz-adv-x="635" 
d="M390 300h-230v120h225l45 40v95l-30 25h-360v120h425l105 -95v-185l-60 -55v-5l65 -60v-205l-105 -95h-440v120h375l30 25v115z" />
    <glyph glyph-name="afii10026" unicode="&#x418;" horiz-adv-x="745" 
d="M660 0h-140v445h-5l-300 -445h-130v700h140v-445h5l300 445h130v-700z" />
    <glyph glyph-name="afii10027" unicode="&#x419;" horiz-adv-x="745" 
d="M660 0h-140v445h-5l-300 -445h-130v700h140v-445h5l300 445h130v-700zM430 955h110v-90l-85 -75h-170l-85 75v90h110v-45l30 -25h60l30 25v45z" />
    <glyph glyph-name="afii10028" unicode="&#x41a;" horiz-adv-x="670" 
d="M225 290v-290h-140v700h140v-290h90l180 290h160l-215 -340l230 -360h-160l-185 290h-100z" />
    <glyph glyph-name="afii10029" unicode="&#x41b;" horiz-adv-x="725" 
d="M125 160l40 540h475v-700h-140v580h-200l-35 -470l-130 -120h-125v120h60z" />
    <glyph glyph-name="afii10030" unicode="&#x41c;" horiz-adv-x="875" 
d="M485 160h-95l-160 270h-5v-430h-140v700h140l210 -355h5l210 355h140v-700h-140v430h-5z" />
    <glyph glyph-name="afii10031" unicode="&#x41d;" horiz-adv-x="740" 
d="M225 290v-290h-140v700h140v-290h290v290h140v-700h-140v290h-290z" />
    <glyph glyph-name="afii10032" unicode="&#x41e;" horiz-adv-x="740" 
d="M265 590l-55 -50v-380l55 -50h210l55 50v380l-55 50h-210zM200 710h340l130 -120v-480l-130 -120h-340l-130 120v480z" />
    <glyph glyph-name="afii10033" unicode="&#x41f;" horiz-adv-x="740" 
d="M85 700h570v-700h-140v580h-290v-580h-140v700z" />
    <glyph glyph-name="afii10034" unicode="&#x420;" horiz-adv-x="695" 
d="M530 210h-305v-210h-140v700h445l120 -110v-270zM510 540l-45 40h-240v-250h240l45 40v170z" />
    <glyph glyph-name="afii10035" unicode="&#x421;" horiz-adv-x="645" 
d="M600 120v-120h-400l-130 120v460l130 120h400v-120h-335l-55 -50v-360l55 -50h335z" />
    <glyph glyph-name="afii10036" unicode="&#x422;" horiz-adv-x="600" 
d="M370 0h-140v580h-210v120h560v-120h-210v-580z" />
    <glyph glyph-name="afii10037" unicode="&#x423;" horiz-adv-x="660" 
d="M515 700h145l-300 -700h-145l75 170h-55l-235 530h150l180 -420h5z" />
    <glyph glyph-name="afii10038" unicode="&#x424;" horiz-adv-x="910" 
d="M680 540h-155v-360h155l30 25v310zM385 660v90h140v-90h220l105 -95v-410l-105 -95h-220v-90h-140v90h-220l-105 95v410l105 95h220zM385 540h-155l-30 -25v-310l30 -25h155v360z" />
    <glyph glyph-name="afii10039" unicode="&#x425;" horiz-adv-x="655" 
d="M330 460l155 240h155l-220 -340l235 -360h-155l-170 260h-5l-170 -260h-155l235 360l-220 340h155l155 -240h5z" />
    <glyph glyph-name="afii10040" unicode="&#x426;" horiz-adv-x="745" 
d="M635 700v-580h80v-270h-140v150h-490v700h140v-580h270v580h140z" />
    <glyph glyph-name="afii10041" unicode="&#x427;" horiz-adv-x="700" 
d="M65 335v365h140v-315l40 -35h230v350h140v-700h-140v230h-295z" />
    <glyph glyph-name="afii10042" unicode="&#x428;" horiz-adv-x="1010" 
d="M785 700h140v-700h-840v700h140v-580h210v580h140v-580h210v580z" />
    <glyph glyph-name="afii10043" unicode="&#x429;" horiz-adv-x="1035" 
d="M925 700v-580h80v-270h-140v150h-780v700h140v-580h210v580h140v-580h210v580h140z" />
    <glyph glyph-name="afii10044" unicode="&#x42a;" horiz-adv-x="740" 
d="M10 580v120h280v-240h285l120 -110v-240l-120 -110h-425v580h-140zM510 120l45 40v140l-45 40h-220v-220h220z" />
    <glyph glyph-name="afii10045" unicode="&#x42b;" horiz-adv-x="950" 
d="M865 700v-700h-140v700h140zM85 700h140v-240h285l120 -110v-240l-120 -110h-425v700zM445 120l45 40v140l-45 40h-220v-220h220z" />
    <glyph glyph-name="afii10046" unicode="&#x42c;" horiz-adv-x="685" 
d="M455 120l45 40v140l-45 40h-230v-220h230zM225 460h295l120 -110v-240l-120 -110h-435v700h140v-240z" />
    <glyph glyph-name="afii10047" unicode="&#x42d;" horiz-adv-x="635" 
d="M145 290v120h280v120l-55 50h-335v120h400l130 -120v-460l-130 -120h-400v120h335l55 50v120h-280z" />
    <glyph glyph-name="afii10048" unicode="&#x42e;" horiz-adv-x="975" 
d="M225 290v-290h-140v700h140v-290h125v180l130 120h295l130 -120v-480l-130 -120h-295l-130 120v180h-125zM545 590l-55 -50v-380l55 -50h165l55 50v380l-55 50h-165z" />
    <glyph glyph-name="afii10049" unicode="&#x42f;" horiz-adv-x="710" 
d="M185 240l-110 100v250l120 110h430v-700h-140v230h-150l-145 -230h-165zM260 580l-45 -40v-150l45 -40h225v230h-225z" />
    <glyph glyph-name="afii10065" unicode="&#x430;" horiz-adv-x="545" 
d="M355 45l-50 -45h-175l-95 85v140l95 85h215v50l-30 25h-220v115h285l100 -90v-410h-115zM345 145v50h-150l-25 -20v-40l25 -20h115z" />
    <glyph glyph-name="afii10066" unicode="&#x431;" horiz-adv-x="590" 
d="M75 595l115 105h310v-115h-245l-45 -40v-95h210l115 -105v-250l-115 -105h-230l-115 105v500zM400 295l-45 40h-145v-190l45 -40h100l45 40v150z" />
    <glyph glyph-name="afii10067" unicode="&#x432;" horiz-adv-x="550" 
d="M445 260l65 -60v-115l-95 -85h-345v500h325l90 -80v-120l-40 -35v-5zM205 200v-85h145l25 20v45l-25 20h-145zM205 385v-80h125l20 15v50l-20 15h-125z" />
    <glyph glyph-name="afii10068" unicode="&#x433;" horiz-adv-x="445" 
d="M205 0h-135v500h365v-115h-230v-385z" />
    <glyph glyph-name="afii10069" unicode="&#x434;" 
d="M100 180l20 320h375v-385h65v-245h-135v130h-290v-130h-135v245h31zM230 155l-45 -40h175v270h-115z" />
    <glyph glyph-name="afii10070" unicode="&#x435;" horiz-adv-x="540" 
d="M170 510h205l115 -105v-210h-300v-40l45 -40h215v-115h-280l-115 105v300zM190 355v-60h165v60l-45 40h-75z" />
    <glyph glyph-name="afii10072" unicode="&#x436;" horiz-adv-x="765" 
d="M150 0h-150l165 260l-150 240h150l115 -185h35v185h135v-185h35l115 185h150l-150 -240l165 -260h-150l-125 200h-40v-200h-135v200h-40z" />
    <glyph glyph-name="afii10073" unicode="&#x437;" horiz-adv-x="490" 
d="M130 195v110h155l20 15v50l-20 15h-240v115h305l90 -80v-120l-55 -45l60 -55v-115l-95 -85h-320v115h255l25 20v45l-20 15h-160z" />
    <glyph glyph-name="afii10074" unicode="&#x438;" 
d="M202 0h-132v500h135v-275h5l169 275h136v-500h-135v275h-5l-173 -276v1z" />
    <glyph glyph-name="afii10075" unicode="&#x439;" 
d="M202 0h-132v500h135v-275h5l169 275h136v-500h-135v275h-5l-173 -276v1zM370 590h-155l-75 65v95h105v-55l20 -15h55l20 15v55h105v-95z" />
    <glyph glyph-name="afii10076" unicode="&#x43a;" horiz-adv-x="545" 
d="M545 0h-150l-125 200h-65v-200h-135v500h135v-185h60l115 185h150l-150 -240z" />
    <glyph glyph-name="afii10077" unicode="&#x43b;" horiz-adv-x="575" 
d="M100 145l25 355h380v-500h-135v385h-115l-20 -290l-115 -105h-110v115h45z" />
    <glyph glyph-name="afii10078" unicode="&#x43c;" horiz-adv-x="685" 
d="M385 115h-85l-90 145h-5v-260h-135v500h135l135 -220h5l135 220h135v-500h-135v260h-5z" />
    <glyph glyph-name="afii10079" unicode="&#x43d;" horiz-adv-x="575" 
d="M205 0h-135v500h135v-200h165v200h135v-500h-135v185h-165v-185z" />
    <glyph glyph-name="afii10080" unicode="&#x43e;" horiz-adv-x="570" 
d="M55 405l115 105h230l115 -105v-310l-115 -105h-230l-115 105v310zM380 355l-45 40h-100l-45 -40v-210l45 -40h100l45 40v210z" />
    <glyph glyph-name="afii10081" unicode="&#x43f;" horiz-adv-x="575" 
d="M205 0h-135v500h435v-500h-135v385h-165v-385z" />
    <glyph glyph-name="afii10082" unicode="&#x440;" horiz-adv-x="575" 
d="M245 500h160l115 -105v-290l-115 -105h-200v-200h-135v700h115l10 -45zM385 345l-45 40h-100l-35 -30v-240h135l45 40v190z" />
    <glyph glyph-name="afii10083" unicode="&#x441;" horiz-adv-x="485" 
d="M190 155l45 -40h215v-115h-280l-115 105v290l115 105h280v-115h-215l-45 -40v-190z" />
    <glyph glyph-name="afii10084" unicode="&#x442;" horiz-adv-x="465" 
d="M300 0h-135v385h-150v115h435v-115h-150v-385z" />
    <glyph glyph-name="afii10085" unicode="&#x443;" horiz-adv-x="500" 
d="M130 -200l65 200h-30l-165 500h140l105 -345h5l110 345h140l-230 -700h-140z" />
    <glyph glyph-name="afii10086" unicode="&#x444;" horiz-adv-x="725" 
d="M430 -200h-135v200h-125l-115 105v290l115 105h125v200h135v-200h125l115 -105v-290l-115 -105h-125v-200zM535 345l-45 40h-60v-270h60l45 40v190zM190 155l45 -40h60v270h-60l-45 -40v-190z" />
    <glyph glyph-name="afii10087" unicode="&#x445;" horiz-adv-x="495" 
d="M250 160h-5l-100 -160h-145l165 260l-150 240h145l85 -140h5l85 140h145l-150 -240l165 -260h-145z" />
    <glyph glyph-name="afii10088" unicode="&#x446;" horiz-adv-x="590" 
d="M430 0h-360v500h135v-385h160v385h135v-385h65v-245h-135v130z" />
    <glyph glyph-name="afii10089" unicode="&#x447;" horiz-adv-x="550" 
d="M345 0v150h-185l-105 95v255h135v-205l35 -30h120v235h135v-500h-135z" />
    <glyph glyph-name="afii10090" unicode="&#x448;" horiz-adv-x="795" 
d="M330 500h135v-385h125v385h135v-500h-655v500h135v-385h125v385z" />
    <glyph glyph-name="afii10091" unicode="&#x449;" horiz-adv-x="815" 
d="M655 0h-585v500h135v-385h125v385h135v-385h125v385h135v-385h65v-245h-135v130z" />
    <glyph glyph-name="afii10092" unicode="&#x44a;" horiz-adv-x="570" 
d="M440 0h-320v385h-110v115h245v-155h185l95 -85v-175zM255 230v-115h120l25 20v75l-25 20h-120z" />
    <glyph glyph-name="afii10093" unicode="&#x44b;" horiz-adv-x="755" 
d="M685 0h-135v500h135v-500zM390 0h-320v500h135v-155h185l95 -85v-175zM205 230v-115h120l25 20v75l-25 20h-120z" />
    <glyph glyph-name="afii10094" unicode="&#x44c;" horiz-adv-x="530" 
d="M400 0h-330v500h135v-155h195l95 -85v-175zM205 230v-115h130l25 20v75l-25 20h-130z" />
    <glyph glyph-name="afii10095" unicode="&#x44d;" horiz-adv-x="485" 
d="M250 115l45 40v45h-180v105h180v40l-45 40h-215v115h280l115 -105v-290l-115 -105h-280v115h215z" />
    <glyph glyph-name="afii10096" unicode="&#x44e;" horiz-adv-x="765" 
d="M205 0h-135v500h135v-200h75v105l114 105h201l115 -105v-310l-115 -105h-201l-114 105v90h-75v-185zM575 355l-45 40h-70l-45 -40v-210l45 -40h70l45 40v210z" />
    <glyph glyph-name="afii10097" unicode="&#x44f;" horiz-adv-x="545" 
d="M135 170l-85 75v170l95 85h330v-500h-135v160h-70l-105 -160h-145zM340 275v110h-130l-25 -20v-70l25 -20h130z" />
    <glyph glyph-name="afii10071" unicode="&#x451;" horiz-adv-x="540" 
d="M170 510h205l115 -105v-210h-300v-40l45 -40h215v-115h-280l-115 105v300zM190 355v-60h165v60l-45 40h-75zM235 595h-120v125h120v-125zM430 595h-120v125h120v-125z" />
    <glyph glyph-name="afii10099" unicode="&#x452;" horiz-adv-x="595" 
d="M540 85l-115 -105h-120v115h55l45 40v150l-35 30h-140v-315h-135v515h-70v115h70v70h135v-70h110v-115h-110v-85h205l105 -95v-250z" />
    <glyph glyph-name="afii10100" unicode="&#x453;" horiz-adv-x="445" 
d="M205 0h-135v500h365v-115h-230v-385zM270 740h140l-110 -160h-100z" />
    <glyph glyph-name="afii10101" unicode="&#x454;" horiz-adv-x="485" 
d="M190 155l45 -40h215v-115h-280l-115 105v290l115 105h280v-115h-215l-45 -40v-40h180v-105h-180v-45z" />
    <glyph glyph-name="afii10102" unicode="&#x455;" horiz-adv-x="505" 
d="M200 310h175l95 -85v-140l-95 -85h-330v115h265l25 20v40l-25 20h-175l-95 85v135l95 85h305v-115h-240l-25 -20v-35z" />
    <glyph glyph-name="afii10103" unicode="&#x456;" horiz-adv-x="275" 
d="M70 500h135v-500h-135v500zM205 595h-135v130h135v-130z" />
    <glyph glyph-name="afii10104" unicode="&#x457;" horiz-adv-x="275" 
d="M70 500h135v-500h-135v500zM100 595h-120v125h120v-125zM295 595h-120v125h120v-125z" />
    <glyph glyph-name="afii10105" unicode="&#x458;" horiz-adv-x="275" 
d="M25 -85l45 40v545h135v-595l-115 -105h-165v115h100zM205 595h-135v130h135v-130z" />
    <glyph glyph-name="afii10106" unicode="&#x459;" horiz-adv-x="810" 
d="M680 0h-320v385h-105l-20 -290l-115 -105h-110v115h45l45 40l25 355h370v-155h185l95 -85v-175zM495 230v-115h120l25 20v75l-25 20h-120z" />
    <glyph glyph-name="afii10107" unicode="&#x45a;" horiz-adv-x="810" 
d="M205 0h-135v500h135v-175h155v175h135v-175h185l95 -85v-155l-95 -85h-320v210h-155v-210zM495 210v-95h120l25 20v55l-25 20h-120z" />
    <glyph glyph-name="afii10108" unicode="&#x45b;" horiz-adv-x="600" 
d="M540 0h-135v285l-35 30h-140v-315h-135v515h-70v115h70v70h135v-70h110v-115h-110v-85h205l105 -95v-335z" />
    <glyph glyph-name="afii10109" unicode="&#x45c;" horiz-adv-x="545" 
d="M545 0h-150l-125 200h-65v-200h-135v500h135v-185h60l115 185h150l-150 -240zM310 740h140l-110 -160h-100z" />
    <glyph glyph-name="afii10110" unicode="&#x45e;" horiz-adv-x="500" 
d="M325 590h-155l-75 65v95h105v-55l20 -15h55l20 15v55h105v-95zM130 -200l65 200h-30l-165 500h140l105 -345h5l110 345h140l-230 -700h-140z" />
    <glyph glyph-name="afii10193" unicode="&#x45f;" horiz-adv-x="575" 
d="M220 0h-150v500h135v-385h165v385h135v-500h-150v-130h-135v130z" />
    <glyph glyph-name="afii10050" unicode="&#x490;" horiz-adv-x="590" 
d="M85 700h360v100h125v-220h-345v-580h-140v700z" />
    <glyph glyph-name="afii10098" unicode="&#x491;" horiz-adv-x="440" 
d="M205 0h-135v500h245v90h115v-205h-225v-385z" />
    <glyph glyph-name="uni1E9E" unicode="&#x1e9e;" horiz-adv-x="715" 
d="M325 350v120l90 115v5h-140l-55 -50v-540h-140v590l130 120h380v-110l-100 -125v-5h50l120 -110v-250l-120 -110h-260v120h195l45 40v150l-45 40h-150z" />
    <glyph glyph-name="endash" unicode="&#x2013;" horiz-adv-x="535" 
d="M30 290v120h475v-120h-475z" />
    <glyph glyph-name="emdash" unicode="&#x2014;" horiz-adv-x="720" 
d="M30 290v120h660v-120h-660z" />
    <glyph glyph-name="quoteleft" unicode="&#x2018;" horiz-adv-x="240" 
d="M180 665l-45 -80h50v-135h-130v135l75 115z" />
    <glyph glyph-name="quoteright" unicode="&#x2019;" horiz-adv-x="240" 
d="M60 485l45 80h-50v135h130v-135l-75 -115z" />
    <glyph glyph-name="quotesinglbase" unicode="&#x201a;" horiz-adv-x="240" 
d="M60 -80l45 80h-50v135h130v-135l-75 -115z" />
    <glyph glyph-name="quotedblleft" unicode="&#x201c;" horiz-adv-x="425" 
d="M180 665l-45 -80h50v-135h-130v135l75 115zM365 665l-45 -80h50v-135h-130v135l75 115z" />
    <glyph glyph-name="quotedblright" unicode="&#x201d;" horiz-adv-x="425" 
d="M60 485l45 80h-50v135h130v-135l-75 -115zM245 485l45 80h-50v135h130v-135l-75 -115z" />
    <glyph glyph-name="quotedblbase" unicode="&#x201e;" horiz-adv-x="425" 
d="M60 -80l45 80h-50v135h130v-135l-75 -115zM245 -80l45 80h-50v135h130v-135l-75 -115z" />
    <glyph glyph-name="dagger" unicode="&#x2020;" horiz-adv-x="570" 
d="M50 430v120h165v200h140v-200h165v-120h-165v-480h-140v480h-165z" />
    <glyph glyph-name="daggerdbl" unicode="&#x2021;" horiz-adv-x="590" 
d="M530 120h-165v-170h-140v170h-165v120h165v220h-165v120h165v170h140v-170h165v-120h-165v-220h165v-120z" />
    <glyph glyph-name="bullet" unicode="&#x2022;" horiz-adv-x="345" 
d="M255 260h-165v180h165v-180z" />
    <glyph glyph-name="ellipsis" unicode="&#x2026;" horiz-adv-x="710" 
d="M185 0h-130v135h130v-135zM420 0h-130v135h130v-135zM655 0h-130v135h130v-135z" />
    <glyph glyph-name="perthousand" unicode="&#x2030;" horiz-adv-x="1165" 
d="M140 470l30 -25h30l30 25v130l-30 25h-30l-30 -25v-130zM35 435v200l85 75h130l85 -75v-200l-85 -75h-130zM655 700l-390 -700h-105l390 700h105zM675 230l-30 25h-30l-30 -25v-130l30 -25h30l30 25v130zM780 265v-200l-85 -75h-130l-85 75v200l85 75h130zM1025 230
l-30 25h-30l-30 -25v-130l30 -25h30l30 25v130zM1130 265v-200l-85 -75h-130l-85 75v200l85 75h130z" />
    <glyph glyph-name="guilsinglleft" unicode="&#x2039;" horiz-adv-x="400" 
d="M35 255l235 265l85 -85l-160 -180l160 -180l-85 -85z" />
    <glyph glyph-name="guilsinglright" unicode="&#x203a;" horiz-adv-x="400" 
d="M130 520l235 -265l-235 -265l-85 85l160 180l-160 180z" />
    <glyph glyph-name="fraction" unicode="&#x2044;" horiz-adv-x="495" 
d="M495 700l-390 -700h-105l390 700h105z" />
    <glyph glyph-name="foursuperior" unicode="&#x2074;" horiz-adv-x="360" 
d="M195 370v70h-175v65l155 195h125v-185h40v-75h-40v-70h-105zM195 515v95h-5l-70 -90v-5h75z" />
    <glyph glyph-name="Euro" unicode="&#x20ac;" horiz-adv-x="690" 
d="M40 380v105h75v95l130 120h400v-120h-335l-55 -50v-45h245v-105h-245v-60h245v-105h-245v-45l55 -50h335v-120h-400l-130 120v95h-75v105h75v60h-75z" />
    <glyph glyph-name="uni20B4" unicode="&#x20b4;" horiz-adv-x="645" 
d="M600 380h-555v90h315l35 30v40l-45 40h-210v120h275l120 -110v-100l-20 -20h85v-90zM45 320h555v-90h-315l-35 -30v-40l45 -40h235v-120h-300l-120 110v100l20 20h-85v90z" />
    <glyph glyph-name="uni20BD" unicode="&#x20bd;" horiz-adv-x="720" 
d="M255 110v-110h-140v110h-75v100h75v70h-75v110h75v310h430l120 -110v-200l-120 -110h-290v-70h300v-100h-300zM525 540l-45 40h-225v-190h225l45 40v110z" />
    <glyph glyph-name="afii61352" unicode="&#x2116;" horiz-adv-x="1065" 
d="M735 170v100h260v-100h-260zM820 465l30 -25h30l30 25v135l-30 25h-30l-30 -25v-135zM715 430v205l85 75h130l85 -75v-205l-85 -75h-130zM495 260v440h140v-700h-135l-270 440h-5v-440h-140v700h135l270 -440h5z" />
    <glyph glyph-name="trademark" unicode="&#x2122;" horiz-adv-x="905" 
d="M250 310h-120v290h-110v100h340v-100h-110v-290zM655 390h-65l-65 105h-5v-185h-120v390h115l105 -170h5l105 170h115v-390h-120v185h-5z" />
    <glyph glyph-name="minus" unicode="&#x2212;" horiz-adv-x="540" 
d="M50 290v120h440v-120h-440z" />
    <glyph glyph-name="Breve" unicode="&#xf406;" horiz-adv-x="365" 
d="M260 780h-155l-75 65v75h105v-35l20 -15h55l20 15v35h105v-75z" />
    <glyph glyph-name="Circumflex" unicode="&#xf408;" horiz-adv-x="380" 
d="M135 920h110l105 -140h-115l-45 60l-45 -60h-115z" />
    <glyph glyph-name="Dotaccent" unicode="&#xf40b;" horiz-adv-x="195" 
d="M165 795h-135v110h135v-110z" />
    <glyph glyph-name="Ring" unicode="&#xf40c;" horiz-adv-x="310" 
d="M115 825l15 -10h50l15 10v50l-15 10h-50l-15 -10v-50zM30 800v100l60 50h130l60 -50v-100l-60 -50h-130z" />
    <glyph glyph-name="Tilde" unicode="&#xf40d;" horiz-adv-x="380" 
d="M145 820l-75 -35l-40 85l115 50l90 -40l75 35l40 -85l-115 -50z" />
    <glyph glyph-name="commaaccent" unicode="&#xf6c3;" horiz-adv-x="190" 
d="M35 -295l45 80h-50v135h130v-135l-75 -115z" />
    <glyph glyph-name="Acute" unicode="&#xf6c9;" horiz-adv-x="270" 
d="M100 920h140l-110 -140h-100z" />
    <glyph glyph-name="Caron" unicode="&#xf6ca;" horiz-adv-x="380" 
d="M245 780h-110l-105 140h115l45 -60l45 60h115z" />
    <glyph glyph-name="Dieresis" unicode="&#xf6cb;" horiz-adv-x="375" 
d="M150 795h-120v110h120v-110zM345 795h-120v110h120v-110z" />
    <glyph glyph-name="Grave" unicode="&#xf6ce;" horiz-adv-x="270" 
d="M30 920h140l70 -140h-100z" />
    <glyph glyph-name="Hungarumlaut" unicode="&#xf6cf;" horiz-adv-x="440" 
d="M95 920h135l-100 -140h-100zM275 920h135l-100 -140h-100z" />
    <glyph glyph-name="Macron" unicode="&#xf6d0;" horiz-adv-x="325" 
d="M30 795v110h265v-110h-265z" />
    <glyph glyph-name="cyrBreve" unicode="&#xf6d1;" horiz-adv-x="400" 
d="M260 955h110v-90l-85 -75h-170l-85 75v90h110v-45l30 -25h60l30 25v45z" />
    <glyph glyph-name="cyrbreve" unicode="&#xf6d4;" horiz-adv-x="365" 
d="M260 590h-155l-75 65v95h105v-55l20 -15h55l20 15v55h105v-95z" />
    <glyph glyph-name="nonmarkingreturn" horiz-adv-x="333" 
 />
    <glyph glyph-name="Germandbls" horiz-adv-x="715" 
d="M325 350v120l90 115v5h-140l-55 -50v-540h-140v590l130 120h380v-110l-100 -125v-5h50l120 -110v-250l-120 -110h-260v120h195l45 40v150l-45 40h-150z" />
    <glyph glyph-name="foundryicon" horiz-adv-x="1230" 
d="M100 -110v920h1030v-920h-1030zM1110 -90v880h-990v-880h990zM635 610h110c24 0 43.333 -6.33301 58 -19s22 -28 22 -46s-7.33301 -33.333 -22 -46s-34 -19 -58 -19h-55v-80h-55v210zM635 300h110c24 0 43.333 -6.33301 58 -19s22 -28 22 -46s-7.33301 -33.333 -22 -46
s-34 -19 -58 -19h-55v-80h-55v210zM495 170l-75 130h60l40 -75h5l40 75h65l-80 -130v-80h-55v80zM495 480l-75 130h60l40 -75h5l40 75h65l-80 -130v-80h-55v80zM300 255h-65v45h165l25 -45h-70v-165h-55v165zM300 565h-65v45h165l25 -45h-70v-165h-55v165zM790 400v65
c13.333 2.66699 26 9.66699 38 21s19.333 24.333 22 39h80v-45h-85v-35h120v-45h-175zM790 90v65c13.333 2.66699 26 9.66699 38 21s19.333 24.333 22 39h80v-45h-85v-35h120v-45h-175zM810 300h155v-45h-115c-6 24.667 -19.333 39.667 -40 45zM810 610h155v-45h-115
c-6 24.667 -19.333 39.667 -40 45zM765 545c0 4.66699 -2.16699 9.16699 -6.5 13.5s-8.83301 6.5 -13.5 6.5h-55v-40h55c5.33301 0 10 2 14 6s6 8.66699 6 14zM765 235c0 4.66699 -2.16699 9.16699 -6.5 13.5s-8.83301 6.5 -13.5 6.5h-55v-40h55c5.33301 0 10 2 14 6
s6 8.66699 6 14z" />
    </font>
</defs>
</svg>
