<?xml version="1.0" standalone="no"?>
<!DOCTYPE svg PUBLIC "-//W3C//DTD SVG 1.1//EN" "http://www.w3.org/Graphics/SVG/1.1/DTD/svg11.dtd" >
<svg>
<metadata>
Created by FontForge 20090914 at Sat Sep 11 20:23:23 2021
 By www-data
Copyright &#194;&#169; 2020 by Marcello Raffo. All rights reserved.
</metadata>
<defs>
<font id="PexelGrotesk-Regular" horiz-adv-x="608" >
  <font-face 
    font-family="Pexel Grotesk"
    font-weight="400"
    font-stretch="normal"
    units-per-em="1000"
    panose-1="0 0 5 0 0 0 0 0 0 0"
    ascent="770"
    descent="-230"
    x-height="537.997"
    cap-height="769"
    bbox="-406.999 -231.007 1360 1077"
    underline-thickness="50"
    underline-position="-50"
    unicode-range="U+0020-U+2194"
  />
<missing-glyph horiz-adv-x="500" 
d="M410 -230h-317v1000h317v-1000zM168 703v-33h65v-37h-66v-33h166v33h-66v37h66v33h-165zM167 574v-104h166v34h-66v70h-100zM233 504h-33v36h33v-36zM167 443v-33h66v-37h-66v-33h100v70h66v33h-166zM300 383v-66h-133v-34h166v100h-33zM233 261v-56h34v23h33v-47h-100
v80h-33v-113h166v113h-100zM167 88v-113h166v113h-166zM300 8h-100v47h100v-47zM167 -48v-33h70l-70 -47v-33h166v33h-102l70 47h32v33h-166z" />
    <glyph glyph-name=".notdef" horiz-adv-x="500" 
d="M410 -230h-317v1000h317v-1000zM168 703v-33h65v-37h-66v-33h166v33h-66v37h66v33h-165zM167 574v-104h166v34h-66v70h-100zM233 504h-33v36h33v-36zM167 443v-33h66v-37h-66v-33h100v70h66v33h-166zM300 383v-66h-133v-34h166v100h-33zM233 261v-56h34v23h33v-47h-100
v80h-33v-113h166v113h-100zM167 88v-113h166v113h-166zM300 8h-100v47h100v-47zM167 -48v-33h70l-70 -47v-33h166v33h-102l70 47h32v33h-166z" />
    <glyph glyph-name="space" unicode=" " horiz-adv-x="450" 
 />
    <glyph glyph-name="exclam" unicode="!" horiz-adv-x="152" 
d="M107 764c3.33301 -3.33301 5.00098 -7.33301 5.00098 -12v-560c0 -10.667 -3.83301 -19.667 -11.5 -27s-16.834 -11 -27.501 -11h-21c-4.66699 0 -8.66699 1.66699 -12 5s-5 7.33301 -5 12v560c0 10.667 3.66699 19.667 11 27s16.333 11 27 11h22
c4.66699 0 8.66699 -1.66699 12 -5zM46.001 65.5c7.33301 7.66699 16.334 11.499 27.001 11.499h22c4.66699 0 8.66699 -1.66699 12 -5s5 -7.33301 5 -12v-22c0 -10.667 -3.83301 -19.667 -11.5 -27s-16.834 -11 -27.501 -11h-21c-4.66699 0 -8.66699 1.66699 -12 5
s-5 7.33301 -5 12v21c0 10.667 3.66699 19.834 11 27.501z" />
    <glyph glyph-name="quotedbl" unicode="&#x22;" horiz-adv-x="301" 
d="M107 765c3.33301 -3.33301 5.00098 -7.33203 5.00098 -11.999v-175c0 -10.667 -3.83301 -19.834 -11.5 -27.501s-16.834 -11.5 -27.501 -11.5h-22c-4.66699 0 -8.5 1.66699 -11.5 5s-4.5 7.33301 -4.5 12v176c0 10.667 3.66699 19.667 11 27s16.333 11 27 11h22
c4.66699 0 8.66699 -1.66699 12 -5zM261.001 765.001c3.33301 -3.33301 5.00098 -7.33203 5.00098 -11.999v-175c0 -10.667 -3.83301 -19.834 -11.5 -27.501s-16.834 -11.5 -27.501 -11.5h-22c-4.66699 0 -8.5 1.66699 -11.5 5s-4.5 7.33301 -4.5 12v176
c0 10.667 3.66699 19.667 11 27s16.333 11 27 11h22c4.66699 0 8.66699 -1.66699 12 -5z" />
    <glyph glyph-name="numbersign" unicode="#" horiz-adv-x="618" 
d="M573.5 764.5c3 -3 4.49512 -7.16797 4.49512 -12.501v-98c0 -10.667 -3.66699 -19.834 -11 -27.501s-16.333 -11.5 -27 -11.5h-20c-5.33301 0 -9.83301 -1.83301 -13.5 -5.5s-5.5 -7.83398 -5.5 -12.501v-59h60c4.66699 0 8.66699 -1.5 12 -4.5s5 -6.83301 5 -11.5v-22
c0 -10.667 -3.66699 -19.667 -11 -27s-16.333 -11 -27 -11h-39v-39c0 -10.667 -3.66699 -19.667 -11 -27s-16.333 -11 -27 -11h-20c-4.66699 0 -9 -1.83301 -13 -5.5s-6 -8.16699 -6 -13.5v-58h60c4.66699 0 8.66699 -1.66699 12 -5s5 -7.33301 5 -12v-22
c0 -10.667 -3.66699 -19.667 -11 -27s-16.333 -11 -27 -11h-39v-39c0 -10.667 -3.66699 -19.667 -11 -27s-16.333 -11 -27 -11h-20c-4.66699 0 -9 -1.83301 -13 -5.5s-6 -8.16699 -6 -13.5v-97c0 -10.667 -3.66699 -19.667 -11 -27s-16.333 -11 -27 -11h-22
c-4.66699 0 -8.66699 1.66699 -12 5s-5 7.33301 -5 12v98c0 10.667 3.83301 19.834 11.5 27.501s16.834 11.5 27.501 11.5h19c5.33301 0 9.83301 1.83301 13.5 5.5s5.5 8.16699 5.5 13.5v58h-154v-39c0 -10.667 -3.66699 -19.667 -11 -27s-16.333 -11 -27 -11h-20
c-4.66699 0 -9 -1.83301 -13 -5.5s-6 -8.16699 -6 -13.5v-97c0 -10.667 -3.66699 -19.667 -11 -27s-16.333 -11 -27 -11h-22c-4.66699 0 -8.5 1.66699 -11.5 5s-4.5 7.33301 -4.5 12v98c0 10.667 3.66699 19.834 11 27.501s16.333 11.5 27 11.5h20
c5.33301 0 9.66602 1.83301 12.999 5.5s5 8.16699 5 13.5v58h-60c-4.66699 0 -8.5 1.66699 -11.5 5s-4.5 7.33301 -4.5 12v21c0 10.667 3.66699 19.834 11 27.501s16.333 11.5 27 11.5h38v38c0 10.667 3.83301 19.834 11.5 27.501s16.834 11.5 27.501 11.5h20
c5.33301 0 9.66602 1.83301 12.999 5.5s5 7.83398 5 12.501v59h-60c-4.66699 0 -8.66699 1.5 -12 4.5s-5 6.83301 -5 11.5v22c0 10.667 3.83301 19.667 11.5 27s16.834 11 27.501 11h38v39c0 10.667 3.83301 19.667 11.5 27s16.834 11 27.501 11h19
c5.33301 0 9.83301 1.83301 13.5 5.5s5.5 8.16699 5.5 13.5v97c0 10.667 3.83301 19.667 11.5 27s16.834 11 27.501 11h21c5.33301 0 9.5 -1.5 12.5 -4.5s4.5 -7.16699 4.5 -12.5v-98c0 -10.667 -3.66699 -19.834 -11 -27.501s-16.333 -11.5 -27 -11.5h-20
c-5.33301 0 -9.83301 -1.83301 -13.5 -5.5s-5.5 -7.83398 -5.5 -12.501v-59h154v39c0 10.667 3.83301 19.667 11.5 27s16.834 11 27.501 11h19c5.33301 0 9.83301 1.83301 13.5 5.5s5.5 8.16699 5.5 13.5v97c0 10.667 3.83301 19.667 11.5 27s16.834 11 27.501 11h21
c5.33301 0 9.5 -1.5 12.5 -4.5zM418.495 389.999c3.66699 3.33301 5.49902 7.66602 5.49902 12.999v59h-154v-39c0 -10.667 -3.66699 -19.667 -11 -27s-16.333 -11 -27 -11h-20c-4.66699 0 -9 -1.83301 -13 -5.5s-6 -8.16699 -6 -13.5v-58h154v38
c0 10.667 3.83301 19.834 11.5 27.501s16.834 11.5 27.501 11.5h19c5.33301 0 9.83301 1.66699 13.5 5z" />
    <glyph glyph-name="dollar" unicode="$" horiz-adv-x="619" 
d="M496.5 687c-3.66699 3.33301 -8.16992 5.00488 -13.5029 5.00488h-135v-214c0 -4.66699 1.66699 -8.66699 5 -12s7.33301 -5 12 -5h22c10.667 0 19.667 -3.66699 27 -11s11 -16.333 11 -27v-20c0 -5.33301 1.83301 -9.83301 5.5 -13.5s7.83398 -5.5 12.501 -5.5h20
c10.667 0 19.834 -3.66699 27.501 -11s11.5 -16.333 11.5 -27v-20c0 -4.66699 1.83301 -8.83398 5.5 -12.501s7.83398 -5.5 12.501 -5.5h20c10.667 0 19.834 -3.83301 27.501 -11.5s11.5 -16.834 11.5 -27.501v-154c0 -10.667 -3.83301 -19.667 -11.5 -27
s-16.834 -11 -27.501 -11h-20c-5.33301 0 -9.66602 -1.83301 -12.999 -5.5s-5 -8.16699 -5 -13.5v-20c0 -10.667 -3.83301 -19.667 -11.5 -27s-16.834 -11 -27.501 -11h-98c-4.66699 0 -8.66699 -1.66699 -12 -5s-5 -7.33301 -5 -12v-21
c0 -10.667 -3.66699 -19.834 -11 -27.501s-16.333 -11.5 -27 -11.5h-22c-4.66699 0 -8.66699 1.66699 -12 5s-5 7.33301 -5 12v43c0 4.66699 -1.66699 8.66699 -5 12s-7.33301 5 -12 5h-98c-10.667 0 -19.834 3.66699 -27.501 11s-11.5 16.333 -11.5 27v20
c0 5.33301 -1.66699 9.83301 -5 13.5s-7.66602 5.5 -12.999 5.5h-20c-10.667 0 -19.834 3.66699 -27.501 11s-11.5 16.333 -11.5 27v22c0 4.66699 1.66699 8.66699 5 12s7.33301 5 12 5h22c10.667 0 19.667 -3.83301 27 -11.5s11 -16.834 11 -27.501v-20
c0 -4.66699 1.83301 -8.83398 5.5 -12.501s8.16699 -5.5 13.5 -5.5h118c5.33301 0 9.5 1.66699 12.5 5s4.5 7.33301 4.5 12v274c0 4.66699 -1.66699 8.5 -5 11.5s-7.33301 4.5 -12 4.5h-98c-10.667 0 -19.834 3.83301 -27.501 11.5s-11.5 16.834 -11.5 27.501v20
c0 5.33301 -1.66699 9.66602 -5 12.999s-7.66602 5 -12.999 5h-20c-10.667 0 -19.834 3.83301 -27.501 11.5s-11.5 16.834 -11.5 27.501v77c0 10.667 3.83301 19.667 11.5 27s16.834 11 27.501 11h20c5.33301 0 9.66602 1.83301 12.999 5.5s5 8.16699 5 13.5v97
c0.666992 10.667 4.66699 19.667 12 27s16.333 11 27 11h115v38c0 11.333 3.83301 20.666 11.5 27.999s16.834 11 27.501 11h21c4.66699 0 8.66699 -1.66699 12 -5s5 -7.33301 5 -12v-60h115c10.667 0 19.834 -3.66699 27.501 -11s11.5 -16.333 11.5 -27v-20
c0 -5.33301 1.66699 -9.83301 5 -13.5s7.66602 -5.5 12.999 -5.5h20c10.667 0 19.834 -3.66699 27.501 -11s11.5 -16.333 11.5 -27v-22c0 -4.66699 -1.66699 -8.66699 -5 -12s-7.33301 -5 -12 -5h-22c-10.667 0 -19.667 3.83301 -27 11.5s-11 16.834 -11 27.501v20
c0 5.33301 -1.83301 9.66602 -5.5 12.999zM122.997 467.005c4 -4 8.33301 -5.99805 13 -5.99805h118c4.66699 0 8.66699 1.66699 12 5s5 7.33301 5 12v197c0 5.33301 -1.5 9.5 -4.5 12.5s-7.16699 4.5 -12.5 4.5h-43c-4.66699 0 -8.66699 -1.66699 -12 -5
s-5 -7.33301 -5 -12v-21c0 -10.667 -3.66699 -19.834 -11 -27.501s-16.333 -11.5 -27 -11.5h-20c-5.33301 0 -9.83301 -1.83301 -13.5 -5.5s-5.5 -7.83398 -5.5 -12.501v-117c0 -4.66699 2 -9 6 -13zM419.997 379.007c-3.33301 3.33301 -7.66699 5.00195 -13 5.00195h-42
c-4.66699 0 -8.66699 -1.5 -12 -4.5s-5 -6.83301 -5 -11.5v-274c0 -4.66699 1.66699 -8.66699 5 -12s7.33301 -5 12 -5h118c5.33301 0 9.83301 1.66699 13.5 5s5.5 7.66602 5.5 12.999v194c0 5.33301 -1.83301 9.83301 -5.5 13.5s-8.16699 5.5 -13.5 5.5h-20
c-10.667 0 -19.667 3.66699 -27 11s-11 16.333 -11 27v20c0 5.33301 -1.66699 9.66602 -5 12.999z" />
    <glyph glyph-name="percent" unicode="%" horiz-adv-x="839" 
d="M799 764c3.33301 -3.33301 5.00684 -7.34375 5.00684 -12.0107v-21c0 -10.667 -3.83301 -19.834 -11.5 -27.501s-16.834 -11.5 -27.501 -11.5h-20c-4.66699 0 -8.83398 -1.66699 -12.501 -5s-5.5 -7.66602 -5.5 -12.999v-20c0 -10.667 -3.83301 -19.834 -11.5 -27.501
s-16.834 -11.5 -27.501 -11.5h-20c-4.66699 0 -8.83398 -1.66699 -12.501 -5s-5.5 -7.66602 -5.5 -12.999v-20c0 -10.667 -3.83301 -19.834 -11.5 -27.501s-16.834 -11.5 -27.501 -11.5h-20c-4.66699 0 -8.83398 -1.66699 -12.501 -5s-5.5 -7.66602 -5.5 -12.999v-20
c0 -10.667 -3.83301 -19.834 -11.5 -27.501s-16.834 -11.5 -27.501 -11.5h-20c-4.66699 0 -8.83398 -1.66699 -12.501 -5s-5.5 -7.66602 -5.5 -12.999v-20c0 -10.667 -3.66699 -19.834 -11 -27.501s-16.333 -11.5 -27 -11.5h-20c-5.33301 0 -9.83301 -1.66699 -13.5 -5
s-5.5 -7.66602 -5.5 -12.999v-20c0 -10.667 -3.66699 -19.667 -11 -27s-16.333 -11 -27 -11h-20c-5.33301 0 -9.83301 -1.83301 -13.5 -5.5s-5.5 -8.16699 -5.5 -13.5v-20c0 -10.667 -3.66699 -19.667 -11 -27s-16.333 -11 -27 -11h-20c-4.66699 0 -9 -1.83301 -13 -5.5
s-6 -8.16699 -6 -13.5v-20c0 -10.667 -3.66699 -19.667 -11 -27s-16.333 -11 -27 -11h-20c-5.33301 0 -9.83301 -1.83301 -13.5 -5.5s-5.5 -8.16699 -5.5 -13.5v-20c0 -10.667 -3.66699 -19.667 -11 -27s-16.333 -11 -27 -11h-20c-5.33301 0 -9.83301 -1.83301 -13.5 -5.5
s-5.5 -8.16699 -5.5 -13.5v-20c0 -10.667 -3.66699 -19.667 -11 -27s-16.333 -11 -27 -11h-22c-4.66699 0 -8.5 1.66699 -11.5 5s-4.5 7.33301 -4.5 12v21c0 10.667 3.66699 19.834 11 27.501s16.333 11.5 27 11.5h20c5.33301 0 9.66602 1.83301 12.999 5.5
s5 7.83398 5 12.501v20c0 10.667 3.83301 19.834 11.5 27.501s16.834 11.5 27.501 11.5h20c5.33301 0 9.66602 1.83301 12.999 5.5s5 7.83398 5 12.501v20c0 10.667 3.83301 19.834 11.5 27.501s16.834 11.5 27.501 11.5h20c5.33301 0 9.66602 1.83301 12.999 5.5
s5 7.83398 5 12.501v20c0 10.667 3.83301 19.834 11.5 27.501s16.834 11.5 27.501 11.5h20c5.33301 0 9.66602 1.83301 12.999 5.5s5 7.83398 5 12.501v20c0 10.667 3.83301 19.667 11.5 27s16.834 11 27.501 11h20c5.33301 0.666992 9.66602 2.83398 12.999 6.50098
s5 7.83398 5 12.501v20c0 10.667 3.83301 19.667 11.5 27s16.834 11 27.501 11h20c4.66699 0 8.83398 1.83301 12.501 5.5s5.5 8.16699 5.5 13.5v20c0 10.667 3.66699 19.667 11 27s16.333 11 27 11h20c5.33301 0 9.83301 1.83301 13.5 5.5s5.5 8.16699 5.5 13.5v20
c0 10.667 3.66699 19.667 11 27s16.333 11 27 11h20c5.33301 0 9.83301 1.83301 13.5 5.5s5.5 8.16699 5.5 13.5v20c0 10.667 3.66699 19.667 11 27s16.333 11 27 11h20c5.33301 0 9.83301 1.83301 13.5 5.5s5.5 7.83398 5.5 12.501v21c0 10.667 3.66699 19.667 11 27
s16.333 11 27 11h22c4.66699 0 8.66699 -1.66699 12 -5zM46.0068 472.489c-7.33301 7.66699 -11 16.835 -11 27.502v231c0 10.667 3.66699 19.667 11 27s16.333 11 27 11h154c10.667 0 19.667 -3.66699 27 -11s11 -16.333 11 -27v-21
c0 -4.66699 1.83301 -8.83398 5.5 -12.501s8.16699 -5.5 13.5 -5.5h20c10.667 0 19.667 -3.66699 27 -11s11 -16.333 11 -27v-231c0 -10.667 -3.66699 -19.834 -11 -27.501s-16.333 -11.5 -27 -11.5h-154c-10.667 0 -19.834 3.83301 -27.501 11.5s-11.5 16.834 -11.5 27.501
v20c0 5.33301 -1.66699 9.66602 -5 12.999s-7.66602 5 -12.999 5h-20c-10.667 0 -19.667 3.83301 -27 11.5zM117.007 466.99c4 -4 8.33203 -5.99902 12.999 -5.99902h135v213c0 5.33301 -1.66699 9.66602 -5 12.999s-7.66602 5 -12.999 5h-136v-212c0 -4.66699 2 -9 6 -13z
M792.506 296.491c7.66699 -7.66699 11.498 -16.832 11.498 -27.499v-231c0 -10.667 -3.83301 -19.667 -11.5 -27s-16.834 -11 -27.501 -11h-154c-10.667 0 -19.667 3.66699 -27 11s-11 16.333 -11 27v20c0 5.33301 -1.83301 9.83301 -5.5 13.5s-8.16699 5.5 -13.5 5.5h-20
c-10.667 0 -19.667 3.66699 -27 11s-11 16.333 -11 27v231c0 10.667 3.66699 19.667 11 27s16.333 11 27 11h154c10.667 0 19.834 -3.66699 27.501 -11s11.5 -16.333 11.5 -27v-20c0 -4.66699 1.83301 -8.83398 5.5 -12.501s7.83398 -5.5 12.501 -5.5h20
c10.667 0 19.834 -3.83301 27.501 -11.5zM721.504 302.493c-3.66699 3.66699 -8.16797 5.50098 -13.501 5.50098h-135v-213c0 -4.66699 1.83301 -8.83398 5.5 -12.501s7.83398 -5.5 12.501 -5.5h136v212c0 5.33301 -1.83301 9.83301 -5.5 13.5z" />
    <glyph glyph-name="ampersand" unicode="&#x26;" horiz-adv-x="696" 
d="M590 296.5c7.33301 7.66699 16.3281 11.501 26.9951 11.501h22c4.66699 0 8.66699 -1.66699 12 -5s5 -7.33301 5 -12v-22c0 -10.667 -3.83301 -19.667 -11.5 -27s-16.834 -11 -27.501 -11h-20c-4.66699 0 -8.83398 -1.83301 -12.501 -5.5s-5.5 -8.16699 -5.5 -13.5v-40
c0 -4.66699 1.83301 -8.83398 5.5 -12.501s7.83398 -5.5 12.501 -5.5h20c10.667 0 19.834 -3.83301 27.501 -11.5s11.5 -16.834 11.5 -27.501v-98c0 -4.66699 -1.66699 -8.66699 -5 -12s-7.33301 -5 -12 -5h-22c-10.667 0 -19.667 3.66699 -27 11s-11 16.333 -11 27v97
c0 5.33301 -1.83301 9.83301 -5.5 13.5s-8.16699 5.5 -13.5 5.5h-40c-5.33301 0 -9.66602 -1.83301 -12.999 -5.5s-5 -8.16699 -5 -13.5v-20c0 -10.667 -3.83301 -19.667 -11.5 -27s-16.834 -11 -27.501 -11h-20c-5.33301 0 -9.66602 -1.83301 -12.999 -5.5
s-5 -8.16699 -5 -13.5v-20c0 -10.667 -3.66699 -19.667 -11 -27s-16.333 -11 -27 -11h-231c-10.667 0 -19.834 3.66699 -27.501 11s-11.5 16.333 -11.5 27v20c0 5.33301 -1.66699 9.83301 -5 13.5s-7.66602 5.5 -12.999 5.5h-20c-10.667 0 -19.834 3.66699 -27.501 11
s-11.5 16.333 -11.5 27v77c0 10.667 3.83301 19.834 11.5 27.501s16.834 11.5 27.501 11.5h20c5.33301 0 9.66602 1.83301 12.999 5.5s5 7.83398 5 12.501v20c0 10.667 3.83301 19.834 11.5 27.501s16.834 11.5 27.501 11.5h20c5.33301 0 9.66602 1.83301 12.999 5.5
s5 7.83398 5 12.501v20c0 10.667 3.83301 19.667 11.5 27s16.834 11 27.501 11h20c4.66699 0 8.83398 1.83301 12.501 5.5s5.5 8.16699 5.5 13.5v40c0 5.33301 -1.66699 9.66602 -5 12.999s-7.66602 5 -12.999 5h-20c-10.667 0 -19.834 3.83301 -27.501 11.5
s-11.5 16.834 -11.5 27.501v20c0 5.33301 -1.66699 9.66602 -5 12.999s-7.66602 5 -12.999 5h-20c-10.667 0 -19.834 3.83301 -27.501 11.5s-11.5 16.834 -11.5 27.501c0.666992 10.667 4.83398 19.667 12.501 27s16.834 11 27.501 11h19
c5.33301 0 9.66602 1.83301 12.999 5.5s5 8.16699 5 13.5v97c0 10.667 3.83301 19.667 11.5 27s16.834 11 27.501 11h154c10.667 0 19.667 -3.66699 27 -11s11 -16.333 11 -27v-20c0 -5.33301 1.66699 -9.83301 5 -13.5s7.66602 -5.5 12.999 -5.5h20
c10.667 0 19.834 -3.66699 27.501 -11s11.5 -16.333 11.5 -27v-77c0 -10.667 -3.83301 -19.834 -11.5 -27.501s-16.834 -11.5 -27.501 -11.5h-20c-4.66699 0 -8.83398 -1.66699 -12.501 -5s-5.5 -7.66602 -5.5 -12.999v-20c0 -10.667 -3.66699 -19.834 -11 -27.501
s-16.333 -11.5 -27 -11.5h-21c-4.66699 0 -8.83398 -1.66699 -12.501 -5s-5.5 -7.66602 -5.5 -12.999v-40c0 -5.33301 1.83301 -9.83301 5.5 -13.5s7.83398 -5.5 12.501 -5.5h21c10.667 0 19.667 -3.66699 27 -11s11 -16.333 11 -27v-20
c0 -4.66699 1.83301 -8.83398 5.5 -12.501s7.83398 -5.5 12.501 -5.5h20c10.667 0 19.834 -3.83301 27.501 -11.5s11.5 -16.834 11.5 -27.501v-20c0 -4.66699 1.83301 -8.83398 5.5 -12.501s7.83398 -5.5 12.501 -5.5h40c5.33301 0 9.83301 1.66699 13.5 5
s5.5 7.66602 5.5 12.999v20c0 10.667 3.66699 19.834 11 27.501zM276.495 466.501c3.66699 -3.66699 8.16309 -5.49707 13.4961 -5.49707h40c4.66699 0 8.83398 1.83301 12.501 5.5s5.5 8.16699 5.5 13.5v20c0 10.667 3.83301 19.667 11.5 27s16.834 11 27.501 11h20
c4.66699 0 8.83398 1.83301 12.501 5.5s5.5 8.16699 5.5 13.5v117c0 5.33301 -1.66699 9.66602 -5 12.999s-7.66602 5 -12.999 5h-119c-4.66699 0 -8.66699 -1.66699 -12 -5s-5 -7.33301 -5 -12v-21c0 -10.667 -3.66699 -19.834 -11 -27.501s-16.333 -11.5 -27 -11.5h-20
c-5.33301 0 -9.83301 -1.83301 -13.5 -5.5s-5.5 -7.83398 -5.5 -12.501v-40c0 -4.66699 2 -9 6 -13s8.33301 -6 13 -6h20c10.667 0 19.667 -3.66699 27 -11s11 -16.333 11 -27v-20c0 -5.33301 1.83301 -9.83301 5.5 -13.5zM496.491 159.004
c3.66699 3.33301 5.50195 7.66602 5.50195 12.999v40c0 5.33301 -1.83301 9.83301 -5.5 13.5s-8.16699 5.5 -13.5 5.5h-20c-10.667 0 -19.667 3.66699 -27 11s-11 16.333 -11 27v20c0 5.33301 -1.83301 9.83301 -5.5 13.5s-7.83398 5.5 -12.501 5.5h-20
c-10.667 0 -19.834 3.66699 -27.501 11s-11.5 16.333 -11.5 27v20c0 5.33301 -1.66699 9.66602 -5 12.999s-7.66602 5 -12.999 5h-40c-5.33301 0 -9.83301 -1.66699 -13.5 -5s-5.5 -7.66602 -5.5 -12.999v-20c0 -10.667 -3.66699 -19.667 -11 -27s-16.333 -11 -27 -11h-20
c-4.66699 0 -9 -1.83301 -13 -5.5s-6 -8.16699 -6 -13.5v-20c0 -10.667 -3.66699 -19.667 -11 -27s-16.333 -11 -27 -11h-20c-4.66699 0 -9 -1.83301 -13 -5.5s-6 -8.16699 -6 -13.5v-117c0 -4.66699 1.83301 -8.83398 5.5 -12.501s8.16699 -5.5 13.5 -5.5h271
c5.33301 0 9.66602 1.83301 12.999 5.5s5 7.83398 5 12.501v20c0 10.667 3.66699 19.834 11 27.501s16.333 11.5 27 11.5h20c5.33301 0 9.83301 1.66699 13.5 5z" />
    <glyph glyph-name="quotesingle" unicode="'" horiz-adv-x="147" 
d="M107 765c3.33301 -3.33301 4.99902 -7.33301 4.99902 -12v-175c0 -10.667 -3.66699 -19.667 -11 -27s-16.333 -11 -27 -11h-22c-4.66699 0 -8.66699 1.5 -12 4.5s-5 6.83301 -5 11.5v176c0 10.667 3.83301 19.667 11.5 27s16.834 11 27.501 11h21
c4.66699 0 8.66699 -1.66699 12 -5z" />
    <glyph glyph-name="parenleft" unicode="(" horiz-adv-x="271" 
d="M112.5 82.5c3.66699 -3.66699 7.83203 -5.50195 12.499 -5.50195h20c10.667 0 19.834 -3.83301 27.501 -11.5s11.5 -16.834 11.5 -27.501v-97c0 -5.33301 1.83301 -9.66602 5.5 -12.999s7.83398 -5 12.501 -5h20c10.667 0 19.834 -3.83301 27.501 -11.5
s11.5 -16.834 11.5 -27.501v-21c0 -4.66699 -1.66699 -8.66699 -5 -12s-7.33301 -5 -12 -5h-22c-10.667 0 -19.667 3.66699 -27 11s-11 16.333 -11 27v20c0 5.33301 -1.83301 9.83301 -5.5 13.5s-8.16699 5.5 -13.5 5.5h-20c-10.667 0 -19.667 3.66699 -27 11
s-11 16.333 -11 27v97c0 5.33301 -1.83301 9.83301 -5.5 13.5s-8.16699 5.5 -13.5 5.5h-20c-10.667 0 -19.667 3.66699 -27 11s-11 16.333 -11 27v462c0 10.667 3.66699 19.667 11 27s16.333 11 27 11h20c5.33301 0 9.83301 1.83301 13.5 5.5s5.5 7.83398 5.5 12.501v98
c0 10.667 3.66699 19.667 11 27s16.333 11 27 11h20c5.33301 0 9.83301 1.83301 13.5 5.5s5.5 7.83398 5.5 12.501v20c0 10.667 3.66699 19.834 11 27.501s16.333 11.5 27 11.5h22c4.66699 0 8.66699 -1.66699 12 -5s5 -7.33301 5 -12v-22
c0 -10.667 -3.83301 -19.667 -11.5 -27s-16.834 -11 -27.501 -11h-20c-5.33301 0 -9.66602 -1.83301 -12.999 -5.5s-5 -8.16699 -5 -13.5v-97c0 -10.667 -3.83301 -19.667 -11.5 -27s-16.834 -11 -27.501 -11h-20c-4.66699 0 -8.83398 -1.66699 -12.501 -5
s-5.5 -7.66602 -5.5 -12.999v-502c0 -4.66699 1.83301 -8.83398 5.5 -12.501z" />
    <glyph glyph-name="parenright" unicode=")" horiz-adv-x="271" 
d="M158.5 611.5c-3.66699 3.66699 -7.83398 5.49902 -12.501 5.49902h-20c-10.667 0 -19.834 3.66699 -27.501 11s-11.5 16.333 -11.5 27v97c0 5.33301 -1.66699 9.66602 -5 12.999s-7.66602 5 -12.999 5h-20c-10.667 0 -19.834 3.83301 -27.501 11.5
s-11.5 16.834 -11.5 27.501v21c0 4.66699 1.66699 8.66699 5 12s7.33301 5 12 5h22c10.667 0 19.667 -3.66699 27 -11s11 -16.333 11 -27v-20c0 -5.33301 1.83301 -9.83301 5.5 -13.5s8.16699 -5.5 13.5 -5.5h20c10.667 0 19.667 -3.66699 27 -11s11 -16.333 11 -27v-97
c0 -5.33301 1.83301 -9.66602 5.5 -12.999s8.16699 -5 13.5 -5h20c10.667 0 19.667 -3.83301 27 -11.5s11 -16.834 11 -27.501v-462c0 -10.667 -3.66699 -19.667 -11 -27s-16.333 -11 -27 -11h-20c-5.33301 0 -9.83301 -1.66699 -13.5 -5s-5.5 -7.66602 -5.5 -12.999v-97
c0 -10.667 -3.66699 -19.834 -11 -27.501s-16.333 -11.5 -27 -11.5h-20c-5.33301 0 -9.83301 -1.66699 -13.5 -5s-5.5 -7.66602 -5.5 -12.999v-20c0 -10.667 -3.66699 -19.667 -11 -27s-16.333 -11 -27 -11h-22c-4.66699 0 -8.66699 1.5 -12 4.5s-5 6.83301 -5 11.5v22
c0 10.667 3.83301 19.667 11.5 27s16.834 11 27.501 11h20c4.66699 0 8.83398 1.83301 12.501 5.5s5.5 8.16699 5.5 13.5v97c0 10.667 3.83301 19.667 11.5 27s16.834 11 27.501 11h20c5.33301 0 9.66602 1.83301 12.999 5.5s5 8.16699 5 13.5v501
c0 5.33301 -1.83301 9.83301 -5.5 13.5z" />
    <glyph glyph-name="asterisk" unicode="*" horiz-adv-x="291" 
d="M189.5 621.5c3.66699 -3.66699 8.16504 -5.5 13.498 -5.5h19c10.667 0 19.834 -3.66699 27.501 -11s11.5 -16.333 11.5 -27v-22c0 -4.66699 -1.66699 -8.66699 -5 -12s-7.33301 -5 -12 -5h-22c-10.667 0 -19.667 3.83301 -27 11.5s-11 16.834 -11 27.501v19
c0 5.33301 -1.83301 9.83301 -5.5 13.5s-8.16699 5.5 -13.5 5.5h-39c-5.33301 0 -9.83301 -1.83301 -13.5 -5.5s-5.5 -8.16699 -5.5 -13.5v-19c0 -10.667 -3.66699 -19.834 -11 -27.501s-16.333 -11.5 -27 -11.5h-22c-4.66699 0 -8.66699 1.66699 -12 5s-5 7.33301 -5 12v22
c0 10.667 3.83301 19.667 11.5 27s16.834 11 27.501 11h19c5.33301 0 9.83301 1.83301 13.5 5.5s5.5 8.16699 5.5 13.5v39c0 5.33301 -1.83301 9.83301 -5.5 13.5s-8.16699 5.5 -13.5 5.5h-19c-10.667 0 -19.834 3.83301 -27.501 11.5s-11.5 16.834 -11.5 27.501v21
c0 4.66699 1.66699 8.66699 5 12s7.33301 5 12 5h22c10.667 0 19.667 -3.66699 27 -11s11 -16.333 11 -27v-20c0 -5.33301 1.83301 -9.83301 5.5 -13.5s8.16699 -5.5 13.5 -5.5h39c5.33301 0 9.83301 2 13.5 6s5.5 8.33301 5.5 13v20c0 10.667 3.66699 19.667 11 27
s16.333 11 27 11h22c4.66699 0 8.66699 -1.66699 12 -5s5 -7.33301 5 -12v-21c0 -10.667 -3.66699 -19.834 -11 -27.501s-16.666 -11.5 -27.999 -11.5h-19c-5.33301 0 -9.83301 -1.83301 -13.5 -5.5s-5.5 -8.16699 -5.5 -13.5v-39c0 -5.33301 1.83301 -9.83301 5.5 -13.5z
" />
    <glyph glyph-name="plus" unicode="+" horiz-adv-x="454" 
d="M414.5 382c3 -3.33301 4.50098 -7.33398 4.50098 -12.001v-22c0 -10.667 -3.66699 -19.667 -11 -27s-16.333 -11 -27 -11h-115v-116c0 -10.667 -3.83301 -19.667 -11.5 -27s-16.834 -11 -27.501 -11h-22c-4.66699 0 -8.5 1.66699 -11.5 5s-4.5 7.33301 -4.5 12v137h-137
c-4.66699 0 -8.66699 1.5 -12 4.5s-5 6.83301 -5 11.5v22c0 10.667 3.66699 19.834 11 27.501s16.333 11.5 27 11.5h116v115c0 10.667 3.66699 19.667 11 27s16.333 11 27 11h22c4.66699 0 8.66699 -1.5 12 -4.5s5 -6.83301 5 -11.5v-137h137
c4.66699 0 8.5 -1.66699 11.5 -5z" />
    <glyph glyph-name="comma" unicode="," horiz-adv-x="209" 
d="M108 65.5c7.33301 7.66699 16.3359 11.502 27.0029 11.502h22c4.66699 0 8.66699 -1.66699 12 -5s5 -7.33301 5 -12v-98c0 -10.667 -3.83301 -19.834 -11.5 -27.501s-16.834 -11.5 -27.501 -11.5h-20c-4.66699 0 -8.83398 -1.83301 -12.501 -5.5
s-5.5 -7.83398 -5.5 -12.501v-20c0 -10.667 -3.83301 -19.834 -11.5 -27.501s-16.834 -11.5 -27.501 -11.5h-21c-4.66699 0 -8.66699 1.66699 -12 5s-5 7.33301 -5 12v22c0 10.667 3.66699 19.667 11 27s16.333 11 27 11h20c5.33301 0 9.83301 1.83301 13.5 5.5
s5.5 8.16699 5.5 13.5v96c0 10.667 3.66699 19.834 11 27.501z" />
    <glyph glyph-name="hyphen" unicode="-" horiz-adv-x="378" 
d="M338 303c3.33301 -3.33301 5 -7.33203 5 -11.999v-22c0 -10.667 -3.83301 -19.667 -11.5 -27s-16.834 -11 -27.501 -11h-252c-4.66699 0 -8.66699 1.66699 -12 5s-5 7.33301 -5 12v21c0 11.333 3.83301 20.666 11.5 27.999s16.834 11 27.501 11h252
c4.66699 0 8.66699 -1.66699 12 -5z" />
    <glyph glyph-name="period" unicode="." horiz-adv-x="127" 
d="M92.5 72c3 -3.33301 4.49902 -7.33398 4.49902 -12.001v-22c0 -10.667 -3.66699 -19.667 -11 -27s-16.333 -11 -27 -11h-22c-4.66699 0 -8.66699 1.66699 -12 5s-5 7.33301 -5 12v21c0 10.667 3.83301 19.834 11.5 27.501s16.834 11.5 27.501 11.5h22
c4.66699 0 8.5 -1.66699 11.5 -5z" />
    <glyph glyph-name="slash" unicode="/" horiz-adv-x="517" 
d="M492 842c3.33301 -3.33301 5 -7.33398 5 -12.001v-99c0 -10.667 -3.83301 -19.667 -11.5 -27s-16.834 -11 -27.501 -11h-20c-5.33301 0 -9.66602 -1.83301 -12.999 -5.5s-5 -8.16699 -5 -13.5v-97c0 -10.667 -3.83301 -19.667 -11.5 -27s-16.834 -11 -27.501 -11h-20
c-4.66699 0 -8.83398 -1.66699 -12.501 -5s-5.5 -7.66602 -5.5 -12.999v-97c0 -10.667 -3.66699 -19.834 -11 -27.501s-16.666 -11.5 -27.999 -11.5h-20c-4.66699 0 -8.83398 -1.66699 -12.501 -5s-5.5 -7.66602 -5.5 -12.999v-97c0 -10.667 -3.66699 -19.834 -11 -27.501
s-16.333 -11.5 -27 -11.5h-20c-5.33301 0 -9.83301 -1.66699 -13.5 -5s-5.5 -7.66602 -5.5 -12.999v-97c0 -10.667 -3.66699 -19.667 -11 -27s-16.333 -11 -27 -11h-20c-5.33301 0 -9.83301 -1.83301 -13.5 -5.5s-5.5 -8.16699 -5.5 -13.5v-97
c0 -10.667 -3.66699 -19.667 -11 -27s-16.333 -11 -27 -11h-22c-4.66699 0 -8.66699 1.66699 -12 5s-5 7.33301 -5 12v98c0 10.667 3.83301 19.834 11.5 27.501s16.834 11.5 27.501 11.5h20c5.33301 0 9.66602 1.83301 12.999 5.5s5 7.83398 5 12.501v97
c0 10.667 3.83301 19.667 11.5 27s16.834 11 27.501 11h20c4.66699 0 8.83398 1.83301 12.501 5.5s5.5 8.16699 5.5 13.5v97c0 10.667 3.83301 19.667 11.5 27s16.834 11 27.501 11h20c5.33301 0 9.66602 1.83301 12.999 5.5s5 8.16699 5 13.5v97
c0 10.667 3.66699 19.667 11 27s16.333 11 27 11h20c5.33301 0 9.83301 1.66699 13.5 5s5.5 7.66602 5.5 12.999v98c0 10.667 3.66699 19.667 11 27s16.333 11 27 11h20c5.33301 0 9.83301 1.66699 13.5 5s5.5 7.66602 5.5 12.999v98c0 10.667 3.66699 19.667 11 27
s16.333 11 27 11h22c4.66699 0 8.66699 -1.66699 12 -5z" />
    <glyph glyph-name="zero" unicode="0" horiz-adv-x="609" 
d="M562.5 528c7.66699 -7.33301 11.4961 -16.332 11.4961 -26.999v-385c0 -10.667 -3.66699 -19.834 -11 -27.501s-16.666 -11.5 -27.999 -11.5h-20c-4.66699 0 -8.83398 -1.66699 -12.501 -5s-5.5 -7.66602 -5.5 -12.999v-20c0 -10.667 -3.66699 -19.834 -11 -27.501
s-16.666 -11.5 -27.999 -11.5h-307c-10.667 -0 -19.834 3.83301 -27.501 11.5s-11.5 16.834 -11.5 27.501v97c0 5.33301 -1.66699 9.66602 -5 12.999s-7.66602 5 -12.999 5h-20c-10.667 0 -19.834 3.66699 -27.501 11s-11.5 16.333 -11.5 27v386
c0 10.667 3.83301 19.667 11.5 27s16.834 11 27.501 11h20c5.33301 0 9.66602 1.83301 12.999 5.5s5 7.83398 5 12.501v21c0 10.667 3.83301 19.667 11.5 27s16.834 11 27.501 11h307c10.667 0 19.834 -3.66699 27.501 -11s11.5 -16.333 11.5 -27v-1v-97
c0 -4.66699 1.83301 -8.83398 5.5 -12.501s7.83398 -5.5 12.501 -5.5h20c10.667 0 19.834 -3.66699 27.501 -11zM117.496 159.501c3.66699 -3.66699 7.83398 -5.5 12.501 -5.5h41c5.33301 0 9.66602 1.83301 12.999 5.5s5 7.83398 5 12.501v97
c0 11.333 3.83301 20.666 11.5 27.999s16.834 11 27.501 11h20c5.33301 0 9.66602 1.83301 12.999 5.5s5 7.83398 5 12.501v21c0 10.667 3.66699 19.667 11 27s16.333 11 27 11h21c5.33301 0 9.66602 1.83301 12.999 5.5s5 7.83398 5 12.501v98
c0 10.667 3.66699 19.667 11 27s16.333 11 27 11h20c5.33301 0 9.83301 1.66699 13.5 5s5.5 7.66602 5.5 12.999v20v1v21c0 4.66699 -1.66699 8.66699 -5 12s-7.33301 5 -12 5h-273c-5.33301 0 -9.66602 -1.83301 -12.999 -5.5s-5 -8.16699 -5 -13.5v-425
c0 -4.66699 1.83301 -8.83398 5.5 -12.501zM491.496 82.001c3.66699 3.33301 5.5 7.66602 5.5 12.999v425c0 5.33301 -1.83301 9.83301 -5.5 13.5s-8.16699 5.5 -13.5 5.5h-40c-5.33301 0 -9.66602 -1.83301 -12.999 -5.5s-5 -8.16699 -5 -13.5v-97
c0 -10.667 -3.83301 -19.667 -11.5 -27s-16.834 -11 -27.501 -11h-20c-5.33301 0 -9.66602 -1.83301 -12.999 -5.5s-5 -8.16699 -5 -13.5v-20c0 -10.667 -3.83301 -19.667 -11.5 -27s-16.834 -11 -27.501 -11h-20c-5.33301 0 -9.66602 -1.83301 -12.999 -5.5
s-5 -8.16699 -5 -13.5v-97c0 -10.667 -3.66699 -19.667 -11 -27s-16.333 -11 -27 -11h-21c-4.66699 0 -8.83398 -1.66699 -12.501 -5s-5.5 -7.66602 -5.5 -12.999v-42c0 -4.66699 1.66699 -8.66699 5 -12s7.33301 -5 12 -5h272c5.33301 0 9.83301 1.66699 13.5 5z" />
    <glyph glyph-name="one" unicode="1" horiz-adv-x="301" 
d="M254 682c7.33301 -7.33301 11.3359 -16.334 12.0029 -27.001v-1v-615c0 -10.667 -3.83301 -19.834 -11.5 -27.501s-16.834 -11.5 -27.501 -11.5h-22c-4.66699 0 -8.5 1.66699 -11.5 5s-4.5 7.33301 -4.5 12v582c0 4.66699 -1.66699 8.66699 -5 12s-7.33301 5 -12 5h-42
c-4.66699 0 -8.83398 -1.66699 -12.501 -5s-5.5 -7.66602 -5.5 -12.999v-21c0 -10.667 -3.83301 -19.667 -11.5 -27s-16.834 -11 -27.501 -11h-21c-4.66699 0 -8.66699 1.66699 -12 5s-5 7.33301 -5 12v21v1c0 10.667 3.66699 19.667 11 27s16.333 11 27 11h20
c5.33301 0 9.83301 1.83301 13.5 5.5s5.5 7.83398 5.5 12.501v21c0 10.667 3.66699 19.667 11 27s16.333 11 27 11h77c10.667 0 19.667 -3.66699 27 -11z" />
    <glyph glyph-name="two" unicode="2" horiz-adv-x="609" 
d="M563 528c7.33301 -7.33301 11.0029 -16.3408 11.0029 -27.0078v-78c0 -10.667 -3.66699 -19.667 -11 -27s-16.333 -11 -27 -11h-20c-5.33301 0 -9.83301 -1.83301 -13.5 -5.5s-5.5 -8.16699 -5.5 -13.5v-20c0 -10.667 -3.66699 -19.667 -11 -27s-16.333 -11 -27 -11h-174
c-5.33301 0 -9.83301 -1.83301 -13.5 -5.5s-5.5 -8.16699 -5.5 -13.5v-20c0 -10.667 -3.66699 -19.667 -11 -27s-16.333 -11 -27 -11h-20c-5.33301 0 -9.83301 -1.83301 -13.5 -5.5s-5.5 -8.16699 -5.5 -13.5v-20c0 -10.667 -3.66699 -19.667 -11 -27s-16.333 -11 -27 -11
h-20c-5.33301 0 -9.83301 -1.83301 -13.5 -5.5s-5.5 -7.83398 -5.5 -12.501v-42c0 -4.66699 1.66699 -8.66699 5 -12s7.33301 -5 12 -5h428c4.66699 0 8.66699 -1.66699 12 -5s5 -7.33301 5 -12v-22c0 -10.667 -3.66699 -19.667 -11 -27s-16.333 -11 -27 -11h-462
c-10.667 0 -19.834 3.66699 -27.501 11s-11.5 16.333 -11.5 27v77c0 10.667 3.83301 19.834 11.5 27.501s16.834 11.5 27.501 11.5h20c5.33301 0 9.66602 1.83301 12.999 5.5s5 7.83398 5 12.501v20c0 10.667 3.83301 19.834 11.5 27.501s16.834 11.5 27.501 11.5h20
c5.33301 0 9.66602 1.83301 12.999 5.5s5 7.83398 5 12.501v20c0 10.667 3.83301 19.834 11.5 27.501s16.834 11.5 27.501 11.5h20c5.33301 0 9.66602 1.83301 12.999 5.5s5 7.83398 5 12.501v21c0.666992 10.667 4.66699 19.667 12 27s16.333 11 27 11h174
c5.33301 0 9.66602 1.83301 12.999 5.5s5 7.83398 5 12.501v117c0 5.33301 -1.66699 9.83301 -5 13.5s-7.66602 5.5 -12.999 5.5h-20c-10.667 0 -19.834 3.66699 -27.501 11s-11.5 16.333 -11.5 27v22c0 4.66699 -1.66699 8.66699 -5 12s-7.33301 5 -12 5h-272
c-4.66699 0 -9 -1.83301 -13 -5.5s-6 -8.16699 -6 -13.5v-20c0 -10.667 -3.66699 -19.667 -11 -27s-16.333 -11 -27 -11h-22c-4.66699 0 -8.66699 1.66699 -12 5s-5 7.33301 -5 12v22c0.666992 10.667 4.66699 19.667 12 27s16.333 11 27 11h20
c5.33301 0 9.66602 1.83301 12.999 5.5s5 7.83398 5 12.501v21c0.666992 10.667 4.66699 19.667 12 27s16.333 11 27 11h308c10.667 0 19.667 -3.66699 27 -11s11 -16.333 11 -27v-98c0 -5.33301 1.83301 -9.66602 5.5 -12.999s8.16699 -5 13.5 -5h20
c10.667 0 19.667 -3.66699 27 -11z" />
    <glyph glyph-name="three" unicode="3" horiz-adv-x="609" 
d="M562.5 528c7.66699 -7.33301 11.499 -16.334 11.499 -27.001v-77c0 -10.667 -3.66699 -19.834 -11 -27.501s-16.666 -11.5 -27.999 -11.5h-20c-4.66699 0 -8.83398 -1.66699 -12.501 -5s-5.5 -7.66602 -5.5 -12.999v-40c0 -5.33301 1.83301 -9.83301 5.5 -13.5
s7.83398 -5.5 12.501 -5.5h20c10.667 0 19.834 -3.66699 27.501 -11s11.5 -16.333 11.5 -27v-154c0 -10.667 -3.83301 -19.834 -11.5 -27.501s-16.834 -11.5 -27.501 -11.5h-20c-4.66699 0 -8.83398 -1.66699 -12.501 -5s-5.5 -7.66602 -5.5 -12.999v-20
c0 -10.667 -3.83301 -19.834 -11.5 -27.501s-16.834 -11.5 -27.501 -11.5h-308c-10.667 0 -19.667 3.83301 -27 11.5s-11 16.834 -11 27.501v20c0 5.33301 -1.66699 9.66602 -5 12.999s-7.66602 5 -12.999 5h-21c-10.667 0 -19.667 3.83301 -27 11.5s-11 16.834 -11 27.501
v22c0 4.66699 1.66699 8.5 5 11.5s7.33301 4.5 12 4.5h21c10.667 0 19.834 -3.66699 27.501 -11s11.5 -16.333 11.5 -27v-20c0 -5.33301 1.83301 -9.83301 5.5 -13.5s7.83398 -5.5 12.501 -5.5h348c5.33301 0 9.83301 1.83301 13.5 5.5s5.5 8.16699 5.5 13.5v194
c0 4.66699 -1.66699 8.66699 -5 12s-7.33301 5.33301 -12 6h-176c-10.667 0 -19.667 3.83301 -27 11.5s-11 16.834 -11 27.501v21c0 5.33301 1.66699 9.5 5 12.5s7.33301 4.5 12 4.5h195c5.33301 0 9.83301 1.83301 13.5 5.5s5.5 8.16699 5.5 13.5v117
c0 5.33301 -1.83301 9.66602 -5.5 12.999s-8.16699 5 -13.5 5h-20c-10.667 0 -19.667 3.83301 -27 11.5s-11 16.834 -11 27.501v38h-290c-4.66699 0 -8.83398 -1.66699 -12.501 -5s-5.5 -7.66602 -5.5 -12.999v-20c0 -10.667 -3.66699 -19.834 -11 -27.501
s-16.666 -11.5 -27.999 -11.5h-21c-4.66699 0 -8.66699 1.66699 -12 5s-5 7.33301 -5 12v22c0 10.667 3.66699 19.667 11 27s16.333 11 27 11h21c5.33301 0 9.66602 1.83301 12.999 5.5s5 8.16699 5 13.5v20c0 10.667 3.66699 19.667 11 27s16.333 11 27 11h309
c10.667 0 19.667 -3.66699 27 -11s11 -16.333 11 -27v-97c0 -5.33301 1.66699 -9.83301 5 -13.5s7.66602 -5.5 12.999 -5.5h20c10.667 0 19.834 -3.66699 27.501 -11z" />
    <glyph glyph-name="four" unicode="4" horiz-adv-x="609" 
d="M562.5 219.5c7.66699 -7.66699 11.4951 -16.835 11.4951 -27.502v-22c0 -4.66699 -1.66699 -8.5 -5 -11.5s-7.33301 -4.5 -12 -4.5h-60v-116c0 -10.667 -3.83301 -19.667 -11.5 -27s-16.834 -11 -27.501 -11h-21c-4.66699 0 -8.66699 1.5 -12 4.5s-5 6.83301 -5 11.5v138
h-346c-10.667 0 -19.834 3.66699 -27.501 11s-11.5 16.333 -11.5 27v77c0 10.667 3.83301 19.834 11.5 27.501s16.834 11.5 27.501 11.5h20c5.33301 0 9.66602 1.83301 12.999 5.5s5 7.83398 5 12.501v97c0 10.667 3.83301 19.667 11.5 27s16.834 11 27.501 11h20
c4.66699 0 8.83398 1.83301 12.501 5.5s5.5 8.16699 5.5 13.5v97c0 10.667 3.83301 19.667 11.5 27s16.834 11 27.501 11h20c4.66699 0 8.83398 1.83301 12.501 5.5s5.5 8.16699 5.5 13.5v20c0 10.667 3.66699 19.667 11 27s16.333 11 27 11h77
c10.667 0 19.834 -3.66699 27.501 -11s11.5 -16.333 11.5 -27v-77v-20c0 -5.33301 1.83301 -9.83301 5.5 -13.5s7.83398 -5.5 12.501 -5.5h21c10.667 0 19.667 -3.66699 27 -11s11 -16.333 11 -27v-269h38c10.667 0 19.834 -3.83301 27.501 -11.5zM117.495 302.499
c-3.66699 -3.66699 -5.49707 -8.16797 -5.49707 -13.501v-42c0 -4.66699 1.66699 -8.5 5 -11.5s7.33301 -4.5 12 -4.5h291v289c0 5.33301 -1.83301 9.66602 -5.5 12.999s-8.16699 5 -13.5 5h-20c-10.667 0 -19.667 3.83301 -27 11.5s-11 16.834 -11 27.501v22
c0 4.66699 -1.66699 8.5 -5 11.5s-7.33301 4.5 -12 4.5h-42c-4.66699 0 -8.83398 -1.66699 -12.501 -5s-5.5 -7.66602 -5.5 -12.999v-20v-77c0 -10.667 -3.66699 -19.834 -11 -27.501s-16.333 -11.5 -27 -11.5h-21c-4.66699 0 -8.83398 -1.66699 -12.501 -5
s-5.5 -7.66602 -5.5 -12.999v-97c0 -10.667 -3.66699 -19.667 -11 -27s-16.333 -11 -27 -11h-21c-4.66699 0 -8.83398 -1.83301 -12.501 -5.5z" />
    <glyph glyph-name="five" unicode="5" horiz-adv-x="609" 
d="M563 682c7.33301 -7.33301 11 -16.3311 11 -26.998v-22c0 -4.66699 -1.66699 -8.66699 -5 -12s-7.33301 -5 -12 -5h-368v-38c0 -10.667 -3.66699 -19.834 -11 -27.501s-16.333 -11.5 -27 -11.5h-20c-5.33301 0 -9.83301 -1.83301 -13.5 -5.5s-5.5 -7.83398 -5.5 -12.501
v-136h347c10.667 0 19.667 -3.66699 27 -11s11 -16.333 11 -27v-20c0 -5.33301 1.83301 -9.83301 5.5 -13.5s8.16699 -5.5 13.5 -5.5h20c10.667 0 19.667 -3.66699 27 -11s11 -16.333 11 -27v-154c0 -10.667 -3.66699 -19.834 -11 -27.501s-16.333 -11.5 -27 -11.5h-20
c-5.33301 0 -9.83301 -1.66699 -13.5 -5s-5.5 -7.66602 -5.5 -12.999v-20c0 -10.667 -3.66699 -19.834 -11 -27.501s-16.333 -11.5 -27 -11.5h-308c-10.667 0 -19.834 3.83301 -27.501 11.5s-11.5 16.834 -11.5 27.501v20c0 5.33301 -1.66699 9.66602 -5 12.999
s-7.66602 5 -12.999 5h-20c-10.667 0 -19.834 3.83301 -27.501 11.5s-11.5 16.834 -11.5 27.501v22c0 4.66699 1.66699 8.5 5 11.5s7.33301 4.5 12 4.5h22c10.667 0 19.667 -3.66699 27 -11s11 -16.333 11 -27v-20c0 -4.66699 2 -9 6 -13s8.33301 -6 13 -6h348
c4.66699 0 8.83398 1.83301 12.501 5.5s5.5 8.16699 5.5 13.5v194c0 5.33301 -1.66699 9.66602 -5 12.999s-7.66602 5 -12.999 5h-405c-10.667 0 -19.834 3.83301 -27.501 11.5s-11.5 16.834 -11.5 27.501v154c0.666992 10.667 4.66699 19.667 12 27s16.333 11 27 11h20
c5.33301 0 9.66602 1.83301 12.999 5.5s5 8.16699 5 13.5v97c0 10.667 3.83301 19.667 11.5 27s16.834 11 27.501 11h385c10.667 0 19.667 -3.66699 27 -11z" />
    <glyph glyph-name="six" unicode="6" horiz-adv-x="609" 
d="M562 605c7.33301 -7.33301 11.3379 -16.3379 12.0049 -27.0049v-22c0 -4.66699 -1.66699 -8.66699 -5 -12s-7.33301 -5 -12 -5h-22c-10.667 0 -19.667 3.83301 -27 11.5s-11 16.834 -11 27.501v20c0 4.66699 -1.83301 8.83398 -5.5 12.501s-8.16699 5.5 -13.5 5.5h-271
c-4.66699 0 -8.83398 -1.66699 -12.501 -5s-5.5 -7.66602 -5.5 -12.999v-20c0 -10.667 -3.83301 -19.834 -11.5 -27.501s-16.834 -11.5 -27.501 -11.5h-20c-4.66699 0 -8.83398 -1.66699 -12.501 -5s-5.5 -7.66602 -5.5 -12.999v-251c0 10.667 3.66699 19.667 11 27
s16.333 11 27 11h20c5.33301 0 9.83301 1.83301 13.5 5.5s5.5 8.16699 5.5 13.5v20c0 10.667 3.66699 19.667 11 27s16.333 11 27 11h231c10.667 0 19.834 -3.66699 27.501 -11s11.5 -16.333 11.5 -27v-20c0 -5.33301 1.66699 -9.83301 5 -13.5s7.66602 -5.5 12.999 -5.5h20
c10.667 0 19.834 -3.66699 27.501 -11s11.5 -16.333 11.5 -27v-154c0 -10.667 -3.83301 -19.834 -11.5 -27.501s-16.834 -11.5 -27.501 -11.5h-20c-4.66699 0 -8.83398 -1.66699 -12.501 -5s-5.5 -7.66602 -5.5 -12.999v-20c0 -10.667 -3.83301 -19.834 -11.5 -27.501
s-16.834 -11.5 -27.501 -11.5h-308c-10.667 0 -19.667 3.83301 -27 11.5s-11 16.834 -11 27.501v97c0 4.66699 -1.83301 8.83398 -5.5 12.501s-8.16699 5.5 -13.5 5.5h-20c-10.667 0 -19.667 3.83301 -27 11.5s-11 16.834 -11 27.501v308c0 10.667 3.66699 19.667 11 27
s16.333 11 27 11h20c5.33301 0 9.83301 1.83301 13.5 5.5s5.5 8.16699 5.5 13.5v20c0 10.667 3.66699 19.667 11 27s16.333 11 27 11h20c5.33301 0 9.83301 1.83301 13.5 5.5s5.5 8.16699 5.5 13.5v20c0 10.667 3.66699 19.667 11 27s16.333 11 27 11h231
c10.667 0 19.834 -3.66699 27.501 -11s11.5 -16.333 11.5 -27v-20c0 -5.33301 1.66699 -9.83301 5 -13.5s7.66602 -5.5 12.999 -5.5h20c10.667 0 19.667 -3.66699 27 -11zM117.005 226.495c-3.33301 -3 -5 -7.16797 -5 -12.501v-41c0 -5.33301 1.83301 -9.83301 5.5 -13.5
s7.83398 -5.5 12.501 -5.5h20c10.667 0 19.834 -3.66699 27.501 -11s11.5 -16.333 11.5 -27v-22c0 -4.66699 1.5 -8.66699 4.5 -12s6.83301 -5 11.5 -5h273c5.33301 0 9.83301 2 13.5 6s5.5 8.33301 5.5 13v194c0 4.66699 -1.83301 8.83398 -5.5 12.501
s-8.16699 5.5 -13.5 5.5h-271c-4.66699 0 -8.83398 -1.66699 -12.501 -5s-5.5 -7.66602 -5.5 -12.999v-20c0 -10.667 -3.83301 -19.834 -11.5 -27.501s-16.834 -11.5 -27.501 -11.5h-21c-4.66699 0 -8.66699 -1.5 -12 -4.5z" />
    <glyph glyph-name="seven" unicode="7" 
d="M562 682c7.33301 -7.33301 11.002 -16.3223 11.002 -26.9893v-77c0 -10.667 -3.66699 -19.834 -11 -27.501s-16.333 -11.5 -27 -11.5h-20c-5.33301 0 -9.83301 -1.83301 -13.5 -5.5s-5.5 -7.83398 -5.5 -12.501v-20c0 -10.667 -3.66699 -19.834 -11 -27.501
s-16.333 -11.5 -27 -11.5h-20c-5.33301 0 -9.83301 -1.83301 -13.5 -5.5s-5.5 -7.83398 -5.5 -12.501v-20c0 -10.667 -3.66699 -19.834 -11 -27.501s-16.333 -11.5 -27 -11.5h-20c-5.33301 0 -9.83301 -1.83301 -13.5 -5.5s-5.5 -7.83398 -5.5 -12.501v-97
c0 -10.667 -3.66699 -19.834 -11 -27.501s-16.333 -11.5 -27 -11.5h-20c-5.33301 0 -9.83301 -1.83301 -13.5 -5.5s-5.5 -7.83398 -5.5 -12.501v-174c0 -10.667 -3.66699 -19.834 -11 -27.501s-16.333 -11.5 -27 -11.5h-22c-4.66699 0 -8.66699 1.66699 -12 5
s-5 7.33301 -5 12v176c0 10.667 3.83301 19.667 11.5 27s16.834 11 27.501 11h20c4.66699 0 8.83398 1.83301 12.501 5.5s5.5 8.16699 5.5 13.5v97c0.666992 10.667 4.66699 19.667 12 27s16.333 11 27 11h20c5.33301 0 9.66602 1.83301 12.999 5.5s5 8.16699 5 13.5v20
c0.666992 10.667 4.66699 19.667 12 27s16.333 11 27 11h20c5.33301 0 9.66602 1.83301 12.999 5.5s5 8.16699 5 13.5v20c0.666992 10.667 4.66699 19.667 12 27s16.333 11 27 11h20c5.33301 0 9.66602 1.83301 12.999 5.5s5 8.16699 5 13.5v41
c0 4.66699 -1.5 8.66699 -4.5 12s-6.83301 5 -11.5 5h-350c-5.33301 0 -9.83301 -1.83301 -13.5 -5.5s-5.5 -7.83398 -5.5 -12.501v-20c0 -10.667 -3.66699 -19.834 -11 -27.501s-16.333 -11.5 -27 -11.5h-22c-4.66699 0 -8.5 1.66699 -11.5 5s-4.5 7.33301 -4.5 12v22
c0 10.667 3.66699 19.667 11 27s16.333 11 27 11h20c5.33301 0 9.66602 1.83301 12.999 5.5s5 8.16699 5 13.5v20c0.666992 10.667 4.66699 19.667 12 27s16.333 11 27 11h385c10.667 0 19.667 -3.66699 27 -11z" />
    <glyph glyph-name="eight" unicode="8" horiz-adv-x="609" 
d="M502.5 390c3.66699 -3.33301 8.16504 -5.00098 13.498 -5.00098l-1 -1h21c10.667 0 19.667 -3.66699 27 -11s11 -16.333 11 -27v-231c0 -10.667 -3.66699 -19.667 -11 -27s-16.333 -11 -27 -11h-20c-5.33301 0 -9.83301 -1.83301 -13.5 -5.5s-5.5 -8.16699 -5.5 -13.5
v-20c0 -10.667 -3.66699 -19.667 -11 -27s-16.333 -11 -27 -11h-308c-10.667 0 -19.834 3.66699 -27.501 11s-11.5 16.333 -11.5 27v97c0 5.33301 -1.83301 9.83301 -5.5 13.5s-7.83398 5.5 -12.501 5.5h-20c-10.667 0 -19.834 3.66699 -27.501 11s-11.5 16.333 -11.5 27
v154c0 10.667 3.83301 19.667 11.5 27s16.834 11 27.501 11h20c4.66699 0 8.83398 1.83301 12.501 5.5s5.5 8.16699 5.5 13.5v40c0 5.33301 -1.66699 9.66602 -5 12.999s-7.66602 5 -12.999 5h-20c-10.667 0 -19.834 3.83301 -27.501 11.5s-11.5 16.834 -11.5 27.501v77
c0 10.667 3.83301 19.667 11.5 27s16.834 11 27.501 11h20c4.66699 0 8.83398 1.83301 12.501 5.5s5.5 8.16699 5.5 13.5v20c0 10.667 3.83301 19.667 11.5 27s16.834 11 27.501 11h308c10.667 0 19.667 -3.66699 27 -11s11 -16.333 11 -27v-97
c0 -5.33301 1.83301 -9.83301 5.5 -13.5s8.16699 -5.5 13.5 -5.5h20c10.667 0 19.667 -3.66699 27 -11s11 -16.333 11 -27s-3.66699 -19.834 -11 -27.501s-16.333 -11.5 -27 -11.5h-20c-5.33301 0 -9.83301 -1.66699 -13.5 -5s-5.5 -7.66602 -5.5 -12.999v-40
c0 -5.33301 1.83301 -9.66602 5.5 -12.999zM491.498 466.499c3.66699 3.66699 5.49902 8.16602 5.49902 13.499v40c0 5.33301 -1.66699 9.66602 -5 12.999s-7.66602 5 -12.999 5h-20c-10.667 0 -19.834 3.83301 -27.501 11.5s-11.5 16.834 -11.5 27.501v22
c0 4.66699 -1.66699 8.5 -5 11.5s-7.33301 4.5 -12 4.5h-272c-5.33301 0 -9.83301 -1.66699 -13.5 -5s-5.5 -7.66602 -5.5 -12.999v-117c0 -5.33301 1.83301 -9.83301 5.5 -13.5s8.16699 -5.5 13.5 -5.5h348c4.66699 0 8.83398 1.83301 12.501 5.5zM492.497 377.998
c-3 3.33301 -6.83203 5.33105 -11.499 5.99805h-350c-5.33301 0 -9.83301 -1.66699 -13.5 -5s-5.5 -7.66602 -5.5 -12.999v-194c0 -5.33301 1.83301 -9.66602 5.5 -12.999s8.16699 -5 13.5 -5h20c10.667 0 19.667 -3.83301 27 -11.5s11 -16.834 11 -27.501v-22
c0 -4.66699 1.66699 -8.5 5 -11.5s7.33301 -4.5 12 -4.5h273c5.33301 0 9.66602 1.83301 12.999 5.5s5 7.83398 5 12.501v271c0 4.66699 -1.5 8.66699 -4.5 12z" />
    <glyph glyph-name="nine" unicode="9" horiz-adv-x="609" 
d="M563 527.5c7.33301 -7.66699 11.0049 -16.8369 11.0049 -27.5039v-308c0 -10.667 -3.66699 -19.667 -11 -27s-16.333 -11 -27 -11h-20c-5.33301 0 -9.83301 -1.83301 -13.5 -5.5s-5.5 -8.16699 -5.5 -13.5v-20c0 -10.667 -3.66699 -19.667 -11 -27s-16.333 -11 -27 -11
h-20c-4.66699 0 -9 -1.83301 -13 -5.5s-6 -8.16699 -6 -13.5v-20c0 -10.667 -3.66699 -19.667 -11 -27s-16.333 -11 -27 -11h-231c-10.667 0 -19.834 3.66699 -27.501 11s-11.5 16.333 -11.5 27v20c0 5.33301 -1.83301 9.83301 -5.5 13.5s-7.83398 5.5 -12.501 5.5h-20
c-10.667 0 -19.667 3.66699 -27 11s-11.333 16.333 -12 27v22c0 4.66699 1.66699 8.66699 5 12s7.33301 5 12 5h22c10.667 0 19.667 -3.83301 27 -11.5s11 -16.834 11 -27.501v-20c0 -4.66699 1.83301 -8.83398 5.5 -12.501s8.16699 -5.5 13.5 -5.5h271
c5.33301 0 9.66602 1.83301 12.999 5.5s5 7.83398 5 12.501v20c0 10.667 3.83301 19.834 11.5 27.501s16.834 11.5 27.501 11.5h20c5.33301 0 9.66602 1.83301 12.999 5.5s5 7.83398 5 12.501v251c0 -10.667 -3.66699 -19.667 -11 -27s-16.333 -11 -27 -11h-20
c-4.66699 0 -9 -1.83301 -13 -5.5s-6 -8.16699 -6 -13.5v-20c0 -10.667 -3.66699 -19.667 -11 -27s-16.333 -11 -27 -11h-231c-10.667 0 -19.834 3.66699 -27.501 11s-11.5 16.333 -11.5 27v20c0 5.33301 -1.83301 9.83301 -5.5 13.5s-7.83398 5.5 -12.501 5.5h-20
c-10.667 0 -19.834 3.66699 -27.501 11s-11.5 16.333 -11.5 27v154c0 10.667 3.83301 19.834 11.5 27.501s16.834 11.5 27.501 11.5h20c5.33301 0 9.66602 1.83301 12.999 5.5s5 7.83398 5 12.501v20c0 10.667 3.83301 19.667 11.5 27s16.834 11 27.501 11h308
c10.667 0 19.667 -3.66699 27 -11s11 -16.333 11 -27v-97c0 -5.33301 1.83301 -9.66602 5.5 -12.999s8.16699 -5 13.5 -5h20c10.667 0 19.667 -3.83301 27 -11.5zM491.505 533.497c-3.66699 3.66699 -7.83203 5.49902 -12.499 5.49902h-20
c-10.667 0 -19.834 3.66699 -27.501 11s-11.5 16.333 -11.5 27v22c0 4.66699 -1.66699 8.66699 -5 12s-7.33301 5 -12 5h-272c-4.66699 0 -9 -1.83301 -13 -5.5s-6 -8.16699 -6 -13.5v-194c0 -4.66699 1.83301 -8.83398 5.5 -12.501s8.16699 -5.5 13.5 -5.5h271
c5.33301 0 9.66602 1.83301 12.999 5.5s5 7.83398 5 12.501v20c0 10.667 3.83301 19.834 11.5 27.501s16.834 11.5 27.501 11.5h21c4.66699 0 8.66699 1.5 12 4.5s5 6.83301 5 11.5v42c0 5.33301 -1.83301 9.83301 -5.5 13.5z" />
    <glyph glyph-name="colon" unicode=":" horiz-adv-x="131" 
d="M91.5 456.5c3 -3 4.5 -6.83203 4.5 -11.499v-22c0 -10.667 -3.66699 -19.834 -11 -27.501s-16.333 -11.5 -27 -11.5h-22c-4.66699 0 -8.5 1.66699 -11.5 5s-4.5 7.33301 -4.5 12v22c0 10.667 3.66699 19.667 11 27s16.333 11 27 11h22c4.66699 0 8.5 -1.5 11.5 -4.5z
M31 65.501c7.33301 7.66699 16.333 11.499 27 11.499h22c4.66699 0 8.5 -1.66699 11.5 -5s4.5 -7.33301 4.5 -12v-22c0 -10.667 -3.66699 -19.667 -11 -27s-16.333 -11 -27 -11h-22c-4.66699 0 -8.5 1.66699 -11.5 5s-4.5 7.33301 -4.5 12v21
c0 10.667 3.66699 19.834 11 27.501z" />
    <glyph glyph-name="semicolon" unicode=";" horiz-adv-x="209" 
d="M169 456.5c3.33301 -3 5.00098 -6.83203 5.00098 -11.499v-22c0 -10.667 -3.83301 -19.834 -11.5 -27.501s-16.834 -11.5 -27.501 -11.5h-22c-4.66699 0 -8.5 1.66699 -11.5 5s-4.5 7.33301 -4.5 12v22c0 10.667 3.66699 19.667 11 27s16.333 11 27 11h22
c4.66699 0 8.66699 -1.5 12 -4.5zM108.001 65.501c7.33301 7.66699 16.3359 11.502 27.0029 11.502h22c4.66699 0 8.66699 -1.66699 12 -5s5 -7.33301 5 -12v-98c0 -10.667 -3.83301 -19.834 -11.5 -27.501s-16.834 -11.5 -27.501 -11.5h-20
c-4.66699 0 -8.83398 -1.83301 -12.501 -5.5s-5.5 -7.83398 -5.5 -12.501v-20c0 -10.667 -3.83301 -19.834 -11.5 -27.501s-16.834 -11.5 -27.501 -11.5h-21c-4.66699 0 -8.66699 1.66699 -12 5s-5 7.33301 -5 12v22c0 10.667 3.66699 19.667 11 27s16.333 11 27 11h20
c5.33301 0 9.83301 1.83301 13.5 5.5s5.5 8.16699 5.5 13.5v96c0 10.667 3.66699 19.834 11 27.501z" />
    <glyph glyph-name="less" unicode="&#x3c;" horiz-adv-x="455" 
d="M46 242.5c-7.33301 7.66699 -11.0039 16.833 -11.0039 27.5s3.66699 19.667 11 27s16.333 11 27 11h20c5.33301 0 9.83301 1.83301 13.5 5.5s5.5 8.16699 5.5 13.5v20c0 10.667 3.66699 19.667 11 27s16.333 11 27 11h97c5.33301 0 9.83301 1.83301 13.5 5.5
s5.5 8.16699 5.5 13.5v20c0 10.667 3.66699 19.667 11 27s16.333 11 27 11h99c4.66699 0 8.66699 -1.66699 12 -5s5 -7.33301 5 -12v-21c0 -10.667 -3.66699 -19.834 -11 -27.501s-16.666 -11.5 -27.999 -11.5h-96c-5.33301 0 -9.83301 -1.83301 -13.5 -5.5
s-5.5 -8.16699 -5.5 -13.5v-19c0 -10.667 -3.66699 -19.834 -11 -27.501s-16.666 -11.5 -27.999 -11.5h-96c-5.33301 0 -9.83301 -1.83301 -13.5 -5.5s-5.5 -8.16699 -5.5 -13.5v-39c0 -5.33301 1.83301 -9.83301 5.5 -13.5s8.16699 -5.5 13.5 -5.5h96
c10.667 0 19.834 -3.66699 27.501 -11s11.5 -16.333 11.5 -27v-20c0 -5.33301 1.83301 -9.83301 5.5 -13.5s8.16699 -5.5 13.5 -5.5h96c10.667 0 19.834 -3.66699 27.501 -11s11.5 -16.333 11.5 -27v-22c0 -4.66699 -1.66699 -8.66699 -5 -12s-7.33301 -5 -12 -5h-99
c-10.667 0 -19.667 3.83301 -27 11.5s-11 16.834 -11 27.501v19c0 5.33301 -1.83301 9.83301 -5.5 13.5s-8.16699 5.5 -13.5 5.5h-97c-10.667 0 -19.667 3.83301 -27 11.5s-11 16.834 -11 27.501v19c0 5.33301 -1.83301 9.83301 -5.5 13.5s-8.16699 5.5 -13.5 5.5h-20
c-10.667 0 -19.667 3.83301 -27 11.5z" />
    <glyph glyph-name="equal" unicode="=" horiz-adv-x="455" 
d="M415 459c3.33301 -3.33301 4.99805 -7.33203 4.99805 -11.999v-21c0 -10.667 -3.66699 -19.834 -11 -27.501s-16.666 -11.5 -27.999 -11.5h-330c-4.66699 0 -8.5 1.5 -11.5 4.5s-4.5 6.83301 -4.5 11.5v23c0 10.667 3.83301 19.667 11.5 27s16.834 11 27.501 11h329
c4.66699 0 8.66699 -1.66699 12 -5zM415.498 305.501c3 -3 4.49805 -6.83203 4.49805 -11.499v-22c0 -10.667 -3.66699 -19.834 -11 -27.501s-16.666 -11.5 -27.999 -11.5h-329c-4.66699 0 -8.66699 1.66699 -12 5s-5 7.33301 -5 12v22c0 10.667 3.83301 19.667 11.5 27
s16.834 11 27.501 11h330c4.66699 0 8.5 -1.5 11.5 -4.5z" />
    <glyph glyph-name="greater" unicode="&#x3e;" horiz-adv-x="455" 
d="M409 296.5c7.33301 -7.66699 11 -16.8291 11 -27.4961s-3.66699 -19.667 -11 -27s-16.333 -11 -27 -11h-20c-5.33301 0 -9.83301 -1.83301 -13.5 -5.5s-5.5 -8.16699 -5.5 -13.5v-20c0 -10.667 -3.66699 -19.667 -11 -27s-16.333 -11 -27 -11h-97
c-5.33301 0 -9.83301 -1.83301 -13.5 -5.5s-5.5 -8.16699 -5.5 -13.5v-20c0 -10.667 -3.66699 -19.667 -11 -27s-16.333 -11 -27 -11h-99c-4.66699 0 -8.66699 1.66699 -12 5s-5 7.33301 -5 12v21c0 11.333 3.83301 20.666 11.5 27.999s16.834 11 27.501 11h96
c5.33301 0 9.83301 1.83301 13.5 5.5s5.5 8.16699 5.5 13.5v19c0 11.333 3.83301 20.666 11.5 27.999s16.834 11 27.501 11h96c5.33301 0 9.83301 1.83301 13.5 5.5s5.5 8.16699 5.5 13.5v39c0 5.33301 -1.83301 9.83301 -5.5 13.5s-8.16699 5.5 -13.5 5.5h-96
c-10.667 0 -19.834 3.66699 -27.501 11s-11.5 16.333 -11.5 27v20c0 5.33301 -1.83301 9.83301 -5.5 13.5s-8.16699 5.5 -13.5 5.5h-96c-10.667 0 -19.834 3.66699 -27.501 11s-11.5 16.333 -11.5 27v22c0 4.66699 1.66699 8.66699 5 12s7.33301 5 12 5h99
c10.667 0 19.667 -3.83301 27 -11.5s11 -16.834 11 -27.501v-19c0 -5.33301 1.83301 -9.83301 5.5 -13.5s8.16699 -5.5 13.5 -5.5h97c10.667 0 19.667 -3.83301 27 -11.5s11 -16.834 11 -27.501v-19c0 -5.33301 1.83301 -9.83301 5.5 -13.5s8.16699 -5.5 13.5 -5.5h20
c10.667 0 19.667 -3.83301 27 -11.5z" />
    <glyph glyph-name="question" unicode="?" horiz-adv-x="537" 
d="M485 604c7.33301 -7.33301 11.3418 -16.3359 12.0088 -27.0029v-77c0 -10.667 -3.83301 -19.834 -11.5 -27.501s-16.834 -11.5 -27.501 -11.5h-20c-4.66699 0 -8.83398 -1.66699 -12.501 -5s-5.5 -7.66602 -5.5 -12.999v-20c0 -10.667 -3.83301 -19.834 -11.5 -27.501
s-16.834 -11.5 -27.501 -11.5h-20c-4.66699 0 -8.83398 -1.66699 -12.501 -5s-5.5 -7.66602 -5.5 -12.999v-20c0 -10.667 -3.83301 -19.667 -11.5 -27s-16.834 -11 -27.501 -11h-20c-4.66699 0 -8.83398 -1.83301 -12.501 -5.5s-5.5 -8.16699 -5.5 -13.5v-97
c0 -10.667 -3.83301 -19.667 -11.5 -27s-16.834 -11 -27.501 -11h-38v115c0 10.667 3.66699 19.834 11 27.501s16.333 11.5 27 11.5h20c5.33301 0 9.83301 1.66699 13.5 5s5.5 7.66602 5.5 12.999v20c0 10.667 3.66699 19.667 11 27s16.333 11 27 11h20
c5.33301 0 9.83301 2 13.5 6s5.5 8.33301 5.5 13v20c0 10.667 3.66699 19.667 11 27s16.333 11 27 11h20c5.33301 0 9.83301 2 13.5 6s5.5 8.33301 5.5 13v117c0 4.66699 -1.83301 8.83398 -5.5 12.501s-8.16699 5.5 -13.5 5.5h-20c-10.667 0 -19.667 3.83301 -27 11.5
s-11 16.834 -11 27.501v21c0 4.66699 -1.66699 8.66699 -5 12s-7.33301 5 -12 5h-196c-4.66699 0 -8.83398 -1.66699 -12.501 -5s-5.5 -7.66602 -5.5 -12.999v-174c0 -10.667 -3.66699 -19.834 -11 -27.501s-16.333 -11.5 -27 -11.5h-22c-4.66699 0 -8.66699 1.66699 -12 5
s-5 7.33301 -5 12v176c0 10.667 3.83301 19.667 11.5 27s16.834 11 27.501 11h20c5.33301 0 9.66602 1.83301 12.999 5.5s5 7.83398 5 12.501v21c0 10.667 3.66699 19.667 11 27s16.333 11 27 11h231c10.667 0 19.667 -3.66699 27 -11s11.333 -16.333 12 -27v-97
c0 -5.33301 1.66699 -9.83301 5 -13.5s7.66602 -5.5 12.999 -5.5h20c10.667 0 19.667 -3.66699 27 -11zM200.009 65.4971c7.33301 7.66699 16.334 11.499 27.001 11.499h22c4.66699 0 8.66699 -1.66699 12 -5s5 -7.33301 5 -12v-22c0 -10.667 -3.83301 -19.667 -11.5 -27
s-16.834 -11 -27.501 -11h-21c-4.66699 0 -8.66699 1.66699 -12 5s-5 7.33301 -5 12v21c0 10.667 3.66699 19.834 11 27.501z" />
    <glyph glyph-name="at" unicode="@" horiz-adv-x="844" 
d="M798 527c7.33301 -7.33301 11.0029 -16.332 11.0029 -26.999v-308c0 -10.667 -3.66699 -19.667 -11 -27s-16.333 -11 -27 -11h-20c-4.66699 0 -9 -1.83301 -13 -5.5s-6 -8.16699 -6 -13.5v-20c0 -10.667 -3.66699 -19.667 -11 -27s-16.333 -11 -27 -11h-77
c-10.667 0 -19.834 3.66699 -27.501 11s-11.5 16.333 -11.5 27v20c0 5.33301 -1.83301 9.83301 -5.5 13.5s-8.16699 5.5 -13.5 5.5h-39c-4.66699 0 -9 -1.83301 -13 -5.5s-6 -8.16699 -6 -13.5v-20c0 -10.667 -3.66699 -19.667 -11 -27s-16.333 -11 -27 -11h-154
c-10.667 0 -19.667 3.66699 -27 11s-11 16.333 -11 27v20c0 5.33301 -1.83301 9.83301 -5.5 13.5s-8.16699 5.5 -13.5 5.5h-20c-10.667 0 -19.667 3.66699 -27 11s-11 16.333 -11 27v231c0 10.667 3.66699 19.834 11 27.501s16.333 11.5 27 11.5h20
c5.33301 0 9.83301 1.83301 13.5 5.5s5.5 7.83398 5.5 12.501v20c0 10.667 3.66699 19.667 11 27s16.333 11 27 11h231c10.667 0 19.667 -3.66699 27 -11s11 -16.333 11 -27v-97c0 -4.66699 1.83301 -8.83398 5.5 -12.501s8.16699 -5.5 13.5 -5.5h20
c10.667 0 19.667 -3.83301 27 -11.5s11 -16.834 11 -27.501v-77c0 -10.667 -3.66699 -19.667 -11 -27s-16.333 -11 -27 -11h-20c-4.66699 0 -9 -1.83301 -13 -5.5s-6 -8.16699 -6 -13.5v-39c0 -5.33301 1.83301 -9.83301 5.5 -13.5s8.16699 -5.5 13.5 -5.5h116
c5.33301 0 9.83301 1.83301 13.5 5.5s5.5 8.16699 5.5 13.5v347c0 5.33301 -1.83301 9.66602 -5.5 12.999s-8.16699 5 -13.5 5h-19c-10.667 0 -19.834 3.83301 -27.501 11.5s-11.5 16.834 -11.5 27.501v20c0 5.33301 -1.83301 9.66602 -5.5 12.999s-8.16699 5 -13.5 5h-424
c-4.66699 0 -8.83398 -1.66699 -12.501 -5s-5.5 -7.66602 -5.5 -12.999v-20c0 -10.667 -3.83301 -19.834 -11.5 -27.501s-16.834 -11.5 -27.501 -11.5h-19c-5.33301 0 -9.83301 -1.66699 -13.5 -5s-5.5 -7.66602 -5.5 -12.999v-424c0 -5.33301 1.83301 -9.83301 5.5 -13.5
s8.16699 -5.5 13.5 -5.5h19c10.667 0 19.834 -3.83301 27.501 -11.5s11.5 -16.834 11.5 -27.501v-21c0 -4.66699 1.5 -8.66699 4.5 -12s6.83301 -5 11.5 -5h428c4.66699 -0 8.66699 -1.66699 12 -5s5 -7.33301 5 -12v-21c0 -10.667 -3.66699 -19.834 -11 -27.501
s-16.333 -11.5 -27 -11.5h-462c-10.667 0 -19.667 3.83301 -27 11.5s-11 16.834 -11 27.501v96c0 5.33301 -1.83301 9.83301 -5.5 13.5s-8.16699 5.5 -13.5 5.5h-20c-10.667 0 -19.667 3.66699 -27 11s-11 16.333 -11 27v385c0 10.667 3.66699 19.667 11 27s16.333 11 27 11
h20c5.33301 0 9.83301 2 13.5 6s5.5 8.33301 5.5 13v20c0 10.667 3.66699 19.667 11 27s16.333 11 27 11h20c5.33301 0 9.83301 2 13.5 6s5.5 8.33301 5.5 13v20c0 10.667 3.66699 19.667 11 27s16.333 11 27 11h385c10.667 0 19.667 -3.66699 27 -11s11 -16.333 11 -27v-20
c0 -4.66699 2 -9 6 -13s8.33301 -6 13 -6h20c10.667 0 19.667 -3.66699 27 -11s11 -16.333 11 -27v-20c0 -4.66699 2 -9 6 -13s8.33301 -6 13 -6h20c10.667 0 19.667 -3.66699 27 -11zM512.503 219.501c7.66699 7.66699 16.8369 11.499 27.5039 11.499h19
c5.33301 0 9.83301 1.83301 13.5 5.5s5.5 8.16699 5.5 13.5v116c0 5.33301 -1.83301 9.83301 -5.5 13.5s-8.16699 5.5 -13.5 5.5h-19c-10.667 0 -19.834 3.66699 -27.501 11s-11.5 16.333 -11.5 27v22c0 4.66699 -1.5 8.66699 -4.5 12s-6.83301 5 -11.5 5h-196
c-4.66699 0 -8.83398 -1.83301 -12.501 -5.5s-5.5 -8.16699 -5.5 -13.5v-270c0 -5.33301 1.66699 -9.83301 5 -13.5s7.66602 -5.5 12.999 -5.5h194c5.33301 0 9.66602 1.83301 12.999 5.5s5 8.16699 5 13.5v19c0 10.667 3.83301 19.834 11.5 27.501z" />
    <glyph glyph-name="A" unicode="A" horiz-adv-x="696" 
d="M644.5 143c7.66699 -7.33301 11.4922 -16.333 11.4922 -27v-99c0 -4.66699 -1.66699 -8.66699 -5 -12s-7.33301 -5 -12 -5h-22c-10.667 -0 -19.667 3.83301 -27 11.5s-11 16.834 -11 27.501v97c0 5.33301 -1.83301 9.66602 -5.5 12.999s-8.16699 5 -13.5 5h-20
c-10.667 0 -19.667 3.83301 -27 11.5s-11 16.834 -11 27.501v77c0 -10.667 -3.83301 -19.834 -11.5 -27.501s-16.834 -11.5 -27.501 -11.5h-327c-5.33301 0 -9.83301 -1.66699 -13.5 -5s-5.5 -7.66602 -5.5 -12.999v-174c0 -10.667 -3.66699 -19.834 -11 -27.501
s-16.333 -11.5 -27 -11.5h-22c-4.66699 0 -8.66699 1.66699 -12 5s-5 7.33301 -5 12v176c0 10.667 3.83301 19.667 11.5 27s16.834 11 27.501 11h20c4.66699 0 8.83398 1.83301 12.501 5.5s5.5 8.16699 5.5 13.5v174c0 10.667 3.83301 19.667 11.5 27s16.834 11 27.501 11
h20c4.66699 0 8.83398 1.83301 12.501 5.5s5.5 8.16699 5.5 13.5v174c0 10.667 3.83301 19.667 11.5 27s16.834 11 27.501 11h20c5.33301 0 9.66602 1.83301 12.999 5.5s5 8.16699 5 13.5v20c0 10.667 3.66699 19.667 11 27s16.333 11 27 11h77
c10.667 0 19.834 -3.66699 27.501 -11s11.5 -16.333 11.5 -27v-97c0 -5.33301 1.66699 -9.83301 5 -13.5s7.66602 -5.5 12.999 -5.5h20c10.667 0 19.834 -3.66699 27.501 -11s11.5 -16.333 11.5 -27v-174c0 -5.33301 1.83301 -9.83301 5.5 -13.5s7.83398 -5.5 12.501 -5.5
h20c10.667 0 19.834 -3.66699 27.501 -11s11.5 -16.333 11.5 -27v-174c0 -5.33301 1.83301 -9.83301 5.5 -13.5s7.83398 -5.5 12.501 -5.5h20c10.667 0 19.834 -3.66699 27.501 -11zM496.992 313c3.33301 3.33301 5.00098 7.33203 5.00098 11.999v42
c0 5.33301 -1.83301 9.66602 -5.5 12.999s-8.16699 5 -13.5 5h-20c-10.667 0 -19.667 3.83301 -27 11.5s-11 16.834 -11 27.501v174c0 5.33301 -1.66699 9.66602 -5 12.999s-7.66602 5 -12.999 5h-21c-10.667 0 -19.667 3.83301 -27 11.5s-11 16.834 -11 27.501v21
c0 4.66699 -1.66699 8.66699 -5 12s-7.33301 5 -12 5h-42c-4.66699 0 -8.83398 -1.66699 -12.501 -5s-5.5 -7.66602 -5.5 -12.999v-174c0 -10.667 -3.66699 -19.834 -11 -27.501s-16.333 -11.5 -27 -11.5h-21c-4.66699 0 -8.83398 -1.66699 -12.501 -5
s-5.5 -7.66602 -5.5 -12.999v-119c0 -4.66699 1.66699 -8.66699 5 -12s7.33301 -5 12 -5h274c4.66699 0 8.66699 1.66699 12 5z" />
    <glyph glyph-name="B" unicode="B" horiz-adv-x="706" 
d="M655 605c7.33301 -7.33301 11.0039 -16.667 11.0039 -28v-154c0 -10.667 -3.83301 -19.667 -11.5 -27s-16.834 -11 -27.501 -11h-21c-4.66699 0 -8.66699 -1.66699 -12 -5s-5 -7.33301 -5 -12v-42c0 -4.66699 1.83301 -8.83398 5.5 -12.501s7.83398 -5.5 12.501 -5.5h20
c11.333 0 20.666 -3.66699 27.999 -11s11 -16.666 11 -27.999v-77c0 -10.667 -3.83301 -19.667 -11.5 -27s-16.834 -11 -27.501 -11h-20c-4.66699 0 -8.83398 -1.66699 -12.501 -5s-5.5 -7.66602 -5.5 -12.999v-21c0 -10.667 -3.66699 -19.667 -11 -27s-16.333 -11 -27 -11
h-21c-4.66699 0 -8.83398 -1.66699 -12.501 -5s-5.5 -7.66602 -5.5 -12.999v-21c0 -10.667 -3.66699 -19.667 -11 -27s-16.333 -11 -27 -11h-385c-10.667 0 -19.834 3.66699 -27.501 11s-11.5 16.333 -11.5 27v693c0 10.667 3.83301 19.834 11.5 27.501
s16.834 11.5 27.501 11.5h385c10.667 0 19.667 -3.83301 27 -11.5s11 -16.834 11 -27.501v-20c0 -4.66699 1.83301 -8.83398 5.5 -12.501s7.83398 -5.5 12.501 -5.5h21c10.667 0 19.667 -3.83301 27 -11.5s11 -16.834 11 -27.501v-21c0 -4 1.33301 -7.5 4 -10.5
s5.66699 -5.16699 9 -6.5h25c11.333 0 20.666 -3.66699 27.999 -11zM506.504 687.499c-3.66699 3.66699 -7.83398 5.50195 -12.501 5.50195h-350c-4.66699 0 -8.66699 -1.66699 -12 -5s-5 -7.33301 -5 -12v-197c0 -4.66699 1.66699 -8.66699 5 -12s7.33301 -5 12 -5h22
c10.667 0 19.667 -3.83301 27 -11.5s11 -16.834 11 -27.501v-20c0 -5.33301 1.83301 -9.66602 5.5 -12.999s8.16699 -5 13.5 -5h272c5.33301 0 9.5 1.66699 12.5 5s4.5 7.33301 4.5 12v21c0 11.333 3.83301 20.666 11.5 27.999s16.834 11 27.501 11h21
c4.66699 0 8.66699 1.66699 12 5s5 7.33301 5 12v118c0 5.33301 -1.66699 9.66602 -5 12.999s-7.66602 5 -12.999 5v1h-20c-10.667 0 -19.834 3.66699 -27.501 11s-11.5 16.333 -11.5 27v20c0 5.33301 -1.83301 9.83301 -5.5 13.5zM584.004 302.501
c-3.33301 3.66699 -7.66504 5.49902 -12.998 5.49902h-328c-10.667 0 -19.834 3.66699 -27.501 11s-11.5 16.333 -11.5 27v20c0 5.33301 -1.66699 9.83301 -5 13.5s-7.66602 5.5 -12.999 5.5h-20c-10.667 0 -19.834 3.66699 -27.501 11s-11.5 16.333 -11.5 27v-329
c0 -4.66699 1.66699 -8.66699 5 -12s7.33301 -5 12 -5h350c5.33301 0 9.66602 1.83301 12.999 5.5s5 7.83398 5 12.501v20c0 11.333 3.83301 20.666 11.5 27.999s16.834 11 27.501 11h20c5.33301 0 9.66602 1.83301 12.999 5.5s5 7.83398 5 12.501v117
c0 5.33301 -1.66699 9.83301 -5 13.5z" />
    <glyph glyph-name="C" unicode="C" horiz-adv-x="696" 
d="M644.5 604.5c7.66699 -7.66699 11.5 -16.835 11.5 -27.502v-22c0 -4.66699 -1.66699 -8.5 -5 -11.5s-7.33301 -4.5 -12 -4.5h-22c-10.667 0 -19.667 3.66699 -27 11s-11 16.333 -11 27v20c0 5.33301 -1.83301 9.83301 -5.5 13.5s-7.83398 5.5 -12.501 5.5h-20
c-10.667 0 -19.834 3.66699 -27.501 11s-11.5 16.333 -11.5 27v20c0 5.33301 -1.83301 9.83301 -5.5 13.5s-7.83398 5.5 -12.501 5.5h-273c-4.66699 0 -8.66699 -1.66699 -12 -5s-5 -7.33301 -5 -12v-22c0 -10.667 -3.66699 -19.667 -11 -27s-16.333 -11 -27 -11h-20
c-5.33301 0 -9.83301 -1.83301 -13.5 -5.5s-5.5 -8.16699 -5.5 -13.5v-425c0 -5.33301 1.83301 -9.66602 5.5 -12.999s8.16699 -5 13.5 -5h20c10.667 0 19.667 -3.83301 27 -11.5s11 -16.834 11 -27.501v-20c0 -5.33301 1.83301 -9.66602 5.5 -12.999s8.16699 -5 13.5 -5
h271c5.33301 0 9.66602 1.83301 12.999 5.5s5 7.83398 5 12.501v20c0 11.333 3.83301 20.666 11.5 27.999s16.834 11 27.501 11h20c5.33301 0 9.66602 1.83301 12.999 5.5s5 7.83398 5 12.501v20c0 10.667 3.66699 19.834 11 27.501s16.333 11.5 27 11.5h22
c4.66699 0 8.66699 -1.66699 12 -5s5 -7.33301 5 -12v-22c0 -10.667 -3.83301 -19.667 -11.5 -27s-16.834 -11 -27.501 -11h-20c-5.33301 0 -9.66602 -1.83301 -12.999 -5.5s-5 -8.16699 -5 -13.5v-20c0 -10.667 -3.66699 -19.667 -11 -27s-16.333 -11 -27 -11h-21
c-5.33301 0 -9.66602 -1.83301 -12.999 -5.5s-5 -8.16699 -5 -13.5v-20c0 -10.667 -3.66699 -19.667 -11 -27s-16.333 -11 -27 -11h-231c-10.667 0 -19.834 3.66699 -27.501 11s-11.5 16.333 -11.5 27v20c0 5.33301 -1.66699 9.83301 -5 13.5s-7.66602 5.5 -12.999 5.5h-20
c-10.667 0 -19.834 3.66699 -27.501 11s-11.5 16.333 -11.5 27v20c0 5.33301 -1.66699 9.83301 -5 13.5s-7.66602 5.5 -12.999 5.5h-20c-10.667 0 -19.834 3.66699 -27.501 11s-11.5 16.333 -11.5 27v385c0 10.667 3.83301 19.834 11.5 27.501s16.834 11.5 27.501 11.5h20
c5.33301 0 9.66602 1.83301 12.999 5.5s5 7.83398 5 12.501v97c0 10.667 3.83301 19.834 11.5 27.501s16.834 11.5 27.501 11.5h308c10.667 0 19.667 -3.83301 27 -11.5s11 -16.834 11 -27.501v-20c0 -4.66699 1.83301 -8.83398 5.5 -12.501s7.83398 -5.5 12.501 -5.5h21
c10.667 0 19.667 -3.83301 27 -11.5s11 -16.834 11 -27.501v-20c0 -4.66699 1.83301 -8.83398 5.5 -12.501s7.83398 -5.5 12.501 -5.5h20c10.667 0 19.834 -3.83301 27.501 -11.5z" />
    <glyph glyph-name="D" unicode="D" horiz-adv-x="706" 
d="M655 605c7.33301 -7.33301 11.002 -16.666 11.002 -27.999v-385c0 -10.667 -3.83301 -19.667 -11.5 -27s-16.834 -11 -27.501 -11h-20c-4.66699 0 -8.83398 -1.66699 -12.501 -5s-5.5 -7.66602 -5.5 -12.999v-21c0 -10.667 -3.83301 -19.667 -11.5 -27
s-16.834 -11 -27.501 -11h-20c-4.66699 0 -8.83398 -1.66699 -12.501 -5s-5.5 -7.66602 -5.5 -12.999v-21c0 -10.667 -3.83301 -19.667 -11.5 -27s-16.834 -11 -27.501 -11h-384c-10.667 0 -19.834 3.66699 -27.501 11s-11.5 16.333 -11.5 27v693
c0 10.667 3.83301 19.834 11.5 27.501s16.834 11.5 27.501 11.5h384c10.667 0 19.834 -3.83301 27.501 -11.5s11.5 -16.834 11.5 -27.501v-20c0 -4.66699 1.83301 -8.83398 5.5 -12.501s7.83398 -5.5 12.501 -5.5h20c10.667 0 19.834 -3.83301 27.501 -11.5
s11.5 -16.834 11.5 -27.501v-20c0 -4.66699 1.83301 -8.83398 5.5 -12.501s7.83398 -5.5 12.501 -5.5h20c11.333 0 20.666 -3.66699 27.999 -11zM583.502 159c3.66699 3.33301 5.5 7.66699 5.5 13v425c0 5.33301 -1.83301 9.83301 -5.5 13.5s-8.16699 5.5 -13.5 5.5h-20
c-10.667 0 -19.667 3.66699 -27 11s-11 16.333 -11 27v20c0 5.33301 -1.83301 9.83301 -5.5 13.5s-8.16699 5.5 -13.5 5.5h-349c-4.66699 0 -8.66699 -1.66699 -12 -5s-5 -7.33301 -5 -12v-582c0 -4.66699 1.66699 -8.66699 5 -12s7.33301 -5 12 -5h349
c5.33301 0 9.83301 1.66699 13.5 5s5.5 7.66602 5.5 12.999v20c0 10.667 3.66699 19.834 11 27.501s16.333 11.5 27 11.5h20c5.33301 0 9.83301 1.66699 13.5 5z" />
    <glyph glyph-name="E" unicode="E" horiz-adv-x="617" 
d="M512 625.5c-7.33301 7.66699 -11.0029 16.8398 -11.0029 27.5068v20c0 5.33301 -1.83301 9.83301 -5.5 13.5s-8.16699 5.5 -13.5 5.5h-348c-4.66699 0 -8.66699 -1.66699 -12 -5s-5 -7.33301 -5 -12v-197c0 -4.66699 1.66699 -8.66699 5 -12s7.33301 -5 12 -5h21
c10.667 0 19.667 -3.83301 27 -11.5s11 -16.834 11 -27.501v-19c0 -5.33301 1.83301 -9.83301 5.5 -13.5s8.16699 -5.5 13.5 -5.5h250c10.667 0 19.834 -3.83301 27.501 -11.5s11.5 -16.834 11.5 -27.501v-21c0 -4.66699 -1.66699 -8.5 -5 -11.5s-7.33301 -4.5 -12 -4.5
h-252c-10.667 0 -19.834 3.5 -27.501 10.5s-11.5 15.833 -11.5 26.5v21c0 5.33301 -1.66699 9.66602 -5 12.999s-7.66602 5 -12.999 5h-20c-10.667 0 -19.667 3.83301 -27 11.5s-11 16.5 -11 26.5v-328c0 -4.66699 1.66699 -8.66699 5 -12s7.33301 -5 12 -5h426
c4.66699 0 8.66699 -1.66699 12 -5s5 -7.33301 5 -12v-21c0 -10.667 -3.66699 -19.834 -11 -27.501s-16.333 -11.5 -27 -11.5h-461c-10.667 0 -19.667 3.66699 -27 11s-11 16.666 -11 27.999v691c0 10.667 3.66699 19.834 11 27.501s16.333 11.5 27 11.5h384
c10.667 0 19.834 -3.83301 27.501 -11.5s11.5 -16.834 11.5 -27.501v-20c0 -4.66699 1.83301 -8.83398 5.5 -12.501s7.83398 -5.5 12.501 -5.5h20c10.667 0 19.667 -3.83301 27 -11.5s11 -16.834 11 -27.501v-22c0 -4.66699 -1.66699 -8.66699 -5 -12s-7.33301 -5 -12 -5
h-21c-10.667 0 -19.667 3.83301 -27 11.5z" />
    <glyph glyph-name="F" unicode="F" horiz-adv-x="619" 
d="M567.5 681c7.66699 -7.33301 11.4971 -16.3311 11.4971 -26.998v-22c0 -4.66699 -1.66699 -8.5 -5 -11.5s-7.33301 -4.5 -12 -4.5h-22c-11.333 0 -20.666 3.66699 -27.999 11s-11 16.333 -11 27v20c0 4.66699 -1.83301 8.83398 -5.5 12.501s-8.16699 5.5 -13.5 5.5h-348
c-4.66699 0 -8.66699 -1.5 -12 -4.5s-5 -7.16699 -5 -12.5v-197c0 -4.66699 1.66699 -8.66699 5 -12s7.33301 -5 12 -5h22c10 0 18.667 -3.66699 26 -11s11 -16.333 11 -27v-21c0 -4.66699 2 -8.83398 6 -12.501s8.33301 -5.5 13 -5.5h251c10 0 18.833 -3.66699 26.5 -11
s11.5 -16.333 11.5 -27v-22c0 -4.66699 -1.5 -8.66699 -4.5 -12s-6.83301 -5 -11.5 -5h-253c-10.667 0 -19.834 3.83301 -27.501 11.5s-11.5 16.834 -11.5 27.501v20c0 5.33301 -1.66699 9.66602 -5 12.999s-7.66602 5 -12.999 5h-19
c-10.667 0 -19.834 3.83301 -27.501 11.5s-11.5 16.834 -11.5 27.501v-384c0 -10.667 -3.83301 -19.834 -11.5 -27.501s-16.5 -11.5 -26.5 -11.5h-22c-4.66699 0 -8.66699 1.66699 -12 5s-5 7.33301 -5 12v713c0 11.333 3.83301 20.666 11.5 27.999s16.834 11 27.501 11h384
c10 0 18.833 -3.83301 26.5 -11.5s11.5 -16.834 11.5 -27.501v-19c0 -5.33301 1.83301 -9.83301 5.5 -13.5s7.83398 -5.5 12.501 -5.5h21c10.667 0 19.834 -3.66699 27.501 -11z" />
    <glyph glyph-name="G" unicode="G" horiz-adv-x="695" 
d="M573 611c-3.33301 3.33301 -7.66309 4.99902 -12.9961 4.99902h-20c-10.667 0 -19.834 3.66699 -27.501 11s-11.5 16.333 -11.5 27v21c0 5.33301 -1.66699 9.66602 -5 12.999s-7.66602 5 -12.999 5h-273c-4.66699 0 -8.5 -1.66699 -11.5 -5s-4.5 -7.33301 -4.5 -12v-22
c0 -10.667 -3.83301 -19.667 -11.5 -27s-16.834 -11 -27.501 -11h-20c-4.66699 0 -8.83398 -1.66699 -12.501 -5s-5.5 -7.66602 -5.5 -12.999v-425c0 -5.33301 1.66699 -9.83301 5 -13.5s7.66602 -5.5 12.999 -5.5h20c10.667 0 19.834 -3.66699 27.501 -11
s11.5 -16.333 11.5 -27v-20c0 -5.33301 1.66699 -9.83301 5 -13.5s7.66602 -5.5 12.999 -5.5h271c5.33301 0 9.66602 1.83301 12.999 5.5s5 8.16699 5 13.5v20c0 10.667 3.83301 19.667 11.5 27s16.834 11 27.501 11h22c4.66699 0 8.5 1.66699 11.5 5s4.5 7.33301 4.5 12
v120c0 4.66699 -1.5 8.66699 -4.5 12s-6.83301 5 -11.5 5h-176c-10.667 0 -19.667 3.83301 -27 11.5s-11 16.834 -11 27.501v21c0 4.66699 1.5 8.66699 4.5 12s6.83301 5 11.5 5h253c10.667 0 19.667 -3.66699 27 -11s11 -16.333 11 -27v-308
c0 -10.667 -3.66699 -19.834 -11 -27.501s-16.333 -11.5 -27 -11.5h-22c-4.66699 0 -8.66699 1.66699 -12 5s-5 7.33301 -5 12v99c0 -10.667 -3.66699 -19.834 -11 -27.501s-16.333 -11.5 -27 -11.5h-20c-5.33301 0 -9.83301 -1.83301 -13.5 -5.5
s-5.5 -7.83398 -5.5 -12.501v-20c0 -10.667 -3.66699 -19.834 -11 -27.501s-16.333 -11.5 -27 -11.5h-231c-10.667 0 -19.667 3.83301 -27 11.5s-11 16.834 -11 27.501v20c0 4.66699 -1.83301 8.83398 -5.5 12.501s-8.16699 5.5 -13.5 5.5h-20
c-10.667 0 -19.667 3.83301 -27 11.5s-11 16.834 -11 27.501v20c0 4.66699 -1.83301 8.83398 -5.5 12.501s-8.16699 5.5 -13.5 5.5h-20c-10.667 0 -19.667 3.83301 -27 11.5s-11 16.834 -11 27.501v385c0 10.667 3.66699 19.667 11 27s16.333 11 27 11h20
c5.33301 0 9.83301 1.83301 13.5 5.5s5.5 7.83398 5.5 12.501v97c0 10.667 3.66699 19.834 11 27.501s16.333 11.5 27 11.5h308c10.667 0 19.667 -3.66699 27 -11s11 -16.333 11 -27v-21c0 -4.66699 1.83301 -8.83398 5.5 -12.501s8.16699 -5.5 13.5 -5.5h20
c10.667 0 19.667 -3.66699 27 -11s11 -16.333 11 -27v-21c0 -4.66699 1.83301 -8.83398 5.5 -12.501s8.16699 -5.5 13.5 -5.5h20c10.667 0 19.667 -3.83301 27 -11.5s11 -16.834 11 -27.501v-21c0 -4.66699 -1.5 -8.66699 -4.5 -12s-6.83301 -5 -11.5 -5h-22
c-10.667 0 -19.834 3.83301 -27.501 11.5s-11.5 16.834 -11.5 27.501v20c0 5.33301 -1.66699 9.66602 -5 12.999z" />
    <glyph glyph-name="H" unicode="H" horiz-adv-x="716" 
d="M600 758.5c7.33301 7.66699 16.3359 11.498 27.0029 11.498h22c4.66699 0 8.66699 -1.66699 12 -5s5 -7.33301 5 -12v-715c0 -10.667 -3.83301 -19.667 -11.5 -27s-16.834 -11 -27.501 -11h-21c-4.66699 0 -8.66699 1.66699 -12 5s-5 7.33301 -5 12v329
c0 -10.667 -3.83301 -19.667 -11.5 -27s-16.834 -11 -27.501 -11h-308c-10.667 0 -19.667 3.66699 -27 11s-11 16.333 -11 27v20c0 5.33301 -1.83301 9.83301 -5.5 13.5s-8.16699 5.5 -13.5 5.5h-20c-10.667 0 -19.667 3.66699 -27 11s-11 16.333 -11 27v-385
c0 -10.667 -3.83301 -19.667 -11.5 -27s-16.834 -11 -27.501 -11h-21c-4.66699 0 -8.66699 1.66699 -12 5s-5 7.33301 -5 12v714c0 10.667 3.66699 19.834 11 27.501s16.333 11.5 27 11.5h22c4.66699 0 8.66699 -1.66699 12 -5s5 -7.33301 5 -12v-274
c0 -4.66699 1.66699 -8.66699 5 -12s7.33301 -5 12 -5h21c11.333 0 20.666 -3.66699 27.999 -11s11 -16.666 11 -27.999v-20c0 -4.66699 1.83301 -8.83398 5.5 -12.501s7.83398 -5.5 12.501 -5.5h350c4.66699 0 8.66699 1.66699 12 5s5 7.33301 5 12v329
c0 10.667 3.66699 19.834 11 27.501z" />
    <glyph glyph-name="I" unicode="I" horiz-adv-x="177" 
d="M61.5 758c7.66699 7.33301 16.833 11 27.5 11h22c4.66699 0 8.5 -1.5 11.5 -4.5s4.5 -6.83301 4.5 -11.5v-715c0 -10.667 -3.66699 -19.667 -11 -27s-16.333 -11 -27 -11h-22c-4.66699 0 -8.66699 1.66699 -12 5s-5 7.33301 -5 12v714c0 10.667 3.83301 19.667 11.5 27z
" />
    <glyph glyph-name="J" unicode="J" horiz-adv-x="474" 
d="M358.5 758.5c7.66699 7.66699 16.833 11.498 27.5 11.498h22c4.66699 0 8.5 -1.66699 11.5 -5s4.5 -7.33301 4.5 -12v-638c0 -10.667 -3.66699 -19.667 -11 -27s-16.333 -11 -27 -11h-20c-5.33301 0 -9.83301 -1.83301 -13.5 -5.5s-5.5 -7.83398 -5.5 -12.501v-20
c0 -10.667 -3.66699 -19.834 -11 -27.501s-16.333 -11.5 -27 -11.5h-154c-10.667 0 -19.667 3.83301 -27 11.5s-11 16.834 -11 27.501v20c0 4.66699 -1.83301 8.83398 -5.5 12.501s-8.16699 5.5 -13.5 5.5h-20c-10.667 0 -19.667 3.66699 -27 11s-11 16.333 -11 27v77
c0 10.667 3.66699 19.834 11 27.501s16.333 11.5 27 11.5h22c4.66699 0 8.66699 -1.66699 12 -5s5 -7.33301 5 -12v-119c0 -4.66699 1.83301 -8.83398 5.5 -12.501s7.83398 -5.5 12.501 -5.5h194c5.33301 0 9.66602 1.83301 12.999 5.5s5 7.83398 5 12.501v636
c0 10.667 3.83301 19.834 11.5 27.501z" />
    <glyph glyph-name="K" unicode="K" horiz-adv-x="618" 
d="M573.5 765c3 -3.33301 4.50293 -7.33398 4.50293 -12.001v-22c0 -10.667 -3.66699 -19.667 -11 -27s-16.333 -11 -27 -11h-20c-4.66699 0 -9 -1.83301 -13 -5.5s-6 -8.16699 -6 -13.5v-20c0 -10.667 -3.66699 -19.667 -11 -27s-16.333 -11 -27 -11h-20
c-4.66699 0 -8.83398 -1.83301 -12.501 -5.5s-5.5 -8.16699 -5.5 -13.5h-1v-20c0 -10.667 -3.66699 -19.667 -11 -27s-16.333 -11 -27 -11h-20c-4.66699 0 -8.83398 -1.83301 -12.501 -5.5s-5.5 -8.16699 -5.5 -13.5v-20c0 -10.667 -3.83301 -19.667 -11.5 -27
s-16.834 -11 -27.501 -11h-20c-4.66699 0 -8.83398 -1.83301 -12.501 -5.5s-5.5 -8.16699 -5.5 -13.5v-42c0 -4.66699 1.5 -8.5 4.5 -11.5s6.83301 -4.5 11.5 -4.5h22c10.667 0 19.834 -3.83301 27.501 -11.5s11.5 -16.834 11.5 -27.501v-97
c0 -4.66699 1.83301 -8.83398 5.5 -12.501s7.83398 -5.5 12.501 -5.5h20c10.667 0 19.667 -3.83301 27 -11.5s11 -16.834 11 -27.501v-20c0 -4.66699 1.83301 -8.83398 5.5 -12.501s8.16699 -5.5 13.5 -5.5h20c10.667 0 19.667 -3.83301 27 -11.5s11 -16.834 11 -27.501v-20
c0 -4.66699 1.83301 -8.83398 5.5 -12.501s8.16699 -5.5 13.5 -5.5h20c10.667 0 19.667 -3.83301 27 -11.5s11 -16.834 11 -27.501v-21c0 -4.66699 -1.5 -8.66699 -4.5 -12s-6.83301 -5 -11.5 -5h-22c-10.667 0 -19.834 3.66699 -27.501 11s-11.5 16.333 -11.5 27v20
c0 5.33301 -1.66699 9.83301 -5 13.5s-7.66602 5.5 -12.999 5.5h-20c-10.667 0 -19.834 3.66699 -27.501 11s-11.5 16.333 -11.5 27v20c0 5.33301 -1.66699 9.83301 -5 13.5s-7.66602 5.5 -12.999 5.5h-20c-10.667 0 -19.667 3.66699 -27 11s-11 16.333 -11 27v20
c0 5.33301 -1.83301 9.83301 -5.5 13.5s-8.16699 5.5 -13.5 5.5h-20c-10.667 0 -19.667 3.66699 -27 11s-11 16.333 -11 27v22c0 4.66699 -1.66699 8.66699 -5 12s-7.33301 5 -12 5h-99c-10.667 0 -19.667 3.66699 -27 11s-11 16.333 -11 27v-308
c0 -10.667 -3.83301 -19.667 -11.5 -27s-16.834 -11 -27.501 -11h-22c-4.66699 0 -8.5 1.66699 -11.5 5s-4.5 7.33301 -4.5 12v714c0 10.667 3.66699 19.834 11 27.501s16.333 11.5 27 11.5h22c4.66699 0 8.66699 -1.66699 12 -5s5 -7.33301 5 -12v-352
c0 -4.66699 1.5 -8.5 4.5 -11.5s6.83301 -4.5 11.5 -4.5h44c4.66699 0 8.66699 1.5 12 4.5s5 6.83301 5 11.5v22c0 10.667 3.66699 19.834 11 27.501s16.333 11.5 27 11.5h20c4.66699 0 8.83398 1.66699 12.501 5s5.83398 7.66602 6.50098 12.999v20
c0 10.667 3.66699 19.834 11 27.501s16.333 11.5 27 11.5h20c5.33301 0 9.83301 1.83301 13.5 5.5s5.5 7.83398 5.5 12.501v20c0 10.667 3.66699 19.834 11 27.501s16.333 11.5 27 11.5h20c5.33301 0 9.66602 1.83301 12.999 5.5s5 7.83398 5 12.501v20
c0.666992 10.667 4.66699 19.834 12 27.501s16.333 11.5 27 11.5h20c5.33301 0 9.66602 1.83301 12.999 5.5s5 7.83398 5 12.501v20c0.666992 10.667 4.66699 19.834 12 27.501s16.333 11.5 27 11.5h22c4.66699 0 8.5 -1.66699 11.5 -5z" />
    <glyph glyph-name="L" unicode="L" horiz-adv-x="552" 
d="M500.5 65.5c7.66699 -7.66699 11.498 -16.8311 11.498 -27.498v-21c0 -4.66699 -1.66699 -8.66699 -5 -12s-7.33301 -5 -12 -5h-330c-10.667 0 -19.667 3.66699 -27 11s-11 16.333 -11 27v21c0 5.33301 -1.83301 9.66602 -5.5 12.999s-8.16699 5 -13.5 5h-20
c-10.667 0 -19.667 3.66699 -27 11s-11 16.333 -11 27v617c0 10.667 3.66699 19.667 11 27s16.333 11 27 11h22c4.66699 0 8.66699 -1.66699 12 -5s5 -7.33301 5 -12v-658c0 -4.66699 1.83301 -8.83398 5.5 -12.501s7.83398 -5.5 12.501 -5.5h328
c10.667 0 19.834 -3.83301 27.501 -11.5z" />
    <glyph glyph-name="M" unicode="M" horiz-adv-x="792" 
d="M731 759c7.33301 -7.33301 11.002 -16.3359 11.002 -27.0029v-693c0 -10.667 -3.66699 -19.667 -11 -27s-16.333 -11 -27 -11h-22c-4.66699 0 -8.5 1.5 -11.5 4.5s-4.5 6.83301 -4.5 11.5v659c0 4.66699 -1.66699 8.66699 -5 12s-7.33301 5 -12 5h-42
c-4.66699 0 -8.83398 -1.66699 -12.501 -5s-5.5 -7.66602 -5.5 -12.999v-328c0 -10.667 -3.83301 -19.834 -11.5 -27.501s-16.834 -11.5 -27.501 -11.5h-22c-4.66699 0 -8.5 -1.5 -11.5 -4.5s-4.5 -6.83301 -4.5 -11.5v-176c0 -10.667 -3.83301 -19.667 -11.5 -27
s-16.834 -11 -27.501 -11h-20c-4.66699 0 -8.83398 -1.83301 -12.501 -5.5s-5.5 -8.16699 -5.5 -13.5v-20c0 -10 -3.66699 -18.833 -11 -26.5s-16.333 -11.5 -27 -11.5s-19.834 3.83301 -27.501 11.5s-11.5 16.834 -11.5 27.501v19c0 5.33301 -1.83301 9.83301 -5.5 13.5
s-8.16699 5.5 -13.5 5.5h-20c-10.667 0 -19.667 3.66699 -27 11s-11 16.333 -11 27v192h-39c-10.667 0 -19.667 3.83301 -27 11.5s-11 16.834 -11 27.501v328c0 4.66699 -1.83301 8.83398 -5.5 12.501s-8.16699 5.5 -13.5 5.5h-41c-4.66699 0 -8.66699 -1.5 -12 -4.5
s-5 -7.16699 -5 -12.5v-637c0 -10.667 -3.83301 -19.667 -11.5 -27s-16.834 -11 -27.501 -11h-21c-4.66699 0 -8.66699 1.5 -12 4.5s-5 6.83301 -5 11.5v715c0 10.667 3.66699 19.667 11 27s16.333 11 27 11h77c10.667 0 19.834 -3.66699 27.501 -11s11.5 -16.333 11.5 -27
v-20c0 -5.33301 1.83301 -9.83301 5.5 -13.5s7.83398 -5.5 12.501 -5.5h20c10.667 0 19.667 -3.66699 27 -11s11.333 -16.333 12 -27v-253c0 -4.66699 1.5 -8.66699 4.5 -12s6.83301 -5 11.5 -5h22c10.667 0 19.834 -3.66699 27.501 -11s11.5 -16.333 11.5 -27v-251
c0 -4.66699 1.83301 -8.83398 5.5 -12.501s7.83398 -5.5 12.501 -5.5h40c5.33301 0 9.83301 1.83301 13.5 5.5s5.5 7.83398 5.5 12.501v251c0 10.667 3.66699 19.667 11 27s16.333 11 27 11h22c4.66699 0 8.66699 1.66699 12 5s5 7.33301 5 12v253
c0 10.667 3.66699 19.667 11 27s16.333 11 27 11h20c5.33301 0 9.83301 2 13.5 6s5.5 8.33301 5.5 13v20c0 10.667 3.66699 19.667 11 27s16.333 11 27 11h77c10.667 0 19.667 -3.66699 27 -11z" />
    <glyph glyph-name="N" unicode="N" horiz-adv-x="706" 
d="M600 758.5c7.33301 7.66699 16.3369 11.502 27.0039 11.502h22c4.66699 0 8.66699 -1.66699 12 -5s5 -7.33301 5 -12v-638c0 -10.667 -3.83301 -19.667 -11.5 -27s-16.834 -11 -27.501 -11h-20c-4.66699 0 -8.83398 -1.66699 -12.501 -5s-5.5 -7.66602 -5.5 -12.999v-21
c0 -10.667 -3.83301 -19.667 -11.5 -27s-16.834 -11 -27.501 -11h-77c-10.667 0 -19.667 3.66699 -27 11s-11 16.333 -11 27v98c0 5.33301 -1.66699 9.66602 -5 12.999s-7.66602 5 -12.999 5h-21c-10.667 0 -19.667 3.66699 -27 11s-11 16.333 -11 27v99
c0 4.66699 -1.66699 8.66699 -5 12s-7.33301 5 -12 5h-21c-10.667 0 -19.834 3.66699 -27.501 11s-11.5 16.333 -11.5 27v99c0 4.66699 -1.66699 8.66699 -5 12s-7.33301 5 -12 5h-21c-10.667 0 -19.834 3.66699 -27.501 11s-11.5 16.333 -11.5 27v174
c0 5.33301 -1.83301 9.83301 -5.5 13.5s-7.83398 5.5 -12.501 5.5h-42c-4.66699 0 -8.66699 -1.66699 -12 -5s-5 -7.33301 -5 -12v-638c0 -10.667 -3.66699 -19.667 -11 -27s-16.333 -11 -27 -11h-22c-4.66699 0 -8.66699 1.66699 -12 5s-5 7.33301 -5 12v714
c0 10.667 3.83301 19.834 11.5 27.501s16.834 11.5 27.501 11.5h77c10.667 0 19.667 -3.83301 27 -11.5s11 -16.834 11 -27.501v-20c0 -5.33301 1.83301 -9.66602 5.5 -12.999s8.16699 -5 13.5 -5h20c10.667 0 19.667 -3.83301 27 -11.5s11 -16.834 11 -27.501v-98
c0 -4.66699 1.66699 -8.66699 5 -12s7.33301 -5 12 -5h22c10.667 0 19.667 -3.83301 27 -11.5s11 -16.834 11 -27.501v-98c0 -4.66699 1.66699 -8.66699 5 -12s7.33301 -5 12 -5h22c10.667 0 19.667 -3.83301 27 -11.5s11 -16.834 11 -27.501v-174
c0 -4.66699 1.83301 -8.83398 5.5 -12.501s7.83398 -5.5 12.501 -5.5h20c11.333 0 20.666 -3.66699 27.999 -11s11 -16.666 11 -27.999v-21c0 -4.66699 1.66699 -8.66699 5 -12s7.33301 -5 12 -5h41c5.33301 0 9.83301 1.66699 13.5 5s5.5 7.66602 5.5 12.999v636
c0 10.667 3.66699 19.834 11 27.501z" />
    <glyph glyph-name="O" unicode="O" horiz-adv-x="773" 
d="M722 605c7.33301 -7.33301 10.9971 -16.6631 10.9971 -27.9961v-385c0 -10.667 -3.83301 -19.667 -11.5 -27s-16.834 -11 -27.501 -11h-20c-5.33301 0 -9.66602 -1.83301 -12.999 -5.5s-5 -8.16699 -5 -13.5v-97c0 -10.667 -3.83301 -19.667 -11.5 -27
s-16.834 -11 -27.501 -11h-385c-10.667 0 -19.667 3.66699 -27 11s-11 16.333 -11 27v21c0 5.33301 -1.66699 9.66602 -5 12.999s-7.66602 5 -12.999 5h-20c-10.667 0 -19.834 3.66699 -27.501 11s-11.5 16.333 -11.5 27v20c0 5.33301 -1.66699 9.83301 -5 13.5
s-7.66602 5.5 -12.999 5.5h-20c-10.667 0 -19.834 3.66699 -27.501 11s-11.5 16.333 -11.5 27v385c0 11.333 3.83301 20.666 11.5 27.999s16.834 11 27.501 11h20c5.33301 0 9.66602 1.83301 12.999 5.5s5 7.83398 5 12.501v97c0 10.667 3.83301 19.834 11.5 27.501
s16.834 11.5 27.501 11.5h384c10.667 0 19.834 -3.83301 27.501 -11.5s11.5 -16.834 11.5 -27.501v-20c0 -4.66699 1.83301 -8.83398 5.5 -12.501s7.83398 -5.5 12.501 -5.5h20c10.667 0 19.834 -3.83301 27.501 -11.5s11.5 -16.834 11.5 -27.501v-20
c0 -4.66699 1.83301 -8.83398 5.5 -12.501s7.83398 -5.5 12.501 -5.5h20c11.333 0 20.666 -3.66699 27.999 -11zM650.497 159.003c3.66699 3.33301 5.49902 7.66895 5.49902 13.002v425c0 5.33301 -1.83301 9.83301 -5.5 13.5s-8.16699 5.5 -13.5 5.5h-20
c-10.667 0 -19.667 3.66699 -27 11s-11 16.333 -11 27v20c0 5.33301 -1.83301 9.83301 -5.5 13.5s-8.16699 5.5 -13.5 5.5h-349c-4.66699 0 -8.66699 -1.66699 -12 -5s-5 -7.33301 -5 -12v-22c0 -10.667 -3.66699 -19.667 -11 -27s-16.333 -11 -27 -11h-21
c-4.66699 0 -8.83398 -1.83301 -12.501 -5.5s-5.5 -8.16699 -5.5 -13.5v-425c0 -4.66699 1.83301 -8.83398 5.5 -12.501s7.83398 -5.5 12.501 -5.5h21c10.667 0 19.667 -3.83301 27 -11.5s11 -16.834 11 -27.501v-20c0 -4.66699 1.83301 -8.83398 5.5 -12.501
s7.83398 -5.5 12.501 -5.5h350c4.66699 0 8.66699 1.66699 12 5s5 7.33301 5 12v21c0 10.667 3.66699 19.834 11 27.501s16.333 11.5 27 11.5h20c5.33301 0 9.83301 1.66699 13.5 5z" />
    <glyph glyph-name="P" unicode="P" horiz-adv-x="706" 
d="M655 604.5c7.33301 -7.66699 11 -16.834 11 -27.501v-154c0 -10.667 -3.66699 -19.667 -11 -27s-16.333 -11 -27 -11h-97c-5.33301 0 -9.83301 -1.83301 -13.5 -5.5s-5.5 -8.16699 -5.5 -13.5v-20c0 -10.667 -3.66699 -19.667 -11 -27s-16.333 -11 -27 -11h-231
c-10.667 0 -19.834 3.66699 -27.501 11s-11.5 16.333 -11.5 27v20c0 5.33301 -1.66699 9.83301 -5 13.5s-7.66602 5.5 -12.999 5.5h-20c-10.667 0 -19.834 3.66699 -27.501 11s-11.5 16.333 -11.5 27v-385c0 -10.667 -3.66699 -19.667 -11 -27s-16.333 -11 -27 -11h-22
c-4.66699 0 -8.66699 1.66699 -12 5s-5 7.33301 -5 12v714c0 10.667 3.83301 19.834 11.5 27.501s16.834 11.5 27.501 11.5h385c10.667 0 19.667 -3.83301 27 -11.5s11 -16.834 11 -27.501v-20c0 -5.33301 1.83301 -9.66602 5.5 -12.999s8.16699 -5 13.5 -5h20
c10.667 0 19.667 -3.83301 27 -11.5s11 -16.834 11 -27.501v-20c0 -5.33301 1.83301 -9.66602 5.5 -12.999s8.16699 -5 13.5 -5h20c10.667 0 19.667 -3.83301 27 -11.5zM523.5 451c7.66699 7.33301 16.8369 11.002 27.5039 11.002h21c5.33301 0 9.5 1.66699 12.5 5
s4.5 7.33301 4.5 12v118c0 5.33301 -1.83301 9.83301 -5.5 13.5s-7.83398 5.5 -12.501 5.5h-20c-10.667 0 -19.834 3.66699 -27.501 11s-11.5 16.333 -11.5 27v20c0 5.33301 -1.83301 9.83301 -5.5 13.5s-7.83398 5.5 -12.501 5.5h-350c-4.66699 0 -8.66699 -1.66699 -12 -5
s-5 -7.33301 -5 -12v-197c0 -4.66699 1.66699 -8.66699 5 -12s7.33301 -5 12 -5h22c10.667 0 19.667 -3.83301 27 -11.5s11 -16.834 11 -27.501v-20c0 -4.66699 1.83301 -8.83398 5.5 -12.501s8.16699 -5.5 13.5 -5.5h271c5.33301 0 9.66602 1.83301 12.999 5.5
s5 7.83398 5 12.501v20c0 11.333 3.83301 20.666 11.5 27.999z" />
    <glyph glyph-name="Q" unicode="Q" horiz-adv-x="772" 
d="M721 604.5c7.33301 -7.66699 10.998 -16.832 10.998 -27.499v-385c0 -10.667 -3.66699 -19.667 -11 -27s-16.333 -11 -27 -11h-20c-5.33301 0 -9.83301 -1.83301 -13.5 -5.5s-5.5 -7.83398 -5.5 -12.501v-42c0 -4.66699 1.66699 -8.66699 5 -12s7.33301 -5 12 -5h22
c10.667 0 19.667 -3.83301 27 -11.5s11 -16.834 11 -27.501v-21c0 -4.66699 -1.5 -8.66699 -4.5 -12s-6.83301 -5 -11.5 -5h-484c-10.667 0 -19.667 3.66699 -27 11s-11 16.333 -11 27v21c0 4.66699 -1.83301 8.83398 -5.5 12.501s-8.16699 5.5 -13.5 5.5h-20
c-10.667 0 -19.667 3.66699 -27 11s-11 16.333 -11 27v21c0 4.66699 -1.83301 8.83398 -5.5 12.501s-8.16699 5.5 -13.5 5.5h-20c-10.667 0 -19.667 3.66699 -27 11s-11 16.333 -11 27v385c0 10.667 3.66699 19.834 11 27.501s16.333 11.5 27 11.5h20
c5.33301 0 9.83301 1.83301 13.5 5.5s5.5 7.83398 5.5 12.501v97c0 10.667 3.66699 19.834 11 27.501s16.333 11.5 27 11.5h385c10.667 0 19.834 -3.83301 27.501 -11.5s11.5 -16.834 11.5 -27.501v-20c0 -4.66699 1.83301 -8.83398 5.5 -12.501s7.83398 -5.5 12.501 -5.5
h20c10.667 0 19.667 -3.83301 27 -11.5s11 -16.834 11 -27.501v-20c0 -4.66699 1.83301 -8.83398 5.5 -12.501s8.16699 -5.5 13.5 -5.5h20c10.667 0 19.667 -3.83301 27 -11.5zM649.998 159.502c3.33301 3.66699 4.99512 7.83691 4.99512 12.5039v425
c0 5.33301 -1.66699 9.83301 -5 13.5s-7.66602 5.5 -12.999 5.5h-20c-10.667 0 -19.667 3.66699 -27 11s-11 16.333 -11 27v20c0 5.33301 -1.83301 9.83301 -5.5 13.5s-8.16699 5.5 -13.5 5.5h-350c-4.66699 0 -8.5 -1.66699 -11.5 -5s-4.5 -7.33301 -4.5 -12v-22
c0 -10.667 -3.83301 -19.667 -11.5 -27s-16.834 -11 -27.501 -11h-20c-5.33301 0 -9.66602 -1.83301 -12.999 -5.5s-5 -8.16699 -5 -13.5v-425c0 -4.66699 1.83301 -8.83398 5.5 -12.501s7.83398 -5.5 12.501 -5.5h20c10.667 0 19.834 -3.83301 27.501 -11.5
s11.5 -16.834 11.5 -27.501v-20c0 -4.66699 1.83301 -8.83398 5.5 -12.501s7.83398 -5.5 12.501 -5.5h350c4.66699 0 8.66699 1.66699 12 5s5 7.33301 5 12v42c0 4.66699 -1.83301 8.83398 -5.5 12.501s-8.16699 5.5 -13.5 5.5h-20c-10.667 0 -19.667 3.66699 -27 11
s-11 16.333 -11 27v22c0 4.66699 1.5 8.66699 4.5 12s6.83301 5 11.5 5h22c10.667 0 19.834 -3.83301 27.501 -11.5s11.5 -16.834 11.5 -27.501v-20c0 -4.66699 1.83301 -8.83398 5.5 -12.501s7.83398 -5.5 12.501 -5.5h40c5.33301 0 9.66602 1.83301 12.999 5.5z" />
    <glyph glyph-name="R" unicode="R" horiz-adv-x="706" 
d="M655 604.5c7.33301 -7.66699 11 -16.8252 11 -27.4922v-154c0 -10.667 -3.66699 -19.667 -11 -27s-16.333 -11 -27 -11h-97c-5.33301 0 -9.83301 -1.83301 -13.5 -5.5s-5.5 -8.16699 -5.5 -13.5v-40c0 -4.66699 1.83301 -8.83398 5.5 -12.501s8.16699 -5.5 13.5 -5.5h20
c10.667 0 19.667 -3.83301 27 -11.5s11 -16.834 11 -27.501v-174c0 -4.66699 1.83301 -8.83398 5.5 -12.501s8.16699 -5.5 13.5 -5.5h20c10.667 0 19.667 -3.83301 27 -11.5s11 -16.834 11 -27.501v-21c0 -4.66699 -1.66699 -8.66699 -5 -12s-7.33301 -5 -12 -5h-21
c-10.667 0 -19.834 3.66699 -27.501 11s-11.5 16.333 -11.5 27v21c0 5.33301 -1.66699 9.66602 -5 12.999s-7.66602 5 -12.999 5h-20c-10.667 0 -19.834 3.66699 -27.501 11s-11.5 16.333 -11.5 27v174c0 5.33301 -1.66699 9.83301 -5 13.5s-7.66602 5.5 -12.999 5.5h-251
c-10.667 0 -19.834 3.66699 -27.501 11s-11.5 16.333 -11.5 27v20c0 5.33301 -1.66699 9.83301 -5 13.5s-7.66602 5.5 -12.999 5.5h-20c-10.667 0 -19.834 3.66699 -27.501 11s-11.5 16.333 -11.5 27v-385c0 -10.667 -3.66699 -19.667 -11 -27s-16.333 -11 -27 -11h-22
c-4.66699 0 -8.66699 1.66699 -12 5s-5 7.33301 -5 12v714c0 10.667 3.83301 19.834 11.5 27.501s16.834 11.5 27.501 11.5h385c10.667 0 19.667 -3.83301 27 -11.5s11 -16.834 11 -27.501v-20c0 -4.66699 1.83301 -8.83398 5.5 -12.501s8.16699 -5.5 13.5 -5.5h20
c10.667 0 19.667 -3.83301 27 -11.5s11 -16.834 11 -27.501v-20c0 -4.66699 1.83301 -8.83398 5.5 -12.501s8.16699 -5.5 13.5 -5.5h20c10.667 0 19.667 -3.83301 27 -11.5zM523.5 450.509c7.66699 7.66699 16.8369 11.5 27.5039 11.5h21c5.33301 0 9.5 1.66699 12.5 5
s4.5 7.33301 4.5 12v118c0 5.33301 -1.83301 9.83301 -5.5 13.5s-7.83398 5.5 -12.501 5.5h-20c-10.667 0 -19.834 3.66699 -27.501 11s-11.5 16.333 -11.5 27v20c0 5.33301 -1.83301 9.83301 -5.5 13.5s-7.83398 5.5 -12.501 5.5h-350c-4.66699 0 -8.66699 -1.66699 -12 -5
s-5 -7.33301 -5 -12v-197c0 -4.66699 1.66699 -8.66699 5 -12s7.33301 -5 12 -5h22c10.667 0 19.667 -3.83301 27 -11.5s11 -16.834 11 -27.501v-20c0 -4.66699 1.83301 -8.83398 5.5 -12.501s8.16699 -5.5 13.5 -5.5h271c5.33301 0 9.66602 1.83301 12.999 5.5
s5 7.83398 5 12.501v20c0 10.667 3.83301 19.834 11.5 27.501z" />
    <glyph glyph-name="S" unicode="S" horiz-adv-x="695" 
d="M572.5 687.5c-3.66699 3.66699 -7.83691 5.50586 -12.5039 5.50586h-350c-4.66699 0 -8.5 -1.66699 -11.5 -5s-4.5 -7.33301 -4.5 -12v-22c0 -10.667 -3.83301 -19.667 -11.5 -27s-16.834 -11 -27.501 -11h-20c-5.33301 0 -9.66602 -1.83301 -12.999 -5.5
s-5 -8.16699 -5 -13.5v-117c0 -4.66699 1.83301 -8.83398 5.5 -12.501s7.83398 -5.5 12.501 -5.5h328c10.667 0 19.834 -3.83301 27.501 -11.5s11.5 -16.834 11.5 -27.501v-20c0 -4.66699 1.83301 -8.83398 5.5 -12.501s7.83398 -5.5 12.501 -5.5h20
c10.667 0 19.667 -3.83301 27 -11.5s11 -16.834 11 -27.501v-20c0 -4.66699 1.83301 -8.83398 5.5 -12.501s8.16699 -5.5 13.5 -5.5h20c10.667 0 19.667 -3.83301 27 -11.5s11 -16.834 11 -27.501v-154c0 -10.667 -3.66699 -19.667 -11 -27s-16.333 -11 -27 -11h-20
c-5.33301 0 -9.83301 -1.83301 -13.5 -5.5s-5.5 -7.83398 -5.5 -12.501v-21c0 -10.667 -3.66699 -19.667 -11 -27s-16.333 -11 -27 -11h-385c-10.667 0 -19.667 3.66699 -27 11s-11 16.333 -11 27v21c0 4.66699 -1.83301 8.83398 -5.5 12.501s-8.16699 5.5 -13.5 5.5h-20
c-10.667 0 -19.667 3.66699 -27 11s-11 16.333 -11 27v22c0 4.66699 1.5 8.66699 4.5 12s6.83301 5 11.5 5h22c10.667 0 19.834 -3.83301 27.501 -11.5s11.5 -16.834 11.5 -27.501v-20c0 -4.66699 1.83301 -8.83398 5.5 -12.501s7.83398 -5.5 12.501 -5.5h425
c5.33301 0 9.66602 1.83301 12.999 5.5s5 7.83398 5 12.501v194c0 5.33301 -1.66699 9.83301 -5 13.5s-7.66602 5.5 -12.999 5.5h-20c-10.667 0 -19.667 3.66699 -27 11s-11 16.333 -11 27v20c0 5.33301 -1.83301 9.83301 -5.5 13.5s-8.16699 5.5 -13.5 5.5h-328
c-10.667 0 -19.667 3.66699 -27 11s-11 16.333 -11 27v20c0 5.33301 -1.83301 9.83301 -5.5 13.5s-8.16699 5.5 -13.5 5.5h-20c-10.667 0 -19.667 3.66699 -27 11s-11 16.333 -11 27v78c0 10.667 3.66699 19.667 11 27s16.333 11 27 11h20
c5.33301 0 9.83301 1.83301 13.5 5.5s5.5 7.83398 5.5 12.501v97c0 10.667 3.66699 19.834 11 27.501s16.333 11.5 27 11.5h385c10.667 0 19.667 -3.66699 27 -11s11 -16.333 11 -27v-21c0 -4.66699 1.83301 -8.83398 5.5 -12.501s8.16699 -5.5 13.5 -5.5h20
c10.667 0 19.667 -3.83301 27 -11.5s11 -16.834 11 -27.501v-21c0 -4.66699 -1.5 -8.66699 -4.5 -12s-6.83301 -5 -11.5 -5h-22c-10.667 0 -19.834 3.83301 -27.501 11.5s-11.5 16.834 -11.5 27.501v19c0 5.33301 -1.83301 9.83301 -5.5 13.5z" />
    <glyph glyph-name="T" unicode="T" horiz-adv-x="618" 
d="M573.5 765c3 -3.33301 4.50098 -7.33398 4.50098 -12.001v-22c0 -10.667 -3.66699 -19.667 -11 -27s-16.333 -11 -27 -11h-174c-4.66699 0 -9 -1.83301 -13 -5.5s-6 -8.16699 -6 -13.5v-636c0 -10.667 -3.66699 -19.667 -11 -27s-16.333 -11 -27 -11h-22
c-4.66699 0 -8.66699 1.66699 -12 5s-5 7.33301 -5 12v657c0 5.33301 -1.83301 9.83301 -5.5 13.5s-7.83398 5.5 -12.501 5.5h-196c-4.66699 0 -8.5 1.66699 -11.5 5s-4.5 7.33301 -4.5 12v22c0 10.667 3.66699 19.667 11 27s16.333 11 27 11h154
c10.667 0 19.667 -3.66699 27 -11s11 -16.333 11 -27v-21c0 -4.66699 1.83301 -8.83398 5.5 -12.501s8.16699 -5.5 13.5 -5.5h40c5.33301 0 9.66602 1.83301 12.999 5.5s5 7.83398 5 12.501v20c0 10.667 3.83301 19.834 11.5 27.501s16.834 11.5 27.501 11.5h176
c4.66699 0 8.5 -1.66699 11.5 -5z" />
    <glyph glyph-name="U" unicode="U" horiz-adv-x="696" 
d="M590 758.5c7.33301 7.66699 16.3369 11.4961 27.0039 11.4961h22c4.66699 0 8.66699 -1.66699 12 -5s5 -7.33301 5 -12v-561c0 -10.667 -3.83301 -19.667 -11.5 -27s-16.834 -11 -27.501 -11h-20c-4.66699 0 -8.83398 -1.66699 -12.501 -5s-5.5 -7.66602 -5.5 -12.999
v-98c0 -10.667 -3.83301 -19.667 -11.5 -27s-16.834 -11 -27.501 -11h-307c-10.667 0 -19.834 3.66699 -27.501 11s-11.5 16.333 -11.5 27v21c0 5.33301 -1.66699 9.66602 -5 12.999s-7.66602 5 -12.999 5h-20c-10.667 0 -19.834 3.66699 -27.501 11s-11.5 16.333 -11.5 27
v21c0 5.33301 -1.66699 9.66602 -5 12.999s-7.66602 5 -12.999 5h-20c-10.667 0 -19.834 3.66699 -27.501 11s-11.5 16.333 -11.5 27v539c0 10.667 3.83301 19.834 11.5 27.501s16.834 11.5 27.501 11.5h21c4.66699 0 8.66699 -1.66699 12 -5s5 -7.33301 5 -12v-581
c0 -5.33301 1.83301 -9.66602 5.5 -12.999s8.16699 -5 13.5 -5h20c10.667 0 19.667 -3.83301 27 -11.5s11 -16.834 11 -27.501v-20c0 -5.33301 1.83301 -9.66602 5.5 -12.999s8.16699 -5 13.5 -5h272c4.66699 0 8.66699 1.66699 12 5s5 7.33301 5 12v21
c0 10.667 3.66699 19.834 11 27.501s16.333 11.5 27 11.5h21c5.33301 0 9.66602 1.83301 12.999 5.5s5 7.83398 5 12.501v559c0 10.667 3.66699 19.834 11 27.501z" />
    <glyph glyph-name="V" unicode="V" horiz-adv-x="695" 
d="M589.5 758.5c7.66699 7.66699 16.834 11.5029 27.501 11.5029h21c4.66699 0 8.66699 -1.66699 12 -5s5 -7.33301 5 -12v-253c0 -10.667 -3.66699 -19.667 -11 -27s-16.333 -11 -27 -11h-22c-4.66699 0 -8.66699 -1.66699 -12 -5s-5 -7.33301 -5 -12v-176
c0 -10.667 -3.66699 -19.667 -11 -27s-16.333 -11 -27 -11h-22c-4.66699 0 -8.66699 -1.66699 -12 -5s-5 -7.33301 -5 -12v-99c0 -10.667 -3.66699 -19.667 -11 -27s-16.333 -11 -27 -11h-20c-5.33301 0 -9.83301 -1.83301 -13.5 -5.5s-5.5 -7.83398 -5.5 -12.501v-21
c0 -10.667 -3.66699 -19.667 -11 -27s-16.333 -11 -27 -11h-77c-10.667 0 -19.834 3.66699 -27.501 11s-11.5 16.333 -11.5 27v98c0 5.33301 -1.66699 9.66602 -5 12.999s-7.66602 5 -12.999 5h-20c-10.667 0 -19.834 3.66699 -27.501 11s-11.5 16.333 -11.5 27v99
c0 4.66699 -1.5 8.66699 -4.5 12s-6.83301 5 -11.5 5h-22c-10.667 0 -19.834 3.66699 -27.501 11s-11.5 16.333 -11.5 27v176c0 4.66699 -1.5 8.66699 -4.5 12s-6.83301 5 -11.5 5h-22c-10.667 0 -19.667 3.66699 -27 11s-11 16.333 -11 27v176
c0 4.66699 1.5 8.66699 4.5 12s6.83301 5 11.5 5h22c10.667 0 19.667 -3.83301 27 -11.5s11 -16.834 11 -27.501v-98c0 -4.66699 1.66699 -8.66699 5 -12s7.33301 -5 12 -5h22c10.667 0 19.667 -3.83301 27 -11.5s11 -16.834 11 -27.501v-175
c0 -4.66699 1.66699 -8.66699 5 -12s7.33301 -5 12 -5h22c10.667 0 19.667 -3.83301 27 -11.5s11 -16.834 11 -27.501v-174c0 -4.66699 1.83301 -8.83398 5.5 -12.501s8.16699 -5.5 13.5 -5.5h20c10.667 0 19.667 -3.83301 27 -11.5s11 -16.834 11 -27.501v-21
c0 -4.66699 1.66699 -8.66699 5 -12s7.33301 -5 12 -5h42c5.33301 0 9.66602 1.83301 12.999 5.5s5 7.83398 5 12.501v174c0 10.667 3.83301 19.834 11.5 27.501s16.834 11.5 27.501 11.5h22c4.66699 0 8.5 1.66699 11.5 5s4.5 7.33301 4.5 12v175
c0 10.667 3.83301 19.834 11.5 27.501s16.834 11.5 27.501 11.5h21c5.33301 0 9.5 1.66699 12.5 5s4.5 7.33301 4.5 12v175c0 10.667 3.83301 19.834 11.5 27.501z" />
    <glyph glyph-name="W" unicode="W" horiz-adv-x="927" 
d="M821 758.5c7.33301 7.66699 16.334 11.5 27.001 11.5h22c4.66699 0 8.66699 -1.66699 12 -5s5 -7.33301 5 -12v-330c0 -10.667 -3.83301 -19.667 -11.5 -27s-16.834 -11 -27.501 -11h-21c-4.66699 0 -8.66699 -1.66699 -12 -5s-5 -7.33301 -5 -12v-252
c0 -10.667 -3.66699 -19.834 -11 -27.501s-16.333 -11.5 -27 -11.5h-21c-4.66699 0 -8.83398 -1.66699 -12.501 -5s-5.5 -7.66602 -5.5 -12.999v-20c0 -10.667 -3.83301 -19.834 -11.5 -27.501s-16.834 -11.5 -27.501 -11.5s-19.667 4 -27 12s-11 17.333 -11 28v19
c0 5.33301 -1.66699 9.66602 -5 12.999s-7.66602 5 -12.999 5h-20c-10.667 0 -19.834 3.83301 -27.501 11.5s-11.5 16.834 -11.5 27.501v252c0 4.66699 -1.66699 8.66699 -5 12s-7.33301 5 -12 5h-21c-10.667 0 -19.834 3.66699 -27.501 11s-11.5 16.333 -11.5 27v251
c0 5.33301 -1.66699 9.83301 -5 13.5s-7.66602 5.5 -12.999 5.5h-40c-5.33301 0 -9.83301 -1.83301 -13.5 -5.5s-5.5 -8.16699 -5.5 -13.5v-251c0 -10.667 -3.66699 -19.667 -11 -27s-16.333 -11 -27 -11h-22c-4.66699 0 -8.66699 -1.66699 -12 -5s-5 -7.33301 -5 -12v-252
c0 -10.667 -3.66699 -19.834 -11 -27.501s-16.333 -11.5 -27 -11.5h-20c-5.33301 0 -9.83301 -1.66699 -13.5 -5s-5.5 -7.66602 -5.5 -12.999v-20c0 -10.667 -3.66699 -19.834 -11 -27.501s-16.666 -11.5 -27.999 -11.5c-10.667 0 -19.667 4 -27 12s-11 17.333 -11 28v19
c0 5.33301 -1.66699 9.66602 -5 12.999s-7.66602 5 -12.999 5h-20c-10.667 0 -19.834 3.83301 -27.501 11.5s-11.5 16.834 -11.5 27.501v252c0 4.66699 -1.66699 8.66699 -5 12s-7.33301 5 -12 5h-21c-10.667 0 -19.834 3.66699 -27.501 11s-11.5 16.333 -11.5 27v309
c0 10.667 3.83301 19.667 11.5 27s16.834 11 27.501 11h21c4.66699 0 8.66699 -1.66699 12 -5s5 -7.33301 5 -12v-274c0 -4.66699 1.66699 -8.66699 5 -12s7.33301 -5 12 -5h22c10.667 0 19.667 -3.83301 27 -11.5s11 -16.834 11 -27.501v-328
c0 -4.66699 1.83301 -8.83398 5.5 -12.501s8.16699 -5.5 13.5 -5.5h40c5.33301 0 9.66602 1.83301 12.999 5.5s5 7.83398 5 12.501v328c0 11.333 3.83301 20.666 11.5 27.999s16.834 11 27.501 11h21c5.33301 0 9.5 1.66699 12.5 5s4.5 7.33301 4.5 12v175
c0 10.667 3.83301 19.834 11.5 27.501s16.834 11.5 27.501 11.5h20c5.33301 0 9.66602 1.83301 12.999 5.5s5 7.83398 5 12.501v21c0 10.667 3.83301 19.667 11.5 27s16.834 11 27.501 11s19.667 -3.66699 27 -11s11 -16.333 11 -27v-21
c0 -5.33301 1.83301 -9.66602 5.5 -12.999s8.16699 -5 13.5 -5h20c10.667 0 19.667 -3.66699 27 -11s11 -16.333 11 -27v-176c0 -4.66699 1.66699 -8.66699 5 -12s7.33301 -5 12 -5h22c10.667 0 19.667 -3.83301 27 -11.5s11 -16.834 11 -27.501v-328
c0 -5.33301 1.83301 -9.66602 5.5 -12.999s8.16699 -5 13.5 -5h40c5.33301 0 9.66602 1.83301 12.999 5.5s5 7.83398 5 12.501v328c0 11.333 3.83301 20.666 11.5 27.999s16.834 11 27.501 11h21c4.66699 0 8.66699 1.66699 12 5s5 7.33301 5 12v252
c0 10.667 3.66699 19.834 11 27.501z" />
    <glyph glyph-name="X" unicode="X" horiz-adv-x="696" 
d="M651 765c3.33301 -3.33301 5.00098 -7.33496 5.00098 -12.002v-253c0 -10.667 -3.83301 -19.667 -11.5 -27s-16.834 -11 -27.501 -11h-174c-5.33301 0 -9.66602 -1.83301 -12.999 -5.5s-5 -8.16699 -5 -13.5v-40c0 -4.66699 1.83301 -8.83398 5.5 -12.501
s7.83398 -5.5 12.501 -5.5h174c11.333 0 20.666 -3.66699 27.999 -11s11 -16.666 11 -27.999v-308c0 -10.667 -3.83301 -19.667 -11.5 -27s-16.834 -11 -27.501 -11h-21c-4.66699 0 -8.66699 1.66699 -12 5s-5 7.33301 -5 12v274c0 4.66699 -1.66699 8.66699 -5 12
s-7.33301 5 -12 5h-99c-10.667 0 -19.667 3.66699 -27 11s-11 16.333 -11 27v20c0 5.33301 -1.83301 9.83301 -5.5 13.5s-8.16699 5.5 -13.5 5.5h-117c-5.33301 0 -9.66602 -1.83301 -12.999 -5.5s-5 -8.16699 -5 -13.5v-20c0 -10.667 -3.83301 -19.667 -11.5 -27
s-16.834 -11 -27.501 -11h-98c-4.66699 0 -8.66699 -1.66699 -12 -5s-5 -7.33301 -5 -12v-253c0 -10.667 -3.83301 -19.667 -11.5 -27s-16.834 -11 -27.501 -11h-21c-4.66699 0 -8.66699 1.66699 -12 5s-5 7.33301 -5 12v329c0 10.667 3.66699 19.834 11 27.501
s16.333 11.5 27 11.5h174c5.33301 0 9.83301 1.66699 13.5 5s5.5 7.66602 5.5 12.999v40c0 5.33301 -1.83301 9.83301 -5.5 13.5s-8.16699 5.5 -13.5 5.5h-174c-10.667 0 -19.667 3.66699 -27 11s-11 16.333 -11 27v231c0 10.667 3.83301 19.834 11.5 27.501
s16.834 11.5 27.501 11.5h21c4.66699 0 8.66699 -1.66699 12 -5s5 -7.33301 5 -12v-197c0 -4.66699 1.66699 -8.66699 5 -12s7.33301 -5 12 -5h98c11.333 0 20.666 -3.66699 27.999 -11s11 -16.666 11 -27.999v-20c0 -4.66699 1.83301 -8.83398 5.5 -12.501
s7.83398 -5.5 12.501 -5.5h117c5.33301 0 9.83301 1.66699 13.5 5s5.5 7.66602 5.5 12.999v20c0 10.667 3.66699 19.834 11 27.501s16.333 11.5 27 11.5h99c4.66699 0 8.66699 1.66699 12 5s5 7.33301 5 12v175c0 10.667 3.66699 19.834 11 27.501s16.333 11.5 27 11.5h22
c4.66699 0 8.66699 -1.66699 12 -5z" />
    <glyph glyph-name="Y" unicode="Y" horiz-adv-x="619" 
d="M513 759c7.33301 7.33301 16.334 10.999 27.001 10.999h22c4.66699 0 8.66699 -1.66699 12 -5s5 -7.33301 5 -12v-175c0 -10.667 -3.83301 -19.834 -11.5 -27.501s-16.834 -11.5 -27.501 -11.5h-22c-4.66699 0 -8.5 -1.66699 -11.5 -5s-4.5 -7.33301 -4.5 -12v-98
c0 -10.667 -3.83301 -19.834 -11.5 -27.501s-16.834 -11.5 -27.501 -11.5h-97c-4.66699 0 -8.83398 -1.66699 -12.501 -5s-5.5 -7.66602 -5.5 -12.999v-328c0 -10.667 -3.83301 -19.834 -11.5 -27.501s-16.834 -11.5 -27.501 -11.5h-22c-4.66699 0 -8.5 1.66699 -11.5 5
s-4.5 7.33301 -4.5 12v350c0 4.66699 -1.83301 8.83398 -5.5 12.501s-8.16699 5.5 -13.5 5.5h-97c-10.667 0 -19.667 3.83301 -27 11.5s-11 16.834 -11 27.501v98c0 4.66699 -1.66699 8.66699 -5 12s-7.33301 5 -12 5h-22c-10.667 0 -19.667 3.83301 -27 11.5
s-11 16.834 -11 27.501v154c0 10.667 3.66699 19.667 11 27s16.333 11 27 11h22c4.66699 0 8.66699 -1.66699 12 -5s5 -7.33301 5 -12v-120c0 -4.66699 1.66699 -8.66699 5 -12s7.33301 -5 12 -5h21c10.667 0 19.834 -3.66699 27.501 -11s11.5 -16.333 11.5 -27v-99
c0 -4.66699 1.5 -8.66699 4.5 -12s6.83301 -5 11.5 -5h22c10.667 0 19.834 -3.66699 27.501 -11s11.5 -16.333 11.5 -27v-20c0 -5.33301 1.83301 -9.83301 5.5 -13.5s7.83398 -5.5 12.501 -5.5h40c5.33301 0 9.83301 2 13.5 6s5.5 8.33301 5.5 13v20
c0 10.667 3.66699 19.667 11 27s16.333 11 27 11h22c4.66699 0 8.66699 1.66699 12 5s5 7.33301 5 12v99c0 10.667 3.66699 19.667 11 27s16.333 11 27 11h22c4.66699 0 8.66699 1.66699 12 5s5 7.33301 5 12v99c0 10.667 3.66699 19.667 11 27z" />
    <glyph glyph-name="Z" unicode="Z" horiz-adv-x="696" 
d="M644.5 758.5c7.66699 -7.66699 11.5029 -16.832 11.5029 -27.499v-77c0 -10.667 -3.83301 -19.667 -11.5 -27s-16.834 -11 -27.501 -11h-20c-5.33301 0 -9.66602 -1.83301 -12.999 -5.5s-5 -8.16699 -5 -13.5v-20c0 -10.667 -3.83301 -19.667 -11.5 -27
s-16.834 -11 -27.501 -11h-20c-5.33301 0 -9.66602 -1.83301 -12.999 -5.5s-5 -8.16699 -5 -13.5v-20c0 -10.667 -3.83301 -19.667 -11.5 -27s-16.834 -11 -27.501 -11h-20c-4.66699 0 -8.83398 -1.66699 -12.501 -5s-5.5 -7.66602 -5.5 -12.999v-21
c0 -10.667 -3.83301 -19.667 -11.5 -27s-16.834 -11 -27.501 -11h-20c-4.66699 0 -8.83398 -1.66699 -12.501 -5s-5.5 -7.66602 -5.5 -12.999v-20c0 -10.667 -3.66699 -19.834 -11 -27.501s-16.666 -11.5 -27.999 -11.5h-20c-4.66699 0 -8.83398 -1.66699 -12.501 -5
s-5.5 -7.66602 -5.5 -12.999v-20c0 -10.667 -3.66699 -19.834 -11 -27.501s-16.666 -11.5 -27.999 -11.5h-20c-4.66699 0 -8.83398 -1.66699 -12.501 -5s-5.5 -7.66602 -5.5 -12.999v-20c0 -10.667 -3.66699 -19.834 -11 -27.501s-16.666 -11.5 -27.999 -11.5h-20
c-4.66699 0 -8.83398 -1.66699 -12.501 -5s-5.5 -7.66602 -5.5 -12.999v-41c0 -4.66699 1.83301 -8.83398 5.5 -12.501s7.83398 -5.5 12.501 -5.5h504c4.66699 0 8.66699 -1.66699 12 -5s5 -7.33301 5 -12v-21c0 -10.667 -3.83301 -19.834 -11.5 -27.501
s-16.834 -11.5 -27.501 -11.5h-462c-10.667 0 -19.667 3.83301 -27 11.5s-11 16.834 -11 27.501v20c0 5.33301 -1.83301 9.66602 -5.5 12.999s-8.16699 5 -13.5 5h-20c-10.667 0 -19.667 3.83301 -27 11.5s-11 16.834 -11 27.501s4 19.667 12 27s17.333 11 28 11h18
c5.33301 0 9.83301 1.83301 13.5 5.5s5.5 8.16699 5.5 13.5v20c0 10.667 3.66699 19.667 11 27s16.333 11 27 11h20c5.33301 0 9.83301 1.66699 13.5 5s5.5 7.66602 5.5 12.999v21c0 10.667 3.66699 19.667 11 27s16.333 11 27 11h20c5.33301 0 9.83301 1.66699 13.5 5
s5.5 7.66602 5.5 12.999v21c0 10.667 3.66699 19.667 11 27s16.333 11 27 11h20c5.33301 0 9.83301 1.66699 13.5 5s5.5 7.66602 5.5 12.999v20c0 10.667 3.66699 19.834 11 27.501s16.333 11.5 27 11.5h20c5.33301 0 9.83301 1.66699 13.5 5s5.5 7.66602 5.5 12.999v20
c0 10.667 3.66699 19.834 11 27.501s16.333 11.5 27 11.5h20c5.33301 0 9.83301 1.66699 13.5 5s5.5 7.66602 5.5 12.999v21c0 10.667 3.66699 19.667 11 27s16.333 11 27 11h20c5.33301 0 9.83301 1.83301 13.5 5.5s5.5 7.83398 5.5 12.501v42
c0 4.66699 -1.66699 8.66699 -5 12s-7.33301 5 -12 5h-505c-4.66699 0 -8.66699 1.66699 -12 5s-5 7.33301 -5 12v22c0 10.667 3.66699 19.667 11 27s16.333 11 27 11h539c10.667 0 19.834 -3.83301 27.501 -11.5z" />
    <glyph glyph-name="bracketleft" unicode="[" horiz-adv-x="270" 
d="M112 -72c3.33301 -3.33301 7.33301 -5.00195 12 -5.00195h98c10.667 0 19.667 -3.66699 27 -11s11 -16.333 11 -27v-21c0 -4.66699 -1.66699 -8.83398 -5 -12.501s-7.33301 -5.5 -12 -5.5h-175c-10.667 0 -19.667 3.83301 -27 11.5s-11 16.834 -11 27.501v923
c0 10.667 3.66699 19.667 11 27s16.333 11 27 11h175c4.66699 0 8.66699 -1.66699 12 -5s5 -7.33301 5 -12v-21c0 -10.667 -3.66699 -19.667 -11 -27s-16.333 -11 -27 -11h-98c-4.66699 0 -8.66699 -1.66699 -12 -5s-5 -7.66602 -5 -12.999v-811
c0 -5.33301 1.66699 -9.66602 5 -12.999z" />
    <glyph glyph-name="backslash" unicode="\" horiz-adv-x="518" 
d="M25 842c-3.33301 -3.33301 -4.99512 -7.33594 -4.99512 -12.0029v-99c0 -10.667 3.83301 -19.667 11.5 -27s16.834 -11 27.501 -11h20c5.33301 0 9.66602 -1.83301 12.999 -5.5s5 -8.16699 5 -13.5v-97c0 -10.667 3.83301 -19.667 11.5 -27s16.834 -11 27.501 -11h20
c5.33301 0 9.66602 -1.66699 12.999 -5s5 -7.66602 5 -12.999v-97c0 -11.333 3.83301 -20.666 11.5 -27.999s17.167 -11 28.5 -11h20c5.33301 0 9.66602 -1.66699 12.999 -5s5 -7.66602 5 -12.999v-97c0 -10.667 3.66699 -19.834 11 -27.501s16.333 -11.5 27 -11.5h20
c5.33301 0 9.83301 -1.66699 13.5 -5s5.5 -7.66602 5.5 -12.999v-97c0 -10.667 3.66699 -19.667 11 -27s16.333 -11 27 -11h20c5.33301 0 9.83301 -1.83301 13.5 -5.5s5.5 -8.16699 5.5 -13.5v-97c0 -10.667 3.66699 -19.667 11 -27s16.333 -11 27 -11h22
c4.66699 0 8.66699 1.66699 12 5s5 7.33301 5 12v98c0 10.667 -3.83301 19.834 -11.5 27.501s-16.834 11.5 -27.501 11.5h-20c-4.66699 0 -8.83398 1.83301 -12.501 5.5s-5.5 7.83398 -5.5 12.501v97c0 10.667 -3.83301 19.667 -11.5 27s-16.834 11 -27.501 11h-20
c-4.66699 0 -8.83398 1.83301 -12.501 5.5s-5.5 8.16699 -5.5 13.5v97c0 10.667 -3.83301 19.667 -11.5 27s-16.834 11 -27.501 11h-20c-5.33301 0 -9.66602 1.83301 -12.999 5.5s-5 8.16699 -5 13.5v97c0 10.667 -3.66699 19.667 -11 27s-16.333 11 -27 11h-21
c-5.33301 0 -9.83301 1.66699 -13.5 5s-5.5 7.66602 -5.5 12.999v98c0 10.667 -3.66699 19.667 -11 27s-16.333 11 -27 11h-20c-5.33301 0 -9.83301 1.66699 -13.5 5s-5.5 7.66602 -5.5 12.999v98c0 10.667 -3.66699 19.667 -11 27s-16.333 11 -27 11h-22
c-4.66699 0 -8.66699 -1.66699 -12 -5z" />
    <glyph glyph-name="bracketright" unicode="]" horiz-adv-x="271" 
d="M159 765c-3.33301 3.33301 -7.66797 5.00391 -13.001 5.00391h-98c-10.667 0 -19.667 3.66699 -27 11s-11 16.333 -11 27v21c0 5.33301 1.83301 9.66602 5.5 12.999s7.83398 5 12.501 5h174c10.667 0 19.834 -3.83301 27.501 -11.5s11.5 -16.834 11.5 -27.501v-923
c0 -10.667 -3.83301 -19.667 -11.5 -27s-16.834 -11 -27.501 -11h-174c-5.33301 0 -9.66602 1.66699 -12.999 5s-5 7.33301 -5 12v21c0 10.667 3.66699 19.667 11 27s16.333 11 27 11h98c5.33301 0 9.66602 1.66699 12.999 5s5 7.66602 5 12.999v811
c0 5.33301 -1.66699 9.66602 -5 12.999z" />
    <glyph glyph-name="asciicircum" unicode="^" horiz-adv-x="440" 
d="M184.5 759c7.66699 7.33301 16.832 11 27.499 11s19.667 -3.66699 27 -11s11 -16.333 11 -27v-20c0 -5.33301 2 -9.83301 6 -13.5s8.66699 -5.5 14 -5.5h20c10.667 0 19.667 -3.66699 27 -11s11 -16.333 11 -27v-97c0 -5.33301 1.83301 -9.66602 5.5 -12.999
s8.16699 -5 13.5 -5h20c10.667 0 19.667 -3.66699 27 -11s11 -16.333 11 -27v-99c0 -4.66699 -1.66699 -8.66699 -5 -12s-7.33301 -5 -12 -5h-21c-11.333 0 -20.666 3.66699 -27.999 11s-11 16.333 -11 27v96c0 5.33301 -1.83301 9.83301 -5.5 13.5s-8.16699 5.5 -13.5 5.5
h-19c-10.667 0 -19.834 3.83301 -27.501 11.5s-11.5 16.834 -11.5 27.501v96c0 5.33301 -1.83301 9.83301 -5.5 13.5s-8.16699 5.5 -13.5 5.5h-39c-5.33301 0 -9.83301 -1.83301 -13.5 -5.5s-5.5 -8.16699 -5.5 -13.5v-96c0 -10.667 -3.66699 -19.834 -11 -27.501
s-16.333 -11.5 -27 -11.5h-20c-5.33301 0 -9.83301 -1.83301 -13.5 -5.5s-5.5 -8.16699 -5.5 -13.5v-96c0 -10.667 -3.66699 -19.834 -11 -27.501s-16.333 -11.5 -27 -11.5h-22c-4.66699 0 -8.66699 1.66699 -12 5s-5 7.33301 -5 12v99c0 10.667 3.83301 19.667 11.5 27
s16.834 11 27.501 11h19c5.33301 0 9.83301 1.83301 13.5 5.5s5.5 8.16699 5.5 13.5v97c0 10.667 3.83301 19.667 11.5 27s16.834 11 27.501 11h19c5.33301 0 9.66602 1.83301 12.999 5.5s5 8.16699 5 13.5v20c0 10.667 3.83301 19.667 11.5 27z" />
    <glyph glyph-name="underscore" unicode="_" horiz-adv-x="532" 
d="M492 -82c3.33301 -3.33301 4.99902 -7.33398 4.99902 -12.001v-22c0 -10.667 -3.66699 -19.667 -11 -27s-16.333 -11 -27 -11h-407c-4.66699 0 -8.66699 1.66699 -12 5s-5 7.33301 -5 12v21c0 10.667 3.83301 19.834 11.5 27.501s16.834 11.5 27.501 11.5h406
c4.66699 0 8.66699 -1.66699 12 -5z" />
    <glyph glyph-name="grave" unicode="`" horiz-adv-x="600" 
d="M357 683c7.33301 -7.33301 11.002 -16.3311 11.002 -26.998v-22c0 -4.66699 -1.5 -8.66699 -4.5 -12s-6.83301 -5 -11.5 -5h-22c-10.667 0 -19.834 3.83301 -27.501 11.5s-11.5 16.834 -11.5 27.501v20c0 5.33301 -1.83301 9.66602 -5.5 12.999s-7.83398 5 -12.501 5h-20
c-10.667 0 -19.667 3.66699 -27 11s-11 16.333 -11 27v22c0 4.66699 1.5 8.66699 4.5 12s6.83301 5 11.5 5h22c10.667 0 19.667 -3.83301 27 -11.5s11 -16.834 11 -27.501v-20c0 -4.66699 1.83301 -8.83398 5.5 -12.501s8.16699 -5.5 13.5 -5.5h20
c10.667 0 19.667 -3.66699 27 -11z" />
    <glyph glyph-name="a" unicode="a" 
d="M123 11c-7.33301 7.33301 -11.001 16.3359 -11.001 27.0029v20c0 5.33301 -1.83301 9.83301 -5.5 13.5s-8.16699 5.5 -13.5 5.5h-20c-10.667 0 -19.667 3.66699 -27 11s-11 16.333 -11 27v77c0 10.667 3.66699 19.834 11 27.501s16.333 11.5 27 11.5h20
c5.33301 0 9.83301 1.66699 13.5 5s5.5 7.66602 5.5 12.999v20c0 10.667 3.66699 19.667 11 27s16.333 11 27 11h308c10.667 0 19.667 -3.66699 27 -11s11 -16.333 11 -27v174c0 5.33301 -1.66699 9.66602 -5 12.999s-7.66602 5 -12.999 5h-348
c-4.66699 0 -8.83398 -1.66699 -12.501 -5s-5.5 -7.66602 -5.5 -12.999v-20c0 -10.667 -3.66699 -19.834 -11 -27.501s-16.666 -11.5 -27.999 -11.5h-21c-4.66699 0 -8.66699 1.66699 -12 5s-5 7.33301 -5 12v22c0 10.667 3.66699 19.667 11 27s16.333 11 27 11h20
c5.33301 0 9.83301 1.66699 13.5 5s5.5 7.66602 5.5 12.999v20c0 10.667 3.66699 19.834 11 27.501s16.333 11.5 27 11.5h308c10.667 0 19.667 -3.83301 27 -11.5s11 -16.834 11 -27.501v-20c0 -4.66699 1.83301 -8.83398 5.5 -12.501s7.83398 -5.5 12.501 -5.5h20
c10.667 0 19.834 -3.66699 27.501 -11s11.5 -16.333 11.5 -27v-231c0 -10.667 -3.83301 -19.667 -11.5 -27s-16.834 -11 -27.501 -11h-20c-4.66699 0 -8.83398 -1.83301 -12.501 -5.5s-5.5 -8.16699 -5.5 -13.5v-97c0 -10.667 -3.66699 -19.667 -11 -27s-16.333 -11 -27 -11
h-308c-10.667 0 -19.667 3.66699 -27 11zM414.499 82.0029c3 3.33301 4.5 7.33203 4.5 11.999v21c0 10.667 3.83301 19.834 11.5 27.501s16.834 11.5 27.501 11.5h20c5.33301 0 9.66602 1.83301 12.999 5.5s5 7.83398 5 12.501v42c0 4.66699 -1.66699 8.66699 -5 12
s-7.33301 5 -12 5h-349c-4.66699 0 -8.83398 -1.83301 -12.501 -5.5s-5.5 -8.16699 -5.5 -13.5v-117c0 -4.66699 1.83301 -8.83398 5.5 -12.501s7.83398 -5.5 12.501 -5.5h272c5.33301 0 9.5 1.66699 12.5 5z" />
    <glyph glyph-name="b" unicode="b" horiz-adv-x="623" 
d="M576.5 450c7.66699 -7.33301 11.498 -16.333 11.498 -27v-308c0 -10.667 -3.83301 -19.667 -11.5 -27s-16.834 -11 -27.501 -11h-20c-5.33301 0 -9.66602 -1.83301 -12.999 -5.5s-5 -8.16699 -5 -13.5v-20c0 -10.667 -3.66699 -19.667 -11 -27s-16.333 -11 -27 -11h-308
c-10.667 0 -19.667 3.66699 -27 11s-11 16.333 -11 27v97c0 5.33301 -1.83301 9.83301 -5.5 13.5s-8.16699 5.5 -13.5 5.5h-20c-10.667 0 -19.667 3.66699 -27 11s-11 16.333 -11 27v538c0 10.667 3.66699 19.667 11 27s16.333 11 27 11h22c4.66699 0 8.66699 -1.5 12 -4.5
s5 -6.83301 5 -11.5v-329c0 10.667 3.66699 19.667 11 27s16.333 11 27 11h20c5.33301 0 9.83301 1.83301 13.5 5.5s5.5 7.83398 5.5 12.501v20c0 10.667 3.66699 19.834 11 27.501s16.333 11.5 27 11.5h231c10.667 0 19.667 -3.83301 27 -11.5s11 -16.834 11 -27.501v-20
c0 -4.66699 1.83301 -8.83398 5.5 -12.501s7.83398 -5.5 12.501 -5.5h20c10.667 0 19.834 -3.66699 27.501 -11zM505.998 82.5c3.33301 3.66699 5 7.83594 5 12.5029v348c0 5.33301 -1.66699 9.66602 -5 12.999s-7.66602 5 -12.999 5h-271
c-4.66699 0 -8.83398 -1.66699 -12.501 -5s-5.5 -7.66602 -5.5 -12.999v-20c0 -10.667 -3.83301 -19.834 -11.5 -27.501s-16.834 -11.5 -27.501 -11.5h-21c-4.66699 0 -8.66699 -1.5 -12 -4.5s-5 -7.16699 -5 -12.5v-195c0 -4.66699 1.83301 -8.83398 5.5 -12.501
s7.83398 -5.5 12.501 -5.5h20c10.667 0 19.834 -3.83301 27.501 -11.5s11.5 -16.834 11.5 -27.501v-21c0 -4.66699 1.5 -8.66699 4.5 -12s6.83301 -5 11.5 -5h273c5.33301 0 9.66602 1.83301 12.999 5.5z" />
    <glyph glyph-name="c" unicode="c" 
d="M507 395.5c-7.33301 7.66699 -11.0029 16.8359 -11.0029 27.5029v20c0 5.33301 -1.66699 9.66602 -5 12.999s-7.66602 5 -12.999 5h-273c-4.66699 0 -8.5 -1.66699 -11.5 -5s-4.5 -7.33301 -4.5 -12v-21c0 -10.667 -3.83301 -19.834 -11.5 -27.501
s-16.834 -11.5 -27.501 -11.5h-20c-4.66699 0 -8.83398 -1.66699 -12.501 -5s-5.5 -7.66602 -5.5 -12.999v-194c0 -4.66699 1.83301 -8.83398 5.5 -12.501s7.83398 -5.5 12.501 -5.5h20c10.667 0 19.834 -3.83301 27.501 -11.5s11.5 -16.834 11.5 -27.501v-20
c0 -4.66699 1.83301 -8.83398 5.5 -12.501s7.83398 -5.5 12.501 -5.5h271c5.33301 0 9.66602 1.83301 12.999 5.5s5 7.83398 5 12.501v20c0 10.667 3.66699 19.834 11 27.501s16.333 11.5 27 11.5h22c4.66699 0 8.66699 -1.66699 12 -5s5 -7.33301 5 -12v-22
c0 -10.667 -3.83301 -19.667 -11.5 -27s-16.834 -11 -27.501 -11h-20c-5.33301 0 -9.66602 -1.83301 -12.999 -5.5s-5 -8.16699 -5 -13.5v-20c0 -10.667 -3.66699 -19.667 -11 -27s-16.333 -11 -27 -11h-231c-10.667 0 -19.667 3.66699 -27 11s-11 16.333 -11 27v20
c0 5.33301 -1.83301 9.83301 -5.5 13.5s-8.16699 5.5 -13.5 5.5h-20c-10.667 0 -19.667 3.66699 -27 11s-11 16.333 -11 27v20c0 5.33301 -1.83301 9.83301 -5.5 13.5s-8.16699 5.5 -13.5 5.5h-20c-10.667 0 -19.667 3.66699 -27 11s-11 16.333 -11 27v154
c0 10.667 3.66699 19.667 11 27s16.333 11 27 11h20c5.33301 0 9.83301 1.83301 13.5 5.5s5.5 8.16699 5.5 13.5v96c0 10.667 3.66699 19.834 11 27.501s16.333 11.5 27 11.5h308c10.667 0 19.667 -3.83301 27 -11.5s11 -16.834 11 -27.501v-20
c0 -4.66699 1.83301 -8.83398 5.5 -12.501s7.83398 -5.5 12.501 -5.5h20c10.667 0 19.834 -3.66699 27.501 -11s11.5 -16.333 11.5 -27v-22c0 -4.66699 -1.66699 -8.66699 -5 -12s-7.33301 -5 -12 -5h-22c-10.667 0 -19.667 3.83301 -27 11.5z" />
    <glyph glyph-name="d" unicode="d" horiz-adv-x="623" 
d="M46 450c7.33301 7.33301 16.333 11 27 11h20c5.33301 0 9.83301 1.83301 13.5 5.5s5.5 7.83398 5.5 12.501v20c0 10.667 3.66699 19.834 11 27.501s16.333 11.5 27 11.5h231c10.667 0 19.667 -3.83301 27 -11.5s11 -16.834 11 -27.501v-20
c0 -4.66699 1.83301 -8.83398 5.5 -12.501s7.83398 -5.5 12.501 -5.5h21c10.667 0 19.667 -3.66699 27 -11s11 -16.333 11 -27v329c0 4.66699 1.66699 8.5 5 11.5s7.33301 4.5 12 4.5h21c10.667 0 19.834 -3.66699 27.501 -11s11.5 -16.333 11.5 -27v-538
c0 -10.667 -3.83301 -19.667 -11.5 -27s-16.834 -11 -27.501 -11h-20c-4.66699 0 -8.83398 -1.83301 -12.501 -5.5s-5.5 -8.16699 -5.5 -13.5v-97c0 -10.667 -3.66699 -19.667 -11 -27s-16.333 -11 -27 -11h-308c-10.667 0 -19.667 3.66699 -27 11s-11 16.333 -11 27v20
c0 5.33301 -1.83301 9.83301 -5.5 13.5s-8.16699 5.5 -13.5 5.5h-20c-10.667 0 -19.667 3.66699 -27 11s-11 16.333 -11 27v308c0 10.667 3.66699 19.667 11 27zM117.5 82.5c3.66699 -3.66699 7.83398 -5.50195 12.501 -5.50195h272c5.33301 0 9.5 1.66699 12.5 5
s4.5 7.33301 4.5 12v21c0 10.667 3.83301 19.834 11.5 27.501s16.834 11.5 27.501 11.5h20c5.33301 0 9.66602 1.83301 12.999 5.5s5 7.83398 5 12.501v195c0 4.66699 -1.66699 8.66699 -5 12s-7.33301 5 -12 5h-21c-10.667 0 -19.834 3.83301 -27.501 11.5
s-11.5 16.834 -11.5 27.501v20c0 5.33301 -1.66699 9.66602 -5 12.999s-7.66602 5 -12.999 5h-271c-4.66699 0 -8.83398 -1.66699 -12.501 -5s-5.5 -7.66602 -5.5 -12.999v-348c0 -4.66699 1.83301 -8.83398 5.5 -12.501z" />
    <glyph glyph-name="e" unicode="e" 
d="M562 450c7.33301 -7.33301 10.9971 -16.333 10.9971 -27v-77c0 -10.667 -3.66699 -19.834 -11 -27.501s-16.333 -11.5 -27 -11.5h-20c-5.33301 0 -9.83301 -1.66699 -13.5 -5s-5.5 -7.66602 -5.5 -12.999v-20c0 -10.667 -3.66699 -19.667 -11 -27s-16.333 -11 -27 -11
h-308c-10.667 0 -19.667 3.66699 -27 11s-11 16.333 -11 27v-97c0 -4.66699 1.83301 -8.83398 5.5 -12.501s7.83398 -5.5 12.501 -5.5h20c10.667 0 19.834 -3.83301 27.501 -11.5s11.5 -16.834 11.5 -27.501v-20c0 -4.66699 1.83301 -8.83398 5.5 -12.501
s7.83398 -5.5 12.501 -5.5h271c5.33301 0 9.66602 1.83301 12.999 5.5s5 7.83398 5 12.501v20c0 10.667 3.83301 19.834 11.5 27.501s16.834 11.5 27.501 11.5h21c4.66699 0 8.66699 -1.66699 12 -5s5 -7.33301 5 -12v-22c0 -10.667 -3.66699 -19.667 -11 -27
s-16.333 -11 -27 -11h-20c-5.33301 0 -9.83301 -1.83301 -13.5 -5.5s-5.5 -8.16699 -5.5 -13.5v-20c0 -10.667 -3.66699 -19.667 -11 -27s-16.333 -11 -27 -11h-231c-10.667 0 -19.667 3.66699 -27 11s-11 16.333 -11 27v20c0 5.33301 -1.83301 9.83301 -5.5 13.5
s-8.16699 5.5 -13.5 5.5h-20c-10.667 0 -19.667 3.66699 -27 11s-11 16.333 -11 27v20c0 5.33301 -1.83301 9.83301 -5.5 13.5s-8.16699 5.5 -13.5 5.5h-20c-10.667 0 -19.667 3.66699 -27 11s-11 16.333 -11 27v154c0 10.667 3.66699 19.667 11 27s16.333 11 27 11h20
c5.33301 0 9.83301 1.83301 13.5 5.5s5.5 8.16699 5.5 13.5v96c0 10.667 3.66699 19.834 11 27.501s16.333 11.5 27 11.5h308c10.667 0 19.667 -3.83301 27 -11.5s11 -16.834 11 -27.501v-20c0 -5.33301 1.83301 -9.66602 5.5 -12.999s8.16699 -5 13.5 -5h20
c10.667 0 19.667 -3.66699 27 -11zM490.497 312.5c3.66699 3.66699 5.49805 8.16797 5.49805 13.501v117c0 5.33301 -1.66699 9.66602 -5 12.999s-7.66602 5 -12.999 5h-272c-4.66699 0 -8.66699 -1.5 -12 -4.5s-5 -7.16699 -5 -12.5v-21
c0 -10.667 -3.66699 -19.834 -11 -27.501s-16.666 -11.5 -27.999 -11.5h-20c-4.66699 0 -8.83398 -1.66699 -12.501 -5s-5.5 -7.66602 -5.5 -12.999v-42c0 -4.66699 1.66699 -8.66699 5 -12s7.33301 -5 12 -5h349c4.66699 0 8.83398 1.83301 12.501 5.5z" />
    <glyph glyph-name="f" unicode="f" horiz-adv-x="377" 
d="M331 680.5c7.33301 -7.66699 10.999 -16.8311 10.999 -27.498v-21c0 -4.66699 -1.5 -8.66699 -4.5 -12s-6.83301 -5 -11.5 -5h-22c-10.667 0 -19.667 3.66699 -27 11s-11 16.333 -11 27v20c0 5.33301 -1.83301 9.83301 -5.5 13.5s-8.16699 5.5 -13.5 5.5h-58v-154h137
c4.66699 0 8.5 -1.66699 11.5 -5s4.5 -7.33301 4.5 -12v-22c0 -10.667 -3.66699 -19.667 -11 -27s-16.333 -11 -27 -11h-115v-423c0 -10.667 -3.83301 -19.667 -11.5 -27s-16.834 -11 -27.501 -11h-21c-4.66699 0 -8.66699 1.66699 -12 5s-5 7.33301 -5 12v444h-60
c-4.66699 0 -8.66699 1.66699 -12 5s-5 7.33301 -5 12v21c0 11.333 3.83301 20.666 11.5 27.999s16.834 11 27.501 11h38v192c0 10.667 3.66699 19.667 11 27s16.333 11 27 11h78c10.667 0 19.667 -3.66699 27 -11s11 -16.333 11 -27v-20
c0 -4.66699 1.83301 -8.83398 5.5 -12.501s7.83398 -5.5 12.501 -5.5h20c10.667 0 19.667 -3.83301 27 -11.5z" />
    <glyph glyph-name="g" unicode="g" 
d="M562 373c7.33301 -7.33301 11.0039 -16.3311 11.0039 -26.998v-384c0 -10.667 -3.66699 -19.834 -11 -27.501s-16.333 -11.5 -27 -11.5h-20c-5.33301 0 -9.83301 -1.83301 -13.5 -5.5s-5.5 -7.83398 -5.5 -12.501v-20c0 -10.667 -3.66699 -19.834 -11 -27.501
s-16.333 -11.5 -27 -11.5h-20c-4.66699 0 -8.83398 -1.83301 -12.501 -5.5s-5.5 -7.83398 -5.5 -12.501v-20c0 -10.667 -3.83301 -19.667 -11.5 -27s-16.834 -11 -27.501 -11h-230c-10.667 0 -19.834 3.66699 -27.501 11s-11.5 16.333 -11.5 27v20
c0 4.66699 -1.66699 8.83398 -5 12.501s-7.66602 5.5 -12.999 5.5h-20c-10.667 0 -19.834 3.83301 -27.501 11.5s-11.5 16.834 -11.5 27.501v22c0 4.66699 1.66699 8.5 5 11.5s7.33301 4.5 12 4.5h22c10.667 0 19.667 -3.66699 27 -11s11 -16.333 11 -27v-20
c0 -5.33301 1.83301 -9.83301 5.5 -13.5s8.16699 -5.5 13.5 -5.5h270c5.33301 0 9.83301 1.83301 13.5 5.5s5.5 8.16699 5.5 13.5v20c0 10.667 3.66699 19.667 11 27s16.333 11 27 11h20c4.66699 0 8.83398 1.83301 12.501 5.5s5.5 8.16699 5.5 13.5v173
c0 -10.667 -3.66699 -19.667 -11 -27s-16.333 -11 -27 -11h-20c-4.66699 0 -8.83398 -1.66699 -12.501 -5s-5.5 -7.66602 -5.5 -12.999v-20c0 -10.667 -3.83301 -19.834 -11.5 -27.501s-16.834 -11.5 -27.501 -11.5h-230c-10.667 -0 -19.834 3.83301 -27.501 11.5
s-11.5 16.834 -11.5 27.501v20c0 5.33301 -1.66699 9.66602 -5 12.999s-7.66602 5 -12.999 5h-20c-10.667 0 -19.834 3.66699 -27.501 11s-11.5 16.333 -11.5 27v308c0 10.667 3.83301 19.667 11.5 27s16.834 11 27.501 11h20c5.33301 0 9.66602 1.83301 12.999 5.5
s5 8.16699 5 13.5v20c0 10.667 3.83301 19.667 11.5 27s16.834 11 27.501 11h307c10.667 0 19.667 -3.66699 27 -11s11 -16.333 11 -27v-97c0 -4.66699 2 -9 6 -13s8.33301 -6 13 -6h20c10.667 0 19.667 -3.66699 27 -11zM491.504 159.002
c3 3.33301 4.49902 7.3291 4.49902 11.9961v195c0 5.33301 -1.66699 9.66602 -5 12.999s-7.66602 5 -12.999 5h-20c-10.667 0 -19.667 3.83301 -27 11.5s-11 16.834 -11 27.501v21c0 4.66699 -1.66699 8.66699 -5 12s-7.33301 5 -12 5h-272
c-5.33301 0 -9.83301 -1.66699 -13.5 -5s-5.5 -7.66602 -5.5 -12.999v-348c0 -5.33301 1.83301 -9.66602 5.5 -12.999s8.16699 -5 13.5 -5h270c5.33301 0 9.83301 1.83301 13.5 5.5s5.5 7.83398 5.5 12.501v20c0 10.667 3.66699 19.834 11 27.501s16.333 11.5 27 11.5h22
c4.66699 0 8.5 1.66699 11.5 5z" />
    <glyph glyph-name="h" unicode="h" horiz-adv-x="638" 
d="M576.5 450c7.66699 -7.33301 11.499 -16.334 11.499 -27.001v-385c0 -10.667 -3.83301 -19.667 -11.5 -27s-16.834 -11 -27.501 -11h-21c-4.66699 0 -8.66699 1.66699 -12 5s-5 7.33301 -5 12v425c0 5.33301 -1.83301 9.83301 -5.5 13.5s-8.16699 5.5 -13.5 5.5h-270
c-5.33301 0 -9.83301 -1.83301 -13.5 -5.5s-5.5 -8.16699 -5.5 -13.5v-19c0 -10.667 -3.66699 -19.834 -11 -27.501s-16.333 -11.5 -27 -11.5h-22c-4.66699 0 -8.5 -1.66699 -11.5 -5s-4.5 -7.33301 -4.5 -12v-329c0 -10.667 -3.83301 -19.667 -11.5 -27
s-16.834 -11 -27.501 -11h-22c-4.66699 0 -8.5 1.66699 -11.5 5s-4.5 7.33301 -4.5 12v713c0 10.667 3.66699 19.667 11 27s16.333 11 27 11h22c4.66699 0 8.66699 -1.5 12 -4.5s5 -6.83301 5 -11.5v-329c0 10.667 3.66699 19.667 11 27s16.333 11 27 11h23
c4.66699 1.33301 8.33398 3.5 11.001 6.5s4 6.83301 4 11.5v20c0 10.667 3.83301 19.834 11.5 27.501s16.834 11.5 27.501 11.5h230c11.333 0 20.666 -3.66699 27.999 -11s11 -16.666 11 -27.999v-20c0 -4.66699 1.33301 -8.5 4 -11.5s6.33398 -5.16699 11.001 -6.5h23
c10.667 0 19.834 -3.66699 27.501 -11z" />
    <glyph glyph-name="i" unicode="i" horiz-adv-x="216" 
d="M141.5 687c3 -3.33301 4.5 -7.33203 4.5 -11.999v-21c0 -10.667 -3.66699 -19.834 -11 -27.501s-16.333 -11.5 -27 -11.5h-22c-4.66699 0 -8.5 1.66699 -11.5 5s-4.5 7.33301 -4.5 12v22c0 10.667 3.66699 19.667 11 27s16.333 11 27 11h22
c4.66699 0 8.5 -1.66699 11.5 -5zM81 526.501c7.33301 7.66699 16.333 11.499 27 11.499h22c4.66699 0 8.5 -1.66699 11.5 -5s4.5 -7.33301 4.5 -12v-483c0 -10.667 -3.66699 -19.667 -11 -27s-16.333 -11 -27 -11h-22c-4.66699 0 -8.5 1.66699 -11.5 5
s-4.5 7.33301 -4.5 12v482c0 10.667 3.66699 19.834 11 27.501z" />
    <glyph glyph-name="j" unicode="j" horiz-adv-x="335" 
d="M260 687c3.33301 -3.33301 4.99902 -7.33398 4.99902 -12.001v-22c0 -10.667 -3.66699 -19.667 -11 -27s-16.333 -11 -27 -11h-22c-4.66699 0 -8.66699 1.66699 -12 5s-5 7.33301 -5 12v21c0 10.667 3.83301 19.834 11.5 27.501s16.834 11.5 27.501 11.5h21
c4.66699 0 8.66699 -1.66699 12 -5zM199.499 526.999c7.66699 7.33301 16.8311 10.999 27.498 10.999h21c5.33301 0 9.5 -1.5 12.5 -4.5s4.5 -7.16699 4.5 -12.5v-636c0 -10.667 -3.66699 -19.834 -11 -27.501s-16.333 -11.5 -27 -11.5h-20
c-5.33301 0 -9.83301 -1.83301 -13.5 -5.5s-5.5 -7.83398 -5.5 -12.501v-20c0 -10.667 -3.83301 -19.667 -11.5 -27s-16.834 -11 -27.501 -11s-19.5 3.83301 -26.5 11.5s-10.5 16.834 -10.5 27.501v19c0 4.66699 -1.83301 8.83398 -5.5 12.501s-8.16699 5.5 -13.5 5.5h-20
c-10.667 0 -19.667 3.83301 -27 11.5s-11 16.834 -11 27.501v22c0 4.66699 1.5 8.5 4.5 11.5s6.83301 4.5 11.5 4.5h22c10.667 0 19.834 -3.66699 27.501 -11s11.5 -16.333 11.5 -27v-20c0 -5.33301 1.83301 -9.83301 5.5 -13.5s7.83398 -5.5 12.501 -5.5h40
c4.66699 0 8.83398 1.83301 12.501 5.5s5.5 8.16699 5.5 13.5v635c0 10.667 3.83301 19.667 11.5 27z" />
    <glyph glyph-name="k" unicode="k" horiz-adv-x="531" 
d="M485 472c-7.33301 -7.33301 -16.332 -10.9951 -26.999 -10.9951h-20c-5.33301 0 -9.83301 -1.66699 -13.5 -5s-5.5 -7.66602 -5.5 -12.999v-20c0 -10.667 -3.66699 -19.834 -11 -27.501s-16.333 -11.5 -27 -11.5h-20c-5.33301 0 -9.83301 -1.83301 -13.5 -5.5
s-5.5 -7.83398 -5.5 -12.501v-20c0 -10.667 -3.66699 -19.834 -11 -27.501s-16.333 -11.5 -27 -11.5h-20c-4.66699 0 -8.83398 -1.66699 -12.501 -5s-5.5 -7.66602 -5.5 -12.999v-117c0 -4.66699 1.83301 -8.83398 5.5 -12.501s7.83398 -5.5 12.501 -5.5h20
c10.667 0 19.667 -3.83301 27 -11.5s11 -16.834 11 -27.501v-20c0 -4.66699 1.83301 -8.83398 5.5 -12.501s8.16699 -5.5 13.5 -5.5h97c10.667 0 19.667 -3.83301 27 -11.5s11 -16.834 11 -27.501v-21c0 -4.66699 -1.66699 -8.66699 -5 -12s-7.33301 -5 -12 -5h-98
c-10.667 0 -19.834 3.66699 -27.501 11s-11.5 16.333 -11.5 27v20c0 5.33301 -1.66699 9.83301 -5 13.5s-7.66602 5.5 -12.999 5.5h-20c-10.667 0 -19.667 3.66699 -27 11s-11 16.333 -11 27v20c0 5.33301 -1.83301 9.83301 -5.5 13.5s-8.16699 5.5 -13.5 5.5h-20
c-10.667 0 -19.667 3.66699 -27 11s-11 16.333 -11 27v22c0 4.66699 -1.66699 8.66699 -5 12s-7.33301 5 -12 5h-43c-4.66699 0 -8.66699 -1.66699 -12 -5s-5 -7.33301 -5 -12v-176c0 -10.667 -3.83301 -19.667 -11.5 -27s-16.834 -11 -27.501 -11h-21
c-4.66699 0 -8.66699 1.66699 -12 5s-5 7.33301 -5 12v713c0 10.667 3.66699 19.667 11 27s16.333 11 27 11h22c4.66699 0 8.66699 -1.5 12 -4.5s5 -6.83301 5 -11.5v-483c0 10.667 3.66699 19.667 11 27s16.333 11 27 11h97c5.33301 0 9.83301 2 13.5 6s5.5 8.33301 5.5 13
v20c0 10.667 3.66699 19.667 11 27s16.333 11 27 11h20c5.33301 0 9.66602 1.83301 12.999 5.5s5 8.16699 5 13.5v20c0 10.667 3.83301 19.667 11.5 27s16.834 11 27.501 11h20c5.33301 0 9.66602 1.83301 12.999 5.5s5 7.83398 5 12.501v20
c0 11.333 3.83301 20.666 11.5 27.999s16.834 11 27.501 11h21c4.66699 0 8.66699 -1.66699 12 -5s5 -7.33301 5 -12v-22c0 -10.667 -3.66699 -19.667 -11 -27z" />
    <glyph glyph-name="l" unicode="l" horiz-adv-x="217" 
d="M142 763.5c3.33301 -3 5.00098 -6.83301 5.00098 -11.5v-714c0 -10.667 -3.83301 -19.667 -11.5 -27s-16.834 -11 -27.501 -11h-21c-4.66699 0 -8.66699 1.66699 -12 5s-5 7.33301 -5 12v713c0 10.667 3.66699 19.667 11 27s16.333 11 27 11h22
c4.66699 0 8.66699 -1.5 12 -4.5z" />
    <glyph glyph-name="m" unicode="m" horiz-adv-x="945" 
d="M884 450c7.33301 -7.33301 10.9961 -16.3281 10.9961 -26.9951v-385c0 -10.667 -3.66699 -19.667 -11 -27s-16.333 -11 -27 -11h-22c-4.66699 0 -8.5 1.66699 -11.5 5s-4.5 7.33301 -4.5 12v426c0 4.66699 -1.83301 8.83398 -5.5 12.501s-8.16699 5.5 -13.5 5.5h-194
c-4.66699 0 -8.83398 -1.66699 -12.501 -5s-5.5 -7.66602 -5.5 -12.999v-20c0 -10.667 -3.66699 -19.834 -11 -27.501s-16.333 -11.5 -27 -11.5h-22c-4.66699 0 -8.66699 -1.66699 -12 -5s-5 -7.33301 -5 -12v-329c0 -10.667 -3.66699 -19.667 -11 -27s-16.333 -11 -27 -11
h-22c-4.66699 0 -8.66699 1.66699 -12 5s-5 7.33301 -5 12v426c0 5.33301 -1.66699 9.66602 -5 12.999s-7.66602 5 -12.999 5h-194c-4.66699 0 -8.83398 -1.66699 -12.501 -5s-5.5 -7.66602 -5.5 -12.999v-20c0 -10.667 -3.66699 -19.834 -11 -27.501
s-16.666 -11.5 -27.999 -11.5h-21c-4.66699 0 -8.66699 -1.66699 -12 -5s-5 -7.33301 -5 -12v-329c0 -10.667 -3.66699 -19.667 -11 -27s-16.333 -11 -27 -11h-22c-4.66699 0 -8.66699 1.66699 -12 5s-5 7.33301 -5 12v482c0 11.333 3.83301 20.666 11.5 27.999
s16.834 11 27.501 11h21c4.66699 0 8.66699 -1.66699 12 -5s5 -7.33301 5 -12v-98c0 10.667 3.66699 19.667 11 27s16.333 11 27 11h20c5.33301 0 9.83301 1.66699 13.5 5s5.5 7.66602 5.5 12.999v20c0 10.667 3.66699 19.834 11 27.501s16.333 11.5 27 11.5h154
c10.667 0 19.667 -3.83301 27 -11.5s11 -16.834 11 -27.501v-20c0 -4.66699 1.83301 -8.83398 5.5 -12.501s8.16699 -5.5 13.5 -5.5h20c10.667 0 19.667 -3.66699 27 -11s11 -16.333 11 -27c0 10.667 3.83301 19.667 11.5 27s16.834 11 27.501 11h20
c5.33301 0 9.66602 1.83301 12.999 5.5s5 7.83398 5 12.501v20c0 11.333 3.83301 20.666 11.5 27.999s16.834 11 27.501 11h153c10.667 0 19.834 -3.83301 27.501 -11.5s11.5 -16.834 11.5 -27.501v-20c0 -4.66699 1.83301 -8.83398 5.5 -12.501s7.83398 -5.5 12.501 -5.5
h20c10.667 0 19.667 -3.66699 27 -11z" />
    <glyph glyph-name="n" unicode="n" horiz-adv-x="638" 
d="M576.5 450c7.66699 -7.33301 11.501 -16.333 11.501 -27v-385c0 -10.667 -3.83301 -19.667 -11.5 -27s-16.834 -11 -27.501 -11h-21c-4.66699 0 -8.66699 1.66699 -12 5s-5 7.33301 -5 12v426c0 5.33301 -1.83301 9.66602 -5.5 12.999s-8.16699 5 -13.5 5h-270
c-5.33301 0 -9.83301 -1.83301 -13.5 -5.5s-5.5 -7.83398 -5.5 -12.501v-20c0 -10.667 -3.66699 -19.834 -11 -27.501s-16.333 -11.5 -27 -11.5h-22c-4.66699 0 -8.5 -1.66699 -11.5 -5s-4.5 -7.33301 -4.5 -12v-329c0 -10.667 -3.83301 -19.667 -11.5 -27
s-16.834 -11 -27.501 -11h-21c-4.66699 0 -8.66699 1.66699 -12 5s-5 7.33301 -5 12v482c0 10.667 3.66699 19.834 11 27.501s16.333 11.5 27 11.5h22c4.66699 0 8.66699 -1.66699 12 -5s5 -7.33301 5 -12v-98c0 10.667 3.66699 19.667 11 27s16.333 11 27 11h20
c5.33301 0 9.66602 1.83301 12.999 5.5s5 7.83398 5 12.501v20c0 10.667 3.83301 19.834 11.5 27.501s16.834 11.5 27.501 11.5h230c11.333 0 20.666 -3.66699 27.999 -11s11 -16.666 11 -27.999v-20c0 -4.66699 1.83301 -8.83398 5.5 -12.501s7.83398 -5.5 12.501 -5.5h20
c10.667 0 19.834 -3.66699 27.501 -11z" />
    <glyph glyph-name="o" unicode="o" horiz-adv-x="685" 
d="M638.5 373c7.66699 -7.33301 11.501 -16.332 11.501 -26.999v-154c0 -10.667 -3.83301 -19.667 -11.5 -27s-16.834 -11 -27.501 -11h-20c-4.66699 0 -8.83398 -1.83301 -12.501 -5.5s-5.5 -8.16699 -5.5 -13.5v-97c0 -10.667 -3.83301 -19.667 -11.5 -27
s-16.834 -11 -27.501 -11h-307c-10.667 0 -19.667 3.66699 -27 11s-11 16.333 -11 27v20c0 5.33301 -1.83301 9.83301 -5.5 13.5s-8.16699 5.5 -13.5 5.5h-20c-10.667 0 -19.667 3.66699 -27 11s-11 16.333 -11 27v20c0 5.33301 -1.83301 9.83301 -5.5 13.5
s-8.16699 5.5 -13.5 5.5h-20c-10.667 0 -19.667 3.66699 -27 11s-11 16.333 -11 27v154c0 10.667 3.66699 19.667 11 27s16.333 11 27 11h20c5.33301 0 9.83301 1.83301 13.5 5.5s5.5 8.16699 5.5 13.5v96c0 10.667 3.66699 19.834 11 27.501s16.333 11.5 27 11.5h308
c10.667 0 19.667 -3.83301 27 -11.5s11 -16.834 11 -27.501v-20c0 -4.66699 1.83301 -8.83398 5.5 -12.501s7.83398 -5.5 12.501 -5.5h20c10.667 0 19.834 -3.66699 27.501 -11s11.5 -16.333 11.5 -27v-20c0 -5.33301 1.66699 -9.83301 5 -13.5s7.66602 -5.5 12.999 -5.5h20
c10.667 0 19.834 -3.66699 27.501 -11zM567.501 159.001c3.66699 3.33301 5.49805 7.66992 5.49805 13.0029v194c0 5.33301 -1.83301 9.66602 -5.5 12.999s-8.16699 5 -13.5 5h-20c-10.667 0 -19.667 3.83301 -27 11.5s-11 16.834 -11 27.501v20
c0 5.33301 -1.66699 9.66602 -5 12.999s-7.66602 5 -12.999 5h-289v-38c0 -10.667 -3.83301 -19.834 -11.5 -27.501s-16.834 -11.5 -27.501 -11.5h-20c-4.66699 0 -8.83398 -1.66699 -12.501 -5s-5.5 -7.66602 -5.5 -12.999v-194c0 -4.66699 1.83301 -8.83398 5.5 -12.501
s7.83398 -5.5 12.501 -5.5h20c10.667 0 19.834 -3.83301 27.501 -11.5s11.5 -16.834 11.5 -27.501v-20c0 -4.66699 1.83301 -8.83398 5.5 -12.501s7.83398 -5.5 12.501 -5.5h289v38c0 10.667 3.66699 19.834 11 27.501s16.333 11.5 27 11.5h20
c5.33301 0 9.83301 1.66699 13.5 5z" />
    <glyph glyph-name="p" unicode="p" horiz-adv-x="623" 
d="M577 88c-7.33301 -7.33301 -16.333 -11.002 -27 -11.002h-20c-5.33301 0 -9.83301 -1.83301 -13.5 -5.5s-5.5 -8.16699 -5.5 -13.5v-20c0 -10.667 -3.66699 -19.667 -11 -27s-16.333 -11 -27 -11h-231c-10.667 0 -19.667 3.66699 -27 11s-11 16.333 -11 27v20
c0 5.33301 -1.83301 9.83301 -5.5 13.5s-8.16699 5.5 -13.5 5.5h-20c-10.667 0 -19.667 3.66699 -27 11s-11 16.333 -11 27v-329c0 -4.66699 -1.66699 -8.66699 -5 -12s-7.33301 -5 -12 -5h-22c-10.667 0 -19.667 3.83301 -27 11.5s-11 16.834 -11 27.501v538
c0 10.667 3.66699 19.667 11 27s16.333 11 27 11h20c5.33301 0 9.83301 1.83301 13.5 5.5s5.5 8.16699 5.5 13.5v96c0 10.667 3.66699 19.834 11 27.501s16.333 11.5 27 11.5h308c10.667 0 19.667 -3.83301 27 -11.5s11 -16.834 11 -27.501v-20
c0 -5.33301 1.83301 -9.66602 5.5 -12.999s8.16699 -5 13.5 -5h20c10.667 0 19.667 -3.66699 27 -11s11 -16.333 11 -27v-308c0 -10.667 -3.66699 -19.667 -11 -27zM506 455.998c-3.33301 3.33301 -7.66797 5.00195 -13.001 5.00195h-273c-4.66699 0 -8.5 -1.66699 -11.5 -5
s-4.5 -7.33301 -4.5 -12v-21c0 -10.667 -3.66699 -19.834 -11 -27.501s-16.666 -11.5 -27.999 -11.5h-20c-4.66699 0 -8.83398 -1.66699 -12.501 -5s-5.5 -7.66602 -5.5 -12.999v-196c0 -4.66699 1.66699 -8.5 5 -11.5s7.33301 -4.5 12 -4.5h21
c10.667 0 19.834 -3.83301 27.501 -11.5s11.5 -16.834 11.5 -27.501v-20c0 -4.66699 1.83301 -8.83398 5.5 -12.501s7.83398 -5.5 12.501 -5.5h271c5.33301 0 9.66602 1.83301 12.999 5.5s5 7.83398 5 12.501v348c0 5.33301 -1.66699 9.66602 -5 12.999z" />
    <glyph glyph-name="q" unicode="q" horiz-adv-x="623" 
d="M46.5 88c-7.66699 7.33301 -11.5 16.335 -11.5 27.002v308c0 10.667 3.83301 19.667 11.5 27s16.834 11 27.501 11h20c5.33301 0 9.66602 1.83301 12.999 5.5s5 7.83398 5 12.501v20c0 11.333 3.83301 20.666 11.5 27.999s16.834 11 27.501 11h307
c10.667 0 19.667 -3.83301 27 -11.5s11 -16.834 11 -27.501v-96c0 -5.33301 1.83301 -9.83301 5.5 -13.5s8.16699 -5.5 13.5 -5.5h20c10.667 0 19.667 -3.66699 27 -11s11 -16.333 11 -27v-538c0 -10.667 -3.66699 -19.834 -11 -27.501s-16.333 -11.5 -27 -11.5h-22
c-4.66699 0 -8.66699 1.66699 -12 5s-5 7.33301 -5 12v329c0 -10.667 -3.66699 -19.667 -11 -27s-16.333 -11 -27 -11h-20c-5.33301 0 -9.66602 -1.83301 -12.999 -5.5s-5 -8.16699 -5 -13.5v-20c0 -10.667 -3.83301 -19.667 -11.5 -27s-16.834 -11 -27.501 -11h-230
c-10.667 0 -19.834 3.66699 -27.501 11s-11.5 16.333 -11.5 27v20c0 5.33301 -1.66699 9.83301 -5 13.5s-7.66602 5.5 -12.999 5.5h-20c-10.667 0 -19.834 3.66699 -27.501 11zM117.5 456.002c-3.66699 -3.33301 -5.50098 -7.66992 -5.50098 -13.0029v-348
c0 -5.33301 1.83301 -9.66602 5.5 -12.999s8.16699 -5 13.5 -5h270c5.33301 0 9.83301 1.83301 13.5 5.5s5.5 7.83398 5.5 12.501v20c0 10.667 3.66699 19.834 11 27.501s16.333 11.5 27 11.5h22c4.66699 0 8.5 1.5 11.5 4.5s4.5 6.83301 4.5 11.5v196
c0 5.33301 -1.66699 9.66602 -5 12.999s-7.66602 5 -12.999 5h-20c-10.667 0 -19.667 3.83301 -27 11.5s-11 16.834 -11 27.501v21c0 4.66699 -1.66699 8.66699 -5 12s-7.33301 5 -12 5h-272c-5.33301 0 -9.83301 -1.66699 -13.5 -5z" />
    <glyph glyph-name="r" unicode="r" horiz-adv-x="392" 
d="M352.5 533c3 -3.33301 4.49902 -7.33203 4.49902 -11.999v-22c0 -10.667 -3.66699 -19.667 -11 -27s-16.333 -11 -27 -11h-97c-4.66699 0 -8.83398 -1.66699 -12.501 -5s-5.5 -7.66602 -5.5 -12.999v-20c0 -10.667 -3.66699 -19.834 -11 -27.501
s-16.666 -11.5 -27.999 -11.5h-21c-4.66699 0 -8.66699 -1.5 -12 -4.5s-5 -7.16699 -5 -12.5v-329c0 -10.667 -3.66699 -19.667 -11 -27s-16.333 -11 -27 -11h-22c-4.66699 0 -8.66699 1.66699 -12 5s-5 7.33301 -5 12v482c0 11.333 3.83301 20.666 11.5 27.999
s16.834 11 27.501 11h21c4.66699 0 8.66699 -1.66699 12 -5s5 -7.33301 5 -12v-98c0 10.667 3.66699 19.667 11 27s16.333 11 27 11h20c5.33301 0 9.83301 1.66699 13.5 5s5.5 7.66602 5.5 12.999v20c0 10.667 3.66699 19.834 11 27.501s16.333 11.5 27 11.5h99
c4.66699 0 8.5 -1.66699 11.5 -5z" />
    <glyph glyph-name="s" unicode="s" 
d="M507 395.5c-7.33301 7.66699 -11.0029 16.8359 -11.0029 27.5029v20c0 5.33301 -1.66699 9.66602 -5 12.999s-7.66602 5 -12.999 5h-289v-38c0 -10.667 -3.83301 -19.834 -11.5 -27.501s-16.834 -11.5 -27.501 -11.5h-20c-4.66699 0 -8.83398 -1.66699 -12.501 -5
s-5.5 -7.66602 -5.5 -12.999v-42c0 -4.66699 1.5 -8.66699 4.5 -12s6.83301 -5 11.5 -5h329c10.667 0 19.834 -3.66699 27.501 -11s11.5 -16.333 11.5 -27v-20c0 -4.66699 1.83301 -8.83398 5.5 -12.501s7.83398 -5.5 12.501 -5.5h20c10.667 0 19.834 -3.83301 27.501 -11.5
s11.5 -16.834 11.5 -27.501v-77c0 -10.667 -3.83301 -19.667 -11.5 -27s-16.834 -11 -27.501 -11h-20c-5.33301 0 -9.66602 -1.83301 -12.999 -5.5s-5 -8.16699 -5 -13.5v-20c0 -10.667 -3.83301 -19.667 -11.5 -27s-16.834 -11 -27.501 -11h-307
c-10.667 0 -19.667 3.66699 -27 11s-11 16.333 -11 27v26c-1.33301 4 -3.66602 7.16699 -6.99902 9.5s-7 3.5 -11 3.5h-21c-10.667 0 -19.667 3.66699 -27 11s-11 16.333 -11 27v22c0 4.66699 1.66699 8.66699 5 12s7.33301 5 12 5h21
c10.667 0 19.834 -3.83301 27.501 -11.5s11.5 -16.834 11.5 -27.501v-21l1 1c0 -4.66699 1.83301 -8.83398 5.5 -12.501s7.83398 -5.5 12.501 -5.5h347c5.33301 0 9.66602 1.83301 12.999 5.5s5 7.83398 5 12.501v117c0 5.33301 -1.83301 9.83301 -5.5 13.5
s-7.83398 5.5 -12.501 5.5h-405c-10.667 0 -19.667 3.66699 -27 11s-11 16.333 -11 27v77c0 10.667 3.66699 19.667 11 27s16.333 11 27 11h20c5.33301 0 9.83301 1.83301 13.5 5.5s5.5 8.16699 5.5 13.5v96c0 10.667 3.66699 19.834 11 27.501s16.333 11.5 27 11.5h307
c11.333 0 20.666 -3.66699 27.999 -11s11 -16.666 11 -27.999v-20c0 -4.66699 1.83301 -8.83398 5.5 -12.501s7.83398 -5.5 12.501 -5.5h20c10.667 0 19.834 -3.66699 27.501 -11s11.5 -16.333 11.5 -27v-22c0 -4.66699 -1.66699 -8.66699 -5 -12s-7.33301 -5 -12 -5h-22
c-10.667 0 -19.667 3.83301 -27 11.5z" />
    <glyph glyph-name="t" unicode="t" horiz-adv-x="377" 
d="M337 533c3.33301 -3.33301 5 -7.33594 5 -12.0029v-22c0 -10.667 -3.66699 -19.667 -11 -27s-16.333 -11 -27 -11h-116v-367c0 -4.66699 1.66699 -8.66699 5 -12s7.33301 -5 12 -5h42c5.33301 0 9.66602 1.83301 12.999 5.5s5 7.83398 5 12.501v20
c0 10.667 3.83301 19.834 11.5 27.501s16.834 11.5 27.501 11.5h21c4.66699 0 8.66699 -1.66699 12 -5s5 -7.33301 5 -12v-22c0 -10.667 -3.66699 -19.667 -11 -27s-16.333 -11 -27 -11h-20c-5.33301 0 -9.83301 -1.83301 -13.5 -5.5s-5.5 -8.16699 -5.5 -13.5v-20
c0 -10.667 -3.66699 -19.667 -11 -27s-16.333 -11 -27 -11h-77c-10.667 0 -19.834 3.66699 -27.501 11s-11.5 16.333 -11.5 27v423h-60c-4.66699 0 -8.5 1.66699 -11.5 5s-4.5 7.33301 -4.5 12v21c0 10.667 3.66699 19.834 11 27.501s16.333 11.5 27 11.5h38v192
c0 10.667 3.83301 19.667 11.5 27s16.834 11 27.501 11h22c4.66699 0 8.5 -1.5 11.5 -4.5s4.5 -6.83301 4.5 -11.5v-214h137c4.66699 0 8.66699 -1.66699 12 -5z" />
    <glyph glyph-name="u" unicode="u" horiz-adv-x="638" 
d="M522 526.5c7.33301 7.66699 16.334 11.4971 27.001 11.4971h22c4.66699 0 8.66699 -1.66699 12 -5s5 -7.33301 5 -12v-483c0 -10.667 -3.83301 -19.667 -11.5 -27s-16.834 -11 -27.501 -11h-21c-4.66699 0 -8.66699 1.66699 -12 5s-5 7.33301 -5 12v98
c0 -10.667 -3.83301 -19.667 -11.5 -27s-16.834 -11 -27.501 -11h-20c-5.33301 0 -9.66602 -1.83301 -12.999 -5.5s-5 -8.16699 -5 -13.5v-20c0 -10.667 -3.66699 -19.667 -11 -27s-16.333 -11 -27 -11h-231c-10.667 0 -19.667 3.66699 -27 11s-11 16.333 -11 27v20
c0 5.33301 -1.83301 9.83301 -5.5 13.5s-8.16699 5.5 -13.5 5.5h-20c-10.667 0 -19.667 3.66699 -27 11s-11 16.333 -11 27v384c0 10.667 3.66699 19.834 11 27.501s16.333 11.5 27 11.5h22c4.66699 0 8.66699 -1.66699 12 -5s5 -7.33301 5 -12v-426
c0 -4.66699 1.83301 -8.83398 5.5 -12.501s7.83398 -5.5 12.501 -5.5h271c5.33301 0 9.66602 1.83301 12.999 5.5s5 7.83398 5 12.501v20c0 10.667 3.66699 19.834 11 27.501s16.333 11.5 27 11.5h22c4.66699 0 8.66699 1.5 12 4.5s5 6.83301 5 11.5v329
c0 10.667 3.66699 19.834 11 27.501z" />
    <glyph glyph-name="v" unicode="v" horiz-adv-x="607" 
d="M507 526.5c7.33301 7.66699 16.3359 11.4971 27.0029 11.4971h22c4.66699 0 8.5 -1.66699 11.5 -5s4.5 -7.33301 4.5 -12v-175c0 -10.667 -3.66699 -19.834 -11 -27.501s-16.333 -11.5 -27 -11.5h-22c-4.66699 0 -8.5 -1.5 -11.5 -4.5s-4.5 -6.83301 -4.5 -11.5v-99
c-0.666992 -10.667 -4.66699 -19.667 -12 -27s-16.333 -11 -27 -11h-21c-4.66699 0 -8.66699 -1.66699 -12 -5s-5 -7.33301 -5 -12v-22c0 -10.667 -3.83301 -19.667 -11.5 -27s-16.834 -11 -27.501 -11h-20c-5.33301 0 -9.66602 -1.83301 -12.999 -5.5s-5 -8.16699 -5 -13.5
v-20c0 -10.667 -3.66699 -19.667 -11 -27s-16.333 -11 -27 -11s-19.834 3.66699 -27.501 11s-11.5 16.333 -11.5 27v21c0 5.33301 -1.66699 9.66602 -5 12.999s-7.66602 5 -12.999 5h-20c-10.667 0 -19.834 3.66699 -27.501 11s-11.5 16.333 -11.5 27v22
c0 4.66699 -1.66699 8.66699 -5 12s-7.33301 5 -12 5h-21c-10.667 0 -19.834 3.66699 -27.501 11s-11.5 16.333 -11.5 27v99c0 4.66699 -1.5 8.5 -4.5 11.5s-6.83301 4.5 -11.5 4.5h-22c-10.667 0 -19.667 3.83301 -27 11.5s-11 16.834 -11 27.501v153
c0 10.667 3.66699 19.834 11 27.501s16.333 11.5 27 11.5h22c4.66699 0 8.5 -1.66699 11.5 -5s4.5 -7.33301 4.5 -12v-120c0 -4.66699 1.66699 -8.66699 5 -12s7.33301 -5 12 -5h22c10.667 0 19.667 -3.66699 27 -11s11 -16.333 11 -27v-99c0 -4.66699 1.66699 -8.5 5 -11.5
s7.33301 -4.5 12 -4.5h22c10.667 0 19.667 -3.83301 27 -11.5s11 -16.834 11 -27.501v-97c0 -5.33301 1.83301 -9.66602 5.5 -12.999s8.16699 -5 13.5 -5h40c5.33301 0 9.66602 1.83301 12.999 5.5s5 7.83398 5 12.501v97c0 10.667 3.66699 19.834 11 27.501
s16.333 11.5 27 11.5h22c4.66699 0 8.66699 1.5 12 4.5s5 6.83301 5 11.5v99c0 10.667 3.66699 19.667 11 27s16.333 11 27 11h22c4.66699 0 8.66699 1.66699 12 5s5 7.33301 5 12v98c0 10.667 3.66699 19.834 11 27.501z" />
    <glyph glyph-name="w" unicode="w" horiz-adv-x="915" 
d="M814.5 527c7.66699 7.33301 16.832 11.001 27.499 11.001h21c4.66699 0 8.66699 -1.66699 12 -5s5 -7.33301 5 -12v-252c0 -10.667 -3.66699 -19.667 -11 -27s-16.333 -11 -27 -11h-22c-4.66699 0 -8.66699 -1.66699 -12 -5s-5 -7.33301 -5 -12v-99
c0 -10.667 -3.66699 -19.667 -11 -27s-16.333 -11 -27 -11h-20c-5.33301 0 -9.83301 -1.83301 -13.5 -5.5s-5.5 -8.16699 -5.5 -13.5v-20c0 -10.667 -3.83301 -19.667 -11.5 -27s-16.834 -11 -27.501 -11s-19.667 4 -27 12s-11 17.333 -11 28v18
c0 5.33301 -1.66699 9.83301 -5 13.5s-7.66602 5.5 -12.999 5.5h-20c-10.667 0 -19.667 3.66699 -27 11s-11 16.333 -11 27v99c0 4.66699 -1.66699 8.66699 -5 12s-7.33301 5 -12 5h-22c-10.667 0 -19.667 3.66699 -27 11s-11 16.333 -11 27v174
c0 4.66699 -1.83301 8.83398 -5.5 12.501s-8.16699 5.5 -13.5 5.5h-40c-4.66699 0 -8.83398 -1.66699 -12.501 -5s-5.5 -7.66602 -5.5 -12.999v-174c0 -10.667 -3.83301 -19.667 -11.5 -27s-16.834 -11 -27.501 -11h-21c-4.66699 0 -8.66699 -1.66699 -12 -5
s-5 -7.33301 -5 -12v-99c0 -10.667 -3.66699 -19.667 -11 -27s-16.333 -11 -27 -11h-20c-5.33301 0 -9.83301 -1.83301 -13.5 -5.5s-5.5 -8.16699 -5.5 -13.5v-20c0 -10.667 -3.83301 -19.667 -11.5 -27s-16.834 -11 -27.501 -11s-19.667 4 -27 12s-11 17.333 -11 28v18
c0 5.33301 -1.66699 9.83301 -5 13.5s-7.66602 5.5 -12.999 5.5h-20c-10.667 0 -19.667 3.66699 -27 11s-11 16.333 -11 27v99c0 4.66699 -1.66699 8.66699 -5 12s-7.33301 5 -12 5h-22c-10.667 0 -19.667 3.66699 -27 11s-11 16.333 -11 27v230
c0 10.667 3.66699 19.834 11 27.501s16.333 11.5 27 11.5h22c4.66699 0 8.66699 -1.66699 12 -5s5 -7.33301 5 -12v-197c0 -4.66699 1.5 -8.66699 4.5 -12s6.83301 -5 11.5 -5h22c10.667 0 19.667 -3.66699 27 -11s11 -16.333 11 -27v-174
c0 -4.66699 1.83301 -8.83398 5.5 -12.501s8.16699 -5.5 13.5 -5.5h40c5.33301 0 9.66602 1.83301 12.999 5.5s5 7.83398 5 12.501v174c0 10.667 3.83301 19.667 11.5 27s16.834 11 27.501 11h21c4.66699 0 8.66699 1.66699 12 5s5 7.33301 5 12v99
c0 10.667 3.66699 19.667 11 27s16.333 11 27 11h20c5.33301 0 9.83301 1.66699 13.5 5s5.5 7.66602 5.5 12.999v20c0 11.333 3.83301 20.666 11.5 27.999s16.834 11 27.501 11s19.667 -4 27 -12s11 -17.333 11 -28v-19c0 -4.66699 1.83301 -8.83398 5.5 -12.501
s7.83398 -5.5 12.501 -5.5h20c10.667 0 19.834 -3.66699 27.501 -11s11.5 -16.333 11.5 -27v-99c0 -4.66699 1.5 -8.66699 4.5 -12s6.83301 -5 11.5 -5h22c10.667 0 19.667 -3.66699 27 -11s11 -16.333 11 -27v-174c0 -4.66699 1.83301 -8.83398 5.5 -12.501
s8.16699 -5.5 13.5 -5.5h40c5.33301 0 9.66602 1.83301 12.999 5.5s5 7.83398 5 12.501v174c0 10.667 3.83301 19.667 11.5 27s16.834 11 27.501 11h21c4.66699 0 8.66699 1.66699 12 5s5 7.33301 5 12v175c0 11.333 3.83301 20.666 11.5 27.999z" />
    <glyph glyph-name="x" unicode="x" 
d="M508 526.5c7.33301 7.66699 16.332 11.498 26.999 11.498h22c4.66699 0 8.5 -1.66699 11.5 -5s4.5 -7.33301 4.5 -12v-175c0 -10.667 -3.66699 -19.834 -11 -27.501s-16.333 -11.5 -27 -11.5h-174c-4.66699 0 -8.83398 -1.66699 -12.501 -5s-5.5 -7.66602 -5.5 -12.999
v-40c0 -4.66699 1.83301 -8.83398 5.5 -12.501s7.83398 -5.5 12.501 -5.5h174c10.667 0 19.667 -3.83301 27 -11.5s11 -16.834 11 -27.501v-154c0 -10.667 -3.66699 -19.667 -11 -27s-16.333 -11 -27 -11h-22c-4.66699 0 -8.5 1.66699 -11.5 5s-4.5 7.33301 -4.5 12v120
c0 4.66699 -1.66699 8.66699 -5 12s-7.33301 5 -12 5h-99c-10.667 0 -19.667 3.66699 -27 11s-11 16.333 -11 27v20c0 5.33301 -1.83301 9.83301 -5.5 13.5s-8.16699 5.5 -13.5 5.5h-40c-4.66699 0 -8.83398 -1.83301 -12.501 -5.5s-5.5 -8.16699 -5.5 -13.5v-20
c0 -10.667 -3.66699 -19.667 -11 -27s-16.333 -11 -27 -11h-99c-4.66699 0 -8.66699 -1.66699 -12 -5s-5 -7.33301 -5 -12v-99c0 -10.667 -3.66699 -19.667 -11 -27s-16.333 -11 -27 -11h-22c-4.66699 0 -8.66699 1.66699 -12 5s-5 7.33301 -5 12v175
c0 10.667 3.83301 19.834 11.5 27.501s16.834 11.5 27.501 11.5h174c5.33301 0 9.66602 1.83301 12.999 5.5s5 7.83398 5 12.501v40c0 5.33301 -1.66699 9.66602 -5 12.999s-7.66602 5 -12.999 5h-174c-10.667 0 -19.834 3.83301 -27.501 11.5s-11.5 16.834 -11.5 27.501
v153c0 10.667 3.83301 19.834 11.5 27.501s16.834 11.5 27.501 11.5h22c4.66699 0 8.5 -1.66699 11.5 -5s4.5 -7.33301 4.5 -12v-120c0 -4.66699 1.66699 -8.66699 5 -12s7.33301 -5 12 -5h99c10.667 0 19.667 -3.66699 27 -11s11 -16.333 11 -27v-20
c0 -5.33301 1.83301 -9.83301 5.5 -13.5s7.83398 -5.5 12.501 -5.5h40c5.33301 0 9.83301 1.83301 13.5 5.5s5.5 8.16699 5.5 13.5v20c0 10.667 3.66699 19.667 11 27s16.333 11 27 11h99c4.66699 0 8.66699 1.66699 12 5s5 7.33301 5 12v98
c0 10.667 3.66699 19.834 11 27.501z" />
    <glyph glyph-name="y" unicode="y" 
d="M568 533c3.33301 -3.33301 5.00195 -7.33301 5.00195 -12v-175c0 -10.667 -3.83301 -19.667 -11.5 -27s-16.834 -11 -27.501 -11h-22c-4.66699 0 -8.5 -1.66699 -11.5 -5s-4.5 -7.33301 -4.5 -12v-99c0 -10.667 -3.83301 -19.667 -11.5 -27s-16.834 -11 -27.501 -11h-21
c-4.66699 0 -8.66699 -1.5 -12 -4.5s-5 -7.16699 -5 -12.5v-99c0 -10.667 -3.83301 -19.667 -11.5 -27s-16.834 -11 -27.501 -11h-96c-5.33301 -0 -9.83301 -1.66699 -13.5 -5s-5.5 -7.66602 -5.5 -12.999v-20v-77c0 -10.667 -3.66699 -19.667 -11 -27s-16.333 -11 -27 -11
h-20c-4.66699 0 -9 -2 -13 -6s-6 -8.33301 -6 -13v-20c0 -10.667 -3.66699 -19.667 -11 -27s-16.333 -11 -27 -11h-99c-4.66699 0 -8.5 1.66699 -11.5 5s-4.5 7.33301 -4.5 12v21c0 10.667 3.66699 19.834 11 27.501s16.333 11.5 27 11.5h97
c5.33301 0 9.66602 1.66699 12.999 5s5 7.66602 5 12.999v97c0 10.667 3.83301 19.667 11.5 27s16.834 11 27.501 11h20c4.66699 0 8.83398 1.83301 12.501 5.5s5.5 8.16699 5.5 13.5v40c0 5.33301 -1.66699 9.66602 -5 12.999s-7.66602 5 -12.999 5h-20
c-10.667 0 -19.667 3.66699 -27 11s-11.333 16.333 -12 27v22c0 4.66699 -1.5 8.66699 -4.5 12s-6.83301 5 -11.5 5h-22c-10.667 0 -19.834 3.66699 -27.501 11s-11.5 16.333 -11.5 27v99c0 4.66699 -1.5 8.66699 -4.5 12s-6.83301 5 -11.5 5h-22
c-10.667 0 -19.667 3.66699 -27 11s-11 16.333 -11 27v154c0 10.667 3.66699 19.667 11 27s16.333 11 27 11h22c4.66699 0 8.5 -1.66699 11.5 -5s4.5 -7.33301 4.5 -12v-120c0 -4.66699 1.66699 -8.5 5 -11.5s7.33301 -4.5 12 -4.5h22c10.667 0 19.667 -3.83301 27 -11.5
s11 -16.834 11 -27.501v-98c0 -4.66699 1.66699 -8.66699 5 -12s7.33301 -5 12 -5h22c10.667 0 19.667 -3.83301 27 -11.5s11 -16.834 11 -27.501v-96c0 -5.33301 1.83301 -9.83301 5.5 -13.5s8.16699 -5.5 13.5 -5.5h41c4.66699 0 8.66699 1.66699 12 5s5 7.33301 5 12v98
c0 10.667 3.66699 19.834 11 27.501s16.333 11.5 27 11.5h22c4.66699 0 8.66699 1.66699 12 5s5 7.33301 5 12v98c0 10.667 3.66699 19.834 11 27.501s16.333 11.5 27 11.5h22c4.66699 0 8.66699 1.5 12 4.5s5 6.83301 5 11.5v99c0 10.667 3.66699 19.667 11 27
s16.333 11 27 11h22c4.66699 0 8.66699 -1.66699 12 -5z" />
    <glyph glyph-name="z" unicode="z" 
d="M562 527c7.33301 -7.33301 11.0039 -16.667 11.0039 -28v-76c0 -10.667 -3.66699 -19.834 -11 -27.501s-16.666 -11.5 -27.999 -11.5h-23c-4.66699 -0.666992 -8.33398 -2.66699 -11.001 -6s-4 -7.33301 -4 -12v-20c0 -10.667 -3.83301 -19.834 -11.5 -27.501
s-16.834 -11.5 -27.501 -11.5h-100c-4 -0.666992 -7.5 -2.66699 -10.5 -6s-4.5 -7.33301 -4.5 -12v-20c0 -10.667 -3.66699 -19.667 -11 -27s-16.333 -11 -27 -11h-97c-4.66699 0 -8.83398 -1.83301 -12.501 -5.5s-5.83398 -8.16699 -6.50098 -13.5v-20
c0 -10.667 -3.66699 -19.667 -11 -27s-16.333 -11 -27 -11h-22c-4.66699 0 -8.5 -1.66699 -11.5 -5s-4.5 -7.33301 -4.5 -12v-42c0 -4.66699 1.83301 -8.83398 5.5 -12.501s7.83398 -5.5 12.501 -5.5h426c4.66699 0 8.66699 -1.66699 12 -5s5 -7.33301 5 -12v-22
c0 -10.667 -3.83301 -19.667 -11.5 -27s-16.834 -11 -27.501 -11h-384c-10.667 0 -19.667 3.66699 -27 11s-11 16.333 -11 27v20c0 5.33301 -1.83301 9.83301 -5.5 13.5s-8.16699 5.5 -13.5 5.5h-20c-10.667 0 -19.667 3.66699 -27 11s-11 16.333 -11 27v77
c0 10.667 3.66699 19.834 11 27.501s16.333 11.5 27 11.5h97c5.33301 0 9.66602 1.83301 12.999 5.5s5 7.83398 5 12.501v20c0 10.667 3.83301 19.667 11.5 27s16.834 11 27.501 11h97v1c5.33301 0 9.66602 1.83301 12.999 5.5s5 7.83398 5 12.501v20
c0 10.667 3.83301 19.667 11.5 27s16.834 11 27.501 11h97l-1 1c5.33301 0 9.83301 1.66699 13.5 5s5.5 7.66602 5.5 12.999v41c0 4.66699 -1.66699 8.66699 -5 12s-7.33301 5 -12 5h-427c-4.66699 0 -8.66699 1.66699 -12 5s-5 7.33301 -5 12v21
c0 10.667 3.66699 19.834 11 27.501s16.333 11.5 27 11.5h461c11.333 0 20.666 -3.66699 27.999 -11z" />
    <glyph glyph-name="braceleft" unicode="{" horiz-adv-x="347" 
d="M112.5 313.5c3.66699 -3.66699 7.83301 -5.49707 12.5 -5.49707h20c10.667 0 19.834 -3.83301 27.501 -11.5s11.5 -16.834 11.5 -27.501v-327c0 -5.33301 1.66699 -9.83301 5 -13.5s7.66602 -5.5 12.999 -5.5h97c10.667 0 19.667 -3.66699 27 -11s11 -16.333 11 -27v-21
c0 -4.66699 -1.66699 -8.83398 -5 -12.501s-7.33301 -5.5 -12 -5.5h-98c-10.667 0 -19.667 3.83301 -27 11.5s-11 16.834 -11 27.501v19c0 5.33301 -1.83301 9.83301 -5.5 13.5s-8.16699 5.5 -13.5 5.5h-20c-10.667 0 -19.667 3.83301 -27 11.5s-11 16.834 -11 27.501v327
c0 5.33301 -1.83301 9.83301 -5.5 13.5s-8.16699 5.5 -13.5 5.5h-20c-10.667 0 -19.667 3.66699 -27 11s-11 16.666 -11 27.999c0 10.667 3.83301 19.667 11.5 27s16.834 11 27.501 11h19c5.33301 0 9.83301 1.83301 13.5 5.5s5.5 7.83398 5.5 12.501v328
c0 10.667 3.66699 19.667 11 27s16.333 11 27 11h20c5.33301 0 9.83301 2 13.5 6s5.5 8.33301 5.5 13v20c0 10.667 3.66699 19.667 11 27s16.333 11 27 11h98c4.66699 0 8.66699 -1.83301 12 -5.5s5 -7.83398 5 -12.501v-20c0 -10.667 -3.66699 -19.834 -11 -27.501
s-16.333 -11.5 -27 -11.5h-97c-5.33301 0 -9.66602 -1.83301 -12.999 -5.5s-5 -8.16699 -5 -13.5v-327c0 -10.667 -3.83301 -19.667 -11.5 -27s-16.834 -11 -27.501 -11h-20c-4.66699 0 -8.83398 -1.83301 -12.501 -5.5s-5.5 -8.16699 -5.5 -13.5v-40
c0 -4.66699 1.83301 -8.83398 5.5 -12.501z" />
    <glyph glyph-name="bar" unicode="|" horiz-adv-x="132" 
d="M92 841.5c3.33301 -3 5 -6.83203 5 -11.499v-868c0 -10.667 -3.66699 -19.834 -11 -27.501s-16.333 -11.5 -27 -11.5h-22c-4.66699 0 -8.66699 1.66699 -12 5s-5 7.33301 -5 12v868c0.666992 10.667 4.66699 19.667 12 27s16.333 11 27 11h21
c4.66699 0 8.66699 -1.5 12 -4.5z" />
    <glyph glyph-name="braceright" unicode="}" horiz-adv-x="348" 
d="M235.5 379c-3.66699 3.33301 -8.16602 5.00098 -13.499 5.00098h-19c-10.667 0 -19.834 3.83301 -27.501 11.5s-11.5 16.834 -11.5 27.501v327c0 5.33301 -1.83301 9.83301 -5.5 13.5s-8.16699 5.5 -13.5 5.5h-96c-10.667 0 -19.834 3.83301 -27.501 11.5
s-11.5 16.834 -11.5 27.501v20c0 5.33301 1.83301 9.66602 5.5 12.999s7.83398 5 12.501 5h98c10.667 0 19.667 -3.66699 27 -11s11 -16.333 11 -27v-20c0 -4.66699 2 -9 6 -13s8.33301 -6 13 -6h20c10.667 0 19.667 -3.66699 27 -11s11 -16.333 11 -27v-328
c0 -4.66699 2 -9 6 -13s8.33301 -6 13 -6h20c10.667 0 19.667 -3.5 27 -10.5s11 -15.833 11 -26.5s-3.83301 -19.834 -11.5 -27.501s-16.834 -11.5 -27.501 -11.5h-19c-4.66699 0 -9 -1.83301 -13 -5.5s-6 -8.16699 -6 -13.5v-328c0 -10.667 -3.66699 -19.667 -11 -27
s-16.333 -11 -27 -11h-20c-4.66699 0 -9 -2 -13 -6s-6 -8.33301 -6 -13v-20c0 -10.667 -3.66699 -19.667 -11 -27s-16.333 -11 -27 -11h-98c-4.66699 0 -8.83398 1.66699 -12.501 5s-5.5 7.66602 -5.5 12.999v20c0 10.667 3.83301 19.834 11.5 27.501
s16.834 11.5 27.501 11.5h96c5.33301 0 9.83301 1.83301 13.5 5.5s5.5 8.16699 5.5 13.5v327c0 10.667 3.83301 19.834 11.5 27.501s16.834 11.5 27.501 11.5h19c5.33301 0 9.83301 1.66699 13.5 5s5.5 7.66602 5.5 12.999v40c0 5.33301 -1.83301 9.66602 -5.5 12.999z" />
    <glyph glyph-name="exclamdown" unicode="&#xa1;" horiz-adv-x="152" 
d="M106 474.5c-7.33301 -7.66699 -16.667 -11.499 -28 -11.499h-21c-4.66699 0 -8.66699 1.66699 -12 5s-5 7.33301 -5 12v22c0 10.667 3.66699 19.667 11 27s16.333 11 27 11h22c4.66699 0 8.66699 -1.66699 12 -5s5 -7.33301 5 -12v-21
c0 -10.667 -3.66699 -19.834 -11 -27.501zM44.999 -223.999c-3.33301 3.33301 -4.99902 7.33301 -4.99902 12v560c0 10.667 3.66699 19.667 11 27s16.333 11 27 11h22c4.66699 0 8.66699 -1.5 12 -4.5s5 -6.83301 5 -11.5v-561c0 -10.667 -3.83301 -19.667 -11.5 -27
s-16.834 -11 -27.501 -11h-21c-4.66699 0 -8.66699 1.66699 -12 5z" />
    <glyph glyph-name="cent" unicode="&#xa2;" 
d="M507 395.5c-7.33301 7.66699 -11.002 16.834 -11.002 27.501v20c0 5.33301 -1.66699 9.66602 -5 12.999s-7.66602 5 -12.999 5h-136v-384h136c5.33301 0 9.66602 1.83301 12.999 5.5s5 7.83398 5 12.501v20c0 10.667 3.66699 19.834 11 27.501s16.333 11.5 27 11.5h22
c4.66699 0 8.66699 -1.66699 12 -5s5 -7.33301 5 -12v-22c0 -10.667 -3.83301 -19.667 -11.5 -27s-16.834 -11 -27.501 -11h-20c-5.33301 0 -9.66602 -1.83301 -12.999 -5.5s-5 -8.16699 -5 -13.5v-20c0 -10.667 -3.66699 -19.667 -11 -27s-16.333 -11 -27 -11h-116v-38
c0 -10.667 -3.66699 -19.834 -11 -27.501s-16.333 -11.5 -27 -11.5h-22c-4.66699 0 -8.66699 1.66699 -12 5s-5 7.33301 -5 12v60h-38c-10.667 0 -19.667 3.66699 -27 11s-11 16.333 -11 27v20c0 5.33301 -1.83301 9.83301 -5.5 13.5s-8.16699 5.5 -13.5 5.5h-20
c-10.667 0 -19.667 3.66699 -27 11s-11 16.333 -11 27v20c0 5.33301 -1.83301 9.83301 -5.5 13.5s-8.16699 5.5 -13.5 5.5h-20c-10.667 0 -19.667 3.66699 -27 11s-11 16.333 -11 27v154c0 10.667 3.66699 19.667 11 27s16.333 11 27 11h20
c5.33301 0 9.83301 1.83301 13.5 5.5s5.5 8.16699 5.5 13.5v96c0 10.667 3.66699 19.834 11 27.501s16.333 11.5 27 11.5h115v39c0.666992 10.667 4.66699 19.667 12 27s16.333 11 27 11h22c4.66699 0 8.5 -1.66699 11.5 -5s4.5 -7.33301 4.5 -12v-60h116
c10.667 0 19.667 -3.83301 27 -11.5s11 -16.834 11 -27.501v-20c0 -4.66699 1.83301 -8.83398 5.5 -12.501s7.83398 -5.5 12.501 -5.5h20c10.667 0 19.834 -3.66699 27.501 -11s11.5 -16.333 11.5 -27v-22c0 -4.66699 -1.66699 -8.66699 -5 -12s-7.33301 -5 -12 -5h-22
c-10.667 0 -19.667 3.83301 -27 11.5zM204.998 461c-4.66699 0 -8.50098 -1.66406 -11.501 -4.99707s-4.5 -7.33301 -4.5 -12v-21c0 -10.667 -3.83301 -19.834 -11.5 -27.501s-16.834 -11.5 -27.501 -11.5h-20c-4.66699 0 -8.83398 -1.66699 -12.501 -5
s-5.5 -7.66602 -5.5 -12.999v-194c0 -4.66699 1.83301 -8.83398 5.5 -12.501s7.83398 -5.5 12.501 -5.5h20c10.667 0 19.834 -3.83301 27.501 -11.5s11.5 -16.834 11.5 -27.501v-20c0 -4.66699 1.83301 -8.83398 5.5 -12.501s7.83398 -5.5 12.501 -5.5h58v384h-60z" />
    <glyph glyph-name="sterling" unicode="&#xa3;" horiz-adv-x="618" 
d="M567 681c7.33301 -7.33301 10.9951 -16.332 10.9951 -26.999v-99c0 -4.66699 -1.5 -8.66699 -4.5 -12s-6.83301 -5 -11.5 -5h-22c-10.667 0 -19.834 3.83301 -27.501 11.5s-11.5 16.834 -11.5 27.501v97c0 5.33301 -1.66699 9.66602 -5 12.999s-7.66602 5 -12.999 5h-272
c-4.66699 0 -8.66699 -1.5 -12 -4.5s-5 -7.16699 -5 -12.5v-21c0 -10.667 -3.66699 -19.834 -11 -27.501s-16.666 -11.5 -27.999 -11.5h-20c-4.66699 0 -8.83398 -1.66699 -12.501 -5s-5.5 -7.66602 -5.5 -12.999v-117c0 -5.33301 1.83301 -9.83301 5.5 -13.5
s7.83398 -5.5 12.501 -5.5h20c10.667 0 19.834 -3.66699 27.501 -11s11.5 -16.333 11.5 -27v-22c0 -4.66699 1.66699 -8.66699 5 -12s7.33301 -5 12 -5h197c4.66699 0 8.66699 -1.5 12 -4.5s5 -6.83301 5 -11.5v-22c0 -10.667 -3.83301 -19.667 -11.5 -27
s-16.834 -11 -27.501 -11h-175c-4.66699 0 -8.66699 -1.66699 -12 -5s-5 -7.33301 -5 -12v-137h115c10.667 0 19.834 -3.83301 27.501 -11.5s11.5 -16.834 11.5 -27.501v-20c0 -4.66699 1.83301 -8.83398 5.5 -12.501s7.83398 -5.5 12.501 -5.5h117
c5.33301 0 9.66602 1.83301 12.999 5.5s5 7.83398 5 12.501v20c0 10.667 3.83301 19.834 11.5 27.501s16.834 11.5 27.501 11.5h22c4.66699 0 8.5 -1.66699 11.5 -5s4.5 -7.33301 4.5 -12v-22c0 -10.667 -3.66699 -19.667 -11 -27s-16.333 -11 -27 -11h-20
c-5.33301 0 -9.83301 -1.83301 -13.5 -5.5s-5.5 -8.16699 -5.5 -13.5v-20c0 -10.667 -3.66699 -19.667 -11 -27s-16.333 -11 -27 -11h-77c-10.667 0 -19.667 3.66699 -27 11s-11 16.333 -11 27v20c0 5.33301 -1.83301 9.83301 -5.5 13.5s-8.16699 5.5 -13.5 5.5h-194
c-5.33301 0 -9.66602 -1.83301 -12.999 -5.5s-5 -8.16699 -5 -13.5v-20c0 -10.667 -3.66699 -19.667 -11 -27s-16.333 -11 -27 -11h-22c-4.66699 0 -8.66699 1.66699 -12 5s-5 7.33301 -5 12v21c0 11.333 3.83301 20.666 11.5 27.999s16.834 11 27.501 11h20
c5.33301 0 9.66602 1.83301 12.999 5.5s5 7.83398 5 12.501v196c0 4.66699 -1.66699 8.66699 -5 12s-7.33301 5 -12 5h-43c-4.66699 0 -8.66699 1.5 -12 4.5s-5 6.83301 -5 11.5v22c0 10.667 3.83301 19.667 11.5 27s16.834 11 27.501 11h21c4.66699 0 8.66699 1.66699 12 5
s5 7.33301 5 12v42c0 5.33301 -1.66699 9.66602 -5 12.999s-7.66602 5 -12.999 5h-20c-10.667 0 -19.834 3.83301 -27.501 11.5s-11.5 16.834 -11.5 27.501v77c0 10.667 3.83301 19.667 11.5 27s16.834 11 27.501 11h20c5.33301 0 9.66602 1.83301 12.999 5.5
s5 8.16699 5 13.5v97c0 10.667 3.66699 19.667 11 27s16.333 11 27 11h308c10.667 0 19.667 -3.66699 27 -11s11 -16.333 11 -27v-21c0 -4.66699 1.83301 -8.83398 5.5 -12.501s8.16699 -5.5 13.5 -5.5h20c10.667 0 19.667 -3.66699 27 -11z" />
    <glyph glyph-name="currency" unicode="&#xa4;" horiz-adv-x="532" 
d="M431.5 528.5c7.66699 7.66699 16.8398 11.501 27.5068 11.501h22c4.66699 0 8.5 -1.66699 11.5 -5s4.5 -7.33301 4.5 -12v-22c0 -10.667 -3.66699 -19.667 -11 -27s-16.333 -11 -27 -11h-20c-4.66699 0 -9 -1.83301 -13 -5.5s-6 -8.16699 -6 -13.5v-39
c0 -5.33301 1.83301 -9.83301 5.5 -13.5s8.16699 -5.5 13.5 -5.5h20c10.667 0 19.667 -3.83301 27 -11.5s11 -16.834 11 -27.501v-77c0 -10.667 -3.66699 -19.667 -11 -27s-16.333 -11 -27 -11h-20c-4.66699 0 -9 -1.83301 -13 -5.5s-6 -8.16699 -6 -13.5v-39
c0 -5.33301 1.83301 -9.83301 5.5 -13.5s8.16699 -5.5 13.5 -5.5h20c10.667 0 19.667 -3.83301 27 -11.5s11 -16.834 11 -27.501v-21c0 -4.66699 -1.5 -8.66699 -4.5 -12s-6.83301 -5 -11.5 -5h-22c-10.667 0 -19.834 3.66699 -27.501 11s-11.5 16.333 -11.5 27v20
c0 5.33301 -1.83301 9.83301 -5.5 13.5s-8.16699 5.5 -13.5 5.5h-39c-4.66699 0 -8.83398 -1.33301 -12.501 -4s-5.83398 -6.33398 -6.50098 -11.001v-24c0 -10.667 -3.66699 -19.667 -11 -27s-16.333 -11 -27 -11h-77c-10.667 0 -19.834 3.66699 -27.501 11
s-11.5 16.333 -11.5 27v20c0 5.33301 -1.66699 9.83301 -5 13.5s-7.66602 5.5 -12.999 5.5h-40c-5.33301 0 -9.83301 -1.83301 -13.5 -5.5s-5.5 -8.16699 -5.5 -13.5v-20c0 -10.667 -3.66699 -19.667 -11 -27s-16.333 -11 -27 -11h-22c-4.66699 0 -8.66699 1.66699 -12 5
s-5 7.33301 -5 12v21c0 10.667 3.83301 19.834 11.5 27.501s16.834 11.5 27.501 11.5h20c5.33301 0 9.66602 1.83301 12.999 5.5s5 8.16699 5 13.5v39c0 5.33301 -1.83301 9.83301 -5.5 13.5s-7.83398 5.5 -12.501 5.5h-20c-10.667 0 -19.834 3.66699 -27.501 11
s-11.5 16.333 -11.5 27v77c0 10.667 3.83301 19.834 11.5 27.501s16.834 11.5 27.501 11.5h20c5.33301 0 9.66602 1.83301 12.999 5.5s5 8.16699 5 13.5v39c0 5.33301 -1.83301 9.83301 -5.5 13.5s-7.83398 5.5 -12.501 5.5h-20c-10.667 0 -19.834 3.66699 -27.501 11
s-11.5 16.333 -11.5 27v22c0 4.66699 1.66699 8.66699 5 12s7.33301 5 12 5h22c10.667 0 19.667 -3.83301 27 -11.5s11 -16.834 11 -27.501v-20c0 -4.66699 1.5 -8.66699 4.5 -12s6.83301 -5.33301 11.5 -6h43c5.33301 0 9.66602 1.83301 12.999 5.5s5 8.16699 5 13.5v19
c0 10.667 3.83301 19.834 11.5 27.501s16.834 11.5 27.501 11.5h77c10.667 0 19.667 -3.83301 27 -11.5s11 -16.834 11 -27.501v-20c0 -4.66699 1.5 -8.66699 4.5 -12s6.83301 -5.33301 11.5 -6h42c5.33301 0 9.83301 1.83301 13.5 5.5s5.5 8.16699 5.5 13.5v19
c0 10.667 3.83301 19.834 11.5 27.501zM414.506 380.501c-3.66699 3.66699 -8.16602 5.5 -13.499 5.5h-19c-10.667 0 -19.834 3.66699 -27.501 11s-11.5 16.333 -11.5 27v20c0 5.33301 -1.83301 9.83301 -5.5 13.5s-7.83398 5.5 -12.501 5.5h-117
c-4.66699 0 -9 -1.83301 -13 -5.5s-6 -8.16699 -6 -13.5v-20c0 -10.667 -3.66699 -19.667 -11 -27s-16.333 -11 -27 -11h-20c-4.66699 0 -9 -1.83301 -13 -5.5s-6 -8.16699 -6 -13.5v-116c0 -5.33301 1.83301 -9.83301 5.5 -13.5s8.16699 -5.5 13.5 -5.5h20
c10.667 0 19.667 -3.83301 27 -11.5s11 -16.834 11 -27.501v-19c0 -5.33301 1.83301 -9.83301 5.5 -13.5s8.16699 -5.5 13.5 -5.5h116c5.33301 0 9.83301 1.83301 13.5 5.5s5.5 8.16699 5.5 13.5v19c0 10.667 3.83301 19.834 11.5 27.501s16.834 11.5 27.501 11.5h19
c5.33301 0 9.83301 1.83301 13.5 5.5s5.5 8.16699 5.5 13.5v116c0 5.33301 -1.83301 9.83301 -5.5 13.5z" />
    <glyph glyph-name="yen" unicode="&#xa5;" horiz-adv-x="618" 
d="M573.5 765c3 -3.33301 4.50098 -7.33398 4.50098 -12.001v-176c0 -10.667 -3.66699 -19.667 -11 -27s-16.333 -11 -27 -11h-22c-4.66699 0 -8.66699 -1.66699 -12 -5s-5 -7.33301 -5 -12v-99c0 -10.667 -3.66699 -19.667 -11 -27s-16.333 -11 -27 -11h-97
c-5.33301 0 -9.83301 -1.83301 -13.5 -5.5s-5.5 -8.16699 -5.5 -13.5v-58h99c4.66699 0 8.66699 -1.66699 12 -5s5 -7.33301 5 -12v-22c0 -10.667 -3.83301 -19.667 -11.5 -27s-16.834 -11 -27.501 -11h-77v-77h99c4.66699 0 8.66699 -1.66699 12 -5s5 -7.33301 5 -12v-22
c0 -10.667 -3.83301 -19.667 -11.5 -27s-16.834 -11 -27.501 -11h-77v-39c0 -10.667 -3.66699 -19.667 -11 -27s-16.333 -11 -27 -11h-22c-4.66699 0 -8.66699 1.66699 -12 5s-5 7.33301 -5 12v60h-98c-4.66699 0 -8.66699 1.66699 -12 5s-5 7.33301 -5 12v21
c0 10.667 3.66699 19.834 11 27.501s16.333 11.5 27 11.5h77v77h-98c-4.66699 0 -8.66699 1.66699 -12 5s-5 7.33301 -5 12v21c0 10.667 3.66699 19.834 11 27.501s16.333 11.5 27 11.5h77v59c0 5.33301 -1.66699 9.66602 -5 12.999s-7.66602 5 -12.999 5h-97
c-10.667 0 -19.667 3.66699 -27 11s-11 16.333 -11 27v99c0 4.66699 -1.66699 8.66699 -5 12s-7.33301 5 -12 5h-22c-10.667 0 -19.667 3.66699 -27 11s-11 16.333 -11 27v155c0 10.667 3.66699 19.667 11 27s16.333 11 27 11h22c4.66699 0 8.66699 -1.66699 12 -5
s5 -7.33301 5 -12v-120c0 -4.66699 1.5 -8.66699 4.5 -12s6.83301 -5 11.5 -5h22c10.667 0 19.667 -3.66699 27 -11s11 -16.333 11 -27v-99c0 -4.66699 1.66699 -8.66699 5 -12s7.33301 -5 12 -5h22c10.667 0 19.667 -3.83301 27 -11.5s11 -16.834 11 -27.501v-20
c0 -4.66699 1.83301 -8.83398 5.5 -12.501s8.16699 -5.5 13.5 -5.5h40c5.33301 0 9.66602 1.83301 12.999 5.5s5 7.83398 5 12.501v20c0 10.667 3.83301 19.834 11.5 27.501s16.834 11.5 27.501 11.5h22c4.66699 0 8.5 1.66699 11.5 5s4.5 7.33301 4.5 12v99
c0.666992 10.667 4.66699 19.667 12 27s16.333 11 27 11h22c4.66699 0 8.5 1.66699 11.5 5s4.5 7.33301 4.5 12v99c0.666992 10.667 4.66699 19.667 12 27s16.333 11 27 11h22c4.66699 0 8.5 -1.66699 11.5 -5z" />
    <glyph glyph-name="section" unicode="&#xa7;" horiz-adv-x="619" 
d="M513 627.5c-7.33301 7.66699 -11.0127 16.8242 -11.0127 27.4912v19c0 5.33301 -1.83301 9.83301 -5.5 13.5s-8.16699 5.5 -13.5 5.5h-270c-5.33301 0 -9.83301 -1.83301 -13.5 -5.5s-5.5 -8.16699 -5.5 -13.5v-116c0 -5.33301 1.83301 -9.83301 5.5 -13.5
s8.16699 -5.5 13.5 -5.5h96c10.667 0 19.834 -3.66699 27.501 -11s11.5 -16.333 11.5 -27v-20c0 -4.66699 1.5 -8.66699 4.5 -12s6.83301 -5.66602 11.5 -6.99902h22c10.667 0 19.834 -3.66699 27.501 -11s11.5 -16.333 11.5 -27v-20c0 -5.33301 1.83301 -9.83301 5.5 -13.5
s8.16699 -5.5 13.5 -5.5h19c10.667 0 19.834 -3.66699 27.501 -11s11.5 -16.333 11.5 -27v-20c0 -5.33301 1.83301 -9.83301 5.5 -13.5s8.16699 -5.5 13.5 -5.5h19c10.667 0 19.834 -3.66699 27.501 -11s11.5 -16.333 11.5 -27v-154c0 -10.667 -3.66699 -19.834 -11 -27.501
s-16.666 -11.5 -27.999 -11.5h-96c-5.33301 0 -9.83301 -1.83301 -13.5 -5.5s-5.5 -8.16699 -5.5 -13.5v-39c0 -5.33301 1.83301 -9.83301 5.5 -13.5s8.16699 -5.5 13.5 -5.5h19c10.667 0 19.834 -3.66699 27.501 -11s11.5 -16.333 11.5 -27v-77
c0 -11.333 -3.66699 -20.666 -11 -27.999s-16.666 -11 -27.999 -11h-19c-5.33301 0 -9.83301 -1.83301 -13.5 -5.5s-5.5 -8.16699 -5.5 -13.5v-19c0 -11.333 -3.66699 -20.666 -11 -27.999s-16.666 -11 -27.999 -11h-231c-10.667 0 -19.667 3.83301 -27 11.5
s-11 16.834 -11 27.501v19c0 5.33301 -1.83301 9.83301 -5.5 13.5s-8.16699 5.5 -13.5 5.5h-20c-10.667 0 -19.667 3.83301 -27 11.5s-11 16.834 -11 27.501v20c0 4.66699 1.83301 8.83398 5.5 12.501s7.83398 5.5 12.501 5.5h20c10.667 0 19.834 -3.66699 27.501 -11
s11.5 -16.333 11.5 -27v-20c0 -5.33301 1.83301 -9.83301 5.5 -13.5s8.16699 -5.5 13.5 -5.5h270c5.33301 0 9.83301 1.83301 13.5 5.5s5.5 8.16699 5.5 13.5v116c0 5.33301 -1.83301 9.83301 -5.5 13.5s-8.16699 5.5 -13.5 5.5h-97c-10.667 0 -19.667 3.83301 -27 11.5
s-11 16.834 -11 27.501v19c0 5.33301 -1.83301 9.83301 -5.5 13.5s-8.16699 5.5 -13.5 5.5h-20c-10.667 0 -19.667 3.83301 -27 11.5s-11 16.834 -11 27.501v19c0 5.33301 -1.83301 9.83301 -5.5 13.5s-8.16699 5.5 -13.5 5.5h-20c-10.667 0 -19.667 3.83301 -27 11.5
s-11 16.834 -11 27.501v19c0 5.33301 -1.83301 9.83301 -5.5 13.5s-8.16699 5.5 -13.5 5.5h-20c-10.667 0 -19.667 3.83301 -27 11.5s-11 16.834 -11 27.501v154c0 10.667 3.66699 19.667 11 27s16.333 11 27 11h97c5.33301 0 9.83301 2 13.5 6s5.5 8.33301 5.5 13v39
c0 5.33301 -1.83301 9.83301 -5.5 13.5s-8.16699 5.5 -13.5 5.5h-20c-10.667 0 -19.667 3.83301 -27 11.5s-11 16.834 -11 27.501v77c0 10.667 3.66699 19.667 11 27s16.333 11 27 11h20c5.33301 0 9.83301 2 13.5 6s5.5 8.33301 5.5 13v20c0 10.667 3.66699 19.667 11 27
s16.333 11 27 11h231c10.667 0 19.834 -3.66699 27.501 -11s11.5 -16.333 11.5 -27v-20c0 -5.33301 1.83301 -9.83301 5.5 -13.5s8.16699 -5.5 13.5 -5.5h19c10.667 0 19.834 -3.66699 27.501 -11s11.5 -16.333 11.5 -27v-21c0 -4.66699 -1.66699 -8.83398 -5 -12.501
s-7.66602 -5.5 -12.999 -5.5h-21c-10.667 0 -19.667 3.83301 -27 11.5zM342.487 456.49c-3.66699 3.66699 -8.16797 5.49609 -13.501 5.49609h-116c-5.33301 0 -9.83301 -1.83301 -13.5 -5.5s-5.5 -8.16699 -5.5 -13.5v-19c0 -10.667 -3.66699 -19.834 -11 -27.501
s-16.666 -11.5 -27.999 -11.5h-20c-4.66699 0 -8.83398 -1.66699 -12.501 -5s-5.5 -7.66602 -5.5 -12.999v-117c0 -4.66699 1.5 -8.66699 4.5 -12s6.83301 -5.66602 11.5 -6.99902h22c10.667 0 19.834 -3.66699 27.501 -11s11.5 -16.333 11.5 -27v-20
c0 -5.33301 1.83301 -9.83301 5.5 -13.5s8.16699 -5.5 13.5 -5.5h19c10.667 0 19.834 -3.66699 27.501 -11s11.5 -16.333 11.5 -27v-20c0 -5.33301 1.83301 -9.83301 5.5 -13.5s8.16699 -5.5 13.5 -5.5h116c5.33301 0 9.83301 2 13.5 6s5.5 8.33301 5.5 13v20
c0 10.667 3.66699 19.667 11 27s16.333 11 27 11h21c5.33301 0 9.66602 1.83301 12.999 5.5s5 7.83398 5 12.501v117c0 5.33301 -1.83301 9.83301 -5.5 13.5s-8.16699 5.5 -13.5 5.5h-20c-10.667 0 -19.667 3.83301 -27 11.5s-11 16.834 -11 27.501v19
c0 5.33301 -1.83301 9.83301 -5.5 13.5s-8.16699 5.5 -13.5 5.5h-20c-10.667 0 -19.667 3.83301 -27 11.5s-11 16.834 -11 27.501v19c0 5.33301 -1.83301 9.83301 -5.5 13.5z" />
    <glyph glyph-name="dieresis" unicode="&#xa8;" horiz-adv-x="600" 
d="M208 682c7.33301 7.33301 16.334 11.001 27.001 11.001h22c4.66699 0 8.66699 -1.66699 12 -5s5 -7.33301 5 -12v-21c0 -10.667 -3.83301 -19.834 -11.5 -27.501s-16.834 -11.5 -27.501 -11.5h-21c-4.66699 0 -8.66699 1.66699 -12 5s-5 7.33301 -5 12v22
c0 10.667 3.66699 19.667 11 27zM362.001 682.001c7.33301 7.33301 16.333 11.001 27 11.001h22c4.66699 0 8.5 -1.66699 11.5 -5s4.5 -7.33301 4.5 -12v-21c0 -10.667 -3.66699 -19.834 -11 -27.501s-16.333 -11.5 -27 -11.5h-22c-4.66699 0 -8.5 1.66699 -11.5 5
s-4.5 7.33301 -4.5 12v22c0 10.667 3.66699 19.667 11 27z" />
    <glyph glyph-name="copyright" unicode="&#xa9;" horiz-adv-x="849" 
d="M797.5 527c7.66699 -7.33301 11.502 -16.333 11.502 -27v-385c0 -10.667 -3.83301 -19.667 -11.5 -27s-16.834 -11 -27.501 -11h-19c-5.33301 0 -9.83301 -1.83301 -13.5 -5.5s-5.5 -8.16699 -5.5 -13.5v-97c0 -10.667 -3.83301 -19.667 -11.5 -27
s-16.834 -11 -27.501 -11h-461c-10.667 0 -19.834 3.66699 -27.501 11s-11.5 16.333 -11.5 27v20c0 5.33301 -1.83301 9.83301 -5.5 13.5s-7.83398 5.5 -12.501 5.5h-20c-10.667 0 -19.667 3.66699 -27 11s-11 16.333 -11 27v20c0 5.33301 -1.83301 9.83301 -5.5 13.5
s-8.16699 5.5 -13.5 5.5h-20c-10.667 0 -19.667 3.66699 -27 11s-11 16.333 -11 27v385c0 10.667 3.66699 19.667 11 27s16.333 11 27 11h20c5.33301 0 9.83301 2 13.5 6s5.5 8.33301 5.5 13v97c0 10.667 3.66699 19.667 11 27s16.333 11 27 11h462
c10.667 0 19.667 -3.66699 27 -11s11 -16.333 11 -27v-20c0 -5.33301 1.83301 -9.83301 5.5 -13.5s8.16699 -5.5 13.5 -5.5h19c10.667 0 19.834 -3.66699 27.501 -11s11.5 -16.333 11.5 -27v-20c0 -5.33301 1.83301 -9.83301 5.5 -13.5s8.16699 -5.5 13.5 -5.5h19
c10.667 0 19.834 -3.66699 27.501 -11zM726.502 82.5c3.66699 3.66699 5.50391 8.16406 5.50391 13.4971v424c0 4.66699 -1.83301 8.83398 -5.5 12.501s-8.16699 5.5 -13.5 5.5h-20c-10.667 0 -19.667 3.83301 -27 11.5s-11 16.834 -11 27.501v19
c0 5.33301 -1.83301 9.83301 -5.5 13.5s-8.16699 5.5 -13.5 5.5h-425c-4.66699 0 -8.83398 -1.66699 -12.501 -5s-5.5 -7.33301 -5.5 -12v-21c0 -10.667 -3.66699 -19.834 -11 -27.501s-16.333 -11.5 -27 -11.5h-20c-4.66699 0 -8.83398 -1.66699 -12.501 -5
s-5.5 -7.66602 -5.5 -12.999v-424c0 -5.33301 1.66699 -9.83301 5 -13.5s7.66602 -5.5 12.999 -5.5h20c10.667 0 19.667 -3.83301 27 -11.5s11 -16.834 11 -27.501v-19c0 -5.33301 1.83301 -9.83301 5.5 -13.5s8.16699 -5.5 13.5 -5.5h425
c5.33301 0 9.66602 1.83301 12.999 5.5s5 7.83398 5 12.501v20c0 10.667 3.66699 19.834 11 27.501s16.333 11.5 27 11.5h20c5.33301 0 9.83301 1.83301 13.5 5.5zM644.006 449.997c7.33301 -7.33301 11.0029 -16.3359 11.0029 -27.0029v-21
c0 -4.66699 -1.83301 -8.66699 -5.5 -12s-7.83398 -5 -12.501 -5h-20c-10.667 0 -19.834 3.66699 -27.501 11s-11.5 16.333 -11.5 27v20c0 5.33301 -1.83301 9.66602 -5.5 12.999s-8.16699 5 -13.5 5h-194c-5.33301 0 -9.66602 -1.66699 -12.999 -5s-5 -7.33301 -5 -12v-21
c0 -10.667 -3.66699 -19.667 -11 -27s-16.333 -11 -27 -11h-20c-4.66699 0 -9 -1.83301 -13 -5.5s-6 -8.16699 -6 -13.5v-193c0 -5.33301 1.83301 -9.83301 5.5 -13.5s8.16699 -5.5 13.5 -5.5h270c5.33301 0 9.83301 1.83301 13.5 5.5s5.5 8.16699 5.5 13.5v19
c0 10.667 3.83301 19.834 11.5 27.501s16.834 11.5 27.501 11.5h20c5.33301 0 9.66602 -1.66699 12.999 -5s5 -7.66602 5 -12.999v-21c0 -10.667 -3.66699 -19.667 -11 -27s-16.333 -11 -27 -11h-20c-4.66699 0 -9 -1.83301 -13 -5.5s-6 -8.16699 -6 -13.5v-20
c0 -10.667 -3.66699 -19.667 -11 -27s-16.333 -11 -27 -11h-231c-10.667 0 -19.834 3.66699 -27.501 11s-11.5 16.333 -11.5 27v20c0 5.33301 -1.83301 9.83301 -5.5 13.5s-7.83398 5.5 -12.501 5.5h-20c-10.667 0 -19.834 3.66699 -27.501 11s-11.5 16.333 -11.5 27v154
c0 10.667 3.83301 19.834 11.5 27.501s16.834 11.5 27.501 11.5h20c5.33301 0 9.66602 1.83301 12.999 5.5s5 7.83398 5 12.501v97c0 10.667 3.83301 19.667 11.5 27s16.834 11 27.501 11h231c10.667 0 19.667 -3.66699 27 -11s11 -16.333 11 -27v-20c0 -4.66699 2 -9 6 -13
s8.33301 -6 13 -6h20c10.667 0 19.667 -3.66699 27 -11z" />
    <glyph glyph-name="ordfeminine" unicode="&#xaa;" horiz-adv-x="383" 
d="M332 682.5c7.33301 -7.66699 10.998 -16.8311 10.998 -27.498v-231c0 -10.667 -3.66699 -19.667 -11 -27s-16.333 -11 -27 -11h-154c-10.667 0 -19.834 3.66699 -27.501 11s-11.5 16.333 -11.5 27v20c0 4.66699 -1.5 8.83398 -4.5 12.501s-6.83301 5.83398 -11.5 6.50098
h-22c-10.667 0 -19.834 3.66699 -27.501 11s-11.5 16.333 -11.5 27s3.83301 19.834 11.5 27.501s16.834 11.5 27.501 11.5h19c5.33301 0 9.83301 1.83301 13.5 5.5s5.5 8.16699 5.5 13.5v19c0 11.333 3.83301 20.666 11.5 27.999s16.834 11 27.501 11h77
c10.667 0 19.667 -3.83301 27 -11.5s11 -16.834 11 -27.501v97c0 4.66699 -1.5 8.83398 -4.5 12.501s-6.83301 5.83398 -11.5 6.50098h-122c-4.66699 -0.666992 -8.5 -2.83398 -11.5 -6.50098s-4.5 -7.83398 -4.5 -12.501v-20c0 -10.667 -3.66699 -19.667 -11 -27
s-16.333 -11 -27 -11h-22c-4.66699 0 -8.66699 1.66699 -12 5s-5 7.33301 -5 12v21c0 11.333 3.83301 20.666 11.5 27.999s16.834 11 27.501 11h19c5.33301 0 9.83301 1.83301 13.5 5.5s5.5 8.16699 5.5 13.5v19c0 11.333 3.83301 20.666 11.5 27.999s16.834 11 27.501 11
h77c10.667 0 19.667 -3.83301 27 -11.5s11 -16.834 11 -27.501v-19c0 -5.33301 1.83301 -9.83301 5.5 -13.5s8.16699 -5.5 13.5 -5.5h20c10.667 0 19.667 -3.83301 27 -11.5zM260.998 535.003c-3.33301 3.33301 -7.33301 5 -12 5h-118
c-5.33301 0 -9.83301 -1.83301 -13.5 -5.5s-5.5 -8.16699 -5.5 -13.5v-39c0 -5.33301 1.83301 -9.83301 5.5 -13.5s8.16699 -5.5 13.5 -5.5h118c5.33301 0 9.5 1.66699 12.5 5s4.5 7.33301 4.5 12v43c0 4.66699 -1.66699 8.66699 -5 12z" />
    <glyph glyph-name="guillemotleft" unicode="&#xab;" horiz-adv-x="594" 
d="M157.5 242c-7.66699 7.33301 -11.5 16.332 -11.5 26.999s3.66699 19.834 11 27.501s16.333 11.5 27 11.5h20c5.33301 0 9.83301 1.83301 13.5 5.5s5.5 8.16699 5.5 13.5v19c0 10.667 3.66699 19.834 11 27.501s16.333 11.5 27 11.5h20
c4.66699 0 8.83398 1.83301 12.501 5.5s5.5 8.16699 5.5 13.5v20c0 10.667 3.66699 19.667 11 27s16.333 11 27 11l20 1c5.33301 0 9.83301 1.66699 13.5 5s5.5 7.66602 5.5 12.999v20c0 10.667 3.66699 19.834 11 27.501s16.333 11.5 27 11.5h22
c4.66699 0 8.66699 -1.66699 12 -5s5 -7.33301 5 -12v-21c0 -10.667 -3.66699 -19.834 -11 -27.501s-16.666 -11.5 -27.999 -11.5h-19c-5.33301 0 -9.83301 -1.83301 -13.5 -5.5s-5.5 -8.16699 -5.5 -13.5v-20c0 -10.667 -3.66699 -19.667 -11 -27s-16.333 -11.333 -27 -12
h-20c-5.33301 0 -9.83301 -1.83301 -13.5 -5.5s-5.16699 -8.16699 -4.5 -13.5v-19c0 -10.667 -3.83301 -19.834 -11.5 -27.501s-16.834 -11.5 -27.501 -11.5h-19c-5.33301 0 -9.83301 -1.83301 -13.5 -5.5s-5.5 -8.16699 -5.5 -13.5v-39
c0 -5.33301 1.83301 -9.83301 5.5 -13.5s8.16699 -5.5 13.5 -5.5h20c10.667 0 19.667 -3.66699 27 -11s11 -16.333 11 -27l1 -20c0 -5.33301 1.83301 -9.83301 5.5 -13.5s7.83398 -5.5 12.501 -5.5l20 1c10.667 0 19.834 -3.83301 27.501 -11.5s11.5 -16.834 11.5 -27.501
v-19c0 -5.33301 1.83301 -9.83301 5.5 -13.5s8.16699 -5.5 13.5 -5.5h20c10.667 0 19.667 -3.66699 27 -11s11 -16.333 11 -27v-22c0 -4.66699 -1.5 -8.66699 -4.5 -12s-6.83301 -5 -11.5 -5h-22c-10.667 0 -19.834 3.66699 -27.501 11s-11.5 16.333 -11.5 27v20
c0 5.33301 -1.83301 9.83301 -5.5 13.5s-8.16699 5.5 -13.5 5.5h-19c-10.667 -0.666992 -19.834 2.83301 -27.501 10.5s-11.5 16.834 -11.5 27.501v20c0 4.66699 -1.83301 8.83398 -5.5 12.501s-8.16699 5.5 -13.5 5.5h-20c-10.667 0 -19.667 3.66699 -27 11
s-11.333 16.333 -12 27v20c0 5.33301 -1.83301 9.83301 -5.5 13.5s-8.16699 5.5 -13.5 5.5h-19c-10.667 0 -19.834 3.66699 -27.501 11zM-72.5 241.999c-7.66699 7.33301 -11.5 16.332 -11.5 26.999s3.66699 19.834 11 27.501s16.333 11.5 27 11.5h20
c5.33301 0 9.83301 1.83301 13.5 5.5s5.5 8.16699 5.5 13.5v19c0 10.667 3.66699 19.834 11 27.501s16.333 11.5 27 11.5h20c4.66699 0 8.83398 1.83301 12.501 5.5s5.5 8.16699 5.5 13.5v20c0 10.667 3.66699 19.667 11 27s16.333 11 27 11l20 1
c5.33301 0 9.83301 1.66699 13.5 5s5.5 7.66602 5.5 12.999v20c0 10.667 3.66699 19.834 11 27.501s16.333 11.5 27 11.5h22c4.66699 0 8.66699 -1.66699 12 -5s5 -7.33301 5 -12v-21c0 -10.667 -3.66699 -19.834 -11 -27.501s-16.666 -11.5 -27.999 -11.5h-19
c-5.33301 0 -9.83301 -1.83301 -13.5 -5.5s-5.5 -8.16699 -5.5 -13.5v-20c0 -10.667 -3.66699 -19.667 -11 -27s-16.333 -11.333 -27 -12h-20c-5.33301 0 -9.83301 -1.83301 -13.5 -5.5s-5.16699 -8.16699 -4.5 -13.5v-19c0 -10.667 -3.83301 -19.834 -11.5 -27.501
s-16.834 -11.5 -27.501 -11.5h-19c-5.33301 0 -9.83301 -1.83301 -13.5 -5.5s-5.5 -8.16699 -5.5 -13.5v-39c0 -5.33301 1.83301 -9.83301 5.5 -13.5s8.16699 -5.5 13.5 -5.5h20c10.667 0 19.667 -3.66699 27 -11s11 -16.333 11 -27l1 -20
c0 -5.33301 1.83301 -9.83301 5.5 -13.5s7.83398 -5.5 12.501 -5.5l20 1c10.667 0 19.834 -3.83301 27.501 -11.5s11.5 -16.834 11.5 -27.501v-19c0 -5.33301 1.83301 -9.83301 5.5 -13.5s8.16699 -5.5 13.5 -5.5h20c10.667 0 19.667 -3.66699 27 -11s11 -16.333 11 -27v-22
c0 -4.66699 -1.5 -8.66699 -4.5 -12s-6.83301 -5 -11.5 -5h-22c-10.667 0 -19.834 3.66699 -27.501 11s-11.5 16.333 -11.5 27v20c0 5.33301 -1.83301 9.83301 -5.5 13.5s-8.16699 5.5 -13.5 5.5h-19c-10.667 -0.666992 -19.834 2.83301 -27.501 10.5
s-11.5 16.834 -11.5 27.501v20c0 4.66699 -1.83301 8.83398 -5.5 12.501s-8.16699 5.5 -13.5 5.5h-20c-10.667 0 -19.667 3.66699 -27 11s-11.333 16.333 -12 27v20c0 5.33301 -1.83301 9.83301 -5.5 13.5s-8.16699 5.5 -13.5 5.5h-19c-10.667 0 -19.834 3.66699 -27.501 11
z" />
    <glyph glyph-name="registered" unicode="&#xae;" horiz-adv-x="686" 
d="M639.5 605c7.66699 -7.33301 11.4951 -16.334 11.4951 -27.001v-231c0 -10.667 -3.66699 -19.834 -11 -27.501s-16.666 -11.5 -27.999 -11.5h-19c-5.33301 0 -9.83301 -1.83301 -13.5 -5.5s-5.5 -8.16699 -5.5 -13.5v-96c0 -10.667 -3.66699 -19.834 -11 -27.501
s-16.666 -11.5 -27.999 -11.5h-308c-10.667 0 -19.667 3.83301 -27 11.5s-11 16.834 -11 27.501v19c0 5.33301 -1.83301 9.83301 -5.5 13.5s-8.16699 5.5 -13.5 5.5h-20c-10.667 0 -19.667 3.83301 -27 11.5s-11 16.834 -11 27.501v19c0 5.33301 -1.83301 9.83301 -5.5 13.5
s-8.16699 5.5 -13.5 5.5h-20c-10.667 0 -19.667 3.83301 -27 11.5s-11 16.834 -11 27.501v231c0 10.667 3.66699 19.667 11 27s16.333 11 27 11h20c5.33301 0 9.83301 1.83301 13.5 5.5s5.5 8.16699 5.5 13.5v97c0 10.667 3.66699 19.667 11 27s16.333 11 27 11h308
c10.667 0 19.834 -3.66699 27.501 -11s11.5 -16.333 11.5 -27v-20c0 -5.33301 1.83301 -9.83301 5.5 -13.5s8.16699 -5.5 13.5 -5.5h19c10.667 0 19.834 -3.66699 27.501 -11s11.5 -16.333 11.5 -27v-20c0 -5.33301 1.83301 -9.83301 5.5 -13.5s8.16699 -5.5 13.5 -5.5h19
c10.667 0 19.834 -3.66699 27.501 -11zM568.495 313.499c3.66699 3.66699 5.5 8.16504 5.5 13.498v270c0 5.33301 -1.83301 9.83301 -5.5 13.5s-8.16699 5.5 -13.5 5.5h-20c-10.667 0 -19.667 3.83301 -27 11.5s-11 16.834 -11 27.501v19
c0 5.33301 -1.83301 9.83301 -5.5 13.5s-8.16699 5.5 -13.5 5.5h-271c-4.66699 0 -8.83398 -1.66699 -12.501 -5s-5.5 -7.66602 -5.5 -12.999v-20c0 -10.667 -3.66699 -19.834 -11 -27.501s-16.666 -11.5 -27.999 -11.5h-19c-5.33301 0 -9.83301 -1.83301 -13.5 -5.5
s-5.5 -8.16699 -5.5 -13.5v-270c0 -5.33301 1.83301 -9.83301 5.5 -13.5s8.16699 -5.5 13.5 -5.5h19c10.667 0 19.834 -3.66699 27.501 -11s11.5 -16.333 11.5 -27v-20c0 -5.33301 1.83301 -9.83301 5.5 -13.5s8.16699 -5.5 13.5 -5.5h271
c5.33301 0 9.66602 1.83301 12.999 5.5s5 7.83398 5 12.501v21c0 10.667 3.66699 19.667 11 27s16.333 11 27 11h20c5.33301 0 9.83301 1.83301 13.5 5.5zM425.495 390.497c3.66699 -3.66699 8.16211 -5.5 13.4951 -5.5h19c10.667 0 19.834 -3.66699 27.501 -11
s11.5 -16.333 11.5 -27v-21c0 -4.66699 -1.66699 -8.83398 -5 -12.501s-7.66602 -5.5 -12.999 -5.5h-21c-10.667 0 -19.667 3.83301 -27 11.5s-11 16.834 -11 27.501v19c0 5.33301 -1.83301 9.83301 -5.5 13.5s-8.16699 5.5 -13.5 5.5h-97
c-10.667 0 -19.667 3.83301 -27 11.5s-11 16.834 -11 27.501v-77c0 -10.667 -3.66699 -19.834 -11 -27.501s-16.666 -11.5 -27.999 -11.5h-20c-4.66699 0 -8.83398 1.83301 -12.501 5.5s-5.5 7.83398 -5.5 12.501v252c0 10.667 3.66699 19.667 11 27s16.333 11 27 11h154
c10.667 0 19.834 -3.66699 27.501 -11s11.5 -16.333 11.5 -27v-20c0 -5.33301 1.83301 -9.83301 5.5 -13.5s8.16699 -5.5 13.5 -5.5h19c10.667 0 19.834 -3.66699 27.501 -11s11.5 -16.333 11.5 -27s-3.66699 -19.834 -11 -27.501s-16.666 -11.5 -27.999 -11.5h-19
c-5.33301 0 -9.83301 -1.83301 -13.5 -5.5s-5.5 -8.16699 -5.5 -13.5v-39c0 -5.33301 1.83301 -9.83301 5.5 -13.5zM271.49 467.497c3.66699 -3.66699 7.83398 -5.5 12.501 -5.5h117c5.33301 0 9.83301 1.83301 13.5 5.5s5.5 8.16699 5.5 13.5v39
c0 5.33301 -1.83301 9.83301 -5.5 13.5s-8.16699 5.5 -13.5 5.5h-117c-4.66699 0 -8.83398 -1.66699 -12.501 -5s-5.5 -7.66602 -5.5 -12.999v-41c0 -4.66699 1.83301 -8.83398 5.5 -12.501z" />
    <glyph glyph-name="degree" unicode="&#xb0;" horiz-adv-x="363" 
d="M31.5 550.5c-7.66699 7.66699 -11.498 16.834 -11.498 27.501v154c0.666992 10.667 4.66699 19.667 12 27s16.333 11 27 11h154c10.667 0 19.667 -3.66699 27 -11s11 -16.333 11 -27v-20c0 -5.33301 1.66699 -9.83301 5 -13.5s7.66602 -5.5 12.999 -5.5h21
c10.667 0 19.667 -3.66699 27 -11s11 -16.333 11 -27v-154c0 -10.667 -3.66699 -19.834 -11 -27.501s-16.333 -11.5 -27 -11.5h-154c-10.667 0 -19.834 3.83301 -27.501 11.5s-11.5 16.834 -11.5 27.501v20c0 5.33301 -1.66699 9.66602 -5 12.999s-7.66602 5 -12.999 5h-20
c-10.667 0 -19.834 3.83301 -27.501 11.5zM246.002 688c-3.33301 3.33301 -7.66699 5.00098 -13 5.00098h-136v-135c0 -4.66699 2 -9 6 -13s8.33301 -6 13 -6h135v136c0 5.33301 -1.66699 9.66602 -5 12.999z" />
    <glyph glyph-name="uni00B2" unicode="&#xb2;" horiz-adv-x="383" 
d="M332 758.5c7.33301 -7.66699 10.9971 -16.834 10.9971 -27.501v-77c0 -10.667 -3.66699 -19.667 -11 -27s-16.333 -11 -27 -11h-20c-4.66699 0 -9 -1.83301 -13 -5.5s-6 -8.16699 -6 -13.5v-20c0 -10.667 -3.66699 -19.667 -11 -27s-16.333 -11 -27 -11h-101
c-4 -1.33301 -7.5 -3.66602 -10.5 -6.99902s-4.5 -7.33301 -4.5 -12v-41c0 -4.66699 1.66699 -8.66699 5 -12s7.33301 -5 12 -5h197c4.66699 0 8.66699 -1.66699 12 -5s5 -7.33301 5 -12v-22c0 -10.667 -3.66699 -19.667 -11 -27s-16.333 -11 -27 -11h-231
c-10.667 0 -19.834 3.66699 -27.501 11s-11.5 16.333 -11.5 27v77c0 11.333 3.83301 20.666 11.5 27.999s16.834 11 27.501 11h19c5.33301 0 9.83301 1.83301 13.5 5.5s5.5 8.16699 5.5 13.5v19c0 11.333 3.83301 20.666 11.5 27.999s16.834 11 27.501 11h99
c4.66699 0.666992 8.5 2.83398 11.5 6.50098s4.5 7.83398 4.5 12.501v41c0 4.66699 -1.66699 8.66699 -5 12s-7.33301 5 -12 5h-118c-4.66699 0 -9 -1.83301 -13 -5.5s-6 -8.16699 -6 -13.5v-20c0 -10.667 -3.66699 -19.667 -11 -27s-16.333 -11 -27 -11h-22
c-4.66699 0 -8.66699 1.66699 -12 5s-5 7.33301 -5 12v21c0 11.333 3.83301 20.666 11.5 27.999s16.834 11 27.501 11h22c4.66699 0.666992 8.5 2.83398 11.5 6.50098s4.5 7.83398 4.5 12.501v19c0 11.333 3.83301 20.666 11.5 27.999s16.834 11 27.501 11h154
c10.667 0 19.667 -3.83301 27 -11.5z" />
    <glyph glyph-name="uni00B3" unicode="&#xb3;" horiz-adv-x="383" 
d="M332 758.5c7.33301 -7.66699 10.999 -16.833 10.999 -27.5v-77c0 -10.667 -3.66699 -19.667 -11 -27s-16.333 -11 -27 -11h-22c-4.66699 -0.666992 -8.66699 -2.66699 -12 -6s-5 -7.66602 -5 -12.999v-39c0 -4.66699 2 -9 6 -13s8.33301 -6 13 -6h20
c10.667 0 19.667 -3.83301 27 -11.5s11 -16.834 11 -27.501v-77c0 -10.667 -3.66699 -19.667 -11 -27s-16.333 -11 -27 -11h-154c-10.667 0 -19.834 3.66699 -27.501 11s-11.5 16.333 -11.5 27v20c0 4.66699 -1.33301 8.66699 -4 12s-6 5.66602 -10 6.99902h-24
c-10.667 0 -19.834 3.66699 -27.501 11s-11.5 16.333 -11.5 27v22c0 4.66699 1.66699 8.66699 5 12s7.33301 5 12 5h22c10.667 0 19.667 -3.83301 27 -11.5s11 -16.834 11 -27.501v-19c0 -4.66699 2 -9 6 -13s8.33301 -6 13 -6h119c4.66699 0 8.5 1.66699 11.5 5
s4.5 7.33301 4.5 12v41c0 4.66699 -1.33301 8.66699 -4 12s-6 5.66602 -10 6.99902h-101c-10.667 0 -19.834 3.66699 -27.501 11s-11.5 16.333 -11.5 27v22c0 4.66699 1.66699 8.66699 5 12s7.33301 5 12 5h119c4.66699 0 8.83398 1.83301 12.501 5.5s5.5 8.16699 5.5 13.5
v41c0 4.66699 -1.5 8.66699 -4.5 12s-6.83301 5 -11.5 5h-121c-4.66699 -0.666992 -8.66699 -2.66699 -12 -6s-5 -7.66602 -5 -12.999v-20c0 -10.667 -3.66699 -19.667 -11 -27s-16.333 -11 -27 -11h-22c-4.66699 0 -8.66699 1.66699 -12 5s-5 7.33301 -5 12v21
c0 10.667 3.83301 19.834 11.5 27.501s16.834 11.5 27.501 11.5h20c4.66699 0 8.83398 1.83301 12.501 5.5s5.5 8.16699 5.5 13.5v19c0 10.667 3.83301 19.834 11.5 27.501s16.834 11.5 27.501 11.5h154c10.667 0 19.667 -3.83301 27 -11.5z" />
    <glyph glyph-name="acute" unicode="&#xb4;" horiz-adv-x="600" 
d="M315 758.5c7.33301 7.66699 16.3311 11.498 26.998 11.498h22c4.66699 0 8.66699 -1.66699 12 -5s5 -7.33301 5 -12v-22c0 -10.667 -3.83301 -19.667 -11.5 -27s-16.834 -11 -27.501 -11h-20c-5.33301 0 -9.66602 -1.66699 -12.999 -5s-5 -7.66602 -5 -12.999v-20
c0 -10.667 -3.66699 -19.834 -11 -27.501s-16.333 -11.5 -27 -11.5h-22c-4.66699 0 -8.66699 1.66699 -12 5s-5 7.33301 -5 12v22c0 10.667 3.83301 19.667 11.5 27s16.834 11 27.501 11h20c4.66699 0 8.83398 1.83301 12.501 5.5s5.5 7.83398 5.5 12.501v20
c0 10.667 3.66699 19.834 11 27.501z" />
    <glyph glyph-name="periodcentered" unicode="&#xb7;" horiz-adv-x="146" 
d="M46 296.5c7.33301 7.66699 16.333 11.499 27 11.499h22c4.66699 0 8.5 -1.66699 11.5 -5s4.5 -7.33301 4.5 -12v-22c0 -10.667 -3.66699 -19.667 -11 -27s-16.333 -11 -27 -11h-22c-4.66699 0 -8.5 1.5 -11.5 4.5s-4.5 6.83301 -4.5 11.5v22
c0 10.667 3.66699 19.834 11 27.501z" />
    <glyph glyph-name="cedilla" unicode="&#xb8;" horiz-adv-x="600" 
d="M429.5 -88c7.66699 -7.33301 11.5029 -15.999 11.5029 -25.999c0 -11.333 -3.83301 -20.833 -11.5 -28.5s-16.834 -11.5 -27.501 -11.5h-19c-5.33301 0 -9.66602 -1.83301 -12.999 -5.5s-5 -7.83398 -5 -12.501v-20c0 -10.667 -3.83301 -19.834 -11.5 -27.501
s-16.834 -11.5 -27.501 -11.5h-22c-4.66699 0 -8.5 1.66699 -11.5 5s-4.5 7.33301 -4.5 12v22c0 10.667 3.66699 19.667 11 27s16.333 11 27 11h20c4.66699 0 9 1.83301 13 5.5s6 8.16699 6 13.5v40c0 4.66699 -1.83301 8.83398 -5.5 12.501s-8.16699 5.5 -13.5 5.5h-19
c-10.667 0 -19.834 3.83301 -27.501 11.5s-11.5 17.167 -11.5 28.5c0 10 3.83301 18.667 11.5 26s16.5 11 26.5 11h55c-4.66699 -0 -8.5 -1.66699 -11.5 -5s-4.5 -7.33301 -4.5 -12v-41c0 -5.33301 1.66699 -9.83301 5 -13.5s7.66602 -5.5 12.999 -5.5h20
c10 0 18.833 -3.66699 26.5 -11z" />
    <glyph glyph-name="uni00B9" unicode="&#xb9;" horiz-adv-x="306" 
d="M254.5 759c7.66699 -7.33301 11.5 -16.3301 11.5 -26.9971v-308c0 -10.667 -3.83301 -19.834 -11.5 -27.501s-16.834 -11.5 -27.501 -11.5h-22c-4.66699 0 -8.5 1.66699 -11.5 5s-4.5 7.33301 -4.5 12v275c0 4.66699 -1.66699 8.5 -5 11.5s-7.33301 4.5 -12 4.5h-42
c-5.33301 0 -9.66602 -1.83301 -12.999 -5.5s-5 -8.16699 -5 -13.5v-19c0 -10.667 -3.83301 -19.834 -11.5 -27.501s-16.834 -11.5 -27.501 -11.5h-22c-4.66699 0 -8.5 1.66699 -11.5 5s-4.5 7.33301 -4.5 12v22c0 10.667 3.66699 19.667 11 27s16.333 11 27 11h22
c5.33301 1.33301 9.5 3.66602 12.5 6.99902s4.5 7.33301 4.5 12v20c0 10.667 3.66699 19.667 11 27s16.333 11 27 11h77c10.667 0 19.834 -3.66699 27.501 -11z" />
    <glyph glyph-name="guillemotright" unicode="&#xbb;" horiz-adv-x="594" 
d="M337 296.5c7.33301 -7.66699 11 -16.8271 11 -27.4941s-3.66699 -19.667 -11 -27s-16.333 -11 -27 -11h-20c-5.33301 0 -9.83301 -1.83301 -13.5 -5.5s-5.5 -8.16699 -5.5 -13.5v-20c0 -10.667 -3.66699 -19.667 -11 -27s-16.333 -11 -27 -11h-20
c-5.33301 0 -9.83301 -1.83301 -13.5 -5.5s-5.5 -8.16699 -5.5 -13.5v-20c0 -10.667 -3.66699 -19.667 -11 -27s-16.333 -11 -27 -11h-20c-5.33301 0 -9.83301 -1.83301 -13.5 -5.5s-5.5 -8.16699 -5.5 -13.5v-20c0 -10.667 -3.66699 -19.667 -11 -27s-16.333 -11 -27 -11
h-22c-4.66699 0 -8.66699 1.66699 -12 5s-5 7.33301 -5 12v21c0 11.333 3.83301 20.666 11.5 27.999s16.834 11 27.501 11h19c5.33301 0 9.83301 1.83301 13.5 5.5s5.5 8.16699 5.5 13.5v19c0 11.333 3.83301 20.666 11.5 27.999s16.834 11 27.501 11h19
c5.33301 0 9.83301 1.83301 13.5 5.5s5.5 8.16699 5.5 13.5v19c0 11.333 3.83301 20.666 11.5 27.999s16.834 11 27.501 11h19c5.33301 0 9.83301 1.83301 13.5 5.5s5.5 8.16699 5.5 13.5v39c0 5.33301 -1.83301 9.83301 -5.5 13.5s-8.16699 5.5 -13.5 5.5h-19
c-10.667 0 -19.834 3.66699 -27.501 11s-11.5 16.333 -11.5 27v20c0 5.33301 -1.83301 9.83301 -5.5 13.5s-8.16699 5.5 -13.5 5.5h-19c-10.667 0 -19.834 3.66699 -27.501 11s-11.5 16.333 -11.5 27v20c0 5.33301 -1.83301 9.83301 -5.5 13.5s-8.16699 5.5 -13.5 5.5h-19
c-10.667 0 -19.834 3.66699 -27.501 11s-11.5 16.333 -11.5 27v22c0 4.66699 1.66699 8.66699 5 12s7.33301 5 12 5h22c10.667 0 19.667 -3.83301 27 -11.5s11 -16.834 11 -27.501v-19c0 -5.33301 1.83301 -9.83301 5.5 -13.5s8.16699 -5.5 13.5 -5.5h20
c10.667 0 19.667 -3.83301 27 -11.5s11 -16.834 11 -27.501v-19c0 -5.33301 1.83301 -9.83301 5.5 -13.5s8.16699 -5.5 13.5 -5.5h20c10.667 0 19.667 -3.83301 27 -11.5s11 -16.834 11 -27.501v-19c0 -5.33301 1.83301 -9.83301 5.5 -13.5s8.16699 -5.5 13.5 -5.5h20
c10.667 0 19.667 -3.83301 27 -11.5zM568 296.507c7.33301 -7.66699 11 -16.8271 11 -27.4941s-3.66699 -19.667 -11 -27s-16.333 -11 -27 -11h-20c-5.33301 0 -9.83301 -1.83301 -13.5 -5.5s-5.5 -8.16699 -5.5 -13.5v-20c0 -10.667 -3.66699 -19.667 -11 -27
s-16.333 -11 -27 -11h-20c-5.33301 0 -9.83301 -1.83301 -13.5 -5.5s-5.5 -8.16699 -5.5 -13.5v-20c0 -10.667 -3.66699 -19.667 -11 -27s-16.333 -11 -27 -11h-20c-5.33301 0 -9.83301 -1.83301 -13.5 -5.5s-5.5 -8.16699 -5.5 -13.5v-20
c0 -10.667 -3.66699 -19.667 -11 -27s-16.333 -11 -27 -11h-22c-4.66699 0 -8.66699 1.66699 -12 5s-5 7.33301 -5 12v21c0 11.333 3.83301 20.666 11.5 27.999s16.834 11 27.501 11h19c5.33301 0 9.83301 1.83301 13.5 5.5s5.5 8.16699 5.5 13.5v19
c0 11.333 3.83301 20.666 11.5 27.999s16.834 11 27.501 11h19c5.33301 0 9.83301 1.83301 13.5 5.5s5.5 8.16699 5.5 13.5v19c0 11.333 3.83301 20.666 11.5 27.999s16.834 11 27.501 11h19c5.33301 0 9.83301 1.83301 13.5 5.5s5.5 8.16699 5.5 13.5v39
c0 5.33301 -1.83301 9.83301 -5.5 13.5s-8.16699 5.5 -13.5 5.5h-19c-10.667 0 -19.834 3.66699 -27.501 11s-11.5 16.333 -11.5 27v20c0 5.33301 -1.83301 9.83301 -5.5 13.5s-8.16699 5.5 -13.5 5.5h-19c-10.667 0 -19.834 3.66699 -27.501 11s-11.5 16.333 -11.5 27v20
c0 5.33301 -1.83301 9.83301 -5.5 13.5s-8.16699 5.5 -13.5 5.5h-19c-10.667 0 -19.834 3.66699 -27.501 11s-11.5 16.333 -11.5 27v22c0 4.66699 1.66699 8.66699 5 12s7.33301 5 12 5h22c10.667 0 19.667 -3.83301 27 -11.5s11 -16.834 11 -27.501v-19
c0 -5.33301 1.83301 -9.83301 5.5 -13.5s8.16699 -5.5 13.5 -5.5h20c10.667 0 19.667 -3.83301 27 -11.5s11 -16.834 11 -27.501v-19c0 -5.33301 1.83301 -9.83301 5.5 -13.5s8.16699 -5.5 13.5 -5.5h20c10.667 0 19.667 -3.83301 27 -11.5s11 -16.834 11 -27.501v-19
c0 -5.33301 1.83301 -9.83301 5.5 -13.5s8.16699 -5.5 13.5 -5.5h20c10.667 0 19.667 -3.83301 27 -11.5z" />
    <glyph glyph-name="questiondown" unicode="&#xbf;" horiz-adv-x="538" 
d="M339 474.5c-7.33301 -7.66699 -16.334 -11.499 -27.001 -11.499h-22c-4.66699 0 -8.66699 1.66699 -12 5s-5 7.33301 -5 12v22c0 10.667 3.83301 19.667 11.5 27s16.834 11 27.501 11h21c4.66699 0 8.66699 -1.66699 12 -5s5 -7.33301 5 -12v-21
c0 -10.667 -3.66699 -19.834 -11 -27.501zM51.999 -62.999c-7.33301 7.33301 -11.334 16.332 -12.001 26.999v39l1 38c0 10.667 3.83301 19.834 11.5 27.501s16.834 11.5 27.501 11.5l20 -1c5.33301 0 9.66602 1.83301 12.999 5.5s5 7.83398 5 12.501v20
c0 10.667 3.83301 19.834 11.5 27.501s16.834 11.5 27.501 11.5h20c5.33301 0 9.66602 1.83301 12.999 5.5s5 7.83398 5 12.501v20c0 10.667 3.83301 19.667 11.5 27s16.834 11 27.501 11h20c4.66699 0 8.83398 1.83301 12.501 5.5s5.5 8.16699 5.5 13.5v20l1 38v39
c0 10.667 3.83301 19.667 11.5 27s16.834 11 27.501 11h38v-77l-1 -38c0 -10.667 -3.66699 -19.834 -11 -27.501s-16.333 -11.5 -27 -11.5h-20c-5.33301 0 -9.83301 -1.66699 -13.5 -5s-5.5 -7.66602 -5.5 -12.999v-20c0 -10.667 -3.66699 -19.667 -11 -27
s-16.333 -11 -27 -11h-20c-4.66699 0 -9 -1.83301 -13 -5.5s-6 -8.16699 -6 -13.5v-20c0 -10.667 -3.66699 -19.667 -11 -27s-16.333 -11 -27 -11h-20c-4.66699 0 -9 -1.83301 -13 -5.5s-6 -8.16699 -6 -13.5v-20l-1 -38v-59c0 -4.66699 1.83301 -8.83398 5.5 -12.501
s8.16699 -5.5 13.5 -5.5h20c10.667 0 19.667 -3.83301 27 -11.5s11 -16.834 11 -27.501v-21c0 -4.66699 1.66699 -8.66699 5 -12s7.33301 -5 12 -5h137l39 -1h20c5.33301 0 9.66602 1.66699 12.999 5s5 7.66602 5 12.999v136l1 38c0 10.667 3.66699 19.834 11 27.501
s16.333 11.5 27 11.5h22c4.66699 0 8.66699 -1.66699 12 -5s5 -7.33301 5 -12v-22l-1 -38v-116c0 -10.667 -3.83301 -19.667 -11.5 -27s-16.834 -11 -27.501 -11h-20c-4.66699 0 -8.83398 -1.83301 -12.501 -5.5s-5.5 -7.83398 -5.5 -12.501v-21
c0 -10.667 -3.66699 -19.5 -11 -26.5s-16.333 -10.5 -27 -10.5h-231c-10.667 0 -19.667 3.66699 -27 11s-11.333 16.333 -12 27v97c0 5.33301 -1.66699 9.83301 -5 13.5s-7.66602 5.5 -12.999 5.5l-20 1c-10.667 0 -19.667 3.66699 -27 11z" />
    <glyph glyph-name="Agrave" unicode="&#xc0;" horiz-adv-x="696" 
d="M644.5 143c7.66699 -7.33301 11.4922 -16.333 11.4922 -27v-99c0 -4.66699 -1.66699 -8.66699 -5 -12s-7.33301 -5 -12 -5h-22c-10.667 -0 -19.667 3.83301 -27 11.5s-11 16.834 -11 27.501v97c0 5.33301 -1.83301 9.66602 -5.5 12.999s-8.16699 5 -13.5 5h-20
c-10.667 0 -19.667 3.83301 -27 11.5s-11 16.834 -11 27.501v77c0 -10.667 -3.83301 -19.834 -11.5 -27.501s-16.834 -11.5 -27.501 -11.5h-327c-5.33301 0 -9.83301 -1.66699 -13.5 -5s-5.5 -7.66602 -5.5 -12.999v-174c0 -10.667 -3.66699 -19.834 -11 -27.501
s-16.333 -11.5 -27 -11.5h-22c-4.66699 0 -8.66699 1.66699 -12 5s-5 7.33301 -5 12v176c0 10.667 3.83301 19.667 11.5 27s16.834 11 27.501 11h20c4.66699 0 8.83398 1.83301 12.501 5.5s5.5 8.16699 5.5 13.5v174c0 10.667 3.83301 19.667 11.5 27s16.834 11 27.501 11
h20c4.66699 0 8.83398 1.83301 12.501 5.5s5.5 8.16699 5.5 13.5v174c0 10.667 3.83301 19.667 11.5 27s16.834 11 27.501 11h20c5.33301 0 9.66602 1.83301 12.999 5.5s5 8.16699 5 13.5v20c0 10.667 3.66699 19.667 11 27s16.333 11 27 11h77
c10.667 0 19.834 -3.66699 27.501 -11s11.5 -16.333 11.5 -27v-97c0 -5.33301 1.66699 -9.83301 5 -13.5s7.66602 -5.5 12.999 -5.5h20c10.667 0 19.834 -3.66699 27.501 -11s11.5 -16.333 11.5 -27v-174c0 -5.33301 1.83301 -9.83301 5.5 -13.5s7.83398 -5.5 12.501 -5.5
h20c10.667 0 19.834 -3.66699 27.501 -11s11.5 -16.333 11.5 -27v-174c0 -5.33301 1.83301 -9.83301 5.5 -13.5s7.83398 -5.5 12.501 -5.5h20c10.667 0 19.834 -3.66699 27.501 -11zM496.992 313c3.33301 3.33301 5.00098 7.33203 5.00098 11.999v42
c0 5.33301 -1.83301 9.66602 -5.5 12.999s-8.16699 5 -13.5 5h-20c-10.667 0 -19.667 3.83301 -27 11.5s-11 16.834 -11 27.501v174c0 5.33301 -1.66699 9.66602 -5 12.999s-7.66602 5 -12.999 5h-21c-10.667 0 -19.667 3.83301 -27 11.5s-11 16.834 -11 27.501v21
c0 4.66699 -1.66699 8.66699 -5 12s-7.33301 5 -12 5h-42c-4.66699 0 -8.83398 -1.66699 -12.501 -5s-5.5 -7.66602 -5.5 -12.999v-174c0 -10.667 -3.66699 -19.834 -11 -27.501s-16.333 -11.5 -27 -11.5h-21c-4.66699 0 -8.83398 -1.66699 -12.501 -5
s-5.5 -7.66602 -5.5 -12.999v-119c0 -4.66699 1.66699 -8.66699 5 -12s7.33301 -5 12 -5h274c4.66699 0 8.66699 1.66699 12 5zM413.993 912.999c7.33301 -7.33301 11.002 -16.3311 11.002 -26.998v-22c0 -4.66699 -1.5 -8.66699 -4.5 -12s-6.83301 -5 -11.5 -5h-22
c-10.667 0 -19.834 3.83301 -27.501 11.5s-11.5 16.834 -11.5 27.501v20c0 5.33301 -1.83301 9.66602 -5.5 12.999s-7.83398 5 -12.501 5h-20c-10.667 0 -19.667 3.66699 -27 11s-11 16.333 -11 27v22c0 4.66699 1.5 8.66699 4.5 12s6.83301 5 11.5 5h22
c10.667 0 19.667 -3.83301 27 -11.5s11 -16.834 11 -27.501v-20c0 -4.66699 1.83301 -8.83398 5.5 -12.501s8.16699 -5.5 13.5 -5.5h20c10.667 0 19.667 -3.66699 27 -11z" />
    <glyph glyph-name="Aacute" unicode="&#xc1;" horiz-adv-x="696" 
d="M644.5 143c7.66699 -7.33301 11.4922 -16.333 11.4922 -27v-99c0 -4.66699 -1.66699 -8.66699 -5 -12s-7.33301 -5 -12 -5h-22c-10.667 -0 -19.667 3.83301 -27 11.5s-11 16.834 -11 27.501v97c0 5.33301 -1.83301 9.66602 -5.5 12.999s-8.16699 5 -13.5 5h-20
c-10.667 0 -19.667 3.83301 -27 11.5s-11 16.834 -11 27.501v77c0 -10.667 -3.83301 -19.834 -11.5 -27.501s-16.834 -11.5 -27.501 -11.5h-327c-5.33301 0 -9.83301 -1.66699 -13.5 -5s-5.5 -7.66602 -5.5 -12.999v-174c0 -10.667 -3.66699 -19.834 -11 -27.501
s-16.333 -11.5 -27 -11.5h-22c-4.66699 0 -8.66699 1.66699 -12 5s-5 7.33301 -5 12v176c0 10.667 3.83301 19.667 11.5 27s16.834 11 27.501 11h20c4.66699 0 8.83398 1.83301 12.501 5.5s5.5 8.16699 5.5 13.5v174c0 10.667 3.83301 19.667 11.5 27s16.834 11 27.501 11
h20c4.66699 0 8.83398 1.83301 12.501 5.5s5.5 8.16699 5.5 13.5v174c0 10.667 3.83301 19.667 11.5 27s16.834 11 27.501 11h20c5.33301 0 9.66602 1.83301 12.999 5.5s5 8.16699 5 13.5v20c0 10.667 3.66699 19.667 11 27s16.333 11 27 11h77
c10.667 0 19.834 -3.66699 27.501 -11s11.5 -16.333 11.5 -27v-97c0 -5.33301 1.66699 -9.83301 5 -13.5s7.66602 -5.5 12.999 -5.5h20c10.667 0 19.834 -3.66699 27.501 -11s11.5 -16.333 11.5 -27v-174c0 -5.33301 1.83301 -9.83301 5.5 -13.5s7.83398 -5.5 12.501 -5.5
h20c10.667 0 19.834 -3.66699 27.501 -11s11.5 -16.333 11.5 -27v-174c0 -5.33301 1.83301 -9.83301 5.5 -13.5s7.83398 -5.5 12.501 -5.5h20c10.667 0 19.834 -3.66699 27.501 -11zM496.992 313c3.33301 3.33301 5.00098 7.33203 5.00098 11.999v42
c0 5.33301 -1.83301 9.66602 -5.5 12.999s-8.16699 5 -13.5 5h-20c-10.667 0 -19.667 3.83301 -27 11.5s-11 16.834 -11 27.501v174c0 5.33301 -1.66699 9.66602 -5 12.999s-7.66602 5 -12.999 5h-21c-10.667 0 -19.667 3.83301 -27 11.5s-11 16.834 -11 27.501v21
c0 4.66699 -1.66699 8.66699 -5 12s-7.33301 5 -12 5h-42c-4.66699 0 -8.83398 -1.66699 -12.501 -5s-5.5 -7.66602 -5.5 -12.999v-174c0 -10.667 -3.66699 -19.834 -11 -27.501s-16.333 -11.5 -27 -11.5h-21c-4.66699 0 -8.83398 -1.66699 -12.501 -5
s-5.5 -7.66602 -5.5 -12.999v-119c0 -4.66699 1.66699 -8.66699 5 -12s7.33301 -5 12 -5h274c4.66699 0 8.66699 1.66699 12 5zM358.993 988.499c7.33301 7.66699 16.3311 11.498 26.998 11.498h22c4.66699 0 8.66699 -1.66699 12 -5s5 -7.33301 5 -12v-22
c0 -10.667 -3.83301 -19.667 -11.5 -27s-16.834 -11 -27.501 -11h-20c-5.33301 0 -9.66602 -1.66699 -12.999 -5s-5 -7.66602 -5 -12.999v-20c0 -10.667 -3.66699 -19.834 -11 -27.501s-16.333 -11.5 -27 -11.5h-22c-4.66699 0 -8.66699 1.66699 -12 5s-5 7.33301 -5 12v22
c0 10.667 3.83301 19.667 11.5 27s16.834 11 27.501 11h20c4.66699 0 8.83398 1.83301 12.501 5.5s5.5 7.83398 5.5 12.501v20c0 10.667 3.66699 19.834 11 27.501z" />
    <glyph glyph-name="Acircumflex" unicode="&#xc2;" horiz-adv-x="696" 
d="M644.5 143c7.66699 -7.33301 11.4922 -16.333 11.4922 -27v-99c0 -4.66699 -1.66699 -8.66699 -5 -12s-7.33301 -5 -12 -5h-22c-10.667 -0 -19.667 3.83301 -27 11.5s-11 16.834 -11 27.501v97c0 5.33301 -1.83301 9.66602 -5.5 12.999s-8.16699 5 -13.5 5h-20
c-10.667 0 -19.667 3.83301 -27 11.5s-11 16.834 -11 27.501v77c0 -10.667 -3.83301 -19.834 -11.5 -27.501s-16.834 -11.5 -27.501 -11.5h-327c-5.33301 0 -9.83301 -1.66699 -13.5 -5s-5.5 -7.66602 -5.5 -12.999v-174c0 -10.667 -3.66699 -19.834 -11 -27.501
s-16.333 -11.5 -27 -11.5h-22c-4.66699 0 -8.66699 1.66699 -12 5s-5 7.33301 -5 12v176c0 10.667 3.83301 19.667 11.5 27s16.834 11 27.501 11h20c4.66699 0 8.83398 1.83301 12.501 5.5s5.5 8.16699 5.5 13.5v174c0 10.667 3.83301 19.667 11.5 27s16.834 11 27.501 11
h20c4.66699 0 8.83398 1.83301 12.501 5.5s5.5 8.16699 5.5 13.5v174c0 10.667 3.83301 19.667 11.5 27s16.834 11 27.501 11h20c5.33301 0 9.66602 1.83301 12.999 5.5s5 8.16699 5 13.5v20c0 10.667 3.66699 19.667 11 27s16.333 11 27 11h77
c10.667 0 19.834 -3.66699 27.501 -11s11.5 -16.333 11.5 -27v-97c0 -5.33301 1.66699 -9.83301 5 -13.5s7.66602 -5.5 12.999 -5.5h20c10.667 0 19.834 -3.66699 27.501 -11s11.5 -16.333 11.5 -27v-174c0 -5.33301 1.83301 -9.83301 5.5 -13.5s7.83398 -5.5 12.501 -5.5
h20c10.667 0 19.834 -3.66699 27.501 -11s11.5 -16.333 11.5 -27v-174c0 -5.33301 1.83301 -9.83301 5.5 -13.5s7.83398 -5.5 12.501 -5.5h20c10.667 0 19.834 -3.66699 27.501 -11zM496.992 313c3.33301 3.33301 5.00098 7.33203 5.00098 11.999v42
c0 5.33301 -1.83301 9.66602 -5.5 12.999s-8.16699 5 -13.5 5h-20c-10.667 0 -19.667 3.83301 -27 11.5s-11 16.834 -11 27.501v174c0 5.33301 -1.66699 9.66602 -5 12.999s-7.66602 5 -12.999 5h-21c-10.667 0 -19.667 3.83301 -27 11.5s-11 16.834 -11 27.501v21
c0 4.66699 -1.66699 8.66699 -5 12s-7.33301 5 -12 5h-42c-4.66699 0 -8.83398 -1.66699 -12.501 -5s-5.5 -7.66602 -5.5 -12.999v-174c0 -10.667 -3.66699 -19.834 -11 -27.501s-16.333 -11.5 -27 -11.5h-21c-4.66699 0 -8.83398 -1.66699 -12.501 -5
s-5.5 -7.66602 -5.5 -12.999v-119c0 -4.66699 1.66699 -8.66699 5 -12s7.33301 -5 12 -5h274c4.66699 0 8.66699 1.66699 12 5zM451.493 911.499c7.66699 -7.66699 11.5029 -16.8291 11.5029 -27.4961v-21c0 -4.66699 -1.66699 -8.66699 -5 -12s-7.33301 -5 -12 -5h-22
c-10.667 0 -19.667 3.66699 -27 11s-11 16.333 -11 27v20c0 5.33301 -2 9.83301 -6 13.5s-8.33301 5.5 -13 5.5h-40c-4.66699 0 -8.83398 -1.83301 -12.501 -5.5s-5.5 -8.16699 -5.5 -13.5v-20c0 -10.667 -3.83301 -19.667 -11.5 -27s-16.834 -11 -27.501 -11h-21
c-5.33301 0 -9.5 1.66699 -12.5 5s-4.5 7.33301 -4.5 12v21c0 10.667 3.66699 19.834 11 27.501s16.333 11.5 27 11.5h20c5.33301 0 9.83301 1.66699 13.5 5s5.5 7.66602 5.5 12.999v20c0 11.333 3.66699 20.666 11 27.999s16.666 11 27.999 11
c10.667 -0.666992 19.667 -4.83398 27 -12.501s11 -16.834 11 -27.501v-19c0 -4.66699 1.66699 -8.83398 5 -12.501s7.66602 -5.5 12.999 -5.5h20c10.667 0 19.834 -3.83301 27.501 -11.5z" />
    <glyph glyph-name="Atilde" unicode="&#xc3;" horiz-adv-x="696" 
d="M644.5 143c7.66699 -7.33301 11.4922 -16.333 11.4922 -27v-99c0 -4.66699 -1.66699 -8.66699 -5 -12s-7.33301 -5 -12 -5h-22c-10.667 -0 -19.667 3.83301 -27 11.5s-11 16.834 -11 27.501v97c0 5.33301 -1.83301 9.66602 -5.5 12.999s-8.16699 5 -13.5 5h-20
c-10.667 0 -19.667 3.83301 -27 11.5s-11 16.834 -11 27.501v77c0 -10.667 -3.83301 -19.834 -11.5 -27.501s-16.834 -11.5 -27.501 -11.5h-327c-5.33301 0 -9.83301 -1.66699 -13.5 -5s-5.5 -7.66602 -5.5 -12.999v-174c0 -10.667 -3.66699 -19.834 -11 -27.501
s-16.333 -11.5 -27 -11.5h-22c-4.66699 0 -8.66699 1.66699 -12 5s-5 7.33301 -5 12v176c0 10.667 3.83301 19.667 11.5 27s16.834 11 27.501 11h20c4.66699 0 8.83398 1.83301 12.501 5.5s5.5 8.16699 5.5 13.5v174c0 10.667 3.83301 19.667 11.5 27s16.834 11 27.501 11
h20c4.66699 0 8.83398 1.83301 12.501 5.5s5.5 8.16699 5.5 13.5v174c0 10.667 3.83301 19.667 11.5 27s16.834 11 27.501 11h20c5.33301 0 9.66602 1.83301 12.999 5.5s5 8.16699 5 13.5v20c0 10.667 3.66699 19.667 11 27s16.333 11 27 11h77
c10.667 0 19.834 -3.66699 27.501 -11s11.5 -16.333 11.5 -27v-97c0 -5.33301 1.66699 -9.83301 5 -13.5s7.66602 -5.5 12.999 -5.5h20c10.667 0 19.834 -3.66699 27.501 -11s11.5 -16.333 11.5 -27v-174c0 -5.33301 1.83301 -9.83301 5.5 -13.5s7.83398 -5.5 12.501 -5.5
h20c10.667 0 19.834 -3.66699 27.501 -11s11.5 -16.333 11.5 -27v-174c0 -5.33301 1.83301 -9.83301 5.5 -13.5s7.83398 -5.5 12.501 -5.5h20c10.667 0 19.834 -3.66699 27.501 -11zM496.992 313c3.33301 3.33301 5.00098 7.33203 5.00098 11.999v42
c0 5.33301 -1.83301 9.66602 -5.5 12.999s-8.16699 5 -13.5 5h-20c-10.667 0 -19.667 3.83301 -27 11.5s-11 16.834 -11 27.501v174c0 5.33301 -1.66699 9.66602 -5 12.999s-7.66602 5 -12.999 5h-21c-10.667 0 -19.667 3.83301 -27 11.5s-11 16.834 -11 27.501v21
c0 4.66699 -1.66699 8.66699 -5 12s-7.33301 5 -12 5h-42c-4.66699 0 -8.83398 -1.66699 -12.501 -5s-5.5 -7.66602 -5.5 -12.999v-174c0 -10.667 -3.66699 -19.834 -11 -27.501s-16.333 -11.5 -27 -11.5h-21c-4.66699 0 -8.83398 -1.66699 -12.501 -5
s-5.5 -7.66602 -5.5 -12.999v-119c0 -4.66699 1.66699 -8.66699 5 -12s7.33301 -5 12 -5h274c4.66699 0 8.66699 1.66699 12 5zM535.993 995.499c3.33301 -3 5.00391 -6.83301 5.00391 -11.5v-22c0 -10.667 -3.83301 -19.667 -11.5 -27s-16.834 -11 -27.501 -11h-20
c-4.66699 0 -8.83398 -1.83301 -12.501 -5.5s-5.5 -8.16699 -5.5 -13.5v-20c0 -10 -3.66699 -18.833 -11 -26.5s-16.333 -11.5 -27 -11.5c-11.333 0 -20.666 3.83301 -27.999 11.5s-11 16.834 -11 27.501v19c0 5.33301 -2 9.83301 -6 13.5s-8.33301 5.5 -13 5.5h-40
c-4.66699 0 -8.83398 -1.83301 -12.501 -5.5s-5.5 -8.16699 -5.5 -13.5v-20c0 -10.667 -3.83301 -19.667 -11.5 -27s-16.834 -11 -27.501 -11h-21c-4.66699 0 -8.66699 1.5 -12 4.5s-5 6.83301 -5 11.5v22c0 10.667 3.66699 19.834 11 27.501s16.333 11.5 27 11.5h20
c5.33301 0 9.83301 1.66699 13.5 5s5.5 7.66602 5.5 12.999v20c0 10 3.66699 18.833 11 26.5s16 11.5 26 11.5c11.333 0 20.833 -3.83301 28.5 -11.5s11.5 -16.834 11.5 -27.501v-19c0 -4.66699 1.66699 -8.83398 5 -12.501s7.66602 -5.5 12.999 -5.5h40
c5.33301 0 9.83301 1.83301 13.5 5.5s5.5 7.83398 5.5 12.501v20c0 10.667 3.66699 19.667 11 27s16.333 11 27 11h22c4.66699 0 8.66699 -1.5 12 -4.5z" />
    <glyph glyph-name="Adieresis" unicode="&#xc4;" horiz-adv-x="696" 
d="M644.5 143c7.66699 -7.33301 11.4922 -16.333 11.4922 -27v-99c0 -4.66699 -1.66699 -8.66699 -5 -12s-7.33301 -5 -12 -5h-22c-10.667 -0 -19.667 3.83301 -27 11.5s-11 16.834 -11 27.501v97c0 5.33301 -1.83301 9.66602 -5.5 12.999s-8.16699 5 -13.5 5h-20
c-10.667 0 -19.667 3.83301 -27 11.5s-11 16.834 -11 27.501v77c0 -10.667 -3.83301 -19.834 -11.5 -27.501s-16.834 -11.5 -27.501 -11.5h-327c-5.33301 0 -9.83301 -1.66699 -13.5 -5s-5.5 -7.66602 -5.5 -12.999v-174c0 -10.667 -3.66699 -19.834 -11 -27.501
s-16.333 -11.5 -27 -11.5h-22c-4.66699 0 -8.66699 1.66699 -12 5s-5 7.33301 -5 12v176c0 10.667 3.83301 19.667 11.5 27s16.834 11 27.501 11h20c4.66699 0 8.83398 1.83301 12.501 5.5s5.5 8.16699 5.5 13.5v174c0 10.667 3.83301 19.667 11.5 27s16.834 11 27.501 11
h20c4.66699 0 8.83398 1.83301 12.501 5.5s5.5 8.16699 5.5 13.5v174c0 10.667 3.83301 19.667 11.5 27s16.834 11 27.501 11h20c5.33301 0 9.66602 1.83301 12.999 5.5s5 8.16699 5 13.5v20c0 10.667 3.66699 19.667 11 27s16.333 11 27 11h77
c10.667 0 19.834 -3.66699 27.501 -11s11.5 -16.333 11.5 -27v-97c0 -5.33301 1.66699 -9.83301 5 -13.5s7.66602 -5.5 12.999 -5.5h20c10.667 0 19.834 -3.66699 27.501 -11s11.5 -16.333 11.5 -27v-174c0 -5.33301 1.83301 -9.83301 5.5 -13.5s7.83398 -5.5 12.501 -5.5
h20c10.667 0 19.834 -3.66699 27.501 -11s11.5 -16.333 11.5 -27v-174c0 -5.33301 1.83301 -9.83301 5.5 -13.5s7.83398 -5.5 12.501 -5.5h20c10.667 0 19.834 -3.66699 27.501 -11zM496.992 313c3.33301 3.33301 5.00098 7.33203 5.00098 11.999v42
c0 5.33301 -1.83301 9.66602 -5.5 12.999s-8.16699 5 -13.5 5h-20c-10.667 0 -19.667 3.83301 -27 11.5s-11 16.834 -11 27.501v174c0 5.33301 -1.66699 9.66602 -5 12.999s-7.66602 5 -12.999 5h-21c-10.667 0 -19.667 3.83301 -27 11.5s-11 16.834 -11 27.501v21
c0 4.66699 -1.66699 8.66699 -5 12s-7.33301 5 -12 5h-42c-4.66699 0 -8.83398 -1.66699 -12.501 -5s-5.5 -7.66602 -5.5 -12.999v-174c0 -10.667 -3.66699 -19.834 -11 -27.501s-16.333 -11.5 -27 -11.5h-21c-4.66699 0 -8.83398 -1.66699 -12.501 -5
s-5.5 -7.66602 -5.5 -12.999v-119c0 -4.66699 1.66699 -8.66699 5 -12s7.33301 -5 12 -5h274c4.66699 0 8.66699 1.66699 12 5zM242.993 911.999c7.33301 7.33301 16.334 11.001 27.001 11.001h22c4.66699 0 8.66699 -1.66699 12 -5s5 -7.33301 5 -12v-21
c0 -10.667 -3.83301 -19.834 -11.5 -27.501s-16.834 -11.5 -27.501 -11.5h-21c-4.66699 0 -8.66699 1.66699 -12 5s-5 7.33301 -5 12v22c0 10.667 3.66699 19.667 11 27zM396.994 912c7.33301 7.33301 16.333 11.001 27 11.001h22c4.66699 0 8.5 -1.66699 11.5 -5
s4.5 -7.33301 4.5 -12v-21c0 -10.667 -3.66699 -19.834 -11 -27.501s-16.333 -11.5 -27 -11.5h-22c-4.66699 0 -8.5 1.66699 -11.5 5s-4.5 7.33301 -4.5 12v22c0 10.667 3.66699 19.667 11 27z" />
    <glyph glyph-name="Aring" unicode="&#xc5;" horiz-adv-x="696" 
d="M644.5 143c7.66699 -7.33301 11.4922 -16.333 11.4922 -27v-99c0 -4.66699 -1.66699 -8.66699 -5 -12s-7.33301 -5 -12 -5h-22c-10.667 -0 -19.667 3.83301 -27 11.5s-11 16.834 -11 27.501v97c0 5.33301 -1.83301 9.66602 -5.5 12.999s-8.16699 5 -13.5 5h-20
c-10.667 0 -19.667 3.83301 -27 11.5s-11 16.834 -11 27.501v77c0 -10.667 -3.83301 -19.834 -11.5 -27.501s-16.834 -11.5 -27.501 -11.5h-327c-5.33301 0 -9.83301 -1.66699 -13.5 -5s-5.5 -7.66602 -5.5 -12.999v-174c0 -10.667 -3.66699 -19.834 -11 -27.501
s-16.333 -11.5 -27 -11.5h-22c-4.66699 0 -8.66699 1.66699 -12 5s-5 7.33301 -5 12v176c0 10.667 3.83301 19.667 11.5 27s16.834 11 27.501 11h20c4.66699 0 8.83398 1.83301 12.501 5.5s5.5 8.16699 5.5 13.5v174c0 10.667 3.83301 19.667 11.5 27s16.834 11 27.501 11
h20c4.66699 0 8.83398 1.83301 12.501 5.5s5.5 8.16699 5.5 13.5v174c0 10.667 3.83301 19.667 11.5 27s16.834 11 27.501 11h20c5.33301 0 9.66602 1.83301 12.999 5.5s5 8.16699 5 13.5v20c0 10.667 3.66699 19.667 11 27s16.333 11 27 11h77
c10.667 0 19.834 -3.66699 27.501 -11s11.5 -16.333 11.5 -27v-97c0 -5.33301 1.66699 -9.83301 5 -13.5s7.66602 -5.5 12.999 -5.5h20c10.667 0 19.834 -3.66699 27.501 -11s11.5 -16.333 11.5 -27v-174c0 -5.33301 1.83301 -9.83301 5.5 -13.5s7.83398 -5.5 12.501 -5.5
h20c10.667 0 19.834 -3.66699 27.501 -11s11.5 -16.333 11.5 -27v-174c0 -5.33301 1.83301 -9.83301 5.5 -13.5s7.83398 -5.5 12.501 -5.5h20c10.667 0 19.834 -3.66699 27.501 -11zM496.992 313c3.33301 3.33301 5.00098 7.33203 5.00098 11.999v42
c0 5.33301 -1.83301 9.66602 -5.5 12.999s-8.16699 5 -13.5 5h-20c-10.667 0 -19.667 3.83301 -27 11.5s-11 16.834 -11 27.501v174c0 5.33301 -1.66699 9.66602 -5 12.999s-7.66602 5 -12.999 5h-21c-10.667 0 -19.667 3.83301 -27 11.5s-11 16.834 -11 27.501v21
c0 4.66699 -1.66699 8.66699 -5 12s-7.33301 5 -12 5h-42c-4.66699 0 -8.83398 -1.66699 -12.501 -5s-5.5 -7.66602 -5.5 -12.999v-174c0 -10.667 -3.66699 -19.834 -11 -27.501s-16.333 -11.5 -27 -11.5h-21c-4.66699 0 -8.83398 -1.66699 -12.501 -5
s-5.5 -7.66602 -5.5 -12.999v-119c0 -4.66699 1.66699 -8.66699 5 -12s7.33301 -5 12 -5h274c4.66699 0 8.66699 1.66699 12 5zM440.993 988.999c7.33301 -7.33301 11 -16.333 11 -27s-3.66699 -19.667 -11 -27s-16.333 -11 -27 -11h-21
c-4.66699 0 -8.83398 -1.83301 -12.501 -5.5s-5.5 -8.16699 -5.5 -13.5v-20c0 -10 -3.66699 -18.833 -11 -26.5s-16 -11.5 -26 -11.5c-11.333 0 -20.833 3.83301 -28.5 11.5s-11.5 16.834 -11.5 27.501v19c0 5.33301 -1.83301 9.83301 -5.5 13.5s-7.83398 5.5 -12.501 5.5
h-20c-10.667 0 -19.834 3.66699 -27.501 11s-11.5 16.333 -11.5 27s3.83301 19.667 11.5 27s16.834 11 27.501 11h20c4.66699 0 8.83398 1.83301 12.501 5.5s5.5 8.16699 5.5 13.5v20c0 10 3.66699 18.833 11 26.5s16 11.5 26 11.5c11.333 0 20.833 -3.83301 28.5 -11.5
s11.5 -16.834 11.5 -27.501v-19c0 -5.33301 1.83301 -9.83301 5.5 -13.5s7.83398 -5.5 12.501 -5.5h20h1c10.667 0 19.667 -3.66699 27 -11zM374.993 961.999v19.998c0 5.33301 -1.83301 9.66602 -5.5 12.999s-7.83398 5 -12.501 5h-40
c-5.33301 0 -9.83301 -1.66699 -13.5 -5s-5.5 -7.66602 -5.5 -12.999v-19v-1v-20c0 -5.33301 1.83301 -9.66602 5.5 -12.999s8.16699 -5 13.5 -5h40c4.66699 0 8.83398 1.83301 12.501 5.5s5.5 7.83398 5.5 12.501v19v1z" />
    </font>
</defs>
</svg>
