<?xml version="1.0" standalone="no"?>
<!DOCTYPE svg PUBLIC "-//W3C//DTD SVG 1.1//EN" "http://www.w3.org/Graphics/SVG/1.1/DTD/svg11.dtd" >
<svg>
<metadata>
Created by FontForge 20090914 at Sat Sep 11 23:10:11 2021
 By www-data
</metadata>
<defs>
<font id="DigitanyRegular" horiz-adv-x="728" >
  <font-face 
    font-family="Digitany"
    font-weight="400"
    font-stretch="normal"
    units-per-em="1000"
    panose-1="0 0 0 0 0 0 0 0 0 0"
    ascent="800"
    descent="-200"
    x-height="544"
    cap-height="700"
    bbox="32 -252 1416 856"
    underline-thickness="0"
    underline-position="0"
    unicode-range="U+000A-U+FB06"
  />
<missing-glyph horiz-adv-x="527" 
d="M477 700v-700h-427v700h427zM263 371l186 309h-371zM71 650v-601l180 301zM79 21h370l-185 308zM457 47v605l-181 -302z" />
    <glyph glyph-name=".notdef" horiz-adv-x="527" 
d="M477 700v-700h-427v700h427zM263 371l186 309h-371zM71 650v-601l180 301zM79 21h370l-185 308zM457 47v605l-181 -302z" />
    <glyph glyph-name=".null" horiz-adv-x="0" 
 />
    <glyph glyph-name=".null" horiz-adv-x="0" 
 />
    <glyph glyph-name="controlLF" unicode="&#xa;" horiz-adv-x="0" 
 />
    <glyph glyph-name="nonmarkingreturn" unicode="&#xd;" horiz-adv-x="343" 
 />
    <glyph glyph-name="space" unicode=" " horiz-adv-x="343" 
 />
    <glyph glyph-name="exclam" unicode="!" horiz-adv-x="184" 
d="M117 103v-26h26v-52h-26v-26h-51v26h-26v52h26v26h51zM144 699v-544h-105v544h105z" />
    <glyph glyph-name="quotedbl" unicode="&#x22;" horiz-adv-x="210" 
d="M92 597h-52v104h52v-104zM144 597h-26v104h52v-104h-26z" />
    <glyph glyph-name="numbersign" unicode="#" horiz-adv-x="676" 
d="M584 492h52v-26h-78v-130h-26v-104h52v-26h-78v-104h-26v-104h-78v104h26v104h-233v-104h-26v-104h-78v104h26v104h-78v26h104v104h26v130h-78v26h104v104h26v104h78v-104h-26v-104h233v104h26v104h78v-104h-26v-104zM480 336v130h-233v-130h-26v-104h233v104h26z" />
    <glyph glyph-name="dollar" unicode="$" 
d="M533 675v-26h26v-26h26v-26h26v26h26v78h26v-298h-26v65h-26v26h-26v52h-26v26h-26v26h-26v26h-26v26h-26v26h-78v-285h104v-26h78v-26h52v-26h26v-26h26v-26h26v-130h-26v-26h-26v-26h-26v-26h-52v-26h-52v26h26v26h26v26h26v104h-26v26h-52v26h-52v26h-78v-259h156v-26
h-156v-78h-26v78h-130v26h-26v26h-52v26h-26v26h-26v-26h-26v-78h-26v259h26v-26h26v-26h26v-52h26v-26h26v-26h26v-26h26v-26h26v-26h104v285h-104v26h-78v21h-52v26h-26v26h-26v26h-26v134h26v26h26v26h26v26h52v26h52v-26h-26v-26h-26v-26h-26v-104h26v-26h52v-26h52v-26
h78v259h-156v26h156v78h26v-78h104v-26z" />
    <glyph glyph-name="percent" unicode="%" 
d="M143 415v26h-52v26h-26v26h-26v130h26v26h26v26h52v26h104v-26h52v-26h26v-26h26v-130h-26v-26h-26v-26h-52v-26h-104zM169 467v-26h52v26h26v26h26v130h-26v26h-26v26h-52v-26h-26v-26h-26v-130h26v-26h26zM688 208v-130h-26v-26h-26v-26h-52v-26h-104v26h-52v26h-26v26
h-26v130h26v26h26v26h52v26h104v-26h52v-26h26v-26h26zM610 208h-26v26h-26v26h-52v-26h-26v-26h-26v-130h26v-26h26v-26h52v26h26v26h26v130zM390 325h-26v-52h-26v-52h-26v-52h-26v-52h-26v-52h-26v-65h-52v65h26v52h26v52h26v52h26v52h26v52h26v52h26v52h26v52h26v52h26
v52h26v52h26v65h52v-65h-26v-52h-26v-52h-26v-52h-26v-52h-26v-52h-26v-52z" />
    <glyph glyph-name="ampersand" unicode="&#x26;" horiz-adv-x="782" 
d="M715 26h26v-26h-156v26h-26v26h-52v-26h-52v-26h-287v26h-52v26h-52v52h-26v156h26v52h26v26h52v26h78v26h-26v26h-26v26h-26v52h-26v78h26v52h26v26h52v26h52v26h156v-26h52v-26h52v-26h26v-52h26v-78h-26v-52h-26v-26h-52v-26h-24h-26h-2v-26h-76v-26h26v-26h26v-26h26
v-26h26v-26h26v-26h26v-26h26v-26h26v-26h26v52h26v26h26v52h26v26h26v52h26v-156h-26v-26h-26v-26h-52v-52h26v-26h26v-26h52h-1zM220 493v-26h26v-26h26v-26h26v-26h102v26h26v26h26v26h28v130h-26v26h-26v26h-26v26h-104v-26h-26v-26h-26v-26h-26v-104zM507 104h-28v26
h-24v26h-26v26h-26v26h-26v26h-26v26h-26v26h-26v26h-26v26h-54v-26h-26v-26h-26v-26h-26v-156h26v-26h26v-26h52v-26h184v26h52v26h26v26z" />
    <glyph glyph-name="quotesingle" unicode="'" horiz-adv-x="132" 
d="M93 597h-52v104h51z" />
    <glyph glyph-name="parenleft" unicode="(" horiz-adv-x="365" 
d="M144 544v-389h26v-52h26v-52h26v-52h26v-26h26v-26h26v-26h26v-26h-52v26h-52v26h-26v26h-26v26h-26v26h-26v26h-26v52h-26v52h-26v389h26v52h26v52h26v26h26v26h26v26h26v26h26v26h52v26h52v-26h-26v-26h-26v-26h-26v-26h-26v-52h-26v-52h-26v-52h-26z" />
    <glyph glyph-name="parenright" unicode=")" horiz-adv-x="365" 
d="M325 544v-389h-26v-52h-26v-52h-26v-26h-26v-26h-26v-26h-26v-26h-26v-26h-52v-26h-52v26h26v26h26v26h26v26h26v52h26v52h26v52h26v389h-26v52h-26v52h-26v52h-26v26h-26v26h-26v26h-26v26h52v-26h52v-26h26v-26h26v-26h26v-26h26v-26h26v-52h26v-52h26z" />
    <glyph glyph-name="asterisk" unicode="*" horiz-adv-x="210" 
d="M66 565v26h26v-26h-26zM170 643v-26h-52v-26h-26v26h-52v26h52v26h26v-26h52zM118 565v26h26v-26h-26zM66 669v26h26v-26h-26zM118 669v26h26v-26h-26z" />
    <glyph glyph-name="plus" unicode="+" horiz-adv-x="391" 
d="M351 376v-52h-130v-130h-52v130h-130v52h130v130h52v-130h130z" />
    <glyph glyph-name="comma" unicode="," horiz-adv-x="184" 
d="M66 -52v26h26v-26h-26zM144 78v-78h-26v-26h-26v26h-26v26h-26v52h26v26h52v-26h26z" />
    <glyph glyph-name="hyphen" unicode="-" horiz-adv-x="391" 
d="M352 376v-52h-312v52h312z" />
    <glyph glyph-name="period" unicode="." horiz-adv-x="184" 
d="M144 78v-52h-26v-26h-52v26h-26v52h26v26h52v-26h26z" />
    <glyph glyph-name="slash" unicode="/" horiz-adv-x="443" 
d="M403 700v-65h-26v-52h-26v-52h-26v-52h-26v-52h-26v-52h-26v-52h-26v-52h-26v-52h-26v-52h-26v-52h-26v-52h-26v-65h-52v65h26v52h26v52h26v52h26v52h26v52h26v52h26v52h26v52h26v52h26v52h26v52h26v65h52z" />
    <glyph glyph-name="zero" unicode="0" horiz-adv-x="703" 
d="M222 0v26h-52v26h-52v26h-26v52h-26v26h-26v389h26v26h26v52h26v26h52v26h52v26h259v-26h52v-26h52v-26h26v-52h26v-26h26v-389h-26v-26h-26v-52h-26v-26h-52v-26h-52v-26h-259zM326 674h-78v-26h-26v-26h-26v-26h-26v-52h-26v-389h26v-52h26v-26h26v-26h26v-26h207v26
h26v26h26v26h26v52h26v389h-26v52h-26v26h-26v26h-26v26h-129z" />
    <glyph glyph-name="one" unicode="1" horiz-adv-x="340" 
d="M39 596h26v26h26v26h26v26h26v26h78v-648h26v-26h52v-26h-259v26h52v26h26v544h-26v-26h-52z" />
    <glyph glyph-name="two" unicode="2" horiz-adv-x="651" 
d="M172 157v-104h26v-26h259v26h52v52h52v52h26v52h26v-130h-26v-78h-544v26h26v181h26v52h26v26h52v26h52v26h52v26h104v26h52v26h52v26h26v156h-26v26h-26v26h-26v26h-156v-26h-52v-26h-26v-26h-26v-26h-26v-52h-26v-26h-26v-52h-26v156h26v26h26v26h51v26h51v26h233v-26
h52v-26h52v-26h26v-52h26v-104h-26v-52h-26v-26h-52v-26h-52v-26h-78v-26h-104v-26h-52v-26h-26v-26h-26v-78z" />
    <glyph glyph-name="three" unicode="3" horiz-adv-x="703" 
d="M403 700h78v-26h52v-26h52v-26h26v-52h26v-78h-26v-52h-26v-26h-52v-26h-52v-26h78v-26h52v-26h26v-52h26v-156h-26v-52h-52v-26h-52v-26h-311v26h-26h-51v26h-51v26h-26v26h-26v156h26v-52h26v-26h26v-52h26v-26h26v-26h26v-26h52v-26h207v26h52v26h26v26h26v156h-26v26
h-26v26h-26v26h-26v26h-130v26h130v26h26v26h26v26h26v130h-26v26h-26v26h-26v26h-52h-156v-26h-26v-26h-26v-26h-26v-52h-26v-26h-26v-52h-26v156h26v26h26v26h51v26h207z" />
    <glyph glyph-name="four" unicode="4" horiz-adv-x="781" 
d="M482 571h-26v-26h-26v-26h-26v-26h-26v-26h-26v-26h-26v-26h-26v-26h-26v-26h-26v-26h-26v-26h-26v-26h-26v-26h-26v-26h-26v-26h-26v-26h26v-26h337v26h26zM65 232v26h26v26h26v26h26v26h26v26h26v26h26v26h26v26h26v26h26v26h26v26h26v26h26v26h26v26h26v26h26v26h26
v26h26v26h78v-544h26v26h52v52h52v52h26v-104h-26v-52h-130v-78h26v-26h52v-26h-259v26h52v26h26v78h-415v26h-26v78z" />
    <glyph glyph-name="five" unicode="5" horiz-adv-x="703" 
d="M585 700v-78h26v-130h-26v52h-26v52h-52v52h-52v26h-207v-52h-26v-78h-26v-78h-26v-26h78v26h181v-26h78v-26h78v-26h26v-26h26v-26h26v-207h-26v-26h-26v-26h-26v-26h-52v-26h-52v-26h-259v26h-78v26h-51v26h-26v26h-26v156h26v-52h26v-26h26v-52h26v-26h26v-26h26v-26
h52v-26h207v26h26v26h26v26h26v26h26v207h-26v26h-26v26h-26v26h-104v26h-104v-26h-104v-26h-130v26h26v52h26v78h26v78h26v78h441z" />
    <glyph glyph-name="six" unicode="6" horiz-adv-x="677" 
d="M481 701h26v-26h26v0h26v-26h26v-26h26v-156h-26v52h-26v26h-26v52h-26v26h-26v26h-26h-26v26h-103v0h-78v-26h-26v-26h-26v-26h-26v-52h-26v-130h26v26h52v26h233v-26h52v-26h52v-26h26v-52h26v-26h26v-156h-26v-26h-26v-52h-26v-26h-52v-26h-52v-26h-233v26h-52v26h-52
v26h-26v52h-26v26h-26v363h26v52h26v52h26v26h52v26h52v26h74zM144 312v-156h26v-52h26v-26h26v-26h26v-26h181v26h26v26h26v26h26v52h26v156h-26v52h-26v26h-26v26h-26v26h-181v-26h-26v-26h-26v-26h-26v-52h-26z" />
    <glyph glyph-name="seven" unicode="7" horiz-adv-x="703" 
d="M611 596h-26v-26h-26v-52h-26v-52h-26v-52h-26v-52h-26v-52h-26v-52h-26v-52h-26v-52h-26v-52h-26v-52h-26v-52h-104h-26h-26v26h26v26h26v52h26v52h26v52h26v52h26v52h26v52h26v52h26v52h26v52h26v52h26v52h26v52h26v0h-285v0h-26v-26h-52v-52h-52v-52h-26v-52h-26v130
h26v78h544h26h26v-26h-26v-26h-26z" />
    <glyph glyph-name="eight" unicode="8" horiz-adv-x="703" 
d="M169 0v26h-52v26h-52v52h-26v156h26v52h26v26h52v26h78v26h-52v26h-52v26h-26v52h-26v78h26v52h26v26h52v26h52v26h259v-26h52v-26h52v-26h26v-52h26v-78h-26v-52h-26v-26h-52v-26h-52v-26h78v-26h52v-26h26v-52h26v-156h-26v-52h-52v-26h-52v-26h-181h-182zM247 674v-26
h-26v-26h-26v-26h-26v-130h26v-26h26v-26h26v-26h207v26h26v26h26v26h26v130h-26v26h-26v26h-26v26h-207zM352 363h-104v-26h-26v-26h-26v-26h-26v-26h-26v-156h26v-26h26v-26h52v-26h207v26h52v26h26v26h26v156h-26v26h-26v26h-26v26h-26v26h-104h1z" />
    <glyph glyph-name="nine" unicode="9" horiz-adv-x="677" 
d="M196 -1h-26v26h-26v0h-26v26h-26v26h-26v156h26v-52h26v-26h26v-52h26v-26h26v-26h26v0h26v-26h103v0h78v26h26v26h26v26h26v52h26v130h-26v-26h-52v-26h-233v26h-52v26h-52v26h-26v52h-26v26h-26v156h26v26h26v52h26v26h52v26h52v26h233v-26h52v-26h52v-26h26v-52h26
v-26h26v-363h-26v-52h-26v-52h-26v-26h-52v-26h-52v-26h-74zM533 544h-26v52h-26v26h-26v26h-26v26h-181v-26h-26v-26h-26v-26h-26v-52h-26v-156h26v-52h26v-26h26v-26h26v-26h181v26h26v26h26v26h26v52h26v156z" />
    <glyph glyph-name="colon" unicode=":" horiz-adv-x="184" 
d="M118 247h26v-52h-26v-26h-52v26h-26v52h26v26h52v-26zM144 506v-52h-26v-26h-52v26h-26v52h26v26h52v-26h26z" />
    <glyph glyph-name="semicolon" unicode=";" horiz-adv-x="184" 
d="M66 117v26h26v-26h-26zM144 506v-52h-26v-26h-52v26h-26v52h26v26h52v-26h26zM118 247h26v-78h-26v-26h-26v26h-26v26h-26v52h26v26h52v-26z" />
    <glyph glyph-name="less" unicode="&#x3c;" horiz-adv-x="391" 
d="M351 493v-52h-52v-26h-52v-26h-52v-26h-52v-26h52v-26h52v-26h52v-26h52v-52h-52v26h-52v26h-52v26h-52v26h-52v26h-52v26h52v26h52v26h52v26h52v26h52v26h52z" />
    <glyph glyph-name="equal" unicode="=" horiz-adv-x="391" 
d="M40 312h312v-52h-312v52zM352 442v-52h-312v52h312z" />
    <glyph glyph-name="greater" unicode="&#x3e;" horiz-adv-x="391" 
d="M351 363v-26h-52v-26h-52v-26h-52v-26h-52v-26h-52v-26h-52v52h52v26h52v26h52v26h52v26h-52v26h-52v26h-52v26h-52v52h52v-26h52v-26h52v-26h52v-26h52v-26h52z" />
    <glyph glyph-name="question" unicode="?" horiz-adv-x="624" 
d="M588 571v-104h-26v-52h-26v-26h-52v-26h-52v-26h-78v-26h-26v-156h-105v181h26v26h104v26h52v26h52v26h26v156h-26v26h-26v26h-26v26h-156v-26h-52v-26h-26v-26h-26v-26h-26v-52h-26v-26h-26v-52h-26v156h26v26h26v26h51v26h51v26h233v-26h52v-26h52v-26h26v-52zM302 78
h26v-52h-26v-26h-51v26h-26v52h26v26h52z" />
    <glyph glyph-name="at" unicode="@" horiz-adv-x="1091" 
d="M1051 516v-311h-26v-52h-26v-26h-26v-26h-52v-26h-156v26h-52v26h-26v26h-26v-26h-26v-26h-26v-26h-156v26h-52v26h-52v26h-26v26h-26v52h-26v65h-26v143h26v52h26v52h26v26h26v26h52v26h52v26h156v-26h26v-26h26v-26h26v26h26v26h52v26h26v-544h26h51v26h26v26h26v52h26
v311h-26v52h-26v52h-26v52h-26v26h-26v26h-26v26h-52v26h-389v-26h-52v-26h-26v-26h-26v-26h-26v-52h-26v-52h-26v-52h-26v-337h26v-52h26v-52h26v-52h26v-26h26v-26h26v-26h52v-26h389v26h52v26h49v26h24v26h84v-26h-26v-26h-52v-26h-52v-26h-52v-26h-441v26h-52v26h-52v26
h-52v26h-26v26h-26v52h-26v52h-26v52h-26v337h26v52h26v52h26v52h26v26h26v26h52v26h52v26h52v26h441v-26h52v-26h52v-26h52v-26h26v-26h26v-52h26v-52h26v-52zM688 491h-26v52h-26v26h-26v26h-26v26h-104v-26h-26v-26h-26v-26h-26v-52h-26v-52h-26v-143h26v-65h26v-52h26
v-26h26v-26h26v-26h104v26h26v26h26v26h26v52h26v260z" />
    <glyph glyph-name="A" unicode="A" horiz-adv-x="961" 
d="M869 26h52v-26h-337v26h52v26h26v26h26v52h-26v52h-26v26h-390v-26h-26v-52h-26v-52h26v-26h26v-26h52v-26h-259v26h52v26h26v26h26v52h26v52h26v52h26v52h26v52h26v52h26v52h26v52h26v52h26v52h26v52h-26v26h-52v26h207v-52h26v-52h26v-52h26v-52h26v-52h26v-52h26v-52
h26v-52h26v-52h26v-52h26v-52h26v-52h26v-26h26zM611 259v26h-26v52h-26v52h-26v52h-26v52h-26v52h-26v52h-26v-52h-26v-52h-26v-52h-26v-52h-26v-52h-26v-52h-26v-26h26v-26h285v26h27z" />
    <glyph glyph-name="B" unicode="B" horiz-adv-x="754" 
d="M714 258v-181h-26v-26h-26v-26h-52v-26h-570v26h52v26h26v597h-26v26h-52v26h544v-26h52v-26h26v-26h26v-181h-26v-26h-26v-26h-52v-26h-52v-26h78v-26h52v-26h26v-26zM221 362h285v26h26v26h26v26h26v181h-26v26h-26v26h-285v-26h-26v-285zM610 258h-26v26h-26v26h-52
v26h-285v-285h26v-26h311v26h26v26h26v181z" />
    <glyph glyph-name="C" unicode="C" horiz-adv-x="754" 
d="M688 232h26v-130h-26v-26h-26v-26h-52v-26h-52v-26h-285v26h-52v26h-52v26h-26v26h-26v52h-26v52h-26v52h-26v193h26v40h26v52h26v52h26v26h26v26h52v26h52v26h285v-26h52v-26h26v-26h26v26h26v52h26v-259h-26v52h-26v26h-26v52h-26v26h-26v26h-26v26h-26v26h-233v-26
h-26v-26h-26v-26h-26v-52h-26v-52h-26v-40h-26v-193h26v-52h26v-52h26v-52h26v-26h26v-26h26v-26h233v26h52v26h26v26h26v26h26v52h26v51z" />
    <glyph glyph-name="D" unicode="D" horiz-adv-x="754" 
d="M714 494v-285h-26v-52h-26v-52h-26v-26h-26v-26h-52v-26h-52v-26h-467v26h52v26h26v596h-26v26h-52v26h467v-26h52v-26h52v-26h26v-26h26v-52h26v-52zM610 493h-26v52h-26v52h-26v26h-26v26h-26v26h-233v-26h-26v-622h259v26h26v26h26v26h26v52h26v52h26v284z" />
    <glyph glyph-name="E" unicode="E" 
d="M688 206v-130h-26v-78h-622v26h52v26h26v596h-26v26h-52v26h596v-78h26v-130h-26v52h-26v52h-52v52h-52v26h-259v-26h-26v-285h130v26h26v26h26v52h26v-233h-26v52h-26v26h-26v26h-130v-285h26v-26h285v26h52v52h52v52h26v52z" />
    <glyph glyph-name="F" unicode="F" horiz-adv-x="676" 
d="M637 621v-130h-26v52h-26v52h-52v52h-52v26h-234v-26h-26v-285h129v26h26v26h26v52h26v-233h-26v52h-26v26h-26v26h-129v-285h26v-26h52v-26h-259v26h52v26h26v596h-26v26h-52v26h570v-78z" />
    <glyph glyph-name="G" unicode="G" horiz-adv-x="806" 
d="M714 232v-233h-26v26h-26v26h-26v-26h-78v-26h-285v26h-52v26h-52v26h-26v26h-26v52h-26v52h-26v52h-26v193h26v40h26v52h26v52h26v26h26v26h52v26h52v26h285v-26h52v-26h26v-26h26v26h26v52h26v-259h-26v52h-26v26h-26v52h-26v26h-26v26h-26v26h-26v26h-233v-26h-26v-26
h-26v-26h-26v-52h-26v-52h-26v-40h-26v-193h26v-52h26v-52h26v-52h26v-26h26v-26h26v-26h233v26h52v26h26v233h-26v26h-130v26h312v-26h-26v-26h-26v-78v-1z" />
    <glyph glyph-name="H" unicode="H" horiz-adv-x="832" 
d="M716 648v-596h26v-26h52v-26h-259v26h52v26h26v259h-26v26h-337v-26h-26v-259h26v-26h52v-26h-259v26h52v26h26v596h-26v26h-52v26h258v-26h-52v-26h-26v-285h389v285h-26v26h-52v26h258v-26h-52v-26h-24z" />
    <glyph glyph-name="I" unicode="I" horiz-adv-x="339" 
d="M221 648v-596h26v-26h52v-26h-259v26h52v26h26v596h-26v26h-52v26h259v-26h-52v-26h-26z" />
    <glyph glyph-name="J" unicode="J" horiz-adv-x="676" 
d="M559 131h-26v-52h-26v-26h-26v-26h-78v-26h-259v26h-52v26h-52v207h26v-52h26v-52h26v-52h26v-26h26v-26h26v-26h156v26h52v26h26v26h26v544h-26v26h-52v26h259v-26h-52v-26h-26v-517z" />
    <glyph glyph-name="K" unicode="K" horiz-adv-x="832" 
d="M792 26v-26h-311v26h52v26h26v26h-26v26h-26v26h-26v26h-26v26h-26v26h-26v26h-26v26h-26v26h-26v26h-26v-26h-26v-26h-26v-26h-26v-181h26v-26h52v-26h-259v26h52v26h26v596h-26v26h-52v26h259v-26h-52v-26h-26v-363h26v26h26v26h26v26h26v26h26v26h26v26h26v26h26v26
h26v26h26v26h26v26h26v26h26v52h-26v26h-26v26h207v-26h-52v-26h-26v-26h-26v-26h-26v-26h-26v-26h-26v-26h-26v-26h-26v-26h-26v-26h-26v-26h-26v-26h-26v-26h52v-26h26v-26h26v-26h26v-26h26v-26h26v-26h26v-26h26v-26h26v-26h26v-26h26v-26h26v-26h26v-26h52z" />
    <glyph glyph-name="L" unicode="L" 
d="M688 208v-130h-26v-78h-622v26h52v26h26v596h-26v26h-52v26h259v-26h-52v-26h-26v-597h26v-26h285v26h52v52h52v52h26v52z" />
    <glyph glyph-name="M" unicode="M" horiz-adv-x="987" 
d="M868 648v-596h26v-26h52v-26h-259v26h52v26h26v467h-26v-52h-26v-52h-26v-52h-26v-52h-26v-52h-26v-52h-26v-52h-26v-52h-26v-52h-26v-52h-104v52h-26v52h-26v52h-26v52h-26v52h-26v52h-26v52h-26v52h-26v52h-26v52h-26v-467h26v-26h52v-26h-181v26h52v26h26v596h-26v26
h-52v26h156v-26h26v-52h26v-52h26v-52h26v-52h26v-52h26v-52h26v-52h26v-52h26v-52h26v-52h26v-52h26v52h26v52h26v52h26v52h26v52h26v52h26v52h26v52h26v52h26v52h26v52h26v26h156v-26h-52v-26h-28z" />
    <glyph glyph-name="N" unicode="N" horiz-adv-x="832" 
d="M791 700v-26h-52v-26h-26v-648h-26v26h-26v26h-26v26h-26v26h-26v26h-26v26h-26v26h-26v26h-26v26h-26v26h-26v26h-26v26h-26v26h-26v26h-26v26h-26v26h-26v26h-26v26h-26v26h-26v26h-26v26h-26v-493h26v-26h52v-26h-181v26h52v26h26v596h-26v26h-52v26h130v-26h26v-26
h26v-26h26v-26h26v-26h26v-26h26v-26h26v-26h26v-26h26v-26h26v-26h26v-26h26v-26h26v-26h26v-26h26v-26h26v-26h26v-26h26v-26h26v-26h26v467h-26v26h-52v26h181z" />
    <glyph glyph-name="O" unicode="O" horiz-adv-x="832" 
d="M792 441v-181h-26v-52h-26v-52h-26v-52h-26v-26h-26v-26h-52v-26h-52v-26h-285v26h-52v26h-52v26h-26v26h-26v52h-26v52h-26v52h-26v181h26v52h26v52h26v52h26v26h26v26h52v26h52v26h285v-26h52v-26h52v-26h26v-26h26v-52h26v-52h26v-52h26zM688 441h-26v52h-26v52h-26
v52h-26v26h-26v26h-26v26h-233v-26h-26v-26h-26v-26h-26v-52h-26v-52h-26v-52h-26v-181h26v-52h26v-52h26v-52h26v-26h26v-26h26v-26h233v26h26v26h26v26h26v52h26v52h26v52h26v181z" />
    <glyph glyph-name="P" unicode="P" 
d="M247 256v26h26v-26h-26zM687 544v-159h-26v-52h-26v-26h-26v-26h-52v-26h-52v-26h-233v26h207v26h26v26h26v26h26v52h26v159h-26v52h-26v26h-26v26h-26v26h-233v-26h-26v-340h26v-26h-26v-230h26v-26h52v-26h-259v26h52v26h26v596h-26v26h-52v26h467v-26h52v-26h52v-26
h26v-26h26v-52h25z" />
    <glyph glyph-name="Q" unicode="Q" horiz-adv-x="832" 
d="M792 441v-181h-26v-52h-26v-52h-26v-52h-26v-26h-26v-26h-52v-26h-52v-26h13v-52h26v-26h26v-26h26v-26h117v-26h-143v26h-52v26h-52v26h-26v26h-26v52h-194v26h-52v26h-52v26h-26v26h-26v52h-26v52h-26v52h-26v181h26v52h26v52h26v52h26v26h26v26h52v26h52v26h285v-26
h52v-26h52v-26h26v-26h26v-52h26v-52h26v-52h26zM687 349v91h-26v52h-26v52h-26v52h-26v26h-26v26h-26v26h-233v-26h-26v-26h-26v-26h-26v-52h-26v-52h-26v-52h-26v-181h26v-52h26v-52h26v-52h26v-26h26v-26h26v-26h143v26h-26v57h-26v52h-26v52h-26v26h-26v26h-26v26h-78
v26h104v-26h52v-26h52v-26h26v-26h26v-52h26v-52h26v-57h13v0h26v26h26v26h26v52h26v52h26v52h26v91z" />
    <glyph glyph-name="R" unicode="R" horiz-adv-x="780" 
d="M247 256v26h26v-26h-26zM739 26v-26h-259v26h52v26h-26v26h-26v26h-26v26h-26v26h-26v26h-26v26h-26v23h-78v26h207v26h26v26h26v26h26v52h26v159h-26v52h-26v26h-26v26h-26v26h-233v-26h-26v-340h26v-26h-26v-230h26v-26h52v-26h-259v26h52v26h26v596h-26v26h-52v26h467
v-26h52v-26h52v-26h26v-26h26v-52h26v-159h-26v-52h-26v-26h-26v-26h-52v-26h-52v-26h-45v-23h71v-26h26v-26h26v-26h26v-26h26v-26h26v-26h26v-26h51z" />
    <glyph glyph-name="S" unicode="S" 
d="M455 673h-259v26h285v-26h52v-26h26v-26h26v-26h26v26h26v78h26v-298h-26v65h-26v26h-26v52h-26v26h-26v26h-26v26h-26v26h-26v25zM248 26h285v-26h-311v26h-26v26h-52v26h-26v26h-26v-26h-26v-78h-26v259h26v-26h26v-26h26v-52h26v-26h26v-26h26v-26h26v-26h26v-25z
M689 260v-130h-26v-26h-26v-26h-26v-26h-52v-26h-52v26h26v26h26v26h26v104h-26v26h-52v26h-52v26h-105v26h-104v26h-78v21h-52v26h-26v26h-26v26h-26v134h26v26h26v26h26v26h52v26h52v-26h-26v-26h-26v-26h-26v-104h26v-26h52v-26h52v-26h105v-26h104v-26h78v-26h52v-26h26
v-26h26v-26z" />
    <glyph glyph-name="T" unicode="T" horiz-adv-x="780" 
d="M741 622v-130h-26v52h-26v52h-52v52h-52v26h-117v-26h-26v-597h26v-26h52v-26h-259v26h52v26h26v597h-26v26h-117v-26h-52v-52h-52v-52h-26v-52h-26v130h26v78h648v-78h27z" />
    <glyph glyph-name="U" unicode="U" horiz-adv-x="832" 
d="M537 700h258v-26h-52v-26h-26v-519h-26v-52h-26v-26h-26v-26h-78v-26h-285v26h-78v26h-26v26h-26v52h-26v519h-26v26h-52v26h258v-26h-52v-26h-26v-544h26v-26h26v-26h52v-26h181v26h52v26h26v26h26v544h-26v26h-52v26h4z" />
    <glyph glyph-name="V" unicode="V" horiz-adv-x="961" 
d="M923 700v-26h-52v-26h-26v-26h-26v-52h-26v-52h-26v-52h-26v-52h-26v-52h-26v-52h-26v-52h-26v-52h-26v-52h-26v-52h-26v-52h-26v-52h-104v52h-26v52h-26v52h-26v52h-26v52h-26v52h-26v52h-26v52h-26v52h-26v52h-26v52h-26v52h-26v26h-26v26h-52v26h337v-26h-52v-26h-26
v-26h-26v-52h26v-52h26v-52h26v-52h26v-52h26v-52h26v-52h26v-52h26v-52h26v-52h26v52h26v52h26v52h26v52h26v52h26v52h26v52h26v52h26v52h26v52h-26v26h-26v26h-52v26h261z" />
    <glyph glyph-name="W" unicode="W" horiz-adv-x="1324" 
d="M562 52h-26v-52h-104v52h-26v52h-26v52h-26v52h-26v52h-26v52h-26v52h-26v52h-26v52h-26v52h-26v52h-26v52h-26v26h-26v26h-52v26h337v-26h-52v-26h-26v-26h-26v-52h26v-52h26v-52h26v-52h26v-52h26v-52h26v-52h26v-52h26v-52h26v-52h26v52h26v52h26v52h26v52h26v52h-26
v52h-26v52h-26v52h-26v52h-26v52h-26v26h-26v26h-26v26h493v-26h-52v-26h-26v-26h-26v-52h-26v-52h-26v-52h-26v-104h26v-52h26v-52h26v-52h26v-52h26v-52h26v52h26v52h26v52h26v52h26v52h26v52h26v52h26v52h26v52h26v52h-26v26h-26v26h-52v26h259v-26h-52v-26h-26v-26h-26
v-52h-26v-52h-26v-52h-26v-52h-26v-52h-26v-52h-26v-52h-26v-52h-26v-52h-26v-52h-26v-52h-26v-52h-104v52h-26v52h-26v52h-26v52h-26v52h-52v-52h-26v-52h-26v-52h-26zM665 674v-26h-26v-78h26v-52h26v-52h26v52h26v52h26v78h-26v26h-78z" />
    <glyph glyph-name="X" unicode="X" horiz-adv-x="861" 
d="M822 26v-26h-337v26h52v26h26v26h23v26h-26v26h-26v26h-26v52h-26v26h-26v26h-26v52h-52v-26h-26v-26h-26v-26h-26v-26h-26v-26h-26v-26h-26v-26h-26v-26h-26v-26h26v-26h26v-26h52v-26h-233v26h26v26h26v26h26v26h26v26h26v26h26v26h26v26h26v26h26v26h26v26h26v26h26
v26v26h-26v52h-26v26h-26v26h-26v52h-26v26h-26v26h-26v52h-26v0h-3v26h-26v26h-52v26h337v-26h-52v-26h-26v-26h-23v-26h26v-26h26v-26h26v-52h26v-26h26v-26h62v26h26v26h26v26h26v26h26v26h26v26h26v52h-26v26h-52v26h207v-26h-26v-26h-26v-26h-26v-26h-26v-26h-26v-26
h-26v-26h-26v-26h-26v-26h-26v-26h-26v-26h-26v-26h15v-26h26v-26h26v-52h26v-26h26v-26h26v-52h26v-26h26v-26h26v-52h29v-26h26v-26h53z" />
    <glyph glyph-name="Y" unicode="Y" horiz-adv-x="915" 
d="M876 700v-26h-52v-26h-26v-26h-29v-26h-26v-52h-26v-26h-26v-52h-26v-26h-26v-52h-26v-26h-26v-52h-26v-52h-26v-26h-26v-181h26v-26h52v-26h-259v26h52v26h26v181h-26v26h-26v52h-26v52h-26v26h-26v52h-26v26h-26v52h-26v26h-26v52h-26v26h-29v26h-26v26h-52v26h337v-26
h-52v-26h-26v-26h-23v-26h26v-52h26v-26h26v-52h26v-26h26v-52h26v-26h26v-52h26v-52h26v52h26v52h26v26h26v52h26v26h26v52h26v26h26v52h26v26h-23v26h-26v26h-52v26h260z" />
    <glyph glyph-name="Z" unicode="Z" 
d="M195 52v-26h337v26h52v52h52v52h26v52h26v-130h-26v-78h-622v26h26v26h26v52h26v26h26v26h26v52h26v26h26v26h26v52h26v26h26v26h26v52h26v26h26v26h26v52h26v26h26v26h26v52h26v26h26v26h-311v-26h-52v-52h-52v-52h-26v-52h-26v130h26v78h596v-26h-26v-26h-26v-26h-26
v-52h-26v-26h-26v-26h-26v-52h-26v-26h-26v-26h-26v-52h-26v-26h-26v-26h-26v-52h-26v-26h-26v-26h-26v-52h-26v-26h-26v-26h-26v-52h-26z" />
    <glyph glyph-name="bracketleft" unicode="[" horiz-adv-x="313" 
d="M273 804v-52h-130v-804h130v-52h-233v907z" />
    <glyph glyph-name="backslash" unicode="\" horiz-adv-x="443" 
d="M403 65v-65h-52v65h-26v52h-26v52h-26v52h-26v52h-26v52h-26v52h-26v52h-26v52h-26v52h-26v52h-26v52h-26v65h52v-65h26v-52h26v-52h26v-52h26v-52h26v-52h26v-52h26v-52h26v-52h26v-52h26v-52h26v-52h26z" />
    <glyph glyph-name="bracketright" unicode="]" horiz-adv-x="313" 
d="M273 802v-907h-233v26v26h130v804h-130v26v26z" />
    <glyph glyph-name="asciicircum" unicode="^" horiz-adv-x="313" 
d="M273 649v-52h-52v52h-26v52h-26v52h-26v-52h-26v-52h-26v-52h-52v52h26v52h26v52h26v52h78v-52h26v-52h26v-52h26z" />
    <glyph glyph-name="underscore" unicode="_" horiz-adv-x="391" 
d="M352 52v-52h-312v52h312z" />
    <glyph glyph-name="grave" unicode="`" horiz-adv-x="210" 
d="M170 643v-78h-26v26h-26v26h-26v26h-26v26h-26v26h78v-26h26v-26h26z" />
    <glyph glyph-name="a" unicode="a" horiz-adv-x="624" 
d="M557 26h26v-26h-52v26h-52v26h-26v-26h-78v-26h-207v26h-52v26h-52v26h-26v181h26v26h52v26h52v26h104v26h105v26h78v78h-26v26h-26v26h-181v-26h-52v-26h-26v-26h-26v-26h-26v-52h-26v130h52v26h78v26h259v-26h52v-26h26v-26h26zM453 363h-52v-26h-104v-26h-104v-26h-26
v-26h-26v-181h26v-26h26v-26h156v26h52v26h26v26h26v259z" />
    <glyph glyph-name="b" unicode="b" 
d="M480 545v-26h52v-26h52v-26h26v-26h26v-52h26v-52h26v-130h-26v-52h-26v-52h-26v-26h-26v-26h-52v-26h-52v-26h-181v26h-26v26h-26v26h-26v-26h-26v-26h-52v-26h-104v26h52v26h26v596h-26v26h-52v26h180l2 -52v-181h26v26h26v26h26v26h52zM221 155h26v-52h26v-26h26v-26
h26v-26h130v26h26v26h26v26h26v52h26v52h26v130h-26v52h-26v52h-26v26h-26v26h-26v26h-130v-26h-26v-26h-26v-26h-26v-52h-26v-234z" />
    <glyph glyph-name="c" unicode="c" horiz-adv-x="624" 
d="M480 543v-26h52v-26h26v52h26v-207h-26v52h-26v52h-26v26h-26v26h-26v26h-181v-26h-26v-26h-26v-26h-26v-52h-26v-52h-26v-130h26v-52h26v-52h26v-26h26v-26h26v-26h181v26h26v26h26v26h26v52h26v52h26v-156h-52v-26h-52v-26h-233v26h-52v26h-52v26h-26v26h-26v52h-26v52
h-26v130h26v52h26v52h26v26h26v26h52v26h52v26z" />
    <glyph glyph-name="d" unicode="d" 
d="M429 543v-26h26v-26h26v-26h26v181h-26v26h-52v26h181v-648h26v-26h52v-26h-104v26h-52v26h-26v26h-26v-26h-26v-26h-26v-26h-181v26h-52v26h-52v26h-26v26h-26v52h-26v52h-26v130h26v52h26v52h26v26h26v26h52v26h52v26h130zM507 388h-26v52h-26v26h-26v26h-26v26h-130
v-26h-26v-26h-26v-26h-26v-52h-26v-52h-26v-130h26v-52h26v-52h26v-26h26v-26h26v-26h130v26h26v26h26v26h26v52h26v234z" />
    <glyph glyph-name="e" unicode="e" horiz-adv-x="670" 
d="M446 544v-26h52v-26h52v-26h26v-26h26v-52h26v-78h-26v-26h-460v-78h26v-52h26v-52h26v-26h26v-26h26v-26h156v26h52v26h26v26h26v52h26v52h26v-156h-52v-26h-78v-26h-207v26h-52v26h-52v26h-26v26h-26v52h-26v52h-26v130h26v52h26v52h26v26h26v26h52v26h52v26h126h23h50
zM194 440v-52h-26v-52h-26v-26h356v26h26v52h-26v52h-26v26h-26v26h-26v26h-149v-26h-26v-26h-26v-26h-25z" />
    <glyph glyph-name="f" unicode="f" horiz-adv-x="449" 
d="M41 0v26h52v26h26v467h-78v26h78v104h24v26h52v26h163v-26h52v-78h-26v26h-26v26h-26v26h-84v-26h-26v-104h181v-26h-156v-26h-26v-441h26v-26h52v-26h-258z" />
    <glyph glyph-name="g" unicode="g" horiz-adv-x="704" 
d="M429 78v26h26v26h26v26h26v52h26v52h26v78h-26v52h-26v52h-26v26h-26v26h-26v26h-156v-26h-26v-26h-26v-26h-26v-52h-26v-52h-26v-78h26v-52h26v-52h26v-26h26v-26h26v-26h156zM144 0v-78h26v-26h26v-26h78v26h26v26h26v26h26v26h26v26h156v-26h26v-26h26v-26h26v-26h26
v-26h26v-26h-157v26h-26v26h-26v26h-28v26h-50v-26h-19v-26h-26v-26h-26v-26h-186v26h-52v26h-26v104h26v26h52v26h52v26h24v26h-52v26h-26v26h-26v52h-26v52h-26v78h26v52h26v52h26v26h26v26h52v26h52v26h207v-26h52v-26h28v26h26v26h104v-104h-26v26h-26v26h-52v-26h24
v-26h26v-52h26v-52h26v-78h-26v-52h-26v-52h-26v-26h-26v-26h-52v-26h-52v-26h-232v-26h-52v-26h-27z" />
    <glyph glyph-name="h" unicode="h" 
d="M39 0v26h52v26h26v596h-26v26h-52v26h181v-181h52v26h181v-26h78v-26h26v-26h26v-52h26v-363h26v-26h52v-26h-258v26h52v26h26v389h-26v26h-26v26h-52v26h-78v-26h-52v-26h-26v-26h-26v-389h26v-26h52v-26h-260z" />
    <glyph glyph-name="i" unicode="i" horiz-adv-x="339" 
d="M40 0v26h52v26h26v441h-26v26h-52v26h181v-493h26v-26h52v-26h-259zM144 700h52v-26h26v-52h-26v-26h-52v26h-26v52h26v26z" />
    <glyph glyph-name="j" unicode="j" horiz-adv-x="261" 
d="M118 492h-26v26h-52v26h181v-648h-24v-26h-52v-26h-105v26h52v26h26v596zM145 699h51v-26h26v-52h-26v-26h-52v26h-26v52h26z" />
    <glyph glyph-name="k" unicode="k" horiz-adv-x="702" 
d="M40 1v26h52v26h26v596h-26v26h-52v26h181v-493h26v26h26v26h26v26h26v26h26v26h26v26h26v26h26v26h26v26h26v52h-26v26h-26v26h207v-26h-52v-26h-26v-26h-26v-26h-26v-26h-26v-26h-26v-26h-26v-26h-26v-52h26v-26h26v-26h26v-52h26v-26h26v-26h26v-52h26v-26h26v-26h52
v-26h-311v26h104v26h-26v52h-26v26h-26v26h-26v52h-26v26h-26v-26h-26v-26h-26v-26h-26v-104h26v-26h52v-26z" />
    <glyph glyph-name="l" unicode="l" horiz-adv-x="339" 
d="M40 0v26h52v26h26v596h-26v26h-52v26h181v-648h26v-26h52v-26h-259z" />
    <glyph glyph-name="m" unicode="m" horiz-adv-x="1013" 
d="M164 519v-26h26v26h78v26h130v-26h78v-26h26v-26h26v26h26v26h52v26h130v-26h78v-26h26v-26h26v-52h26v-363h26v-26h52v-26h-258v26h52v26h26v389h-26v26h-26v26h-52v26h-26v-26h-52v-26h-26v-26h-26v-389h26v-26h52v-26h-258v26h52v26h26v389h-26v26h-26v26h-52v26h-26
v-26h-52v-26h-26v-26h-26v-389h26v-26h52v-26h-258v26h52v26h26v441h-26v26h-52v26h104v-26h20z" />
    <glyph glyph-name="n" unicode="n" 
d="M167 493h26v26h78v26h181v-26h78v-26h26v-26h26v-52h26v-363h26v-26h52v-26h-258v26h52v26h26v389h-26v26h-26v26h-52v26h-78v-26h-52v-26h-26v-26h-26v-389h26v-26h52v-26h-258v26h52v26h26v441h-26v26h-52v26h104v-26h26z" />
    <glyph glyph-name="o" unicode="o" horiz-adv-x="702" 
d="M380 519h-107v-26h-26v-26h-26v-26h-26v-52h-26v-52h-26v-130h26v-52h26v-52h26v-26h26v-26h26v-26h156v26h26v26h26v26h26v52h26v52h26v130h-26v52h-26v52h-26v26h-26v26h-26v26h-49zM381 0h-133v26h-52v26h-52v26h-26v26h-26v52h-26v52h-26v130h26v52h26v52h26v26h26
v26h52v26h52v26h207v-26h52v-26h52v-26h26v-26h26v-52h26v-52h26v-130h-26v-52h-26v-52h-26v-26h-26v-26h-52v-26h-52v-26h-75h1z" />
    <glyph glyph-name="p" unicode="p" 
d="M299 1v26h-26v26h-26v26h-26v-181h26v-26h52v-26h-259v26h52v26h26v596h-26v26h-52v26h104v-26h52v-26h26v-26h26v26h26v26h26v26h181v-26h52v-26h52v-26h26v-26h26v-52h26v-52h26v-130h-26v-52h-26v-52h-26v-26h-26v-26h-52v-26h-52v-26zM221 156h26v-52h26v-26h26v-26
h26v-26h130v26h26v26h26v26h26v52h26v52h26v130h-26v52h-26v52h-26v26h-26v26h-26v26h-130v-26h-26v-26h-26v-26h-26v-52h-26v-234z" />
    <glyph glyph-name="q" unicode="q" 
d="M247 -1v26h-52v26h-52v26h-26v26h-26v52h-26v52h-26v130h26v52h26v52h26v26h26v26h52v26h52v26h181v-26h26v-26h26v-26h26v26h26v26h52v26h52v-52h-26v-596h26v-26h52v-26h-259v26h52v26h26v181h-26v-26h-26v-26h-26v-26zM506 389h-26v52h-26v26h-26v26h-26v26h-130v-26
h-26v-26h-26v-26h-26v-52h-26v-52h-26v-130h26v-52h26v-52h26v-26h26v-26h26v-26h130v26h26v26h26v26h26v52h26v234z" />
    <glyph glyph-name="r" unicode="r" horiz-adv-x="573" 
d="M532 467v-78h-26v26h-26v26h-26v26h-26v26h-52v26h-52v-26h-52v-26h-26v-26h-26v-389h26v-26h52v-26h-258v26h52v26h26v441h-26v26h-52v26h104v-26h26v-26h26v26h78v26h181v-26h52v-26h26v-26h-1z" />
    <glyph glyph-name="s" unicode="s" horiz-adv-x="599" 
d="M534 337h-26v52h-26v52h-26v26h-26v26h-52v26h-181v-26h-26v-26h-26v-78h26v-26h26v-26h129v-26h104v-26h52v-26h52v-26h26v-156h-26v-26h-51v-26h-52v-26h-285v26h-52v26h-26v-52h-26v233h26v-78h26v-52h26v-26h26v-26h52v-26h207v26h26v26h26v78h-26v26h-26v26h-130v26
h-104v26h-52v26h-52v26h-26v156h26v26h52v26h52v26h258v-26h52v-26h26v52h26z" />
    <glyph glyph-name="t" unicode="t" horiz-adv-x="443" 
d="M221 52h26v-26h104v26h52v-26h-52v-26h-157v26h-52v26h-24v467h-78v26h78v26h26v26h26v26h26v52h26v-130h181v-26h-156v-26h-26v-441z" />
    <glyph glyph-name="u" unicode="u" horiz-adv-x="718" 
d="M551 26v26h-26v-26h-78v-26h-181v26h-78v26h-26v26h-26v52h-26v363h-26v26h-52v26h258v-26h-52v-26h-26v-389h26v-26h26v-26h52v-26h78v26h52v26h26v26h26v389h-26v26h-52v26h258v-26h-52v-26h-26v-441h26v-26h52v-26h-104v26h-23z" />
    <glyph glyph-name="v" unicode="v" horiz-adv-x="780" 
d="M457 51h-26v-52h-105v52h-26v52h-26v52h-26v52h-26v52h-26v52h-26v52h-26v52h-26v52h-26v26h-26v26h-26v26h285v-26h-52v-26h-52v-26h26v-52h26v-52h26v-52h26v-52h26v-52h26v-52h26v-52h26v52h26v52h26v52h26v52h26v52h26v52h26v52h-26v26h-26v26h-51v26h259v-26h-52
v-26h-26v-26h-26v-52h-26v-51h-26v-52h-26v-52h-26v-52h-26v-52h-26v-52h-26z" />
    <glyph glyph-name="w" unicode="w" horiz-adv-x="1092" 
d="M796 52h-26v-52h-105v52h-26v52h-26v52h-26v52h-26v52h-27v-52h-26v-52h-26v-52h-26v-52h-26v-52h-105v52h-26v52h-26v52h-26v52h-26v52h-26v52h-26v52h-26v52h-26v52h-26v26h-26v26h-26v26h285v-26h-52v-26h-52v-26h26v-52h26v-52h26v-52h26v-52h26v-52h26v-52h26v-52
h26v52h26v52h26v52h26v52h26v52h26v52h26v52h-25v26h-26v26h-51v26h259v-26h-52v-26h-26v-26h-26v-52h-26v-52h26v-52h26v-52h26v-52h26v-52h26v-52h26v52h26v52h26v52h26v52h26v52h26v52h26v52h-26v26h-26v26h-51v26h233v-26h-26v-26h-26v-26h-26v-52h-26v-52h-26v-52h-26
v-52h-26v-52h-26v-52h-26v-52h-26z" />
    <glyph glyph-name="x" unicode="x" horiz-adv-x="806" 
d="M596 441h-26v-26h-26v-26h-26v-26h-26v-26h-26v-26h15v-26h26v-26h26v-52h26v-26h26v-26h26v-52h26v-26h26v-26h52v-26h52v-26h-285v26h52v26h-26v26h-26v52h-26v26h-26v26h-26v52h-52v-26h-26v-26h-26v-26h-26v-26h-26v-26h-26v-26h-26v-26h26v-26h51v-26h-233v26h77v26
h26v26h27v26h26v26h26v26h26v26h26v26h26v26h26v26v26h-26v52h-26v26h-26v26h-26v52h-26v26h-26v26h-52v26h-52v26h285v-26h-52v-26h26v-26h26v-52h26v-26h26v-26h62v26h26v26h26v26h26v26h25v26h-26v26h-51v26h233v-26h-77v-26h-26v-26h-26z" />
    <glyph glyph-name="y" unicode="y" horiz-adv-x="780" 
d="M457 50h-26v-52h-26v-26h-26v-52h-26v-26h-26v-26h-26v-26h-130v26h-52v26h-26v78h26v26h52v-26h26v-52h26v-26h78v26h26v52h26v26h-26v52h-26v52h-26v52h-26v52h-26v52h-26v52h-26v52h-26v52h-26v52h-26v26h-26v26h-26v26h285v-26h-52v-26h-52v-26h26v-52h26v-52h26v-52
h26v-52h26v-52h26v-52h26v-52h26v52h26v52h26v52h26v52h26v52h26v52h26v52h-26v26h-26v26h-52v26h259v-26h-52v-26h-26v-26h-26v-52h-26v-51h-26v-52h-26v-52h-26v-52h-26v-52h-26v-52h-26z" />
    <glyph glyph-name="z" unicode="z" horiz-adv-x="642" 
d="M559 519v-26h-26v-26h-26v-26h-26v-52h-26v-26h-26v-26h-26v-52h-26v-26h-26v-26h-26v-52h-26v-26h-26v-26h-26v-26h-26v-52h-26v-26h250v26h52v52h52v52h26v52h26v-130h-26v-78h-536v26h26v26h26v52h26v26h26v26h26v52h26v26h26v26h26v26h26v52h26v26h26v26h26v52h26v26
h26v26h26v26h-216v-26h-52v-52h-52v-52h-26v-52h-26v130h26v78h493v-26h-17z" />
    <glyph glyph-name="braceleft" unicode="{" horiz-adv-x="417" 
d="M247 -52h130v-52h-156v26h-52v26h-26v337h-26v26h-26v26h-52v26h52v26h26v26h26v337h26v26h52v26h156v-52h-130v-337h-24l-2 -26h-26v-26h-52v-26h52v-26h26v-26h26v-337z" />
    <glyph glyph-name="verticalbar" unicode="|" horiz-adv-x="132" 
d="M40 -129v933h52v-933h-52z" />
    <glyph glyph-name="braceright" unicode="}" horiz-adv-x="417" 
d="M377 362v-26h-52v-26h-26v-26h-26v-337h-26v-26h-52v-26h-156v52h130v337h26v26h26v26h52v26h-52v26h-26l-2 26h-24v337h-130v52h156v-26h52v-26h26v-337h26v-26h26v-26h52z" />
    <glyph glyph-name="asciitilde" unicode="~" horiz-adv-x="339" 
d="M299 253v-52h-26v-26h-78v26h-52v26h-78v-26h-26v52h26v26h78v-26h52v-26h78v26h26z" />
    <glyph glyph-name="nonbreakingspace" unicode="&#xa0;" horiz-adv-x="412" 
 />
    <glyph glyph-name="exclamdown" unicode="&#xa1;" horiz-adv-x="184" 
d="M39 412h105v-544h-104zM144 542v-52h-26v-26h-52v26h-26v52h26v26h51v-26h27z" />
    <glyph glyph-name="cent" unicode="&#xa2;" horiz-adv-x="624" 
d="M558 544h26v-207h-26v52h-26v52h-26v26h-26v26h-26v13h-13v-52h-26v-52h-26v-52h-26v-52h-26v-52h-26v-52h-26v-52h-26v-52h-26v-13h13v-26h26v-26h181v26h26v26h26v26h26v52h26v52h26v-156h-52v-26h-52v-26h-233v26h-39v-39h-26v-65h-52v65h26v52h26v13h-39v26h-26v26
h-26v52h-26v52h-26v130h26v52h26v52h26v26h26v26h52v26h52v26h169v13h26v65h52v-65h-26v-13h13v-26h52v-26h26v51zM415 505v13h-143v-26h-26v-26h-26v-26h-26v-52h-26v-52h-26v-130h26v-52h26v-52h13v39h26v52h26v52h26v52h26v52h26v52h26v52h26v52h26z" />
    <glyph glyph-name="sterling" unicode="&#xa3;" horiz-adv-x="735" 
d="M697 104v-78h-52v-26h-259v26h-130v26h-130v-26h-78v26h52v26h26v26h26v181h-110v52h110v26h-26v130h26v52h26v52h26v26h26v26h52v26h52v26h181v-26h52v-26h52v-26h26v-26h26v-52h-104v52h-26v26h-26v26h-26v26h-130v-26h-26v-26h-26v-26h-26v-52h-26v-52h-26v-52h26
v-104h97v-52h-97v-181h207v-26h181v26h54z" />
    <glyph glyph-name="currency" unicode="&#xa4;" horiz-adv-x="702" 
d="M584 467v-26h26v-52h26v-52h26v-130h-26v-52h-26v-52h-26v-26h26v-26h26v-26h26v-26h-52v26h-26v26h-78v-26h-52v-26h-207v26h-52v26h-78v-26h-26v-26h-52v26h26v26h26v26h26v26h-26v52h-26v52h-26v130h26v52h26v52h26v26h-26v26h-26v26h-26v26h52v-26h26v-26h78v26h52
v26h207v-26h52v-26h78v26h26v26h52v-26h-26v-26h-26v-26h-26zM558 338h-26v52h-26v52h-26v26h-26v26h-26v26h-156v-26h-26v-26h-26v-26h-26v-52h-26v-52h-26v-130h26v-52h26v-52h26v-26h26v-26h26v-26h156v26h26v26h26v26h26v52h26v52h26v130z" />
    <glyph glyph-name="yen" unicode="&#xa5;" horiz-adv-x="915" 
d="M876 700v-26h-52v-26h-26v-26h-29v-26h-26v-52h-26v-26h-26v-52h-26v-26h-26v-52h-26v-26h-26v-52h91v-52h-143v-26h-26v-52h169v-52h-169v-78h26v-26h52v-26h-259v26h52v26h26v78h-169v52h169v52h-26v26h-143v52h91v52h-26v26h-26v52h-26v26h-26v52h-26v26h-26v52h-26
v26h-29v26h-26v26h-52v26h337v-26h-52v-26h-26v-26h-23v-26h26v-52h26v-26h26v-52h26v-26h26v-52h26v-26h26v-52h78v52h26v26h26v52h26v26h26v52h26v26h26v52h26v26h-23v26h-26v26h-52v26h260z" />
    <glyph glyph-name="brokenbar" unicode="&#xa6;" horiz-adv-x="132" 
d="M40 -252v415h52v-415h-52zM40 292v389h52v-389h-52z" />
    <glyph glyph-name="section" unicode="&#xa7;" 
d="M455 777h-259v26h285v-26h52v-26h26v-26h26v-26h26v26h26v78h26v-298h-26v65h-26v26h-26v52h-26v26h-26v26h-26v26h-26v26h-26v25zM248 -78h285v-26h-311v26h-26v26h-52v26h-26v26h-26v-26h-26v-78h-26v259h26v-26h26v-26h26v-52h26v-26h26v-26h26v-26h26v-26h26v-25z
M637 209v-26h26v-26h26v-130h-26v-26h-26v-26h-26v-26h-52v-26h-52v26h26v26h26v26h26v104h-26v26h-52v26h-52v26h-105v26h-104v26h-78v21h-52v26h-26v26h-26v26h-26v134h26v26h26v21h-26v26h-26v134h26v26h26v26h26v26h52v26h52v-26h-26v-26h-26v-26h-26v-104h26v-26h52
v-26h52v-26h105v-26h104v-26h78v-26h52v-26h52v-52h26v-130h-26v-26zM585 313h-26v26h-52v26h-52v26h-105v26h-104v26h-78v21h-26v-73h26v-26h52v-26h52v-26h105v-26h104v-26h78v-26h26v78z" />
    <glyph glyph-name="dieresis" unicode="&#xa8;" horiz-adv-x="339" 
d="M118 674h26v-52h-26v-26h-52v26h-26v52h26v26h52v-26zM300 674v-52h-26v-26h-52v26h-26v52h26v26h52v-26h26z" />
    <glyph glyph-name="copyright" unicode="&#xa9;" horiz-adv-x="832" 
d="M792 441v-156h-26v-52h-26v-52h-26v-52h-26v-26h-26v-26h-52v-26h-52v-26h-285v26h-52v26h-52v26h-26v26h-26v52h-26v52h-26v52h-26v156h26v52h26v52h26v52h26v26h26v26h52v26h52v26h285v-26h52v-26h52v-26h26v-26h26v-52h26v-52h26v-52h26zM688 441h-26v52h-26v52h-26
v52h-26v26h-26v26h-26v26h-233v-26h-26v-26h-26v-26h-26v-52h-26v-52h-26v-52h-26v-156h26v-52h26v-52h26v-52h26v-26h26v-26h26v-26h233v26h26v26h26v26h26v52h26v52h26v52h26v156zM558 518h52v-78h-26v26h-26v26h-26v26h-181v-26h-26v-26h-26v-207h26v-26h26v-26h181v26
h26v26h26v26h26v-78h-52v-26h-233v26h-52v26h-52v52h-26v156h26v52h52v26h52v26h233v-27z" />
    <glyph glyph-name="ordfeminine" unicode="&#xaa;" horiz-adv-x="365" 
d="M325 388v-26h-52v52h-26v-26h-26v-26h-130v26h-26v26h-26v130h26v26h52v26h104v-26h26v78h-26v26h-104v-26h-26v-26h-26v-26h-26v52h26v26h26v26h156v-26h26v-26h26v-259zM247 518h-26v26h-26v26h-52v-26h-26v-26h-26v-78h26v-26h26v-26h52v26h26v26h26v78z" />
    <glyph glyph-name="guillemotleft" unicode="&#xab;" horiz-adv-x="495" 
d="M247 104h26v-26h-78v26h-26v52h-26v52h-26v52h-26v52h-26v26h-26v26h26v26h26v52h26v52h26v52h26v52h26v26h78v-26h-26v-52h-26v-52h-26v-52h-26v-52h-26v-78h26v-52h26v-52h26v-52h26v-52zM325 311h26v-52h26v-52h26v-52h26v-52h26v-26h-78v26h-26v52h-26v52h-26v52h-26
v52h-26v26h-26v26h26v26h26v52h26v52h26v52h26v52h26v26h78v-26h-26v-52h-26v-52h-26v-52h-26v-52h-26v-78z" />
    <glyph glyph-name="logicalnot" unicode="&#xac;" horiz-adv-x="417" 
d="M377 623v-233h-52v181h-285v52h337z" />
    <glyph glyph-name="softhyphen" unicode="&#xad;" horiz-adv-x="0" 
 />
    <glyph glyph-name="registered" unicode="&#xae;" horiz-adv-x="832" 
d="M559 468h26v-104h-26v-26h-26v-26h-52v-26h26v-26h26v-26h26v-26h26v-26h-156v26h26v26h-26v26h-26v26h-26v26h78v26h26v26h26v104h-26v26h-26v26h-78v-26h-26v-156h26v-26h-26v-104h26v-26h-130v26h26v311h-26v26h233v-26h52v-26h26zM792 442v-156h-26v-52h-26v-52h-26
v-52h-26v-26h-26v-26h-52v-26h-52v-26h-285v26h-52v26h-52v26h-26v26h-26v52h-26v52h-26v52h-26v156h26v52h26v52h26v52h26v26h26v26h52v26h52v26h285v-26h52v-26h52v-26h26v-26h26v-52h26v-52h26v-52h26zM688 351v91h-26v52h-26v52h-26v52h-26v26h-26v26h-26v26h-233v-26
h-26v-26h-26v-26h-26v-52h-26v-52h-26v-52h-26v-156h26v-52h26v-52h26v-52h26v-26h26v-26h26v-26h233v26h26v26h26v26h26v52h26v52h26v52h26v65z" />
    <glyph glyph-name="macron" unicode="&#xaf;" horiz-adv-x="365" 
d="M325 700v-52h-285v52h285z" />
    <glyph glyph-name="degree" unicode="&#xb0;" horiz-adv-x="339" 
d="M299 649v-156h-26v-26h-52v-26h-104v26h-52v26h-26v156h26v26h52v26h104v-26h52v-26h26zM247 623h-26v26h-26v26h-52v-26h-26v-26h-26v-104h26v-26h26v-26h52v26h26v26h26v104z" />
    <glyph glyph-name="plusminus" unicode="&#xb1;" horiz-adv-x="391" 
d="M40 182h312v-52h-312v52zM351 441v-52h-130v-130h-52v130h-130v52h130v130h52v-130h130z" />
    <glyph glyph-name="twosuperior" unicode="&#xb2;" horiz-adv-x="339" 
d="M298 649v-104h-26v-26h-52v-26h-52v-26h-52v-26h-26v-52h156v26h26v26h26v-78h-259v78h26v26h26v26h26v26h52v26h52v26h26v52h-26v26h-26v26h-52v-26h-52v-26h-26v-26h-26v52h26v26h52v26h104v-26h52v-26h25z" />
    <glyph glyph-name="threesuperior" unicode="&#xb3;" horiz-adv-x="339" 
d="M299 649v-78h-26v-26h-26v-26h26v-26h26v-78h-26v-26h-26v-26h-156v26h-26v26h-26v52h26v-26h26v-26h26v-26h104v26h26v78h-26v26h-78v26h78v26h26v78h-26v26h-104v-26h-26v-26h-26v-26h-26v52h26v26h26v26h156v-26h26v-26h26z" />
    <glyph glyph-name="acute" unicode="&#xb4;" horiz-adv-x="210" 
d="M170 695v-26h-26v-26h-26v-26h-26v-26h-26v-26h-26v78h26v26h26v26h78z" />
    <glyph glyph-name="paragraph" unicode="&#xb6;" horiz-adv-x="650" 
d="M532 -52h26v-26h52v-26h-181v752h-52v-752h-181v26h52v26h26v285h-52v26h-52v26h-52v26h-26v26h-26v52h-26v156h26v52h26v26h26v26h52v26h52v26h389v-26h-52v-26h-26z" />
    <glyph glyph-name="periodcentered" unicode="&#xb7;" horiz-adv-x="236" 
d="M196 338v-52h-26v-26h-26v-26h-52v26h-26v26h-26v52h26v26h26v26h52v-26h26v-26h26z" />
    <glyph glyph-name="cedilla" unicode="&#xb8;" horiz-adv-x="261" 
d="M222 -25v-52h-26v-26h-130v26h-26v26h52v-26h78v52h-26v52h26v-26h26v-26h26z" />
    <glyph glyph-name="onesuperior" unicode="&#xb9;" horiz-adv-x="236" 
d="M196 389v-26h-156v26h26v26h26v207h-52v26h26v26h52v26h26v-285h26v-26h26z" />
    <glyph glyph-name="ordmasculine" unicode="&#xba;" horiz-adv-x="339" 
d="M299 649v-233h-26v-26h-52v-26h-104v26h-52v26h-26v233h26v26h52v26h104v-26h52v-26h26zM247 623h-26v26h-26v26h-52v-26h-26v-26h-26v-181h26v-26h26v-26h52v26h26v26h26v181z" />
    <glyph glyph-name="guillemotright" unicode="&#xbb;" horiz-adv-x="495" 
d="M221 260h-26v-52h-26v-52h-26v-52h-26v-26h-78v26h26v52h26v52h26v52h26v52h26v78h-26v52h-26v52h-26v52h-26v52h-26v26h78v-26h26v-52h26v-52h26v-52h26v-52h26v-26h26v-26h-26v-26h-26v-52zM454 364v-26h-26v-26h-26v-52h-26v-52h-26v-52h-26v-52h-26v-26h-78v26h26v52
h26v52h26v52h26v52h26v78h-26v52h-26v52h-26v52h-26v52h-26v26h78v-26h26v-52h26v-52h26v-52h26v-52h26v-26h26z" />
    <glyph glyph-name="onequarter" unicode="&#xbc;" horiz-adv-x="599" 
d="M40 363v26h26v26h26v207h-52v26h26v26h52v26h26v-285h26v-26h26v-26h-156zM532 129h26v-52h-52v-26h26v-26h26v-26h-156v26h26v26h26v26h-181v78h26v26h26v26h26v26h26v26h26v26h26v26h26v26h52v-233h26zM454 259h-26v-26h-26v-26h-26v-26h-26v-26h-26v-26h-26v-26h156
v156zM273 272h-26v-52h-26v-52h-26v-52h-26v-52h-26v-65h-52v65h26v52h26v52h26v52h26v52h26v52h26v52h26v52h26v52h26v52h26v52h26v52h26v65h52v-65h-26v-52h-26v-52h-26v-52h-26v-52h-26v-52h-26v-52h-26v-52z" />
    <glyph glyph-name="onehalf" unicode="&#xbd;" horiz-adv-x="624" 
d="M40 363v26h26v26h26v207h-52v26h26v26h52v26h26v-285h26v-26h26v-26h-156zM325 376h-26v-52h-26v-52h-26v-52h-26v-52h-26v-52h-26v-52h-26v-65h-52v65h26v52h26v52h26v52h26v52h26v52h26v52h26v52h26v52h26v52h26v52h26v52h26v65h52v-65h-26v-52h-26v-52h-26v-52h-26
v-52h-26v-52zM583 285v-104h-26v-26h-52v-26h-52v-26h-52v-26h-26v-52h156v26h26v26h26v-78h-259v78h26v26h26v26h26v26h52v26h52v26h26v52h-26v26h-26v26h-52v-26h-52v-26h-26v-26h-26v52h26v26h52v26h104v-26h52v-26h25z" />
    <glyph glyph-name="threequarters" unicode="&#xbe;" horiz-adv-x="676" 
d="M91 363v26h-26v26h-26v52h26v-26h26v-26h26v-26h104v26h26v78h-26v26h-78v26h78v26h26v78h-26v26h-104v-26h-26v-26h-26v-26h-26v52h26v26h26v26h156v-26h26v-26h26v-78h-26v-26h-26v-26h26v-26h26v-78h-26v-26h-26v-26h-156zM609 129h26v-52h-52v-26h26v-26h26v-26h-156
v26h26v26h26v26h-181v78h26v26h26v26h26v26h26v26h26v26h26v26h26v26h52v-233h26zM531 259h-26v-26h-26v-26h-26v-26h-26v-26h-26v-26h-26v-26h156v156zM350 272h-26v-52h-26v-52h-26v-52h-26v-52h-26v-65h-52v65h26v52h26v52h26v52h26v52h26v52h26v52h26v52h26v52h26v52h26
v52h26v52h26v65h52v-65h-26v-52h-26v-52h-26v-52h-26v-52h-26v-52h-26v-52h-26v-52z" />
    <glyph glyph-name="questiondown" unicode="&#xbf;" horiz-adv-x="624" 
d="M581 155v-156h-26v-26h-26v-26h-51v-26h-51v-26h-233v26h-52v26h-52v26h-26v52h-26v104h26v52h26v26h52v26h52v26h78v26h26v156h105v-181h-26v-26h-104v-26h-52v-26h-52v-26h-26v-156h26v-26h26v-26h26v-26h156v26h52v26h26v26h26v26h26v52h26v26h26v52zM323 518h-26v52
h26v26h51v-26h26v-52h-26v-26h-52z" />
    <glyph glyph-name="Agrave" unicode="&#xc0;" horiz-adv-x="961" 
d="M531 700v-52h26v-52h26v-52h26v-52h26v-52h26v-52h26v-52h26v-52h26v-52h26v-52h26v-52h26v-52h26v-26h26v-26h52v-26h-337v26h52v26h26v26h26v52h-26v52h-26v26h-390v-26h-26v-52h-26v-52h26v-26h26v-26h52v-26h-259v26h52v26h26v26h26v52h26v52h26v52h26v52h26v52h26
v52h26v52h26v52h26v52h26v52h26v52h-26v26h-52v26h206zM531 726h-52v26h-26v26h-26v26h78v-26h26v-52zM610 259v26h-26v52h-26v52h-26v52h-26v52h-26v52h-26v52h-26v-52h-26v-52h-26v-52h-26v-52h-26v-52h-26v-52h-26v-26h26v-26h285v26h27z" />
    <glyph glyph-name="Aacute" unicode="&#xc1;" horiz-adv-x="961" 
d="M531 700v-52h26v-52h26v-52h26v-52h26v-52h26v-52h26v-52h26v-52h26v-52h26v-52h26v-52h26v-52h26v-26h26v-26h52v-26h-337v26h52v26h26v26h26v52h-26v52h-26v26h-390v-26h-26v-52h-26v-52h26v-26h26v-26h52v-26h-259v26h52v26h26v26h26v52h26v52h26v52h26v52h26v52h26
v52h26v52h26v52h26v52h26v52h26v52h-26v26h-52v26h206zM427 778h26v26h78v-26h-26v-26h-26v-26h-52v52zM610 259v26h-26v52h-26v52h-26v52h-26v52h-26v52h-26v52h-26v-52h-26v-52h-26v-52h-26v-52h-26v-52h-26v-52h-26v-26h26v-26h285v26h27z" />
    <glyph glyph-name="Acircumflex" unicode="&#xc2;" horiz-adv-x="961" 
d="M531 700v-52h26v-52h26v-52h26v-52h26v-52h26v-52h26v-52h26v-52h26v-52h26v-52h26v-52h26v-52h26v-26h26v-26h52v-26h-337v26h52v26h26v26h26v52h-26v52h-26v26h-390v-26h-26v-52h-26v-52h26v-26h26v-26h52v-26h-259v26h52v26h26v26h26v52h26v52h26v52h26v52h26v52h26
v52h26v52h26v52h26v52h26v52h26v52h-26v26h-52v26h206zM440 804h78v-26h26v-26h26v-26h-52v26h-26v26h-26v-26h-26v-26h-52v26h26v26h26v26zM610 260v26h-26v52h-26v52h-26v52h-26v52h-26v52h-26v52h-26v-52h-26v-52h-26v-52h-26v-52h-26v-52h-26v-52h-26v-26h26v-26h285v26
h27z" />
    <glyph glyph-name="Atilde" unicode="&#xc3;" horiz-adv-x="961" 
d="M375 700h117v26h-26v26h-52v-26h-52v26h26v26h26v26h52v-26h26v-26h52v26h52v-26h-26v-26h-26v-26h-13v-52h26v-52h26v-52h26v-52h26v-52h26v-52h26v-52h26v-52h26v-52h26v-52h26v-52h26v-52h26v-26h26v-26h52v-26h-337v26h52v26h26v26h26v52h-26v52h-26v26h-390v-26h-26
v-52h-26v-52h26v-26h26v-26h52v-26h-259v26h52v26h26v26h26v52h26v52h26v52h26v52h26v52h26v52h26v52h26v52h26v52h26v52h26v52h-26v26h-52v26h52h-2zM609 259v26h-26v52h-26v52h-26v52h-26v52h-26v52h-26v52h-26v-52h-26v-52h-26v-52h-26v-52h-26v-52h-26v-52h-26v-26h26
v-26h285v26h27z" />
    <glyph glyph-name="Adieresis" unicode="&#xc4;" horiz-adv-x="961" 
d="M531 700v-52h26v-52h26v-52h26v-52h26v-52h26v-52h26v-52h26v-52h26v-52h26v-52h26v-52h26v-52h26v-26h26v-26h52v-26h-337v26h52v26h26v26h26v52h-26v52h-26v26h-390v-26h-26v-52h-26v-52h26v-26h26v-26h52v-26h-259v26h52v26h26v26h26v52h26v52h26v52h26v52h26v52h26
v52h26v52h26v52h26v52h26v52h26v52h-26v26h-52v26h206zM457 778v-52h-52v52h52zM554 778v-52h-52v52h52zM611 259v26h-26v52h-26v52h-26v52h-26v52h-26v52h-26v52h-26v-52h-26v-52h-26v-52h-26v-52h-26v-52h-26v-52h-26v-26h26v-26h285v26h27z" />
    <glyph glyph-name="Aring" unicode="&#xc5;" horiz-adv-x="961" 
d="M440 700h-25v26h-26v78h26v26h25v26h78v-26h26v-26h26v-78h-26v-26h-26h13v-52h26v-52h26v-52h26v-52h26v-52h26v-52h26v-52h26v-52h26v-52h26v-52h26v-52h26v-52h26v-26h26v-26h52v-26h-337v26h52v26h26v26h26v52h-26v52h-26v26h-390v-26h-26v-52h-26v-52h26v-26h26v-26
h52v-26h-259v26h52v26h26v26h26v52h26v52h26v52h26v52h26v52h26v52h26v52h26v52h26v52h26v52h26v52h-26v26h-52v26h115zM440 752v-26h26v-26h26v26h26v26h26v26h-26v26h-26v26h-26v-26h-26v-26h-26v-26h26zM610 259v26h-26v52h-26v52h-26v52h-26v52h-26v52h-26v52h-26v-52
h-26v-52h-26v-52h-26v-52h-26v-52h-26v-52h-26v-26h26v-26h285v26h27z" />
    <glyph glyph-name="AE" unicode="&#xc6;" horiz-adv-x="1221" 
d="M1153 593v-104h-26v52h-26v52h-52v52h-52v26h-259v-26h-26v-285h130v26h26v26h26v52h26v-233h-26v52h-26v26h-26v26h-130v-285h26v-26h285v26h52v52h52v52h26v52h26v-130h-26v-78h-622v26h52v26h26v156h-363v-26h-26v-52h-26v-52h26v-26h26v-26h52v-26h-259v26h52v26h26
v26h26v52h26v52h26v52h26v52h26v52h26v52h26v52h26v52h26v52h26v52h26v52h-26v26h-52v26h804v-78h26v-26zM610 646h-26v26h-104v-26h-26v-52h-26v-52h-26v-52h-26v-52h-26v-52h-26v-52h-26v-52h-26v-26h26v-26h311z" />
    <glyph glyph-name="Ccedilla" unicode="&#xc7;" 
d="M663 232h26v-130h-26v-26h-26v-26h-52v-26h-52v-26h-104v-26h26v-52h-26v-26h-130v26h-26v26h52v-26h78v52h-26v26h-130v26h-52v26h-52v26h-26v26h-26v52h-26v52h-26v285h26v52h26v52h26v26h26v26h52v26h52v26h285v-26h52v-26h26v-26h26v26h26v52h26v-259h-26v52h-26v26
h-26v52h-26v26h-26v26h-26v26h-26v26h-233v-26h-26v-26h-26v-26h-26v-52h-26v-52h-26v-285h26v-52h26v-52h26v-26h26v-26h26v-26h233v26h52v26h26v26h26v26h26v52h26z" />
    <glyph glyph-name="Egrave" unicode="&#xc8;" 
d="M662 595v-104h-26v52h-26v52h-52v52h-52v26h-259v-26h-26v-285h130v26h26v26h26v52h26v-233h-26v52h-26v26h-26v26h-130v-285h26v-26h285v26h52v52h52v52h26v52h26v-130h-26v-78h-622v26h52v26h26v596h-26v26h-52v26h596v-78h26v-26v-1zM416 724h-52v26h-26v26h-26v26h78
v-26h26v-52z" />
    <glyph glyph-name="Eacute" unicode="&#xc9;" 
d="M662 595v-104h-26v52h-26v52h-52v52h-52v26h-259v-26h-26v-285h130v26h26v26h26v52h26v-233h-26v52h-26v26h-26v26h-130v-285h26v-26h285v26h52v52h52v52h26v52h26v-130h-26v-78h-622v26h52v26h26v596h-26v26h-52v26h596v-78h26v-26v-1zM312 777h26v26h78v-26h-26v-26
h-26v-26h-52v52z" />
    <glyph glyph-name="Ecircumflex" unicode="&#xca;" 
d="M662 595v-104h-26v52h-26v52h-52v52h-52v26h-259v-26h-26v-285h130v26h26v26h26v52h26v-233h-26v52h-26v26h-26v26h-130v-285h26v-26h285v26h52v52h52v52h26v52h26v-130h-26v-78h-622v26h52v26h26v596h-26v26h-52v26h596v-78h26v-26v-1zM403 802v-26h26v-26h26v-26h-52
v26h-26v26h-26v-26h-26v-26h-52v26h26v26h26v26h78z" />
    <glyph glyph-name="Edieresis" unicode="&#xcb;" 
d="M662 595v-104h-26v52h-26v52h-52v52h-52v26h-259v-26h-26v-285h130v26h26v26h26v52h26v-233h-26v52h-26v26h-26v26h-130v-285h26v-26h285v26h52v52h52v52h26v52h26v-130h-26v-78h-622v26h52v26h26v596h-26v26h-52v26h596v-78h26v-26v-1zM342 776v-52h-52v52h52zM387 776
h52v-52h-52v52z" />
    <glyph glyph-name="Igrave" unicode="&#xcc;" horiz-adv-x="339" 
d="M171 0h-130v26h52v26h26v596h-26v26h-52v26h259v-26h-52v-26h-26v-596h26v-26h52v-26h-130h1zM223 726h-52v26h-26v26h-26v26h78v-26h26v-52z" />
    <glyph glyph-name="Iacute" unicode="&#xcd;" horiz-adv-x="339" 
d="M171 0h-130v26h52v26h26v596h-26v26h-52v26h259v-26h-52v-26h-26v-596h26v-26h52v-26h-130h1zM119 778h26v26h78v-26h-26v-26h-26v-26h-52v52z" />
    <glyph glyph-name="Icircumflex" unicode="&#xce;" horiz-adv-x="339" 
d="M171 0h-130v26h52v26h26v596h-26v26h-52v26h259v-26h-52v-26h-26v-596h26v-26h52v-26h-130h1zM210 804v-26h26v-26h26v-26h-52v26h-26v26h-26v-26h-26v-26h-52v26h26v26h26v26h78z" />
    <glyph glyph-name="Idieresis" unicode="&#xcf;" horiz-adv-x="339" 
d="M171 0h-130v26h52v26h26v596h-26v26h-52v26h259v-26h-52v-26h-26v-596h26v-26h52v-26h-130h1zM149 778v-52h-52v52h52zM194 778h52v-52h-52v52z" />
    <glyph glyph-name="Eth" unicode="&#xd0;" horiz-adv-x="754" 
d="M364 1h-324v26h52v26h26v272h-78v52h78v272h-26v26h-52v26h467v-26h52v-26h52v-26h26v-26h26v-52h26v-52h26v-285h-26v-52h-26v-52h-26v-26h-26v-26h-52v-26h-52v-26h-143v1zM221 376h84v-52h-84v-298h259v26h26v26h26v26h26v52h26v52h26v285h-26v52h-26v52h-26v26h-26
v26h-26v26h-233v-26h-26v-273z" />
    <glyph glyph-name="Ntilde" unicode="&#xd1;" horiz-adv-x="832" 
d="M273 570h26v-26h26v-26h26v-26h26v-26h26v-26h26v-26h26v-26h26v-26h26v-26h26v-26h26v-26h26v-26h26v-26h26v-26h26v-26h26v467h-26v26h-52v26h181v-26h-52v-26h-26v-648h-26v26h-26v26h-26v26h-26v26h-26v26h-26v26h-26v26h-26v26h-26v26h-26v26h-26v26h-26v26h-26v26
h-26v26h-26v26h-26v26h-26v26h-26v26h-26v26h-26v26h-26v26h-26v-493h26v-26h52v-26h-181v26h52v26h26v596h-26v26h-52v26h130v-26h26v-26h26v-26h26v-26h26v-26zM325 751v26h26v26h52v-26h26v-26h52v26h52v-26h-26v-26h-26v-26h-52v26h-26v26h-52v-26h-52v26h26z" />
    <glyph glyph-name="Ograve" unicode="&#xd2;" horiz-adv-x="806" 
d="M481 1h-207v26h-52v26h-52v26h-26v26h-26v52h-26v52h-26v52h-26v181h26v52h26v52h26v52h26v26h26v26h52v26h52v26h259v-26h52v-26h52v-26h26v-26h26v-52h26v-52h26v-52h26v-182h-26v-52h-26v-52h-26v-52h-26v-26h-26v-26h-52v-26h-52v-26h-52v1zM455 727h-52v26h-26v26
h-26v26h78v-26h26v-52zM300 675v-26h-26v-26h-26v-26h-26v-52h-26v-52h-26v-52h-26v-181h26v-52h26v-52h26v-52h26v-26h26v-26h26v-26h207v26h26v26h26v26h26v52h26v52h26v52h26v181h-26v52h-26v52h-26v52h-26v26h-26v26h-26v26h-104h-103z" />
    <glyph glyph-name="Oacute" unicode="&#xd3;" horiz-adv-x="806" 
d="M481 1h-207v26h-52v26h-52v26h-26v26h-26v52h-26v52h-26v52h-26v181h26v52h26v52h26v52h26v26h26v26h52v26h52v26h259v-26h52v-26h52v-26h26v-26h26v-52h26v-52h26v-52h26v-182h-26v-52h-26v-52h-26v-52h-26v-26h-26v-26h-52v-26h-52v-26h-52v1zM351 779h26v26h78v-26
h-26v-26h-26v-26h-52v52zM300 675v-26h-26v-26h-26v-26h-26v-52h-26v-52h-26v-52h-26v-181h26v-52h26v-52h26v-52h26v-26h26v-26h26v-26h207v26h26v26h26v26h26v52h26v52h26v52h26v181h-26v52h-26v52h-26v52h-26v26h-26v26h-26v26h-104h-103z" />
    <glyph glyph-name="Ocircumflex" unicode="&#xd4;" horiz-adv-x="806" 
d="M481 1h-207v26h-52v26h-52v26h-26v26h-26v52h-26v52h-26v52h-26v181h26v52h26v52h26v52h26v26h26v26h52v26h52v26h259v-26h52v-26h52v-26h26v-26h26v-52h26v-52h26v-52h26v-182h-26v-52h-26v-52h-26v-52h-26v-26h-26v-26h-52v-26h-52v-26h-52v1zM364 805h78v-26h26v-26
h26v-26h-52v26h-26v26h-26v-26h-26v-26h-52v26h26v26h26v26zM300 675v-26h-26v-26h-26v-26h-26v-52h-26v-52h-26v-52h-26v-181h26v-52h26v-52h26v-52h26v-26h26v-26h26v-26h207v26h26v26h26v26h26v52h26v52h26v52h26v181h-26v52h-26v52h-26v52h-26v26h-26v26h-26v26h-104
h-103z" />
    <glyph glyph-name="Otilde" unicode="&#xd5;" horiz-adv-x="806" 
d="M480 1h-207v26h-52v26h-52v26h-26v26h-26v52h-26v52h-26v52h-26v181h26v52h26v52h26v52h26v26h26v26h52v26h52v26h143v26h-26v26h-52v-26h-52v26h26v26h26v26h52v-26h26v-26h52v26h52v-26h-26v-26h-26v-26h65v-26h52v-26h52v-26h26v-26h26v-52h26v-52h26v-52h26v-182h-26
v-52h-26v-52h-26v-52h-26v-26h-26v-26h-52v-26h-52v-26h-52zM299 675v-26h-26v-26h-26v-26h-26v-52h-26v-52h-26v-52h-26v-181h26v-52h26v-52h26v-52h26v-26h26v-26h26v-26h207v26h26v26h26v26h26v52h26v52h26v52h26v181h-26v52h-26v52h-26v52h-26v26h-26v26h-26v26h-104
h-103z" />
    <glyph glyph-name="Odieresis" unicode="&#xd6;" horiz-adv-x="806" 
d="M481 1h-207v26h-52v26h-52v26h-26v26h-26v52h-26v52h-26v52h-26v181h26v52h26v52h26v52h26v26h26v26h52v26h52v26h259v-26h52v-26h52v-26h26v-26h26v-52h26v-52h26v-52h26v-182h-26v-52h-26v-52h-26v-52h-26v-26h-26v-26h-52v-26h-52v-26h-52v1zM381 779v-52h-52v52h52z
M478 779v-52h-52v52h52zM301 675v-26h-26v-26h-26v-26h-26v-52h-26v-52h-26v-52h-26v-181h26v-52h26v-52h26v-52h26v-26h26v-26h26v-26h207v26h26v26h26v26h26v52h26v52h26v52h26v181h-26v52h-26v52h-26v52h-26v26h-26v26h-26v26h-104h-103z" />
    <glyph glyph-name="multiply" unicode="&#xd7;" horiz-adv-x="443" 
d="M273 324h26v-26h26v-26h26v-26h26v-26h26v-26h-78v26h-26v26h-26v26h-26v26h-52v-26h-26v-26h-26v-26h-26v-26h-78v26h26v26h26v26h26v26h26v26h26v52h-26v26h-26v26h-26v26h-26v26h-26v26h78v-26h26v-26h26v-26h26v-26h52v26h26v26h26v26h26v26h78v-26h-26v-26h-26v-26
h-26v-26h-26v-26h-26v-52z" />
    <glyph glyph-name="Oslash" unicode="&#xd8;" horiz-adv-x="806" 
d="M481 1h-207v26h-52v26h-52v26h-13v-13h-26v-26h-26v-26h-52v26h26v26h26v26h26v13h-13v52h-26v52h-26v52h-26v181h26v52h26v52h26v52h26v26h26v26h52v26h52v26h259v-26h52v-26h52v-26h13v13h26v26h26v26h52v-26h-26v-26h-26v-26h-26v-13h13v-52h26v-52h26v-52h26v-182
h-26v-52h-26v-52h-26v-52h-26v-26h-26v-26h-52v-26h-52v-26h-52v1zM612 534h-13v-26h-26v-26h-26v-26h-26v-26h-26v-26h-26v-26h-26v-26h-26v-26h-26v-26h-26v-26h-26v-26h-26v-26h-26v-26h-26v-26h-26v-26h-13v-39h26v-26h26v-26h26v-26h207v26h26v26h26v26h26v52h26v52h26
v52h26v181h-26v52h-26zM196 170h13v26h26v26h26v26h26v26h26v26h26v26h26v26h26v26h26v26h26v26h26v26h26v26h26v26h26v26h26v26h13v39h-26v26h-26v26h-26v26h-207v-26h-26v-26h-26v-26h-26v-52h-26v-52h-26v-52h-26v-181h26v-52h26z" />
    <glyph glyph-name="Ugrave" unicode="&#xd9;" horiz-adv-x="832" 
d="M303 0h-26v26h-78v26h-26v26h-26v52h-26v519h-26v26h-52v26h258v-26h-52v-26h-26v-544h26v-26h26v-26h52v-26h181v26h52v26h26v26h26v544h-26v26h-52v26h258v-26h-52v-26h-26v-519h-26v-52h-26v-26h-26v-26h-78v-26h-259h4zM472 726h-52v26h-26v26h-26v26h78v-26h26v-52z
" />
    <glyph glyph-name="Uacute" unicode="&#xda;" horiz-adv-x="832" 
d="M303 0h-26v26h-78v26h-26v26h-26v52h-26v519h-26v26h-52v26h258v-26h-52v-26h-26v-544h26v-26h26v-26h52v-26h181v26h52v26h26v26h26v544h-26v26h-52v26h258v-26h-52v-26h-26v-519h-26v-52h-26v-26h-26v-26h-78v-26h-259h4zM368 778h26v26h78v-26h-26v-26h-26v-26h-52v52
z" />
    <glyph glyph-name="Ucircumflex" unicode="&#xdb;" horiz-adv-x="832" 
d="M303 0h-26v26h-78v26h-26v26h-26v52h-26v519h-26v26h-52v26h258v-26h-52v-26h-26v-544h26v-26h26v-26h52v-26h181v26h52v26h26v26h26v544h-26v26h-52v26h258v-26h-52v-26h-26v-519h-26v-52h-26v-26h-26v-26h-78v-26h-259h4zM459 804v-26h26v-26h26v-26h-52v26h-26v26h-26
v-26h-26v-26h-52v26h26v26h26v26h78z" />
    <glyph glyph-name="Udieresis" unicode="&#xdc;" horiz-adv-x="832" 
d="M303 0h-26v26h-78v26h-26v26h-26v52h-26v519h-26v26h-52v26h258v-26h-52v-26h-26v-544h26v-26h26v-26h52v-26h181v26h52v26h26v26h26v544h-26v26h-52v26h258v-26h-52v-26h-26v-519h-26v-52h-26v-26h-26v-26h-78v-26h-259h4zM398 778v-52h-52v52h52zM443 778h52v-52h-52
v52z" />
    <glyph glyph-name="Yacute" unicode="&#xdd;" horiz-adv-x="915" 
d="M588 26v-26h-259v26h52v26h26v181h-26v26h-26v52h-26v52h-26v26h-26v52h-26v26h-26v52h-26v26h-26v52h-26v26h-29v26h-26v26h-52v26h337v-26h-52v-26h-26v-26h-23v-26h26v-52h26v-26h26v-52h26v-26h26v-52h26v-26h26v-52h26v-52h26v52h26v52h26v26h26v52h26v26h26v52h26
v26h26v52h26v26h-23v26h-26v26h-52v26h259v-26h-52v-26h-26v-26h-29v-26h-26v-52h-26v-26h-26v-52h-26v-26h-26v-52h-26v-26h-26v-52h-26v-52h-26v-26h-26v-181h26v-26h53zM407 778h26v26h78v-26h-26v-26h-26v-26h-52v52z" />
    <glyph glyph-name="Thorn" unicode="&#xde;" horiz-adv-x="650" 
d="M171 2h-130v26h52v26h26v596h-26v26h-52v26h259v-26h-52v-26h-26v-78h207v-26h52v-26h52v-26h26v-26h26v-52h26v-130h-26v-52h-26v-26h-26v-26h-52v-26h-52v-26h-207v-78h26v-26h52v-26h-130zM224 157h181v26h26v26h26v26h26v52h26v130h-26v52h-26v26h-26v26h-26v26h-156
v-26h-26z" />
    <glyph glyph-name="germandbls" unicode="&#xdf;" 
d="M686 234v-207h-26v-52h-26v-26h-26v-26h-52v-26h-220v26h169v26h26v26h26v52h26v207h-26v26h-26v26h-26v26h-52v26h-71v26h71v26h26v26h26v26h26v181h-26v26h-26v26h-207v-26h-26v-26h-26v-570h26v-26h52v-26h-259v26h52v26h26v570h26v26h26v26h52v26h311v-26h52v-26h26
v-26h26v-181h-26v-26h-26v-26h-52v-26h-52v-26h78v-26h52v-26h26v-26h26v-26h24z" />
    <glyph glyph-name="agrave" unicode="&#xe0;" horiz-adv-x="624" 
d="M455 389v78h-26v26h-26v26h-181v-26h-52v-26h-26v-26h-26v-26h-26v-52h-26v130h52v26h78v26h259v-26h52v-26h26v-26h26v-441h26v-26h-52v26h-52v26h-26v-26h-78v-26h-207v26h-52v26h-52v26h-26v181h26v26h52v26h181v26h104v26h52v-259h-26v-26h-26v-26h-52v-26h-156v26
h-26v26h-26v181h26v26h26v52h104v26h78v26h78zM364 570h-52v26h-26v26h-26v26h78v-26h26v-52z" />
    <glyph glyph-name="aacute" unicode="&#xe1;" horiz-adv-x="624" 
d="M455 389v78h-26v26h-26v26h-181v-26h-52v-26h-26v-26h-26v-26h-26v-52h-26v130h52v26h78v26h259v-26h52v-26h26v-26h26v-441h26v-26h-52v26h-52v26h-26v-26h-78v-26h-207v26h-52v26h-52v26h-26v181h26v26h52v26h181v26h104v26h52v-259h-26v-26h-26v-26h-52v-26h-156v26
h-26v26h-26v181h26v26h26v52h104v26h78v26h78zM261 622h26v26h78v-26h-26v-26h-26v-26h-52v52z" />
    <glyph glyph-name="acircumflex" unicode="&#xe2;" horiz-adv-x="624" 
d="M455 389v78h-26v26h-26v26h-181v-26h-52v-26h-26v-26h-26v-26h-26v-52h-26v130h52v26h78v26h259v-26h52v-26h26v-26h26v-441h26v-26h-52v26h-52v26h-26v-26h-78v-26h-207v26h-52v26h-52v26h-26v181h26v26h52v26h181v26h104v26h52v-259h-26v-26h-26v-26h-52v-26h-156v26
h-26v26h-26v181h26v26h26v52h104v26h78v26h78zM352 648v-26h26v-26h26v-26h-52v26h-26v26h-26v-26h-26v-26h-52v26h26v26h26v26h78z" />
    <glyph glyph-name="atilde" unicode="&#xe3;" horiz-adv-x="624" 
d="M195 570v26h26v26h26v26h52v-26h26v-26h52v26h52v-26h-26v-26h-26v-26h-52v26h-26v26h-52v-26h-52zM582 26v-26h-52v26h-52v26h-26v-26h-78v-26h-207v26h-52v26h-52v26h-26v181h26v26h52v26h78v-26h-26v-26h-26v-181h26v-26h26v-26h156v26h52v26h26v26h26v259h-52v-26
h-104v26h78v26h78v78h-26v26h-26v26h-181v-26h-52v-26h-26v-26h-26v-26h-26v-52h-26v130h52v26h78v26h156h104v-26h52v-26h26v-26h26v-441h24zM193 311v26h104v-26h-104z" />
    <glyph glyph-name="adieresis" unicode="&#xe4;" horiz-adv-x="624" 
d="M455 389v78h-26v26h-26v26h-181v-26h-52v-26h-26v-26h-26v-26h-26v-52h-26v130h52v26h78v26h259v-26h52v-26h26v-26h26v-441h26v-26h-52v26h-52v26h-26v-26h-78v-26h-207v26h-52v26h-52v26h-26v181h26v26h52v26h181v26h104v26h52v-259h-26v-26h-26v-26h-52v-26h-156v26
h-26v26h-26v181h26v26h26v52h104v26h78v26h78zM290 622v-52h-52v52h52zM335 622h52v-52h-52v52z" />
    <glyph glyph-name="aring" unicode="&#xe5;" horiz-adv-x="624" 
d="M454 389v78h-26v26h-26v26h-181v-26h-52v-26h-26v-26h-26v-26h-26v-52h-26v130h52v26h78v26h78h-25v26h-26v78h26v26h25v26h78v-26h26v-26h26v-78h-26v-26h-26h104v-26h52v-26h26v-26h26v-441h26v-26h-52v26h-52v26h-26v-26h-78v-26h-207v26h-52v26h-52v26h-26v181h26v26
h52v26h181v26h104v26h52v-259h-26v-26h-26v-26h-52v-26h-156v26h-26v26h-26v181h26v26h26v52h104v26h78v26h77zM273 596v-26h26v-26h26v26h26v26h26v26h-26v26h-26v26h-26v-26h-26v-26h-26v-26h26z" />
    <glyph glyph-name="ae" unicode="&#xe6;" horiz-adv-x="1085" 
d="M861 545v-26h52v-26h52v-26h26v-26h26v-52h26v-78h-26v-26h-460v-78h26v-52h26v-52h26v-26h26v-26h26v-26h156v26h52v26h26v26h26v52h26v52h26v-156h-52v-26h-78v-26h-207v26h-52v26h-52v26h-26v26h-26v-26h-26v-26h-26v-26h-78v-26h-207v26h-52v26h-52v26h-26v181h26v26
h52v26h181v26h104v26h52v-259h-26v-26h-26v-26h-52v-26h-156v26h-26v26h-26v181h26v26h26v52h104v26h78v26h78v78h-26v26h-26v26h-181v-26h-52v-26h-26v-26h-26v-26h-26v-52h-26v130h52v26h78v26h259v-26h52v-26h26v-26h26v26h52v26h52v26h126h23zM609 441v-52h-26v-52h-26
v-26h356v26h26v52h-26v52h-26v26h-26v26h-26v26h-149v-26h-26v-26h-26v-26h-25z" />
    <glyph glyph-name="ccedilla" unicode="&#xe7;" horiz-adv-x="624" 
d="M481 543v-26h52v-26h26v52h26v-207h-26v52h-26v52h-26v26h-26v26h-26v26h-181v-26h-26v-26h-26v-26h-26v-52h-26v-52h-26v-130h26v-52h26v-52h26v-26h26v-26h26v-26h181v26h26v26h26v26h26v52h26v52h26v-156h-52v-26h-52v-26h-104v-26h26v-52h-26v-26h-130v26h-26v26h52
v-26h78v52h-26v26h-78v26h-52v26h-52v26h-26v26h-26v52h-26v52h-26v130h26v52h26v52h26v26h26v26h52v26h52v26z" />
    <glyph glyph-name="egrave" unicode="&#xe8;" horiz-adv-x="670" 
d="M446 544v-26h52v-26h52v-26h26v-26h26v-52h26v-78h-26v-26h-460v-78h26v-52h26v-52h26v-26h26v-26h26v-26h156v26h52v26h26v26h26v52h26v52h26v-156h-52v-26h-78v-26h-207v26h-52v26h-52v26h-26v26h-26v52h-26v52h-26v130h26v52h26v52h26v26h26v26h52v26h52v26h149h50z
M384 570h-52v26h-26v26h-26v26h78v-26h26v-52zM193 440v-52h-26v-52h-26v-26h234h123v26h26v52h-26v52h-26v26h-26v26h-26v26h-149v-26h-26v-26h-26v-26h-26z" />
    <glyph glyph-name="eacute" unicode="&#xe9;" horiz-adv-x="670" 
d="M446 544v-26h52v-26h52v-26h26v-26h26v-52h26v-78h-26v-26h-460v-78h26v-52h26v-52h26v-26h26v-26h26v-26h156v26h52v26h26v26h26v52h26v52h26v-156h-52v-26h-78v-26h-207v26h-52v26h-52v26h-26v26h-26v52h-26v52h-26v130h26v52h26v52h26v26h26v26h52v26h52v26h149h50z
M281 622h26v26h78v-26h-26v-26h-26v-26h-52v52zM193 441v-52h-26v-52h-26v-26h234h123v26h26v52h-26v52h-26v26h-26v26h-26v26h-149v-26h-26v-26h-26v-26h-26z" />
    <glyph glyph-name="ecircumflex" unicode="&#xea;" horiz-adv-x="670" 
d="M446 544v-26h52v-26h52v-26h26v-26h26v-52h26v-78h-26v-26h-460v-78h26v-52h26v-52h26v-26h26v-26h26v-26h156v26h52v26h26v26h26v52h26v52h26v-156h-52v-26h-78v-26h-207v26h-52v26h-52v26h-26v26h-26v52h-26v52h-26v130h26v52h26v52h26v26h26v26h52v26h52v26h149h50z
M294 648h78v-26h26v-26h26v-26h-52v26h-26v26h-26v-26h-26v-26h-52v26h26v26h26v26zM193 441v-52h-26v-52h-26v-26h234h123v26h26v52h-26v52h-26v26h-26v26h-26v26h-149v-26h-26v-26h-26v-26h-26z" />
    <glyph glyph-name="edieresis" unicode="&#xeb;" horiz-adv-x="670" 
d="M446 544v-26h52v-26h52v-26h26v-26h26v-52h26v-78h-26v-26h-460v-78h26v-52h26v-52h26v-26h26v-26h26v-26h156v26h52v26h26v26h26v52h26v52h26v-156h-52v-26h-78v-26h-207v26h-52v26h-52v26h-26v26h-26v52h-26v52h-26v130h26v52h26v52h26v26h26v26h52v26h52v26h149h50z
M310 622v-52h-52v52h52zM407 622v-52h-52v52h52zM193 441v-52h-26v-52h-26v-26h234h123v26h26v52h-26v52h-26v26h-26v26h-26v26h-149v-26h-26v-26h-26v-26h-26z" />
    <glyph glyph-name="igrave" unicode="&#xec;" horiz-adv-x="339" 
d="M40 0v26h52v26h26v441h-26v26h-52v26h181v-493h26v-26h52v-26h-259zM221 570h-52v26h-26v26h-26v26h78v-26h26v-52z" />
    <glyph glyph-name="iacute" unicode="&#xed;" horiz-adv-x="339" 
d="M40 0v26h52v26h26v441h-26v26h-52v26h181v-493h26v-26h52v-26h-259zM118 622h26v26h78v-26h-26v-26h-26v-26h-52v52z" />
    <glyph glyph-name="icircumflex" unicode="&#xee;" horiz-adv-x="339" 
d="M40 0v26h52v26h26v441h-26v26h-52v26h181v-493h26v-26h52v-26h-259zM209 648v-26h26v-26h26v-26h-52v26h-26v26h-26v-26h-26v-26h-52v26h26v26h26v26h78z" />
    <glyph glyph-name="idieresis" unicode="&#xef;" horiz-adv-x="339" 
d="M40 0v26h52v26h26v441h-26v26h-52v26h181v-493h26v-26h52v-26h-259zM147 622v-52h-52v52h52zM192 622h52v-52h-52v52z" />
    <glyph glyph-name="eth" unicode="&#xf0;" horiz-adv-x="702" 
d="M273 519v-26h-26v-26h-26v-26h-26v-52h-26v-52h-26v-130h26v-52h26v-52h26v-26h26v-26h26v-26h156v26h26v26h26v26h26v52h26v52h26v65h-13v65h-13v52h-26v52h-26v26h-26v26h-26v26h-156zM545 700v-26h-26v-26h-26v-26h26v-26h26v-26h26v-26h26v-52h26v-52h26v-104h13
v-130h-26v-52h-26v-52h-26v-26h-26v-26h-52v-26h-52v-26h-207v26h-52v26h-52v26h-26v26h-26v52h-26v52h-26v130h26v52h26v52h26v26h26v26h52v26h52v26h207v-26h65v26h-26v26h-26v26h-26v-26h-52v26h26v52h-26v26h-26v26h52v-26h26v-26h26v26h26v26h52z" />
    <glyph glyph-name="ntilde" unicode="&#xf1;" 
d="M166 519v-26h26v26h78v26h104v26h-26v26h-52v-26h-52v26h26v26h26v26h52v-26h26v-26h52v26h52v-26h-26v-26h-26v-26h26v-26h78v-26h26v-26h26v-52h26v-363h26v-26h52v-26h-258v26h52v26h26v389h-26v26h-26v26h-52v26h-78v-26h-52v-26h-26v-26h-26v-389h26v-26h52v-26
h-258v26h52v26h26v441h-26v26h-52v26h104v-26h22z" />
    <glyph glyph-name="ograve" unicode="&#xf2;" horiz-adv-x="702" 
d="M380 518h-107v-26h-26v-26h-26v-26h-26v-52h-26v-52h-26v-130h26v-52h26v-52h26v-26h26v-26h26v-26h156v26h26v26h26v26h26v52h26v52h26v130h-26v52h-26v52h-26v26h-26v26h-26v26h-49zM403 570h-52v26h-26v26h-26v26h78v-26h26v-52zM248 0v26h-52v26h-52v26h-26v26h-26
v52h-26v52h-26v130h26v52h26v52h26v26h26v26h52v26h52v26h207v-26h52v-26h52v-26h26v-26h26v-52h26v-52h26v-130h-26v-52h-26v-52h-26v-26h-26v-26h-52v-26h-52v-26h-75h-132z" />
    <glyph glyph-name="oacute" unicode="&#xf3;" horiz-adv-x="702" 
d="M380 518h-107v-26h-26v-26h-26v-26h-26v-52h-26v-52h-26v-130h26v-52h26v-52h26v-26h26v-26h26v-26h156v26h26v26h26v26h26v52h26v52h26v130h-26v52h-26v52h-26v26h-26v26h-26v26h-49zM299 622h26v26h78v-26h-26v-26h-26v-26h-52v52zM248 0v26h-52v26h-52v26h-26v26h-26
v52h-26v52h-26v130h26v52h26v52h26v26h26v26h52v26h52v26h207v-26h52v-26h52v-26h26v-26h26v-52h26v-52h26v-130h-26v-52h-26v-52h-26v-26h-26v-26h-52v-26h-52v-26h-75h-132z" />
    <glyph glyph-name="ocircumflex" unicode="&#xf4;" horiz-adv-x="702" 
d="M380 518h-107v-26h-26v-26h-26v-26h-26v-52h-26v-52h-26v-130h26v-52h26v-52h26v-26h26v-26h26v-26h156v26h26v26h26v26h26v52h26v52h26v130h-26v52h-26v52h-26v26h-26v26h-26v26h-49zM312 648h78v-26h26v-26h26v-26h-52v26h-26v26h-26v-26h-26v-26h-52v26h26v26h26v26z
M248 0v26h-52v26h-52v26h-26v26h-26v52h-26v52h-26v130h26v52h26v52h26v26h26v26h52v26h52v26h207v-26h52v-26h52v-26h26v-26h26v-52h26v-52h26v-130h-26v-52h-26v-52h-26v-26h-26v-26h-52v-26h-52v-26h-75h-132z" />
    <glyph glyph-name="otilde" unicode="&#xf5;" horiz-adv-x="702" 
d="M380 518h-107v-26h-26v-26h-26v-26h-26v-52h-26v-52h-26v-130h26v-52h26v-52h26v-26h26v-26h26v-26h156v26h26v26h26v26h26v52h26v52h26v130h-26v52h-26v52h-26v26h-26v26h-26v26h-49zM233 596h26v26h26v26h52v-26h26v-26h52v26h52v-26h-26v-26h-26v-26h39v-26h52v-26h52
v-26h26v-26h26v-52h26v-52h26v-130h-26v-52h-26v-52h-26v-26h-26v-26h-52v-26h-52v-26h-207v26h-52v26h-52v26h-26v26h-26v52h-26v52h-26v130h26v52h26v52h26v26h26v26h52v26h52v26h117v26h-26v26h-52v-26h-52z" />
    <glyph glyph-name="odieresis" unicode="&#xf6;" horiz-adv-x="702" 
d="M380 518h-107v-26h-26v-26h-26v-26h-26v-52h-26v-52h-26v-130h26v-52h26v-52h26v-26h26v-26h26v-26h156v26h26v26h26v26h26v52h26v52h26v130h-26v52h-26v52h-26v26h-26v26h-26v26h-49zM329 622v-52h-52v52h52zM426 622v-52h-52v52h52zM249 0v26h-52v26h-52v26h-26v26h-26
v52h-26v52h-26v130h26v52h26v52h26v26h26v26h52v26h52v26h207v-26h52v-26h52v-26h26v-26h26v-52h26v-52h26v-130h-26v-52h-26v-52h-26v-26h-26v-26h-52v-26h-52v-26h-75h-132z" />
    <glyph glyph-name="divide" unicode="&#xf7;" horiz-adv-x="391" 
d="M170 454h-26v52h26v26h52v-26h26v-52h-26v-26h-52v26zM222 247h26v-52h-26v-26h-52v26h-26v52h26v26h52v-26zM353 377v-52h-312v52h312z" />
    <glyph glyph-name="oslash" unicode="&#xf8;" horiz-adv-x="702" 
d="M662 337v-130h-26v-52h-26v-52h-26v-26h-26v-26h-52v-26h-52v-26h-207v26h-52v26h-52v-26h-26v-26h-52v26h26v26h26v52h-26v52h-26v52h-26v130h26v52h26v52h26v26h26v26h52v26h52v26h207v-26h52v-26h52v26h26v26h52v-26h-26v-26h-26v-26v-26h26v-52h26v-52h26zM143 337
v-130h26v-52h52v26h26v26h26v26h26v26h26v26h26v26h26v26h26v26h26v26h26v26h26v52h-26v26h-26v26h-156v-26h-26v-26h-26v-26h-26v-52h-26v-52h-26zM558 207v130h-26v52h-52v-26h-26v-26h-26v-26h-26v-26h-26v-26h-26v-26h-26v-26h-26v-26h-26v-26h-26v-26h-26v-52h26v-26
h26v-26h156v26h26v26h26v26h26v52h26v52h26z" />
    <glyph glyph-name="ugrave" unicode="&#xf9;" 
d="M561 26v26h-26v-26h-78v-26h-181v26h-78v26h-26v26h-26v52h-26v363h-26v26h-52v26h258v-26h-52v-26h-26v-389h26v-26h26v-26h52v-26h78v26h52v26h26v26h26v389h-26v26h-52v26h258v-26h-52v-26h-26v-441h26v-26h52v-26h-104v26h-23zM418 570h-52v26h-26v26h-26v26h78v-26
h26v-52z" />
    <glyph glyph-name="uacute" unicode="&#xfa;" 
d="M561 26v26h-26v-26h-78v-26h-181v26h-78v26h-26v26h-26v52h-26v363h-26v26h-52v26h258v-26h-52v-26h-26v-389h26v-26h26v-26h52v-26h78v26h52v26h26v26h26v389h-26v26h-52v26h258v-26h-52v-26h-26v-441h26v-26h52v-26h-104v26h-23zM315 622h26v26h78v-26h-26v-26h-26v-26
h-52v52z" />
    <glyph glyph-name="ucircumflex" unicode="&#xfb;" 
d="M561 26v26h-26v-26h-78v-26h-181v26h-78v26h-26v26h-26v52h-26v363h-26v26h-52v26h258v-26h-52v-26h-26v-389h26v-26h26v-26h52v-26h78v26h52v26h26v26h26v389h-26v26h-52v26h258v-26h-52v-26h-26v-441h26v-26h52v-26h-104v26h-23zM406 648v-26h26v-26h26v-26h-52v26h-26
v26h-26v-26h-26v-26h-52v26h26v26h26v26h78z" />
    <glyph glyph-name="udieresis" unicode="&#xfc;" 
d="M561 26v26h-26v-26h-78v-26h-181v26h-78v26h-26v26h-26v52h-26v363h-26v26h-52v26h258v-26h-52v-26h-26v-389h26v-26h26v-26h52v-26h78v26h52v26h26v26h26v389h-26v26h-52v26h258v-26h-52v-26h-26v-441h26v-26h52v-26h-104v26h-23zM344 622v-52h-52v52h52zM389 622h52
v-52h-52v52z" />
    <glyph glyph-name="yacute" unicode="&#xfd;" horiz-adv-x="780" 
d="M457 51h-26v-52h-26v-26h-26v-52h-26v-26h-26v-26h-26v-26h-130v26h-52v26h-26v78h26v26h26v26h26v-52h26v-52h26v-26h78v26h26v52h26v26h-26v52h-26v52h-26v52h-26v52h-26v52h-26v52h-26v52h-26v52h-26v52h-26v26h-26v26h-26v26h285v-26h-52v-26h-52v-26h26v-52h26v-52
h26v-52h26v-52h26v-52h26v-52h26v-52h26v52h26v52h26v52h26v52h26v52h26v52h26v52h-26v26h-26v26h-52v26h259v-26h-52v-26h-26v-26h-26v-52h-26v-51h-26v-52h-26v-52h-26v-52h-26v-52h-26v-52h-26zM340 622h26v26h78v-26h-26v-26h-26v-26h-52v52z" />
    <glyph glyph-name="thorn" unicode="&#xfe;" horiz-adv-x="624" 
d="M171 -103h-130v26h52v26h26v700h-26v26h-52v26h258v-26h-52v-26h-26v-104h181v-26h52v-26h52v-26h26v-26h26v-52h26v-181h-26v-52h-26v-26h-26v-26h-52v-26h-52v-26h-180v-104h26v-26h52v-26h-130zM222 519v-441h156v26h26v26h26v26h26v52h26v181h-26v52h-26v26h-26v26
h-26v26h-156z" />
    <glyph glyph-name="ydieresis" unicode="&#xff;" horiz-adv-x="780" 
d="M457 51h-26v-52h-26v-26h-26v-52h-26v-26h-26v-26h-26v-26h-130v26h-52v26h-26v78h26v26h26v26h26v-52h26v-52h26v-26h78v26h26v52h26v26h-26v52h-26v52h-26v52h-26v52h-26v52h-26v52h-26v52h-26v52h-26v52h-26v26h-26v26h-26v26h285v-26h-52v-26h-52v-26h26v-52h26v-52
h26v-52h26v-52h26v-52h26v-52h26v-52h26v52h26v52h26v52h26v52h26v52h26v52h26v52h-26v26h-26v26h-52v26h259v-26h-52v-26h-26v-26h-26v-52h-26v-51h-26v-52h-26v-52h-26v-52h-26v-52h-26v-52h-26zM370 621v-52h-52v52h52zM415 621h52v-52h-52v52z" />
    <glyph glyph-name="Amacron" unicode="&#x100;" horiz-adv-x="961" 
d="M531 700v-52h26v-52h26v-52h26v-52h26v-52h26v-52h26v-52h26v-52h26v-52h26v-52h26v-52h26v-52h26v-26h26v-26h52v-26h-337v26h52v26h26v26h26v52h-26v52h-26v26h-390v-26h-26v-52h-26v-52h26v-26h26v-26h52v-26h-259v26h52v26h26v26h26v52h26v52h26v52h26v52h26v52h26
v52h26v52h26v52h26v52h26v52h26v52h-26v26h-52v26h206zM572 778v-52h-185v52h185zM610 259v26h-26v52h-26v52h-26v52h-26v52h-26v52h-26v52h-26v-52h-26v-52h-26v-52h-26v-52h-26v-52h-26v-52h-26v-26h26v-26h285v26h27z" />
    <glyph glyph-name="amacron" unicode="&#x101;" horiz-adv-x="624" 
d="M455 389v78h-26v26h-26v26h-181v-26h-52v-26h-26v-26h-26v-26h-26v-52h-26v130h52v26h78v26h259v-26h52v-26h26v-26h26v-441h26v-26h-52v26h-52v26h-26v-26h-78v-26h-207v26h-52v26h-52v26h-26v181h26v26h52v26h181v26h104v26h52v-259h-26v-26h-26v-26h-52v-26h-156v26
h-26v26h-26v181h26v26h26v52h104v26h78v26h78zM220 622h185v-52h-185v52z" />
    <glyph glyph-name="Abreve" unicode="&#x102;" horiz-adv-x="961" 
d="M531 700v-52h26v-52h26v-52h26v-52h26v-52h26v-52h26v-52h26v-52h26v-52h26v-52h26v-52h26v-52h26v-26h26v-26h52v-26h-337v26h52v26h26v26h26v52h-26v52h-26v26h-390v-26h-26v-52h-26v-52h26v-26h26v-26h52v-26h-259v26h52v26h26v26h26v52h26v52h26v52h26v52h26v52h26
v52h26v52h26v52h26v52h26v52h26v52h-26v26h-52v26h206zM388 804h26v-26h52v-26h26v26h52v26h26v-52h-26v-26h-130v26h-26v26v26zM609 259v26h-26v52h-26v52h-26v52h-26v52h-26v52h-26v52h-26v-52h-26v-52h-26v-52h-26v-52h-26v-52h-26v-52h-26v-26h26v-26h285v26h27z" />
    <glyph glyph-name="abreve" unicode="&#x103;" horiz-adv-x="624" 
d="M455 389v78h-26v26h-26v26h-181v-26h-52v-26h-26v-26h-26v-26h-26v-52h-26v130h52v26h78v26h259v-26h52v-26h26v-26h26v-441h26v-26h-52v26h-52v26h-26v-26h-78v-26h-207v26h-52v26h-52v26h-26v181h26v26h52v26h181v26h104v26h52v-259h-26v-26h-26v-26h-52v-26h-156v26
h-26v26h-26v181h26v26h26v52h104v26h78v26h78zM222 622v26h26v-26h52v-26h26v26h52v26h26v-52h-26v-26h-130v26h-26v26z" />
    <glyph glyph-name="Aogonek" unicode="&#x104;" horiz-adv-x="961" 
d="M791 -26v-52h78v26h52v-26h-26v-26h-130v26h-26v52h26v26h-181v26h52v26h26v26h26v52h-26v52h-26v26h-390v-26h-26v-52h-26v-52h26v-26h26v-26h52v-26h-259v26h52v26h26v26h26v52h26v52h26v52h26v52h26v52h26v52h26v52h26v52h26v52h26v52h26v52h-26v26h-52v26h207v-52h26
v-52h26v-52h26v-52h26v-52h26v-52h26v-52h26v-52h26v-52h26v-52h26v-52h26v-52h26v-26h26v-26h52v-26h-104v-26h-27zM611 259v26h-26v52h-26v52h-26v52h-26v52h-26v52h-26v52h-26v-52h-26v-52h-26v-52h-26v-52h-26v-52h-26v-52h-26v-26h26v-26h285v26h27z" />
    <glyph glyph-name="aogonek" unicode="&#x105;" horiz-adv-x="702" 
d="M456 389v78h-26v26h-26v26h-52v0h-130v-26h-52v-26h-26v-26h-26v-26h-26v-52h-26v130h52v26h78v26h77h182v-26h52v-26h26v-26h26v-441h26v-26h-26v-26h-26v-52h78v26h52v-26h-26v-26h-130v26h-26v52h26v26h26v26h-52v26h-26v-26h-78v-26h-207v26h-52v26h-52v26h-26v181
h26v26h52v26h181v26h104v26h52v-259h-26v-26h-26v-26h-52v-26h-156v26h-26v26h-26v181h26v26h26v52h104v26h78v26h79z" />
    <glyph glyph-name="Cacute" unicode="&#x106;" 
d="M688 232v-130h-26v-26h-26v-26h-52v-26h-52v-26h-285v26h-52v26h-52v26h-26v26h-26v52h-26v52h-26v285h26v52h26v52h26v26h26v26h52v26h52v26h285v-26h52v-26h26v-26h26v26h26v52h26v-259h-26v52h-26v26h-26v52h-26v26h-26v26h-26v26h-26v26h-233v-26h-26v-26h-26v-26
h-26v-52h-26v-52h-26v-285h26v-52h26v-52h26v-26h26v-26h26v-26h233v26h52v26h26v26h26v26h26v52h26v52zM312 777h26v26h78v-26h-26v-26h-26v-26h-52v52z" />
    <glyph glyph-name="cacute" unicode="&#x107;" horiz-adv-x="624" 
d="M350 543h130v-26h52v-26h26v52h26v-207h-26v52h-26v52h-26v26h-26v26h-26v26h-181v-26h-26v-26h-26v-26h-26v-52h-26v-52h-26v-130h26v-52h26v-52h26v-26h26v-26h26v-26h181v26h26v26h26v26h26v52h26v52h26v-156h-52v-26h-52v-26h-233v26h-52v26h-52v26h-26v26h-26v52
h-26v52h-26v130h26v52h26v52h26v26h26v26h52v26h52v26h104zM259 621h26v26h78v-26h-26v-26h-26v-26h-52v52z" />
    <glyph glyph-name="Ccaron" unicode="&#x10c;" 
d="M688 232v-130h-26v-26h-26v-26h-52v-26h-52v-26h-285v26h-52v26h-52v26h-26v26h-26v52h-26v52h-26v285h26v52h26v52h26v26h26v26h52v26h52v26h285v-26h52v-26h26v-26h26v26h26v52h26v-259h-26v52h-26v26h-26v52h-26v26h-26v26h-26v26h-26v26h-233v-26h-26v-26h-26v-26
h-26v-52h-26v-52h-26v-285h26v-52h26v-52h26v-26h26v-26h26v-26h233v26h52v26h26v26h26v26h26v52h26v52zM403 725h-78v26h-26v26h-26v26h52v-26h26v-26h26v26h26v26h52v-26h-26v-26h-26v-26z" />
    <glyph glyph-name="ccaron" unicode="&#x10d;" horiz-adv-x="624" 
d="M350 543h130v-26h52v-26h26v52h26v-207h-26v52h-26v52h-26v26h-26v26h-26v26h-181v-26h-26v-26h-26v-26h-26v-52h-26v-52h-26v-130h26v-52h26v-52h26v-26h26v-26h26v-26h181v26h26v26h26v26h26v52h26v52h26v-156h-52v-26h-52v-26h-233v26h-52v26h-52v26h-26v26h-26v52
h-26v52h-26v130h26v52h26v52h26v26h26v26h52v26h52v26h104zM272 569v26h-26v26h-26v26h52v-26h26v-26h26v26h26v26h52v-26h-26v-26h-26v-26h-78z" />
    <glyph glyph-name="Dcaron" unicode="&#x10e;" horiz-adv-x="754" 
d="M364 1h-324v26h52v26h26v596h-26v26h-52v26h467v-26h52v-26h52v-26h26v-26h26v-52h26v-52h26v-285h-26v-52h-26v-52h-26v-26h-26v-26h-52v-26h-52v-26h-143v1zM416 727h-78v26h-26v26h-26v26h52v-26h26v-26h26v26h26v26h52v-26h-26v-26h-26v-26zM248 674v-26h-26v-622
h259v26h26v26h26v26h26v52h26v52h26v285h-26v52h-26v52h-26v26h-26v26h-26v26h-117z" />
    <glyph glyph-name="dcaron" unicode="&#x10f;" 
d="M377 543h52v-26h26v-26h26v-26h26v181h-26v26h-52v26h181v-648h26v-26h52v-26h-104v26h-52v26h-26v26h-26v-26h-26v-26h-26v-26h-181v26h-52v26h-52v26h-26v26h-26v52h-26v52h-26v130h26v52h26v52h26v26h26v26h52v26h52v26h130v-1zM688 595h-26v26h-26v78h52v-104z
M507 388h-26v52h-26v26h-26v26h-26v26h-130v-26h-26v-26h-26v-26h-26v-52h-26v-52h-26v-130h26v-52h26v-52h26v-26h26v-26h26v-26h130v26h26v26h26v26h26v52h26v234z" />
    <glyph glyph-name="dmacron" unicode="&#x111;" 
d="M377 543h52v-26h26v-26h26v-26h26v90h-52v52h52v39h-26v26h-52v26h181v-91h52v-52h-52v-505h26v-26h52v-26h-104v26h-52v26h-26v26h-26v-26h-26v-26h-26v-26h-181v26h-52v26h-52v26h-26v26h-26v52h-26v52h-26v130h26v52h26v52h26v26h26v26h52v26h52v26h130v-1zM507 388
h-26v52h-26v26h-26v26h-26v26h-130v-26h-26v-26h-26v-26h-26v-52h-26v-52h-26v-130h26v-52h26v-52h26v-26h26v-26h26v-26h130v26h26v26h26v26h26v52h26v234z" />
    <glyph glyph-name="Emacron" unicode="&#x112;" 
d="M662 491h-26v52h-26v52h-52v52h-52v26h-259v-26h-26v-285h130v26h26v26h26v52h26v-233h-26v52h-26v26h-26v26h-130v-285h26v-26h285v26h52v52h52v52h26v52h26v-130h-26v-78h-622v26h52v26h26v596h-26v26h-52v26h596v-78h26v-131zM271 776h185v-52h-185v52z" />
    <glyph glyph-name="emacron" unicode="&#x113;" horiz-adv-x="670" 
d="M446 544v-26h52v-26h52v-26h26v-26h26v-52h26v-78h-26v-26h-460v-78h26v-52h26v-52h26v-26h26v-26h26v-26h156v26h52v26h26v26h26v52h26v52h26v-156h-52v-26h-78v-26h-207v26h-52v26h-52v26h-26v26h-26v52h-26v52h-26v130h26v52h26v52h26v26h26v26h52v26h52v26h149h50z
M425 622v-52h-185v52h185zM193 441v-52h-26v-52h-26v-26h234h123v26h26v52h-26v52h-26v26h-26v26h-26v26h-149v-26h-26v-26h-26v-26h-26z" />
    <glyph glyph-name="Edot" unicode="&#x116;" 
d="M662 491h-26v52h-26v52h-52v52h-52v26h-259v-26h-26v-285h130v26h26v26h26v52h26v-233h-26v52h-26v26h-26v26h-130v-285h26v-26h285v26h52v52h52v52h26v52h26v-130h-26v-78h-622v26h52v26h26v596h-26v26h-52v26h596v-78h26v-131zM338 776h52v-52h-52v52z" />
    <glyph glyph-name="edot" unicode="&#x117;" horiz-adv-x="670" 
d="M446 544v-26h52v-26h52v-26h26v-26h26v-52h26v-78h-26v-26h-460v-78h26v-52h26v-52h26v-26h26v-26h26v-26h156v26h52v26h26v26h26v52h26v52h26v-156h-52v-26h-78v-26h-207v26h-52v26h-52v26h-26v26h-26v52h-26v52h-26v130h26v52h26v52h26v26h26v26h52v26h52v26h149h50z
M359 622v-52h-52v52h52zM194 441v-52h-26v-52h-26v-26h234h123v26h26v52h-26v52h-26v26h-26v26h-26v26h-149v-26h-26v-26h-26v-26h-26z" />
    <glyph glyph-name="Eogonek" unicode="&#x118;" 
d="M663 491h-26v52h-26v52h-52v52h-52v26h-259v-26h-26v-285h130v26h26v26h26v52h26v-233h-26v52h-26v26h-26v26h-130v-285h26v-26h285v26h52v52h52v52h26v52h26v-130h-26v-78h-78v-26h-26v-52h78v26h52v-26h-26v-26h-130v26h-26v52h26v26h-493v26h52v26h26v596h-26v26h-52
v26h596v-78h26z" />
    <glyph glyph-name="eogonek" unicode="&#x119;" horiz-adv-x="670" 
d="M447 544v-26h52v-26h52v-26h26v-26h26v-52h26v-78h-26v-26h-460v-78h26v-52h26v-52h26v-26h26v-26h26v-26h156v26h52v26h26v26h26v52h26v52h26v-156h-52v-26h-78v-26h-133v-26h-26v-52h78v26h52v-26h-26v-26h-130v26h-26v52h26v26h-23v26h-52v26h-52v26h-26v26h-26v52
h-26v52h-26v130h26v52h26v52h26v26h26v26h52v26h52v26h149h51zM194 440v-52h-26v-52h-26v-26h234h123v26h26v52h-26v52h-26v26h-26v26h-26v26h-149v-26h-26v-26h-26v-26h-26z" />
    <glyph glyph-name="Ecaron" unicode="&#x11a;" 
d="M662 595v-104h-26v52h-26v52h-52v52h-52v26h-259v-26h-26v-285h130v26h26v26h26v52h26v-233h-26v52h-26v26h-26v26h-130v-285h26v-26h285v26h52v52h52v52h26v52h26v-130h-26v-78h-622v26h52v26h26v596h-26v26h-52v26h596v-78h26v-26v-1zM403 725h-78v26h-26v26h-26v26h52
v-26h26v-26h26v26h26v26h52v-26h-26v-26h-26v-26z" />
    <glyph glyph-name="ecaron" unicode="&#x11b;" horiz-adv-x="670" 
d="M446 544v-26h52v-26h52v-26h26v-26h26v-52h26v-78h-26v-26h-460v-78h26v-52h26v-52h26v-26h26v-26h26v-26h156v26h52v26h26v26h26v52h26v52h26v-156h-52v-26h-78v-26h-207v26h-52v26h-52v26h-26v26h-26v52h-26v52h-26v130h26v52h26v52h26v26h26v26h52v26h52v26h149h50z
M371 570h-78v26h-26v26h-26v26h52v-26h26v-26h26v26h26v26h52v-26h-26v-26h-26v-26zM193 440v-52h-26v-52h-26v-26h234h123v26h26v52h-26v52h-26v26h-26v26h-26v26h-149v-26h-26v-26h-26v-26h-26z" />
    <glyph glyph-name="Gbreve" unicode="&#x11e;" horiz-adv-x="780" 
d="M585 310h-26v26h-104v26h285v-26h-26v-26h-26v-311h-26v26h-26v26h-26v-26h-78v-26h-285v26h-52v26h-52v26h-26v26h-26v52h-26v52h-26v285h26v52h26v52h26v26h26v26h52v26h52v26h285v-26h52v-26h26v-26h26v26h26v52h26v-207h-52v52h-52v52h-26v26h-26v26h-26v26h-233v-26
h-26v-26h-26v-26h-26v-52h-26v-52h-26v-285h26v-52h26v-52h26v-26h26v-26h26v-26h233v26h52v26h26zM300 777v26h26v-26h52v-26h26v26h52v26h26v-52h-26v-26h-130v26h-26v26z" />
    <glyph glyph-name="gbreve" unicode="&#x11f;" horiz-adv-x="704" 
d="M429 77v26h26v26h26v26h26v52h26v52h26v78h-26v52h-26v52h-26v26h-26v26h-26v26h-156v-26h-26v-26h-26v-26h-26v-52h-26v-52h-26v-78h26v-52h26v-52h26v-26h26v-26h26v-26h156zM299 570v26h-26v52h26v-26h52v-26h26v26h52v26h26v-52h-26v-26h-130zM144 -78h26v-26h26v-26
h78v26h26v26h26v26h26v26h26v26h156v-26h26v-26h26v-26h26v-26h26v-26h26v-26h-157v26h-26v26h-26v26h-28v26h-50v-26h-19v-26h-26v-26h-26v-26h-186v26h-52v26h-26v104h26v26h52v26h52v26h24v26h-52v26h-26v26h-26v52h-26v52h-26v78h26v52h26v52h26v26h26v26h52v26h52v26
h207v-26h52v-26h28v26h26v26h104v-104h-26v26h-26v26h-52v-26h24v-26h26v-52h26v-52h26v-78h-26v-52h-26v-52h-26v-26h-26v-26h-52v-26h-52v-26h-232v-26h-52v-26h-26z" />
    <glyph glyph-name="Imacron" unicode="&#x12a;" horiz-adv-x="339" 
d="M171 0h-130v26h52v26h26v596h-26v26h-52v26h259v-26h-52v-26h-26v-596h26v-26h52v-26h-130h1zM79 778h185v-52h-185v52z" />
    <glyph glyph-name="imacron" unicode="&#x12b;" horiz-adv-x="339" 
d="M40 0v26h52v26h26v441h-26v26h-52v26h181v-493h26v-26h52v-26h-259zM77 622h185v-52h-185v52z" />
    <glyph glyph-name="Idotaccent" unicode="&#x130;" horiz-adv-x="339" 
d="M171 0h-130v26h52v26h26v596h-26v26h-52v26h259v-26h-52v-26h-26v-596h26v-26h52v-26h-130h1zM145 778h52v-52h-52v52z" />
    <glyph glyph-name="dotlessi" unicode="&#x131;" horiz-adv-x="339" 
d="M40 0v26h52v26h26v441h-26v26h-52v26h181v-493h26v-26h52v-26h-259z" />
    <glyph glyph-name="Lslash" unicode="&#x141;" 
d="M299 673h-52v-26h-26v-272h26v26h26v26h52v-26h-26v-26h-26v-26h-26v-26h-26v-272h26v-26h285v26h52v52h52v52h26v52h26v-130h-26v-78h-622v26h52v26h26v143h-26v-26h-52v26h26v26h26v26h26v402h-26v26h-52v26h259v-27z" />
    <glyph glyph-name="lslash" unicode="&#x142;" horiz-adv-x="339" 
d="M40 0v26h52v26h26v207h-26v-26h-52v26h26v26h26v26h26v337h-26v26h-52v26h181v-259h26v26h52v-26h-26v-26h-26v-26h-26v-337h26v-26h52v-26h-259z" />
    <glyph glyph-name="Nacute" unicode="&#x143;" horiz-adv-x="832" 
d="M273 570h26v-26h26v-26h26v-26h26v-26h26v-26h26v-26h26v-26h26v-26h26v-26h26v-26h26v-26h26v-26h26v-26h26v-26h26v-26h26v467h-26v26h-52v26h181v-26h-52v-26h-26v-648h-26v26h-26v26h-26v26h-26v26h-26v26h-26v26h-26v26h-26v26h-26v26h-26v26h-26v26h-26v26h-26v26
h-26v26h-26v26h-26v26h-26v26h-26v26h-26v26h-26v26h-26v26h-26v-493h26v-26h52v-26h-181v26h52v26h26v596h-26v26h-52v26h130v-26h26v-26h26v-26h26v-26h26v-26zM364 778h26v26h78v-26h-26v-26h-26v-26h-52v52z" />
    <glyph glyph-name="nacute" unicode="&#x144;" 
d="M167 519v-26h26v26h78v26h181v-26h78v-26h26v-26h26v-52h26v-363h26v-26h52v-26h-258v26h52v26h26v389h-26v26h-26v26h-52v26h-78v-26h-52v-26h-26v-26h-26v-389h26v-26h52v-26h-258v26h52v26h26v441h-26v26h-52v26h104v-26h23zM310 623h26v26h78v-26h-26v-26h-26v-26
h-52v52z" />
    <glyph glyph-name="Ncaron" unicode="&#x147;" horiz-adv-x="832" 
d="M273 570h26v-26h26v-26h26v-26h26v-26h26v-26h26v-26h26v-26h26v-26h26v-26h26v-26h26v-26h26v-26h26v-26h26v-26h26v-26h26v467h-26v26h-52v26h181v-26h-52v-26h-26v-648h-26v26h-26v26h-26v26h-26v26h-26v26h-26v26h-26v26h-26v26h-26v26h-26v26h-26v26h-26v26h-26v26
h-26v26h-26v26h-26v26h-26v26h-26v26h-26v26h-26v26h-26v26h-26v-493h26v-26h52v-26h-181v26h52v26h26v596h-26v26h-52v26h130v-26h26v-26h26v-26h26v-26h26v-26zM454 725h-78v26h-26v26h-26v26h52v-26h26v-26h26v26h26v26h52v-26h-26v-26h-26v-26z" />
    <glyph glyph-name="ncaron" unicode="&#x148;" 
d="M167 519v-26h26v26h78v26h181v-26h78v-26h26v-26h26v-52h26v-363h26v-26h52v-26h-258v26h52v26h26v389h-26v26h-26v26h-52v26h-78v-26h-52v-26h-26v-26h-26v-389h26v-26h52v-26h-258v26h52v26h26v441h-26v26h-52v26h104v-26h23zM322 571v26h-26v26h-26v26h52v-26h26v-26
h26v26h26v26h52v-26h-26v-26h-26v-26h-78z" />
    <glyph glyph-name="Omacron" unicode="&#x14c;" horiz-adv-x="806" 
d="M481 1h-207v26h-52v26h-52v26h-26v26h-26v52h-26v52h-26v52h-26v181h26v52h26v52h26v52h26v26h26v26h52v26h52v26h259v-26h52v-26h52v-26h26v-26h26v-52h26v-52h26v-52h26v-182h-26v-52h-26v-52h-26v-52h-26v-26h-26v-26h-52v-26h-52v-26h-52v1zM496 779v-52h-185v52h185
zM301 675v-26h-26v-26h-26v-26h-26v-52h-26v-52h-26v-52h-26v-181h26v-52h26v-52h26v-52h26v-26h26v-26h26v-26h207v26h26v26h26v26h26v52h26v52h26v52h26v181h-26v52h-26v52h-26v52h-26v26h-26v26h-26v26h-104h-103z" />
    <glyph glyph-name="omacron" unicode="&#x14d;" horiz-adv-x="702" 
d="M380 518h-107v-26h-26v-26h-26v-26h-26v-52h-26v-52h-26v-130h26v-52h26v-52h26v-26h26v-26h26v-26h156v26h26v26h26v26h26v52h26v52h26v130h-26v52h-26v52h-26v26h-26v26h-26v26h-49zM443 622v-52h-185v52h185zM248 0v26h-52v26h-52v26h-26v26h-26v52h-26v52h-26v130h26
v52h26v52h26v26h26v26h52v26h52v26h207v-26h52v-26h52v-26h26v-26h26v-52h26v-52h26v-130h-26v-52h-26v-52h-26v-26h-26v-26h-52v-26h-52v-26h-75h-132z" />
    <glyph glyph-name="Ohungarumlaut" unicode="&#x150;" horiz-adv-x="806" 
d="M481 1h-207v26h-52v26h-52v26h-26v26h-26v52h-26v52h-26v52h-26v181h26v52h26v52h26v52h26v26h26v26h52v26h52v26h259v-26h52v-26h52v-26h26v-26h26v-52h26v-52h26v-52h26v-182h-26v-52h-26v-52h-26v-52h-26v-26h-26v-26h-52v-26h-52v-26h-52v1zM287 779h26v26h78v-26
h-26v-26h-26v-26h-52v52zM417 779h26v26h78v-26h-26v-26h-26v-26h-52v52zM301 675v-26h-26v-26h-26v-26h-26v-52h-26v-52h-26v-52h-26v-181h26v-52h26v-52h26v-52h26v-26h26v-26h26v-26h207v26h26v26h26v26h26v52h26v52h26v52h26v181h-26v52h-26v52h-26v52h-26v26h-26v26
h-26v26h-104h-103z" />
    <glyph glyph-name="ohungarumlaut" unicode="&#x151;" horiz-adv-x="702" 
d="M380 518h-107v-26h-26v-26h-26v-26h-26v-52h-26v-52h-26v-130h26v-52h26v-52h26v-26h26v-26h26v-26h156v26h26v26h26v26h26v52h26v52h26v130h-26v52h-26v52h-26v26h-26v26h-26v26h-49zM234 622h26v26h78v-26h-26v-26h-26v-26h-52v52zM364 622h26v26h78v-26h-26v-26h-26
v-26h-52v52zM248 0v26h-52v26h-52v26h-26v26h-26v52h-26v52h-26v130h26v52h26v52h26v26h26v26h52v26h52v26h207v-26h52v-26h52v-26h26v-26h26v-52h26v-52h26v-130h-26v-52h-26v-52h-26v-26h-26v-26h-52v-26h-52v-26h-75h-132z" />
    <glyph glyph-name="OE" unicode="&#x152;" horiz-adv-x="1169" 
d="M480 -2h-207v26h-52v26h-52v26h-26v26h-26v52h-26v52h-26v52h-26v181h26v52h26v52h26v52h26v26h26v26h52v26h52v26h804v-78h26v-130h-26v52h-26v52h-52v52h-52v26h-259v-26h-26v-285h130v26h26v26h26v52h26v-233h-26v52h-26v26h-26v26h-130v-285h26v-26h285v26h52v52h52
v52h26v52h26v-130h-26v-78h-622zM558 621h-26v26h-26v26h-207v-26h-26v-26h-26v-26h-26v-52h-26v-52h-26v-52h-26v-181h26v-52h26v-52h26v-52h26v-26h26v-26h26v-26h207v26h26v26h26v545z" />
    <glyph glyph-name="oe" unicode="&#x153;" horiz-adv-x="1188" 
d="M380 518h-107v-26h-26v-26h-26v-26h-26v-52h-26v-52h-26v-130h26v-52h26v-52h26v-26h26v-26h26v-26h156v26h26v26h26v26h26v52h26v52h26v130h-26v52h-26v52h-26v26h-26v26h-26v26h-49zM965 544v-26h52v-26h52v-26h26v-26h26v-52h26v-78h-26v-26h-460v-78h26v-52h26v-52
h26v-26h26v-26h26v-26h156v26h52v26h26v26h26v52h26v52h26v-156h-52v-26h-78v-26h-207v26h-52v26h-52v26h-26v26h-52v-26h-26v-26h-52v-26h-52v-26h-207v26h-52v26h-52v26h-26v26h-26v52h-26v52h-26v130h26v52h26v52h26v26h26v26h52v26h52v26h207v-26h52v-26h52v-26h26v-26
h52v26h26v26h52v26h52v26h126h23h50zM713 440v-52h-26v-52h-26v-26h356v26h26v52h-26v52h-26v26h-26v26h-26v26h-149v-26h-26v-26h-26v-26h-25z" />
    <glyph glyph-name="Racute" unicode="&#x154;" horiz-adv-x="780" 
d="M170 1h-130v26h52v26h26v596h-26v26h-52v26h467v-26h52v-26h52v-26h26v-26h26v-52h26v-159h-26v-52h-26v-26h-26v-26h-52v-26h-52v-26h-45v-23h71v-26h26v-26h26v-26h26v-26h26v-26h26v-26h26v-26h52v-26h-259v26h52v26h-26v26h-26v26h-26v26h-26v26h-26v26h-26v26h-26
v23h-78v26h-26v26h-26v-230h26v-26h52v-26h-130v1zM339 779h26v26h78v-26h-26v-26h-26v-26h-52v52zM248 674v-26h-26v-340h26v-26h26v-26h207v26h26v26h26v26h26v52h26v159h-26v52h-26v26h-26v26h-26v26h-181z" />
    <glyph glyph-name="racute" unicode="&#x155;" horiz-adv-x="573" 
d="M532 389h-26v26h-26v26h-26v26h-26v26h-52v26h-52v-26h-52v-26h-26v-26h-26v-389h26v-26h52v-26h-258v26h52v26h26v441h-26v26h-52v26h104v-26h26v-26h26v26h78v26h181v-26h52v-26h26zM234 622h26v26h78v-26h-26v-26h-26v-26h-52v52z" />
    <glyph glyph-name="Rcaron" unicode="&#x158;" horiz-adv-x="780" 
d="M170 1h-130v26h52v26h26v596h-26v26h-52v26h467v-26h52v-26h52v-26h26v-26h26v-52h26v-159h-26v-52h-26v-26h-26v-26h-52v-26h-52v-26h-45v-23h71v-26h26v-26h26v-26h26v-26h26v-26h26v-26h26v-26h52v-26h-259v26h52v26h-26v26h-26v26h-26v26h-26v26h-26v26h-26v26h-26
v23h-78v26h-26v26h-26v-230h26v-26h52v-26h-130v1zM429 727h-78v26h-26v26h-26v26h52v-26h26v-26h26v26h26v26h52v-26h-26v-26h-26v-26zM247 674v-26h-26v-340h26v-26h26v-26h207v26h26v26h26v26h26v52h26v159h-26v52h-26v26h-26v26h-26v26h-181z" />
    <glyph glyph-name="rcaron" unicode="&#x159;" horiz-adv-x="573" 
d="M532 467v-78h-26v26h-26v26h-26v26h-26v26h-52v26h-52v-26h-52v-26h-26v-26h-26v-389h26v-26h52v-26h-258v26h52v26h26v441h-26v26h-52v26h104v-26h26v-26h26v26h78v26h181v-26h52v-26h26v-26h-1zM247 571v26h-26v26h-26v26h52v-26h26v-26h26v26h26v26h52v-26h-26v-26
h-26v-26h-78z" />
    <glyph glyph-name="Sacute" unicode="&#x15a;" 
d="M481 673h52v-26h26v-26h26v-26h26v26h26v78h26v-298h-26v65h-26v26h-26v52h-26v26h-26v26h-26v26h-26v26h-26v26h-259v26h285v-27zM312 777h26v26h78v-26h-26v-26h-26v-26h-52v52zM221 467v-26h52v-26h105v-26h104v-26h78v-26h52v-26h26v-26h26v-26h26v-130h-26v-26h-26
v-26h-26v-26h-52v-26h-52v26h26v26h26v26h26v104h-26v26h-52v26h-52v26h-105v26h-104v26h-78v21h-52v26h-26v26h-26v26h-26v134h26v26h26v26h26v26h52v26h52v-26h-26v-26h-26v-26h-26v-104h26v-26zM40 260h26v-26h26v-26h26v-52h26v-26h26v-26h26v-26h26v-26h26v-26h285v-26
h-311v26h-26v26h-52v26h-26v26h-26v-26h-26v-78h-26v260z" />
    <glyph glyph-name="sacute" unicode="&#x15b;" horiz-adv-x="599" 
d="M534 337h-26v52h-26v52h-26v26h-26v26h-52v26h-181v-26h-26v-26h-26v-78h26v-26h26v-26h129v-26h104v-26h52v-26h52v-26h26v-156h-26v-26h-51v-26h-52v-26h-285v26h-52v26h-26v-52h-26v233h26v-78h26v-52h26v-26h26v-26h52v-26h207v26h26v26h26v78h-26v26h-26v26h-130v26
h-104v26h-52v26h-52v26h-26v156h26v26h52v26h52v26h258v-26h52v-26h26v52h26zM249 622h26v26h78v-26h-26v-26h-26v-26h-52v52z" />
    <glyph glyph-name="Scedilla" unicode="&#x15e;" 
d="M481 673h52v-26h26v-26h26v-26h26v26h26v78h26v-298h-26v65h-26v26h-26v52h-26v26h-26v26h-26v26h-26v26h-26v26h-259v26h285v-27zM275 -78v26h52v-26h78v52h-26v26h-156v26h-26v26h-52v26h-26v26h-26v-26h-26v-78h-26v259h26v-26h26v-26h26v-52h26v-26h26v-26h26v-26h26
v-26h26v-26h285v-26h-104v-26h26v-52h-26v-26h-130v26zM223 467v-26h52v-26h105v-26h104v-26h78v-26h52v-26h26v-26h26v-26h26v-130h-26v-26h-26v-26h-26v-26h-52v-26h-52v26h26v26h26v26h26v104h-26v26h-52v26h-52v26h-105v26h-104v26h-78v21h-52v26h-26v26h-26v26h-26v134
h26v26h26v26h26v26h52v26h52v-26h-26v-26h-26v-26h-26v-104h26v-26z" />
    <glyph glyph-name="scedilla" unicode="&#x15f;" horiz-adv-x="599" 
d="M535 337h-26v52h-26v52h-26v26h-26v26h-52v26h-181v-26h-26v-26h-26v-78h26v-26h26v-26h129v-26h104v-26h52v-26h52v-26h26v-156h-26v-26h-51v-26h-52v-26h-65v-26h26v-52h-26v-26h-130v26h-26v26h52v-26h78v52h-26v26h-169v26h-52v26h-26v-52h-26v233h26v-78h26v-52h26
v-26h26v-26h52v-26h207v26h26v26h26v78h-26v26h-26v26h-130v26h-104v26h-52v26h-52v26h-26v156h26v26h52v26h52v26h258v-26h52v-26h26v52h26z" />
    <glyph glyph-name="Scaron" unicode="&#x160;" 
d="M481 673h52v-26h26v-26h26v-26h26v26h26v78h26v-298h-26v65h-26v26h-26v52h-26v26h-26v26h-26v26h-26v26h-26v26h-259v26h285v-27zM403 725h-78v26h-26v26h-26v26h52v-26h26v-26h26v26h26v26h52v-26h-26v-26h-26v-26zM222 467v-26h52v-26h105v-26h104v-26h78v-26h52v-26
h26v-26h26v-26h26v-130h-26v-26h-26v-26h-26v-26h-52v-26h-52v26h26v26h26v26h26v104h-26v26h-52v26h-52v26h-105v26h-104v26h-78v21h-52v26h-26v26h-26v26h-26v134h26v26h26v26h26v26h52v26h52v-26h-26v-26h-26v-26h-26v-104h26v-26zM41 260h26v-26h26v-26h26v-52h26v-26
h26v-26h26v-26h26v-26h26v-26h285v-26h-311v26h-26v26h-52v26h-26v26h-26v-26h-26v-78h-26v260z" />
    <glyph glyph-name="scaron" unicode="&#x161;" horiz-adv-x="599" 
d="M534 494v-156h-26v52h-26v52h-26v26h-26v26h-52v26h-181v-26h-26v-26h-26v-78h26v-26h26v-26h129v-26h104v-26h52v-26h52v-26h26v-156h-26v-26h-51v-26h-52v-26h-285v26h-52v26h-26v-52h-26v233h26v-78h26v-52h26v-26h26v-26h52v-26h207v26h26v26h26v78h-26v26h-26v26
h-130v26h-104v26h-52v26h-52v26h-26v156h26v26h52v26h52v26h258v-26h52v-26h26v52h26v-52zM262 572v26h-26v26h-26v26h52v-26h26v-26h26v26h26v26h52v-26h-26v-26h-26v-26h-78z" />
    <glyph glyph-name="Umacron" unicode="&#x16a;" horiz-adv-x="832" 
d="M303 0h-26v26h-78v26h-26v26h-26v52h-26v519h-26v26h-52v26h258v-26h-52v-26h-26v-544h26v-26h26v-26h52v-26h181v26h52v26h26v26h26v544h-26v26h-52v26h258v-26h-52v-26h-26v-519h-26v-52h-26v-26h-26v-26h-78v-26h-259h4zM327 778h185v-52h-185v52z" />
    <glyph glyph-name="umacron" unicode="&#x16b;" 
d="M561 26v26h-26v-26h-78v-26h-181v26h-78v26h-26v26h-26v52h-26v363h-26v26h-52v26h258v-26h-52v-26h-26v-389h26v-26h26v-26h52v-26h78v26h52v26h26v26h26v389h-26v26h-52v26h258v-26h-52v-26h-26v-441h26v-26h52v-26h-104v26h-23zM274 622h185v-52h-185v52z" />
    <glyph glyph-name="Uring" unicode="&#x16e;" horiz-adv-x="832" 
d="M303 0h-26v26h-78v26h-26v26h-26v52h-26v519h-26v26h-52v26h258v-26h-52v-26h-26v-544h26v-26h26v-26h52v-26h181v26h52v26h26v26h26v544h-26v26h-52v26h258v-26h-52v-26h-26v-519h-26v-52h-26v-26h-26v-26h-78v-26h-259h4zM329 804h26v26h25v26h78v-26h26v-26h26v-78
h-26v-26h-26v-26h-78v26h-25v26h-26v78zM355 752h26v-26h26v-26h26v26h26v26h26v26h-26v26h-26v26h-26v-26h-26v-26h-26v-26z" />
    <glyph glyph-name="uring" unicode="&#x16f;" 
d="M561 26v26h-26v-26h-78v-26h-181v26h-78v26h-26v26h-26v52h-26v363h-26v26h-52v26h258v-26h-52v-26h-26v-389h26v-26h26v-26h52v-26h78v26h52v26h26v26h26v389h-26v26h-52v26h258v-26h-52v-26h-26v-441h26v-26h52v-26h-104v26h-23zM276 648h26v26h25v26h78v-26h26v-26h26
v-78h-26v-26h-26v-26h-78v26h-25v26h-26v78zM302 596h26v-26h26v-26h26v26h26v26h26v26h-26v26h-26v26h-26v-26h-26v-26h-26v-26z" />
    <glyph glyph-name="Uhungarumlaut" unicode="&#x170;" horiz-adv-x="832" 
d="M303 0h-26v26h-78v26h-26v26h-26v52h-26v519h-26v26h-52v26h258v-26h-52v-26h-26v-544h26v-26h26v-26h52v-26h181v26h52v26h26v26h26v544h-26v26h-52v26h258v-26h-52v-26h-26v-519h-26v-52h-26v-26h-26v-26h-78v-26h-259h4zM303 778h26v26h78v-26h-26v-26h-26v-26h-52v52
zM433 778h26v26h78v-26h-26v-26h-26v-26h-52v52z" />
    <glyph glyph-name="uhungarumlaut" unicode="&#x171;" 
d="M561 26v26h-26v-26h-78v-26h-181v26h-78v26h-26v26h-26v52h-26v363h-26v26h-52v26h258v-26h-52v-26h-26v-389h26v-26h26v-26h52v-26h78v26h52v26h26v26h26v389h-26v26h-52v26h258v-26h-52v-26h-26v-441h26v-26h52v-26h-104v26h-23zM250 622h26v26h78v-26h-26v-26h-26v-26
h-52v52zM380 622h26v26h78v-26h-26v-26h-26v-26h-52v52z" />
    <glyph glyph-name="Uogonek" unicode="&#x172;" horiz-adv-x="832" 
d="M304 0h-26v26h-78v26h-26v26h-26v52h-26v519h-26v26h-52v26h258v-26h-52v-26h-26v-544h26v-26h26v-26h52v-26h181v26h52v26h26v26h26v544h-26v26h-52v26h258v-26h-52v-26h-26v-519h-26v-52h-26v-26h-26v-26h-78v-26h-156v-26h-26v-52h78v26h52v-26h-26v-26h-130v26h-26
v52h26v26h-52h5z" />
    <glyph glyph-name="uogonek" unicode="&#x173;" 
d="M587 0v-26h-26v-52h78v26h52v-26h-26v-26h-130v26h-26v52h26v26h26v52h-26v-26h-78v-26h-181v26h-78v26h-26v26h-26v52h-26v363h-26v26h-52v26h258v-26h-52v-26h-26v-389h26v-26h26v-26h52v-26h78v26h52v26h26v26h26v389h-26v26h-52v26h258v-26h-52v-26h-26v-441h26v-26
h52v-26h-101z" />
    <glyph glyph-name="Ydieresis" unicode="&#x178;" horiz-adv-x="915" 
d="M588 26v-26h-259v26h52v26h26v181h-26v26h-26v52h-26v52h-26v26h-26v52h-26v26h-26v52h-26v26h-26v52h-26v26h-29v26h-26v26h-52v26h337v-26h-52v-26h-26v-26h-23v-26h26v-52h26v-26h26v-52h26v-26h26v-52h26v-26h26v-52h26v-52h26v52h26v52h26v26h26v52h26v26h26v52h26
v26h26v52h26v26h-23v26h-26v26h-52v26h259v-26h-52v-26h-26v-26h-29v-26h-26v-52h-26v-26h-26v-52h-26v-26h-26v-52h-26v-26h-26v-52h-26v-52h-26v-26h-26v-181h26v-26h53zM436 778v-52h-52v52h52zM481 778h52v-52h-52v52z" />
    <glyph glyph-name="Zacute" unicode="&#x179;" 
d="M688 674h-26v-26h-26v-26h-26v-52h-26v-26h-26v-26h-26v-52h-26v-26h-26v-26h-26v-52h-26v-26h-26v-26h-26v-52h-26v-26h-26v-26h-26v-52h-26v-26h-26v-26h-26v-52h-26v-26h337v26h52v52h52v52h26v52h26v-130h-26v-78h-622v26h26v26h26v52h26v26h26v26h26v52h26v26h26v26
h26v52h26v26h26v26h26v52h26v26h26v26h26v52h26v26h26v26h26v52h26v26h26v26h-311v-26h-52v-52h-52v-52h-26v-52h-26v130h26v78h596v-26zM312 778h26v26h78v-26h-26v-26h-26v-26h-52v52z" />
    <glyph glyph-name="zacute" unicode="&#x17a;" horiz-adv-x="642" 
d="M558 493h-26v-26h-26v-26h-26v-52h-26v-26h-26v-26h-26v-52h-26v-26h-26v-26h-26v-52h-26v-26h-26v-26h-26v-26h-26v-52h-26v-26h250v26h52v52h52v52h26v52h26v-130h-26v-78h-536v26h26v26h26v52h26v26h26v26h26v52h26v26h26v26h26v26h26v52h26v26h26v26h26v52h26v26h26
v26h26v26h-216v-26h-52v-52h-52v-52h-26v-52h-26v130h26v78h493v-26h-17v-26zM268 623h26v26h78v-26h-26v-26h-26v-26h-52v52z" />
    <glyph glyph-name="Zdot" unicode="&#x17b;" 
d="M688 674h-26v-26h-26v-26h-26v-52h-26v-26h-26v-26h-26v-52h-26v-26h-26v-26h-26v-52h-26v-26h-26v-26h-26v-52h-26v-26h-26v-26h-26v-52h-26v-26h-26v-26h-26v-52h-26v-26h337v26h52v52h52v52h26v52h26v-130h-26v-78h-622v26h26v26h26v52h26v26h26v26h26v52h26v26h26v26
h26v52h26v26h26v26h26v52h26v26h26v26h26v52h26v26h26v26h26v52h26v26h26v26h-311v-26h-52v-52h-52v-52h-26v-52h-26v130h26v78h596v-26zM338 778h52v-52h-52v52z" />
    <glyph glyph-name="zdot" unicode="&#x17c;" horiz-adv-x="642" 
d="M558 493h-26v-26h-26v-26h-26v-52h-26v-26h-26v-26h-26v-52h-26v-26h-26v-26h-26v-52h-26v-26h-26v-26h-26v-26h-26v-52h-26v-26h250v26h52v52h52v52h26v52h26v-130h-26v-78h-536v26h26v26h26v52h26v26h26v26h26v52h26v26h26v26h26v26h26v52h26v26h26v26h26v52h26v26h26
v26h26v26h-216v-26h-52v-52h-52v-52h-26v-52h-26v130h26v78h493v-26h-17v-26zM294 623h52v-52h-52v52z" />
    <glyph glyph-name="Zcaron" unicode="&#x17d;" 
d="M688 674h-26v-26h-26v-26h-26v-52h-26v-26h-26v-26h-26v-52h-26v-26h-26v-26h-26v-52h-26v-26h-26v-26h-26v-52h-26v-26h-26v-26h-26v-52h-26v-26h-26v-26h-26v-52h-26v-26h337v26h52v52h52v52h26v52h26v-130h-26v-78h-622v26h26v26h26v52h26v26h26v26h26v52h26v26h26v26
h26v52h26v26h26v26h26v52h26v26h26v26h26v52h26v26h26v26h26v52h26v26h26v26h-311v-26h-52v-52h-52v-52h-26v-52h-26v130h26v78h596v-26zM403 726h-78v26h-26v26h-26v26h52v-26h26v-26h26v26h26v26h52v-26h-26v-26h-26v-26z" />
    <glyph glyph-name="zcaron" unicode="&#x17e;" horiz-adv-x="642" 
d="M558 493h-26v-26h-26v-26h-26v-52h-26v-26h-26v-26h-26v-52h-26v-26h-26v-26h-26v-52h-26v-26h-26v-26h-26v-26h-26v-52h-26v-26h250v26h52v52h52v52h26v52h26v-130h-26v-78h-536v26h26v26h26v52h26v26h26v26h26v52h26v26h26v26h26v26h26v52h26v26h26v26h26v52h26v26h26
v26h26v26h-216v-26h-52v-52h-52v-52h-26v-52h-26v130h26v78h493v-26h-17v-26zM281 571v26h-26v26h-26v26h52v-26h26v-26h26v26h26v26h52v-26h-26v-26h-26v-26h-78z" />
    <glyph glyph-name="florin" unicode="&#x192;" horiz-adv-x="558" 
d="M520 749v-78h-78v52h-26v26h-58v-26h-26v-104h181v-26h-156v-26h-26v-648h-24v-26h-52v-26h-163v26h-52v78h78v-52h26v-26h58v26h26v674h-78v26h78v104h24v26h52v26h163v-26h53z" />
    <glyph glyph-name="circumflex" unicode="&#x2c6;" horiz-adv-x="339" 
d="M299 623v-26h-52v26h-26v26h-26v26h-52v-26h-26v-26h-26v-26h-52v26h26v26h26v26h26v26h104v-26h26v-26h26v-26h26z" />
    <glyph glyph-name="caron" unicode="&#x2c7;" horiz-adv-x="339" 
d="M299 700v-26h-26v-26h-26v-26h-26v-26h-104v26h-26v26h-26v26h-26v26h52v-26h26v-26h26v-26h52v26h26v26h26v26h52z" />
    <glyph glyph-name="breve" unicode="&#x2d8;" horiz-adv-x="339" 
d="M299 700v-52h-26v-26h-26v-26h-156v26h-26v26h-26v52h52v-52h52v-26h52v26h52v52h52z" />
    <glyph glyph-name="dotaccent" unicode="&#x2d9;" horiz-adv-x="184" 
d="M144 675v-52h-26v-26h-52v26h-26v52h26v26h52v-26h26z" />
    <glyph glyph-name="ogonek" unicode="&#x2db;" horiz-adv-x="261" 
d="M222 -51v-26h-26v-26h-130v26h-26v52h26v26h26v26h26v-52h-26v-52h78v26h52z" />
    <glyph glyph-name="ilde" unicode="&#x2dc;" horiz-adv-x="261" 
d="M66 623v26h78v-26h26v26h52v-26h-26v-26h-78v26h-26v-26h-52v26h26z" />
    <glyph glyph-name="Deltagreek" unicode="&#x394;" horiz-adv-x="987" 
d="M945 26v-26h-907v26h26v26h26v52h26v26h26v52h26v52h26v52h26v52h26v52h26v52h26v52h26v52h26v52h26v52h26v52h181v-52h26v-52h26v-52h26v-52h26v-52h26v-52h26v-52h26v-52h26v-52h26v-52h26v-52h26v-26h26v-52h26v-26h24zM765 52v26h-26v52h-26v52h-26v52h-26v52h-26v52
h-26v52h-26v52h-26v52h-26v52h-26v52h-26v-52h-26v-52h-26v-52h-26v-52h-26v-52h-26v-52h-26v-52h-26v-52h-26v-52h-26v-52h-26v-26h546zM791 26h-26v0h26v0z" />
    <glyph glyph-name="Pi" unicode="&#x3a0;" horiz-adv-x="650" 
d="M611 700v-700h-104v648h-363v-648h-104v104v596h571z" />
    <glyph glyph-name="Sigma" unicode="&#x3a3;" horiz-adv-x="702" 
d="M636 493v52h-26v52h-52v52h-52v26h-311v-26h26v-26h26v-52h26v-26h26v-26h26v-52h26v-26h26v-26h26v-52h26v-26h-26v-52h-26v-26h-26v-26h-26v-52h-26v-26h-26v-26h-26v-52h-26v-26h-26v-26h311v26h52v52h52v52h26v52h26v-130h-26v-78h-596v26h26v26h26v26h26v52h26v26
h26v26h26v52h26v26h26v26h26v52h26v26h-26v52h-26v26h-26v26h-26v52h-26v26h-26v26h-26v52h-26v26h-26v26h-26v26h596v-78h26v-130h-26z" />
    <glyph glyph-name="Omegagreek" unicode="&#x3a9;" horiz-adv-x="832" 
d="M557 26h78v26h52v52h52v52h26v52h26v-130h-26v-78h-311v78h52v26h26v26h26v26h26v26h26v52h26v52h26v52h26v104h-26v52h-26v52h-26v52h-26v26h-26v26h-26v26h-233v-26h-26v-26h-26v-26h-26v-52h-26v-52h-26v-52h-26v-104h26v-52h26v-52h26v-52h26v-26h26v-26h26v-26h26
v-26h52v-78h-311v78h-26v130h26v-52h26v-52h52v-52h52v-26h78v78h-52v26h-52v26h-26v26h-26v52h-26v52h-26v52h-26v104h26v52h26v52h26v52h26v26h26v26h52v26h52v26h285v-26h52v-26h52v-26h26v-26h26v-52h26v-52h26v-52h26v-104h-26v-52h-26v-52h-26v-52h-26v-26h-26v-26
h-52v-26h-52z" />
    <glyph glyph-name="mugreek" unicode="&#x3bc;" 
d="M431 546h258v-26h-52v-26h-26v-441h26v-52h-52v26h-26v26h-26v-26h-78v-26h-181v26h-52v-78h26v-26h52v-26h-259v26h52v26h26v544h-26v26h-52v26h258v-26h-52v-26h-26v-389h26v-26h26v-26h52v-26h78v26h52v26h26v26h26v389h-26v26h-52v26z" />
    <glyph glyph-name="pi" unicode="&#x3c0;" horiz-adv-x="650" 
d="M611 493h-78v-493h-104v493h-207v-493h-104v493h-78v52h570z" />
    <glyph glyph-name="endash" unicode="&#x2013;" horiz-adv-x="391" 
d="M352 379v-52h-312v52h312z" />
    <glyph glyph-name="emdash" unicode="&#x2014;" horiz-adv-x="476" 
d="M436 379v-52h-396v52h396z" />
    <glyph glyph-name="quoteleft" unicode="&#x2018;" horiz-adv-x="184" 
d="M92 674v26h26v-26h-26zM144 622v-52h-26v-26h-52v26h-26v78h26v26h26v-26h26v-26h26z" />
    <glyph glyph-name="quoteright" unicode="&#x2019;" horiz-adv-x="184" 
d="M66 544v26h26v-26h-26zM144 674v-78h-26v-26h-26v26h-26v26h-26v52h26v26h52v-26h26z" />
    <glyph glyph-name="quotesinglbase" unicode="&#x201a;" horiz-adv-x="132" 
d="M92 700v-78h-26v-26h-26v104h52z" />
    <glyph glyph-name="quoteleftreversed" unicode="&#x201b;" horiz-adv-x="132" 
d="M92 700v-104h-26v26h-26v78h52z" />
    <glyph glyph-name="quotedblleft" unicode="&#x201c;" horiz-adv-x="339" 
d="M118 622h26v-52h-26v-26h-52v26h-26v78h26v26h26v-26h26v-26zM92 674v26h26v-26h-26zM247 674v26h26v-26h-26zM299 622v-52h-26v-26h-52v26h-26v78h26v26h26v-26h26v-26h26z" />
    <glyph glyph-name="quotedblright" unicode="&#x201d;" horiz-adv-x="339" 
d="M66 544v26h26v-26h-26zM118 674h26v-78h-26v-26h-26v26h-26v26h-26v52h26v26h52v-26zM222 544v26h26v-26h-26zM300 674v-78h-26v-26h-26v26h-26v26h-26v52h26v26h52v-26h26z" />
    <glyph glyph-name="quotedblbase" unicode="&#x201e;" horiz-adv-x="339" 
d="M299 78v-78h-26v-26h-26v26h-26v26h-26v52h26v26h52v-26h26zM118 78h26v-78h-26v-26h-26v26h-26v26h-26v52h26v26h52v-26zM66 -52v26h26v-26h-26zM221 -52v26h26v-26h-26z" />
    <glyph glyph-name="dagger" unicode="&#x2020;" horiz-adv-x="417" 
d="M247 506h130v-78h-130v-558h-78v558h-130v78h130v298h78v-298z" />
    <glyph glyph-name="daggerdbl" unicode="&#x2021;" horiz-adv-x="417" 
d="M247 428v-181h130v-78h-130v-298h-78v298h-130v78h130v181h-130v78h130v298h78v-298h130v-78h-130z" />
    <glyph glyph-name="bullet" unicode="&#x2022;" horiz-adv-x="236" 
d="M170 359v-26h26v-52h-26v-26h-26v-26h-52v26h-26v26h-26v52h26v26h26v26h52v-26h26z" />
    <glyph glyph-name="perthousand" unicode="&#x2030;" horiz-adv-x="1091" 
d="M143 415v26h-52v26h-26v26h-26v130h26v26h26v26h52v26h104v-26h52v-26h26v-26h26v-130h-26v-26h-26v-26h-52v-26h-104zM169 467v-26h52v26h26v26h26v130h-26v26h-26v26h-52v-26h-26v-26h-26v-130h26v-26h26zM662 208h26v-130h-26v-26h-26v-26h-52v-26h-104v26h-52v26h-26
v26h-26v130h26v26h26v26h52v26h104v-26h52v-26h26v-26zM610 208h-26v26h-26v26h-52v-26h-26v-26h-26v-130h26v-26h26v-26h52v26h26v26h26v130zM1051 208v-130h-26v-26h-26v-26h-52v-26h-104v26h-52v26h-26v26h-26v130h26v26h26v26h52v26h104v-26h52v-26h26v-26h26zM973 208
h-26v26h-26v26h-52v-26h-26v-26h-26v-130h26v-26h26v-26h52v26h26v26h26v130zM390 325h-26v-52h-26v-52h-26v-52h-26v-52h-26v-52h-26v-65h-52v65h26v52h26v52h26v52h26v52h26v52h26v52h26v52h26v52h26v52h26v52h26v52h26v65h52v-65h-26v-52h-26v-52h-26v-52h-26v-52h-26
v-52h-26v-52z" />
    <glyph glyph-name="guilsinglleft" unicode="&#x2039;" horiz-adv-x="313" 
d="M144 311h26v-52h26v-52h26v-52h26v-52h26v-26h-78v26h-26v52h-26v52h-26v52h-26v52h-26v26h-26v26h26v26h26v52h26v52h26v52h26v52h26v26h78v-26h-26v-52h-26v-52h-26v-52h-26v-52h-26v-78z" />
    <glyph glyph-name="guilsinglright" unicode="&#x203a;" horiz-adv-x="313" 
d="M273 363v-26h-26v-26h-26v-52h-26v-52h-26v-52h-26v-52h-26v-26h-78v26h26v52h26v52h26v52h26v52h26v78h-26v52h-26v52h-26v52h-26v52h-26v26h78v-26h26v-52h26v-52h26v-52h26v-52h26v-26h26z" />
    <glyph glyph-name="fraction" unicode="&#x2044;" horiz-adv-x="443" 
d="M40 0v65h26v52h26v52h26v52h26v52h26v52h26v52h26v52h26v52h26v52h26v52h26v52h26v65h52v-65h-26v-52h-26v-52h-26v-52h-26v-52h-26v-52h-26v-52h-26v-52h-26v-52h-26v-52h-26v-52h-26v-52h-26v-65h-52z" />
    <glyph glyph-name="Euro" unicode="&#x20ac;" horiz-adv-x="702" 
d="M662 674v-78h-26v26h-26v26h-26v26h-207v-26h-26v-26h-26v-26h-26v-52h-26v-52h-26v-52h104v-52h-130v-78h130v-52h-130v0h26v-52h26v-52h26v-52h26v-26h26v-26h26v-26h207v26h26v26h26v26h26v-78h-52v-26h-259v26h-52v26h-52v26h-26v26h-26v52h-26v52h-26v52h-26v0h-78
v52h78v78h-78v52h104v52h26v52h26v52h26v26h26v26h52v26h52v26h259v-26h52z" />
    <glyph glyph-name="trademark" unicode="&#x2122;" horiz-adv-x="1013" 
d="M403 700v-104h-26v52h-39v26h-39v-26h-26v-87v-85v-87h26v-26h26v-26h-207v26h26v26h26v87v85v87h-26v26h-39v-26h-39v-52h-26v104h363zM918 648v-259h26v-26h26v-26h-207v26h26v26h26v130h-26v-52h-26v-52h-26v-52h-24v-26h-26v26h-27v52h-26v52h-26v52h-26v-130h26v-26
h26v-26h-207v26h26v26h26v259h-26v26h-26v26h130v-26h26v-52h26v-52h26v-52h26v-52h26v-52h26v52h26v52h26v52h26v52h26v52h26v26h130v-26h-26v-26h-29z" />
    <glyph glyph-name="partialdiff" unicode="&#x2202;" horiz-adv-x="780" 
d="M740 440v-181h-26v-65h-26v-39h-26v-52h-26v-26h-26v-26h-52v-26h-52v-26h-285v26h-52v26h-52v26h-26v26h-26v52h-26v156h26v52h26v26h26v26h52v26h52v26h285v-26h52v-26h52v-26h26v52h-26v52h-26v52h-26v52h-26v26h-26v26h-26v26h-117v-26h-26v-26h-26v-26h-104v26h26
v26h52v26h52v26h169v-26h52v-26h52v-26h26v-26h26v-52h26v-52h26v-52zM610 259h-26v52h-26v52h-26v26h-26v26h-26v26h-233v-26h-26v-26h-26v-26h-26v-52h-26v-156h26v-52h26v-26h26v-26h26v-26h233v26h26v26h26v26h26v52h26v52h26v52z" />
    <glyph glyph-name="minus" unicode="&#x2212;" horiz-adv-x="391" 
d="M352 379v-52h-312v52h312z" />
    <glyph glyph-name="radical" unicode="&#x221a;" horiz-adv-x="676" 
d="M637 700v-26h-26v-52h-26v-52h-26v-52h-26v-52h-26v-52h-26v-52h-26v-52h-26v-52h-26v-52h-26v-52h-26v-52h-26v-52h-26v-52h-130v52h-26v52h-26v52h-26v52h-26v52h-26v52h78v-52h26v-52h26v-52h26v-52h26v-52h26v52h26v52h26v52h26v52h26v52h26v52h26v52h26v52h26v52h26
v52h26v52h26v52h26v26h78z" />
    <glyph glyph-name="infinity" unicode="&#x221e;" horiz-adv-x="676" 
d="M636 441v-181h-26v-52h-26v-26h-52v-26h-78v26h-52v26h-26v52h-26v52h-26v-52h-26v-52h-26v-26h-52v-26h-78v26h-52v26h-26v52h-26v181h26v52h26v26h52v26h78v-26h52v-26h26v-52h26v-52h26v52h26v52h26v26h52v26h78v-26h52v-26h26v-52h26zM325 364h-26v26h-26v26h-26v26
h-130v-26h-26v-26h-26v-78h26v-26h26v-26h130v26h26v26h26v26h26v3v20v3zM610 390h-26v26h-26v26h-130v-26h-26v-26h-26v-26h-26v-26h26v-26h26v-26h26v-26h130v26h26v26h26v78z" />
    <glyph glyph-name="integral" unicode="&#x222b;" horiz-adv-x="495" 
d="M455 778v-78h-78v52h-26v26h-25v-26h-26v-804h-24v-26h-52v-26h-131v26h-52v78h78v-52h26v-26h25v26h26v804h24v26h52v26h131v-26h52z" />
    <glyph glyph-name="approxequal" unicode="&#x2248;" horiz-adv-x="339" 
d="M273 212h26v-52h-26v-26h-78v26h-52v26h-78v-26h-26v52h26v26h78v-26h52v-26h78v26zM299 342v-52h-26v-26h-78v26h-52v26h-78v-26h-26v52h26v26h78v-26h52v-26h78v26h26z" />
    <glyph glyph-name="notequal" unicode="&#x2260;" horiz-adv-x="443" 
d="M325 467v-26h57v-52h-109v-26h-26v-26h-26v-26h160v-52h-212v-26h-26v-26h-26v-26h-26v-26h-52v26h26v26h26v26h26v26h-47v52h99v26h26v26h26v26h-151v52h203v26h26v26h26v26h26v26h52v-26h-26v-26h-26v-26h-26z" />
    <glyph glyph-name="lessequal" unicode="&#x2264;" horiz-adv-x="391" 
d="M40 221h312v-52h-312v52zM351 532v-52h-52v-26h-52v-26h-52v-26h-52v-26h52v-26h52v-26h52v-26h52v-52h-52v26h-52v26h-52v26h-52v26h-52v26h-52v26h52v26h52v26h52v26h52v26h52v26h52z" />
    <glyph glyph-name="greaterequal" unicode="&#x2265;" horiz-adv-x="391" 
d="M40 221h312v-52h-312v52zM351 402v-26h-52v-26h-52v-26h-52v-26h-52v-26h-52v-26h-52v52h52v26h52v26h52v26h52v26h-52v26h-52v26h-52v26h-52v52h52v-26h52v-26h52v-26h52v-26h52v-26h52z" />
    <glyph glyph-name="lozenge" unicode="&#x25ca;" horiz-adv-x="573" 
d="M533 363v-26h-26v-26h-26v-52h-26v-52h-26v-52h-26v-52h-26v-52h-26v-52h-130v52h-26v52h-26v52h-26v52h-26v52h-26v52h-26v26h-26v26h26v26h26v52h26v52h26v52h26v52h26v52h26v52h130v-52h26v-52h26v-52h26v-52h26v-52h26v-52h26v-26h26zM429 389h-26v52h-26v52h-26v52
h-26v52h-26v52h-26v-52h-26v-52h-26v-52h-26v-52h-26v-52h-26v-78h26v-52h26v-52h26v-52h26v-52h26v-52h26v52h26v52h26v52h26v52h26v52h26v78z" />
    <glyph glyph-name="A.alt1" unicode="&#xf000;" horiz-adv-x="961" 
d="M481 182v-26h-26v-52h-26v52h-26v26h-52v26h52v26h26v52h26v-52h26v-26h52v-26h-52zM324 675v26h207v-52h26v-52h26v-52h26v-52h26v-52h26v-52h26v-52h26v-52h26v-52h26v-52h26v-52h26v-52h26v-26h26v-26h52v-26h-337v26h52v26h26v26h26v52h-26v52h-26v52h-26v52h-26v52
h-26v52h-26v52h-26v52h-26v52h-26v52h-26v-52h-26v-52h-26v-52h-26v-52h-26v-52h-26v-52h-26v-52h-26v-52h-26v-52h-26v-52h26v-26h26v-26h52v-26h-259v26h52v26h26v26h26v52h26v52h26v52h26v52h26v52h26v52h26v52h26v52h26v52h26v52h26v52h-26v26h-53z" />
    <glyph glyph-name="H.alt1" unicode="&#xf002;" horiz-adv-x="832" 
d="M665 0h-130v26h52v26h26v259h-26v26h-130v-26h-26v-52h-26v52h-26v26h-130v-26h-26v-259h26v-26h52v-26h-259v26h52v26h26v596h-26v26h-52v26h258v-26h-52v-26h-26v-285h156v26h26v52h26v-52h26v-26h156v285h-26v26h-52v26h258v-26h-52v-26h-26v-596h26v-26h52v-26h-130
h3z" />
    <glyph glyph-name="K.alt1" unicode="&#xf004;" horiz-adv-x="718" 
d="M248 256v-26h-26v-181h26v-26h52v-26h-259v26h52v26h26v596h-26v26h-52v26h259v-26h-52v-26h-26v-363h26v26h26v26h26v26h26v26h26v26h26v26h26v26h26v26h26v26h26v26h26v26h26v26h26v52h-26v26h-26v26h207v-26h-52v-26h-26v-26h-26v-26h-26v-26h-26v-26h-26v-26h-26v-26
h-26v-26h-26v-26h-26v-26h-26v-26h-26v-26h-26v-26h52v-26h52v-26h52v-26h26v-26h26v-52h26v-52h26v-57h26v-38h26v-52h26v-26h26v-38h26v-26h117v-26h-143v26h-52v38h-52v26h-26v26h-26v52h-26v38h-26v57h-26v52h-26v52h-26v26h-26v26h-26v26h-78v-26h-26v-26h-25z" />
    <glyph glyph-name="R.alt1" unicode="&#xf005;" horiz-adv-x="760" 
d="M273 279v-26h-26v26h-26v-230h26v-26h52v-26h-259v26h52v26h26v596h-26v26h-52v26h467v-26h52v-26h52v-26h26v-26h26v-52h26v-159h-26v-52h-26v-26h-26v-26h-52v-26h-52v-26h26v-26h26v-26h26v-52h26v-52h26v-52h26v-52h26v-26h26v-26h26v-26h117v-26h-143v26h-52v26h-52
v26h-26v26h-26v52h-26v52h-26v52h-26v52h-26v26h-26v26h-156v26h207v26h26v26h26v26h26v52h26v159h-26v52h-26v26h-26v26h-26v26h-233v-26h-26v-340h26v-26h26z" />
    <glyph glyph-name="O.alt1" unicode="&#xf007;" horiz-adv-x="832" 
d="M792 441v-181h-26v-52h-26v-52h-26v-52h-26v-26h-26v-26h-52v-26h-52v-26h-285v26h-52v26h-52v26h-26v26h-26v52h-26v52h-26v52h-26v181h26v52h26v52h26v52h26v26h26v26h52v26h52v26h285v-26h52v-26h52v-26h26v-26h26v-52h26v-52h26v-52h26zM688 441h-26v52h-26v52h-26
v52h-26v26h-26v26h-26v26h-233v-26h-26v-26h-26v-26h-26v-52h-26v-52h-26v-52h-26v-181h26v-52h26v-52h26v-52h26v-26h26v-26h26v-26h233v26h26v26h26v26h26v52h26v52h26v52h26v181zM455 363h52v-26h-52v-26h-26v-52h-26v52h-26v26h-52v26h52v26h26v52h26v-52h26v-26z" />
    <glyph glyph-name="a.alt1" unicode="&#xf008;" horiz-adv-x="676" 
d="M40 335h26v52h26v52h26v26h26v26h52v26h52v26h181v-26h26v-26h26v-26h26v26h26v26h52v26h26v-518h26v-26h-52v26h-52v26h-26v26h-26v-26h-26v-26h-26v-26h-181v26h-52v26h-52v26h-26v26h-26v52h-26v52h-26v128zM507 388h-26v52h-26v26h-26v26h-26v26h-130v-26h-26v-26
h-26v-26h-26v-52h-26v-52h-26v-130h26v-52h26v-52h26v-26h26v-26h26v-26h130v26h26v26h26v26h26v52h26v234z" />
    <glyph glyph-name="yi.dlig" unicode="&#xf009;" horiz-adv-x="1039" 
d="M897 698v-26h26v-52h-26v-26h-52v26h-26v26h-26h-26v-26h-52v-52h-26v-52h-26v-52h-26v-52h-26v-51h-26v-52h-26v-52h-26v-52h-26v-52h-26v-52h-26v-52h-26v-52h-26v-26h-26v-52h-26v-26h-26v-26h-26v-26h-130v26h-52v26h-26v78h26v26h52v-26h26v-52h26v-26h78v26h26v52
h26v26h-26v52h-26v52h-26v52h-26v52h-26v52h-26v52h-26v52h-26v52h-26v52h-26v26h-26v26h-26v26h285v-26h-52v-26h-52v-26h26v-52h26v-52h26v-52h26v-52h26v-52h26v-52h26v-52h26v52h26v52h26v52h26v52h26v52h26v52h26v45h26v59h26v52h26v52h26v26h26v26h26v26h78h26z
M923 50h26v-26h52v-26h-259v26h52v26h26v441h-26v26h-52v26h181v-130v-363z" />
    <glyph glyph-name="vi.dlig" unicode="&#xf00a;" horiz-adv-x="1039" 
d="M818 493h-26v26h-52v26h181v-493h26v-26h52v-26h-259v26h52v26h26v363v78zM431 51v-52h-105v52h-26v52h-26v52h-26v52h-26v52h-26v52h-26v52h-26v52h-26v52h-26v26h-26v26h-26v26h285v-26h-52v-26h-52v-26h26v-52h26v-52h26v-52h26v-52h26v-52h26v-52h26v-52h26v52h26v52
h26v52h26v52h26v52h26v52h25v52h27v52h26v52h26v52h26v26h26v26h26v26h78h26h52v-26h26v-52h-26v-26h-52v26h-26v26h-26h-26v-26h-52v-52h-26v-52h-26v-52h-26v-52h-26v-51h-26v-52h-26v-52h-26v-52h-26v-52h-26v-52h-26v-52z" />
    <glyph glyph-name="wi.dlig" unicode="&#xf00b;" horiz-adv-x="1378" 
d="M796 52h-26v-52h-105v52h-26v52h-26v52h-26v52h-26v52h-27v-52h-26v-52h-26v-52h-26v-52h-26v-52h-105v52h-26v52h-26v52h-26v52h-26v52h-26v52h-26v52h-26v52h-26v52h-26v26h-26v26h-26v26h285v-26h-52v-26h-52v-26h26v-52h26v-52h26v-52h26v-52h26v-52h26v-52h26v-52
h26v52h26v52h26v52h26v52h26v52h26v52h26v52h-25v26h-26v26h-51v26h259v-26h-52v-26h-26v-26h-26v-52h-26v-52h26v-52h26v-52h26v-52h26v-52h26v-52h26v52h26v52h26v52h26v52h26v52h26v52h25v52h27v52h26v26v26h26v52h26v26h26v26h26v26h78h26h52v-26h26v-52h-26v-26h-52v26
h-26v26h-26h-26v-26h-52v-52h-26v-52h-26v-52h-26v-52h-26v-52h-26v-52h-26v-52h-26v-52h-26v-52h-26v-52h-26zM1263 52h26v-26h52v-26h-259v26h52v26h26v441h-26v26h-52v26h181v-130v-363z" />
    <glyph glyph-name="tt.dlig" unicode="&#xf00c;" horiz-adv-x="793" 
d="M570 52h26v-26h104v26h52v-26h-52v-26h-157v26h-52v26h-24v467h-220v-26h-26v-441h26v-26h104v26h52v-26h-52v-26h-157v26h-52v26h-24v467h-78v26h78v26h26v26h26v26h26v52h26v-130h246v26h26v26h26v26h26v52h26v-130h181v-26h-156v-26h-26z" />
    <glyph glyph-name="ct.dlig" unicode="&#xf00d;" horiz-adv-x="1078" 
d="M480 544v-26h52v-26h26v52h26v-207h-26v52h-26v52h-26v26h-26v26h-26v26h-181v-26h-26v-26h-26v-26h-26v-52h-26v-52h-26v-130h26v-52h26v-52h26v-26h26v-26h26v-26h181v26h26v26h26v26h26v52h26v52h26v-156h-52v-26h-52v-26h-233v26h-52v26h-52v26h-26v26h-26v52h-26v52
h-26v130h26v52h26v52h26v26h26v26h52v26h52v26h130v26h-26v52h26v26h52v26h428v-130h181v-26h-156v-26h-26v-441h26v-26h104v-26h-157v26h-52v26h-24v467h-78v26h78v26h26v26h26v26h26v26h-376v-26h-26v-52h26v-26z" />
    <glyph glyph-name="ny.dlig" unicode="&#xf00e;" horiz-adv-x="1402" 
d="M171 517v-26h26v26h78v26h181v-26h78v-26h26v-26h26v-52h26v-415h26v-52h26v-26h26v-26h26v-26h181v26h26v26h26v52h26v26h-26v52h-26v52h-26v52h-26v52h-26v52h-26v52h-26v52h-26v52h-26v52h-26v26h-26v26h-26v26h285v-26h-52v-26h-52v-26h26v-52h26v-52h26v-52h26v-52
h26v-52h26v-52h26v-52h26v52h26v52h26v52h26v52h26v52h26v52h26v52h-26v26h-26v26h-52v26h259v-26h-52v-26h-26v-26h-26v-52h-26v-51h-26v-52h-26v-52h-26v-52h-26v-52h-26v-52h-26v-52h-26v-52h-26v-26h-26v-52h-26v-26h-26v-26h-26v-26h-233v26h-52v26h-52v26h-26v26h-26
v52h-26v441h-26v26h-26v26h-52v26h-78v-26h-52v-26h-26v-26h-26v-389h26v-26h52v-26h-258v26h52v26h26v441h-26v26h-52v26h104v-26z" />
    <glyph glyph-name="CF.dlig" unicode="&#xf00f;" horiz-adv-x="1395" 
d="M662 232h26v-130h-26v-26h-26v-26h-52v-26h-52v-26h-285v26h-52v26h-52v26h-26v26h-26v52h-26v52h-26v285h26v52h26v52h26v26h26v26h52v26h52v26h285v-26h52v-26h26v-26h26v26h26v52h26v-259h-26v52h-26v26h-26v52h-26v26h-26v26h-26v26h-26v26h-233v-26h-26v-26h-26v-26
h-26v-52h-26v-52h-26v-285h26v-52h26v-52h26v-26h26v-26h26v-26h233v26h52v26h26v26h26v26h26v52h26v51zM1329 620h26v-130h-26v52h-26v52h-52v52h-52v26h-234v-26h-26v-285h129v26h26v26h26v52h26v-233h-26v52h-26v26h-26v26h-129v-285h26v-26h52v-26h-259v26h52v26h26v285
h-404v-26h-26v-52h-26v52h-26v26h-52v26h52v26h26v52h26v-52h26v-26h404v285h-26v26h-52v26h570z" />
    <glyph glyph-name="CE.dlig" unicode="&#xf010;" horiz-adv-x="1446" 
d="M662 232h26v-130h-26v-26h-26v-26h-52v-26h-52v-26h-285v26h-52v26h-52v26h-26v26h-26v52h-26v52h-26v285h26v52h26v52h26v26h26v26h52v26h52v26h285v-26h52v-26h26v-26h26v26h26v52h26v-259h-26v52h-26v26h-26v52h-26v26h-26v26h-26v26h-26v26h-233v-26h-26v-26h-26v-26
h-26v-52h-26v-52h-26v-285h26v-52h26v-52h26v-26h26v-26h26v-26h233v26h52v26h26v26h26v26h26v52h26v51zM1406 205v-130h-26v-78h-622v26h52v26h26v285h-404v-26h-26v-52h-26v52h-26v26h-52v26h52v26h26v52h26v-52h26v-26h404v285h-26v26h-52v26h596v-78h26v-130h-26v52h-26
v52h-52v52h-52v26h-259v-26h-26v-285h130v26h26v26h26v52h26v-233h-26v52h-26v26h-26v26h-130v-285h26v-26h285v26h52v52h52v52h26v52z" />
    <glyph glyph-name="LN.dlig" unicode="&#xf011;" horiz-adv-x="1202" 
d="M662 157v52h26v-130h-26v-78h-622v26h52v26h26v596h-26v26h-52v26h259v-26h-52v-26h-26v-597h26v-26h285v26h52v52h52v52zM1161 701v-26h-52v-26h-26v-648h-26v26h-26v26h-26v26h-26v26h-26v26h-26v26h-26v26h-26v26h-26v26h-26v26h-26v26h-26v26h-26v26h-26v26h-26v26
h-26v26h-26v26h-26v26h-26v26h-26v26h-26v26h-26v-313h26v-26h52v-26h-181v26h52v26h26v416h-26v26h-52v26h130v-26h26v-26h26v-26h26v-26h26v-26h26v-26h26v-26h26v-26h26v-26h26v-26h26v-26h26v-26h26v-26h26v-26h26v-26h26v-26h26v-26h26v-26h26v-26h26v-26h26v467h-26
v26h-52v26h181z" />
    <glyph glyph-name="LA.dlig" unicode="&#xf012;" horiz-adv-x="1143" 
d="M1102 26v-26h-337v26h52v26h26v26h26v52h-26v52h-26v52h-26v52h-26v52h-26v52h-26v52h-26v52h-26v52h-26v52h-26v-52h-26v-52h-26v-52h-26v-52h-26v-52h-26v-52h-26v-52h-26v-52h26v-26h26v-26h52v-26h-259v26h52v26h26v26h26v52h26v52h26v52h26v52h26v52h26v52h26v52h26
v52h26v52h-26v26h-52v26h207v-52h26v-52h26v-52h26v-52h26v-52h26v-52h26v-52h26v-52h26v-52h26v-52h26v-52h26v-52h26v-26h26v-26h51zM661 157v52h26v-130h-26v-78h-622v26h52v26h26v596h-26v26h-52v26h259v-26h-52v-26h-26v-597h26v-26h285v26h52v52h52v52z" />
    <glyph glyph-name="LU.dlig" unicode="&#xf013;" horiz-adv-x="1201" 
d="M907 700h258v-26h-52v-26h-26v-415h-26v-52h-26v-26h-26v-26h-78v-26h-285v26h-78v26h-26v26h-26v52h-26v415h-26v26h-52v26h258v-26h-52v-26h-26v-441h26v-26h26v-26h51v-26h181v26h52v26h26v26h26v441h-26v26h-52v26h5zM1140 209h26v-130h-26v-78h-1096v26h52v26h26
v596h-26v26h-52v26h259v-26h-52v-26h-26v-597h26v-26h759v26h52v52h52v52h26v53z" />
    <glyph glyph-name="LO.dlig" unicode="&#xf014;" horiz-adv-x="1114" 
d="M374 307h-26v191h26v52h26v52h26v26h26v26h52v26h52v26h285v-26h52v-26h52v-26h26v-26h26v-52h26v-52h26v-191h-26v-52h-26v-52h-26v-26h-26v-26h-52v-26h-52v-26h-285v26h-52v26h-52v26h-26v26h-26v52h-26v52zM451 307h26v-52h26v-52h26v-26h26v-26h26v-26h234v26h26v26
h26v26h26v52h26v52h26v191h-26v52h-26v52h-26v26h-26v26h-26v26h-233v-26h-26v-26h-26v-26h-26v-52h-26v-52h-26zM1073 209v-130h-26v-78h-1008v26h52v26h26v596h-26v26h-52v26h259v-26h-52v-26h-26v-597h26v-26h671v26h52v52h52v52h26v52z" />
    <glyph glyph-name="Q.alt1" unicode="&#xf016;" horiz-adv-x="832" 
d="M509 0v-26h130v-26h181v-26h285v26h207v26h104v-26h-78v-26h-52v-26h-78v-26h-104v-26h-285v26h-156v26h-78v26h-130v26h-130v-26h-78v26h52v26h26v26h-52v26h-52v26h-52v26h-26v26h-26v52h-26v52h-26v52h-26v181h26v52h26v52h26v52h26v26h26v26h52v26h52v26h285v-26h52
v-26h52v-26h26v-26h26v-52h26v-52h26v-52h26v-181h-26v-52h-26v-52h-26v-52h-26v-26h-26v-26h-52v-26h-52v-26h-49zM302 674v-26h-26v-26h-26v-26h-26v-52h-26v-52h-26v-52h-26v-181h26v-52h26v-52h26v-52h26v-26h26v-26h26v-26h233v26h26v26h26v26h26v52h26v52h26v52h26
v181h-26v52h-26v52h-26v52h-26v26h-26v26h-26v26h-233z" />
    <glyph glyph-name="L.alt1" unicode="&#xf017;" horiz-adv-x="362" 
d="M147 0v648h-26v26h-52v26h259v-26h-52v-26h-26v-648h52v-26h130v-26h181v-26h285v26h207v26h104v-26h-78v-26h-52v-26h-78v-26h-104v-26h-285v26h-156v26h-78v26h-130v26h-130v-26h-78v26h52v26h26v26h29z" />
    <glyph glyph-name="g.alt1" unicode="&#xf018;" horiz-adv-x="677" 
d="M507 50v26h-26v-26h-26v-26h-26v-26h-181v26h-52v26h-52v26h-26v26h-26v52h-26v52h-26v130h26v52h26v52h26v26h26v26h52v26h52v26h181v-26h26v-26h26v-26h26v26h26v26h52v26h52v-52h-26v-493h-26v-52h-26v-26h-26v-26h-52v-26h-52v-26h-259v26h-52v26h-26v104h26v-52h26
v-26h26v-26h26v-26h207v26h26v26h26v26h26v52h26v52v-1zM507 388h-26v52h-26v26h-26v26h-26v26h-130v-26h-26v-26h-26v-26h-26v-52h-26v-52h-26v-130h26v-52h26v-52h26v-26h26v-26h26v-26h130v26h26v26h26v26h26v52h26v234z" />
    <glyph glyph-name="gi.dlig" unicode="&#xf019;" horiz-adv-x="988" 
d="M429 78v26h26v26h26v26h26v52h26v52h26v78h-26v52h-26v52h-26v26h-26v26h-26v26h-156v-26h-26v-26h-26v-26h-26v-52h-26v-52h-26v-78h26v-52h26v-52h26v-26h26v-26h26v-26h156zM636 596h-26v-26h-26v-26h-26v-26h-26v-26h28v-26h24v-26h26v-52h26v-52h26v-78h-26v-52h-26
v-52h-26v-26h-26v-26h-52v-26h-52v-26h-232v-26h-52v-26h-26v-78h26v-26h26v-26h78v26h26v26h26v26h26v26h26v26h156v-26h26v-26h26v-26h26v-26h26v-26h26v-26h-157v26h-26v26h-26v26h-28v26h-50v-26h-19v-26h-26v-26h-26v-26h-186v26h-52v26h-26v104h26v26h52v26h52v26h24
v26h-52v26h-26v26h-26v52h-26v52h-26v78h26v52h26v52h26v26h26v26h52v26h52v26h207v-26h52v26h26v26h26v26h26v26h26v26h26v26h51v26h156v-26h26v-52h-26v-26h-52v26h-26v26h-104v-26h-26v-26zM868 415v-363h26v-26h52v-26h-258v26h52v26h26v441h-26v26h-52v26h181v-130h-1z
" />
    <glyph glyph-name="ff.dlig" unicode="&#xfb00;" horiz-adv-x="799" 
d="M41 0v26h52v26h26v467h-78v26h78v104h24v26h52v26h163v-26h52v-78h-26v26h-26v26h-26v26h-84v-26h-26v-104h246v104h24v26h52v26h163v-26h52v-78h-26v26h-26v26h-26v26h-84v-26h-26v-104h181v-26h-156v-26h-26v-441h26v-26h52v-26h-259v26h52v26h26v467h-220v-26h-26
v-441h26v-26h52v-26h-258z" />
    <glyph glyph-name="fi.dlig" unicode="&#xfb01;" horiz-adv-x="754" 
d="M611 700v-26h26v-52h-26v-26h-52v26h-26v26h-26v26h-259v-26h-26v-104h181v-26h-156v-26h-26v-441h26v-26h52v-26h-259v26h52v26h26v467h-78v26h78v104h24v26h52v26h339h26h52zM637 415v-363h26v-26h52v-26h-259v26h52v26h26v441h-26v26h-52v26h181v-130z" />
    <glyph glyph-name="st.dlig" unicode="&#xfb06;" horiz-adv-x="1026" 
d="M402 648v-26h-26v-52h26v-26h26v-26h52v-26h26v52h26v-207h-26v52h-26v52h-26v26h-26v26h-52v26h-181v-26h-26v-26h-26v-78h26v-26h26v-26h129v-26h104v-26h52v-26h52v-26h26v-156h-26v-26h-51v-26h-52v-26h-285v26h-52v26h-26v-52h-26v233h26v-78h26v-52h26v-26h26v-26
h52v-26h207v26h26v26h26v78h-26v26h-26v26h-130v26h-104v26h-52v26h-52v26h-26v156h26v26h52v26h52v26h156v26h-26v52h26v26h52v26h428v-130h181v-26h-156v-26h-26v-441h26v-26h104v26h52v-26h-52v-26h-157v26h-52v26h-24v467h-78v26h78v26h26v26h26v26h26v26h-377z" />
    <glyph glyph-name="controlCR" horiz-adv-x="0" 
 />
    </font>
</defs>
</svg>
